G04 (created by PCBNEW (2013-mar-13)-testing) date Tue 18 Jun 2013 16:13:31 JST*
%MOIN*%
G04 Gerber Fmt 3.4, Leading zero omitted, Abs format*
%FSLAX34Y34*%
G01*
G70*
G90*
G04 APERTURE LIST*
%ADD10C,0.005906*%
%ADD11R,0.060000X0.060000*%
%ADD12C,0.060000*%
%ADD13C,0.062992*%
%ADD14C,0.078740*%
%ADD15O,0.047244X0.066929*%
%ADD16R,0.047244X0.047244*%
%ADD17C,0.047244*%
G04 APERTURE END LIST*
G54D10*
G54D11*
X11352Y-6821D03*
G54D12*
X11352Y-7821D03*
X10352Y-6821D03*
X10352Y-7821D03*
X9352Y-6821D03*
X9352Y-7821D03*
G54D13*
X6417Y-1968D03*
X8385Y-1968D03*
G54D14*
X6023Y-2952D03*
X8779Y-2972D03*
G54D15*
X3937Y-11791D03*
X4527Y-11791D03*
X5118Y-11791D03*
X5708Y-11791D03*
X6299Y-11791D03*
X6889Y-11791D03*
X7480Y-11791D03*
X8070Y-11791D03*
X8661Y-11791D03*
X9251Y-11791D03*
X9842Y-11791D03*
X10433Y-11791D03*
X11023Y-11791D03*
G54D16*
X5118Y-10019D03*
X5905Y-10019D03*
X6692Y-10019D03*
X7480Y-10019D03*
X8267Y-10019D03*
X9055Y-10019D03*
X9842Y-10019D03*
X10629Y-10019D03*
X11417Y-10019D03*
X12204Y-10019D03*
X12992Y-10019D03*
X13779Y-10019D03*
X14566Y-10019D03*
X15354Y-10019D03*
X16141Y-10019D03*
G54D17*
X21397Y-4842D03*
X19468Y-4842D03*
G54D12*
X25502Y-4371D03*
G54D11*
X27502Y-4371D03*
G54D12*
X24502Y-4371D03*
X26502Y-4371D03*
X29602Y-5421D03*
X29602Y-6421D03*
X29602Y-8421D03*
X29602Y-7421D03*
X29602Y-9421D03*
X11902Y-3521D03*
X10902Y-3521D03*
X9902Y-3521D03*
X29602Y-11421D03*
X29602Y-10421D03*
X51590Y-13263D03*
X50590Y-13263D03*
X49590Y-13263D03*
X48590Y-13263D03*
G54D15*
X31588Y-5001D03*
X32376Y-5001D03*
G54D12*
X43696Y-8070D03*
X43696Y-9070D03*
X43696Y-11070D03*
X43696Y-10070D03*
X43696Y-12070D03*
X2311Y-10629D03*
X1311Y-10629D03*
X34330Y-9448D03*
X36220Y-9448D03*
X28307Y-5448D03*
G54D17*
X36523Y-2440D03*
X35523Y-2440D03*
X38870Y-2440D03*
X39870Y-2440D03*
X47523Y-1216D03*
X49523Y-1216D03*
X48523Y-1216D03*
X48523Y-2216D03*
X49523Y-2216D03*
X47523Y-2216D03*
M02*
