G04 (created by PCBNEW (2013-mar-13)-testing) date Tue 18 Jun 2013 16:13:31 JST*
%MOIN*%
G04 Gerber Fmt 3.4, Leading zero omitted, Abs format*
%FSLAX34Y34*%
G01*
G70*
G90*
G04 APERTURE LIST*
%ADD10C,0.005906*%
%ADD11R,0.060000X0.060000*%
%ADD12C,0.060000*%
%ADD13C,0.062992*%
%ADD14C,0.078740*%
%ADD15O,0.047244X0.066929*%
%ADD16R,0.047244X0.047244*%
%ADD17C,0.047244*%
%ADD18C,0.035000*%
%ADD19C,0.015000*%
%ADD20C,0.010000*%
%ADD21C,0.006000*%
G04 APERTURE END LIST*
G54D10*
G54D11*
X11352Y-6821D03*
G54D12*
X11352Y-7821D03*
X10352Y-6821D03*
X10352Y-7821D03*
X9352Y-6821D03*
X9352Y-7821D03*
G54D13*
X6417Y-1968D03*
X8385Y-1968D03*
G54D14*
X6023Y-2952D03*
X8779Y-2972D03*
G54D15*
X3937Y-11791D03*
X4527Y-11791D03*
X5118Y-11791D03*
X5708Y-11791D03*
X6299Y-11791D03*
X6889Y-11791D03*
X7480Y-11791D03*
X8070Y-11791D03*
X8661Y-11791D03*
X9251Y-11791D03*
X9842Y-11791D03*
X10433Y-11791D03*
X11023Y-11791D03*
G54D16*
X5118Y-10019D03*
X5905Y-10019D03*
X6692Y-10019D03*
X7480Y-10019D03*
X8267Y-10019D03*
X9055Y-10019D03*
X9842Y-10019D03*
X10629Y-10019D03*
X11417Y-10019D03*
X12204Y-10019D03*
X12992Y-10019D03*
X13779Y-10019D03*
X14566Y-10019D03*
X15354Y-10019D03*
X16141Y-10019D03*
G54D17*
X21397Y-4842D03*
X19468Y-4842D03*
G54D12*
X25502Y-4371D03*
G54D11*
X27502Y-4371D03*
G54D12*
X24502Y-4371D03*
X26502Y-4371D03*
X29602Y-5421D03*
X29602Y-6421D03*
X29602Y-8421D03*
X29602Y-7421D03*
X29602Y-9421D03*
X11902Y-3521D03*
X10902Y-3521D03*
X9902Y-3521D03*
X29602Y-11421D03*
X29602Y-10421D03*
X51590Y-13263D03*
X50590Y-13263D03*
X49590Y-13263D03*
X48590Y-13263D03*
G54D15*
X31588Y-5001D03*
X32376Y-5001D03*
G54D12*
X43696Y-8070D03*
X43696Y-9070D03*
X43696Y-11070D03*
X43696Y-10070D03*
X43696Y-12070D03*
X2311Y-10629D03*
X1311Y-10629D03*
X34330Y-9448D03*
X36220Y-9448D03*
X28307Y-5448D03*
G54D17*
X36523Y-2440D03*
X35523Y-2440D03*
X38870Y-2440D03*
X39870Y-2440D03*
X47523Y-1216D03*
X49523Y-1216D03*
X48523Y-1216D03*
X48523Y-2216D03*
X49523Y-2216D03*
X47523Y-2216D03*
G54D18*
X14133Y-7834D03*
X24574Y-8645D03*
X23043Y-8602D03*
X24574Y-8188D03*
X24574Y-7724D03*
X22657Y-9314D03*
X47362Y-11299D03*
X49724Y-7755D03*
X51496Y-11141D03*
X23102Y-6571D03*
X26338Y-12440D03*
X40826Y-13110D03*
X33110Y-7992D03*
X21252Y-12771D03*
X29055Y-13425D03*
X28976Y-12755D03*
X21902Y-12771D03*
X40767Y-8070D03*
X19552Y-6771D03*
X38464Y-10216D03*
X20002Y-6421D03*
X45000Y-7578D03*
X50974Y-7765D03*
X52677Y-11417D03*
X46496Y-11328D03*
X45000Y-11525D03*
X44350Y-6437D03*
X43228Y-7559D03*
X43818Y-6968D03*
X49724Y-5984D03*
X48740Y-5984D03*
X47755Y-5984D03*
X46771Y-5984D03*
X45787Y-5984D03*
X44803Y-5984D03*
X50393Y-5679D03*
X51397Y-5472D03*
X52460Y-5738D03*
X52057Y-13740D03*
X53720Y-9232D03*
X52874Y-9222D03*
X52490Y-7588D03*
X52480Y-8582D03*
X40836Y-10482D03*
X41545Y-8582D03*
X37244Y-9458D03*
X44104Y-13740D03*
X45049Y-13740D03*
X43188Y-13671D03*
X45954Y-13740D03*
X48041Y-13740D03*
X46889Y-13740D03*
X50088Y-13740D03*
X51092Y-13740D03*
X49084Y-13740D03*
X1279Y-8085D03*
X2086Y-4015D03*
X5649Y-7342D03*
X14271Y-6594D03*
X19015Y-7244D03*
X21082Y-7971D03*
X21653Y-11007D03*
X14783Y-12795D03*
X29566Y-511D03*
X37696Y-708D03*
X42775Y-1732D03*
X34862Y-511D03*
X46496Y-1732D03*
X46102Y-4330D03*
X50669Y-4330D03*
X43188Y-12539D03*
X43188Y-11555D03*
X43188Y-9527D03*
X43208Y-10531D03*
X41338Y-5708D03*
X32913Y-12145D03*
X38720Y-13149D03*
X21102Y-2795D03*
X15374Y-4468D03*
X629Y-13582D03*
X43188Y-8562D03*
X55275Y-9173D03*
X55275Y-10157D03*
X55275Y-11141D03*
X55275Y-12125D03*
X55275Y-13110D03*
X54842Y-13740D03*
X53858Y-13740D03*
X52874Y-13740D03*
X6311Y-9216D03*
X12204Y-8559D03*
X8145Y-8940D03*
X2826Y-12807D03*
X25708Y-12578D03*
X23779Y-12677D03*
X24527Y-9763D03*
X33070Y-3070D03*
X31594Y-7165D03*
X27502Y-7821D03*
X23149Y-9842D03*
G54D19*
X15354Y-10019D02*
X15354Y-9055D01*
X15354Y-9055D02*
X14133Y-7834D01*
G54D20*
X21657Y-8944D02*
X19118Y-11484D01*
X15051Y-11484D02*
X19118Y-11484D01*
X14980Y-11484D02*
X13303Y-13161D01*
X13303Y-13161D02*
X7177Y-13161D01*
X7177Y-13161D02*
X6299Y-12283D01*
X6299Y-12283D02*
X6299Y-11791D01*
X15051Y-11484D02*
X14980Y-11484D01*
X24275Y-8944D02*
X21657Y-8944D01*
X24574Y-8645D02*
X24275Y-8944D01*
X10352Y-6821D02*
X10252Y-6821D01*
X9842Y-7231D02*
X9842Y-10019D01*
X10252Y-6821D02*
X9842Y-7231D01*
X14960Y-11267D02*
X14893Y-11267D01*
X6889Y-12314D02*
X6889Y-11791D01*
X7515Y-12940D02*
X6889Y-12314D01*
X13220Y-12940D02*
X7515Y-12940D01*
X14893Y-11267D02*
X13220Y-12940D01*
X14960Y-11267D02*
X19023Y-11267D01*
X21688Y-8602D02*
X19023Y-11267D01*
X21688Y-8602D02*
X23043Y-8602D01*
X23043Y-8602D02*
X21688Y-8602D01*
X9842Y-10341D02*
X9842Y-10019D01*
X6889Y-11791D02*
X6889Y-11361D01*
X6889Y-11361D02*
X6892Y-11361D01*
X6892Y-11361D02*
X7582Y-10671D01*
X7582Y-10671D02*
X9512Y-10671D01*
X9512Y-10671D02*
X9842Y-10341D01*
X10352Y-7821D02*
X10352Y-8821D01*
X10629Y-9098D02*
X10629Y-10019D01*
X10352Y-8821D02*
X10629Y-9098D01*
X13114Y-12712D02*
X7862Y-12712D01*
X24188Y-8263D02*
X24500Y-8263D01*
X21728Y-8263D02*
X18952Y-11039D01*
X24500Y-8263D02*
X24574Y-8188D01*
X14787Y-11039D02*
X18952Y-11039D01*
X24188Y-8263D02*
X21728Y-8263D01*
X13114Y-12712D02*
X14787Y-11039D01*
X7480Y-12330D02*
X7480Y-11791D01*
X7862Y-12712D02*
X7480Y-12330D01*
X11352Y-6821D02*
X11252Y-6821D01*
X11417Y-9186D02*
X11417Y-10019D01*
X10852Y-8621D02*
X11417Y-9186D01*
X10852Y-7221D02*
X10852Y-8621D01*
X11252Y-6821D02*
X10852Y-7221D01*
X8070Y-11791D02*
X8070Y-11185D01*
X11417Y-10413D02*
X11417Y-10019D01*
X10925Y-10905D02*
X11417Y-10413D01*
X8350Y-10905D02*
X10925Y-10905D01*
X8070Y-11185D02*
X8350Y-10905D01*
X8070Y-11791D02*
X8070Y-12271D01*
X13027Y-12476D02*
X14673Y-10830D01*
X8275Y-12476D02*
X13027Y-12476D01*
X8070Y-12271D02*
X8275Y-12476D01*
X14673Y-10830D02*
X18878Y-10830D01*
X24574Y-7725D02*
X24315Y-7984D01*
X24315Y-7984D02*
X21725Y-7984D01*
X21725Y-7984D02*
X18878Y-10830D01*
X24574Y-7724D02*
X24574Y-7725D01*
X12992Y-10381D02*
X12992Y-10019D01*
X12231Y-11141D02*
X12992Y-10381D01*
X9441Y-11141D02*
X12231Y-11141D01*
X9251Y-11331D02*
X9441Y-11141D01*
X9251Y-11791D02*
X9251Y-11331D01*
X5708Y-12303D02*
X5708Y-11791D01*
X6783Y-13377D02*
X5708Y-12303D01*
X13385Y-13377D02*
X6783Y-13377D01*
X15055Y-11708D02*
X13385Y-13377D01*
X19204Y-11708D02*
X15055Y-11708D01*
X21484Y-9429D02*
X19204Y-11708D01*
X22543Y-9429D02*
X21484Y-9429D01*
X22657Y-9314D02*
X22543Y-9429D01*
X8267Y-10335D02*
X8267Y-10019D01*
X8162Y-10441D02*
X8267Y-10335D01*
X6662Y-10441D02*
X8162Y-10441D01*
X5708Y-11394D02*
X6662Y-10441D01*
X5708Y-11791D02*
X5708Y-11394D01*
X44783Y-10984D02*
X43696Y-12070D01*
X47047Y-10984D02*
X44783Y-10984D01*
X47362Y-11299D02*
X47047Y-10984D01*
X49409Y-8070D02*
X43696Y-8070D01*
X49724Y-7755D02*
X49409Y-8070D01*
X49425Y-9070D02*
X43696Y-9070D01*
X51496Y-11141D02*
X49425Y-9070D01*
X16062Y-3621D02*
X22802Y-3621D01*
X16062Y-3621D02*
X14488Y-2047D01*
X23102Y-3921D02*
X22802Y-3621D01*
X23102Y-6571D02*
X23102Y-3921D01*
X8385Y-826D02*
X8700Y-511D01*
X8700Y-511D02*
X14055Y-511D01*
X14055Y-511D02*
X14488Y-944D01*
X14488Y-944D02*
X14488Y-2047D01*
X8385Y-826D02*
X8385Y-1968D01*
X40826Y-13110D02*
X40334Y-13602D01*
X40334Y-13602D02*
X31358Y-13602D01*
X31358Y-13602D02*
X30157Y-12401D01*
X26377Y-12401D02*
X30157Y-12401D01*
X26338Y-12440D02*
X26377Y-12401D01*
X38870Y-2440D02*
X38870Y-2842D01*
X33110Y-4685D02*
X33110Y-7992D01*
X34192Y-3602D02*
X33110Y-4685D01*
X38110Y-3602D02*
X34192Y-3602D01*
X38870Y-2842D02*
X38110Y-3602D01*
X21252Y-12771D02*
X21252Y-13094D01*
X21252Y-13094D02*
X21579Y-13421D01*
X21579Y-13421D02*
X29052Y-13421D01*
X29052Y-13422D02*
X29052Y-13421D01*
X29055Y-13425D02*
X29052Y-13422D01*
X22100Y-13169D02*
X28562Y-13169D01*
X28976Y-12755D02*
X28561Y-13171D01*
X21902Y-12771D02*
X21902Y-12971D01*
X21902Y-12971D02*
X22100Y-13169D01*
X19552Y-6771D02*
X19552Y-6195D01*
X19552Y-6195D02*
X19763Y-5984D01*
X20413Y-6220D02*
X20413Y-6673D01*
X20787Y-7047D02*
X21240Y-7047D01*
X20413Y-6673D02*
X20787Y-7047D01*
X40039Y-8799D02*
X40767Y-8070D01*
X31968Y-8799D02*
X40039Y-8799D01*
X30590Y-7421D02*
X31968Y-8799D01*
X29602Y-7421D02*
X30590Y-7421D01*
X29602Y-7421D02*
X29035Y-7421D01*
X21240Y-7047D02*
X28661Y-7047D01*
X29035Y-7421D02*
X28661Y-7047D01*
X19552Y-6771D02*
X19552Y-6771D01*
X20177Y-5984D02*
X20413Y-6220D01*
X19763Y-5984D02*
X20177Y-5984D01*
X19552Y-6771D02*
X19552Y-6771D01*
X29602Y-8421D02*
X30547Y-8421D01*
X32342Y-10216D02*
X38464Y-10216D01*
X30547Y-8421D02*
X32342Y-10216D01*
X29602Y-8421D02*
X29129Y-8421D01*
X20551Y-7322D02*
X20002Y-6774D01*
X28031Y-7322D02*
X20551Y-7322D01*
X20002Y-6774D02*
X20002Y-6421D01*
X29129Y-8421D02*
X28031Y-7322D01*
X29602Y-8421D02*
X29602Y-8421D01*
G54D21*
X44350Y-6437D02*
X43838Y-6968D01*
X43838Y-6968D02*
X43818Y-6968D01*
X43188Y-7598D02*
X43228Y-7559D01*
X43188Y-7598D02*
X43188Y-8562D01*
X48740Y-5984D02*
X47755Y-5984D01*
X46771Y-5984D02*
X45787Y-5984D01*
X50098Y-5984D02*
X49724Y-5984D01*
X50393Y-5679D02*
X50098Y-5984D01*
X52194Y-5472D02*
X51397Y-5472D01*
X52460Y-5738D02*
X52194Y-5472D01*
X52076Y-13730D02*
X52066Y-13730D01*
X52066Y-13730D02*
X52057Y-13740D01*
X53720Y-9232D02*
X53710Y-9222D01*
X53710Y-9222D02*
X52874Y-9222D01*
X52490Y-8572D02*
X52490Y-7588D01*
X52480Y-8582D02*
X52490Y-8572D01*
X39468Y-10226D02*
X40580Y-10226D01*
X40580Y-10226D02*
X40836Y-10482D01*
X38710Y-13149D02*
X38710Y-10984D01*
X39192Y-9458D02*
X37244Y-9458D01*
X39468Y-9734D02*
X39192Y-9458D01*
X39468Y-10226D02*
X39468Y-9734D01*
X38710Y-10984D02*
X39468Y-10226D01*
X44035Y-13671D02*
X43188Y-13671D01*
X44104Y-13740D02*
X44035Y-13671D01*
X45049Y-13740D02*
X45039Y-13750D01*
X49084Y-13740D02*
X48041Y-13740D01*
X46889Y-13740D02*
X45954Y-13740D01*
X50088Y-13740D02*
X51092Y-13740D01*
X45954Y-13740D02*
X45964Y-13730D01*
X1279Y-8085D02*
X1279Y-8090D01*
X21082Y-7971D02*
X21082Y-7972D01*
X21653Y-11007D02*
X21653Y-11003D01*
X37696Y-708D02*
X35059Y-708D01*
X42775Y-1181D02*
X42303Y-708D01*
X42303Y-708D02*
X37696Y-708D01*
X42775Y-1732D02*
X42775Y-1181D01*
X35059Y-708D02*
X34862Y-511D01*
X46496Y-1732D02*
X42775Y-1732D01*
X42775Y-1732D02*
X42775Y-4921D01*
X42775Y-6456D02*
X42775Y-4921D01*
X43366Y-4330D02*
X46102Y-4330D01*
X46102Y-4330D02*
X50669Y-4330D01*
X42775Y-4921D02*
X43366Y-4330D01*
X43188Y-11555D02*
X43188Y-10551D01*
X43188Y-9527D02*
X43188Y-8562D01*
X43188Y-10551D02*
X43208Y-10531D01*
X43188Y-13671D02*
X43188Y-12539D01*
X43188Y-12539D02*
X43188Y-11555D01*
X43696Y-10070D02*
X42964Y-10070D01*
X42027Y-5708D02*
X41338Y-5708D01*
X42775Y-6456D02*
X42027Y-5708D01*
X42775Y-9881D02*
X42775Y-6456D01*
X42964Y-10070D02*
X42775Y-9881D01*
X30188Y-9421D02*
X32913Y-12145D01*
X29602Y-9421D02*
X30188Y-9421D01*
X43188Y-13681D02*
X43188Y-13671D01*
X54842Y-13740D02*
X55118Y-13740D01*
X55275Y-9173D02*
X55275Y-10157D01*
X55275Y-11141D02*
X55275Y-12125D01*
X52874Y-13740D02*
X53858Y-13740D01*
X55275Y-13582D02*
X55275Y-13110D01*
X55118Y-13740D02*
X55275Y-13582D01*
G54D20*
X33070Y-3070D02*
X35393Y-3070D01*
X35393Y-3070D02*
X35523Y-2940D01*
X35523Y-2940D02*
X35523Y-2440D01*
G54D19*
X31588Y-5001D02*
X31588Y-7159D01*
X31588Y-7159D02*
X31594Y-7165D01*
X27502Y-7821D02*
X27502Y-11621D01*
X27502Y-11621D02*
X27194Y-11929D01*
X27194Y-11929D02*
X26968Y-11929D01*
X26968Y-11929D02*
X23897Y-11929D01*
X23897Y-11929D02*
X23149Y-11181D01*
X23149Y-11181D02*
X23149Y-9842D01*
G54D10*
G36*
X55513Y-13978D02*
X52065Y-13978D01*
X52065Y-13217D01*
X52047Y-13125D01*
X52011Y-13039D01*
X51960Y-12962D01*
X51894Y-12896D01*
X51846Y-12863D01*
X51846Y-11107D01*
X51832Y-11040D01*
X51806Y-10976D01*
X51768Y-10919D01*
X51720Y-10870D01*
X51663Y-10832D01*
X51600Y-10805D01*
X51532Y-10791D01*
X51464Y-10791D01*
X51464Y-10791D01*
X50074Y-9401D01*
X50074Y-7721D01*
X50061Y-7654D01*
X50034Y-7590D01*
X49996Y-7533D01*
X49948Y-7484D01*
X49891Y-7446D01*
X49828Y-7419D01*
X49761Y-7406D01*
X49692Y-7405D01*
X49625Y-7418D01*
X49561Y-7444D01*
X49504Y-7481D01*
X49454Y-7529D01*
X49416Y-7586D01*
X49389Y-7649D01*
X49374Y-7716D01*
X49373Y-7785D01*
X49374Y-7787D01*
X49316Y-7845D01*
X48934Y-7845D01*
X48934Y-2176D01*
X48919Y-2097D01*
X48888Y-2022D01*
X48843Y-1955D01*
X48787Y-1898D01*
X48720Y-1853D01*
X48645Y-1821D01*
X48566Y-1805D01*
X48486Y-1805D01*
X48406Y-1820D01*
X48332Y-1850D01*
X48264Y-1894D01*
X48207Y-1950D01*
X48161Y-2017D01*
X48129Y-2091D01*
X48112Y-2170D01*
X48111Y-2251D01*
X48126Y-2330D01*
X48156Y-2405D01*
X48199Y-2473D01*
X48255Y-2531D01*
X48322Y-2577D01*
X48395Y-2609D01*
X48474Y-2626D01*
X48555Y-2628D01*
X48634Y-2614D01*
X48709Y-2585D01*
X48778Y-2542D01*
X48836Y-2486D01*
X48882Y-2420D01*
X48915Y-2346D01*
X48933Y-2268D01*
X48934Y-2176D01*
X48934Y-7845D01*
X47934Y-7845D01*
X47934Y-2176D01*
X47934Y-1176D01*
X47919Y-1097D01*
X47888Y-1022D01*
X47843Y-955D01*
X47787Y-898D01*
X47720Y-853D01*
X47645Y-821D01*
X47566Y-805D01*
X47486Y-805D01*
X47406Y-820D01*
X47332Y-850D01*
X47264Y-894D01*
X47207Y-950D01*
X47161Y-1017D01*
X47129Y-1091D01*
X47112Y-1170D01*
X47111Y-1251D01*
X47126Y-1330D01*
X47156Y-1405D01*
X47199Y-1473D01*
X47255Y-1531D01*
X47322Y-1577D01*
X47395Y-1609D01*
X47474Y-1626D01*
X47555Y-1628D01*
X47634Y-1614D01*
X47709Y-1585D01*
X47778Y-1542D01*
X47836Y-1486D01*
X47882Y-1420D01*
X47915Y-1346D01*
X47933Y-1268D01*
X47934Y-1176D01*
X47934Y-2176D01*
X47919Y-2097D01*
X47888Y-2022D01*
X47843Y-1955D01*
X47787Y-1898D01*
X47720Y-1853D01*
X47645Y-1821D01*
X47566Y-1805D01*
X47486Y-1805D01*
X47406Y-1820D01*
X47332Y-1850D01*
X47264Y-1894D01*
X47207Y-1950D01*
X47161Y-2017D01*
X47129Y-2091D01*
X47112Y-2170D01*
X47111Y-2251D01*
X47126Y-2330D01*
X47156Y-2405D01*
X47199Y-2473D01*
X47255Y-2531D01*
X47322Y-2577D01*
X47395Y-2609D01*
X47474Y-2626D01*
X47555Y-2628D01*
X47634Y-2614D01*
X47709Y-2585D01*
X47778Y-2542D01*
X47836Y-2486D01*
X47882Y-2420D01*
X47915Y-2346D01*
X47933Y-2268D01*
X47934Y-2176D01*
X47934Y-7845D01*
X44117Y-7845D01*
X44066Y-7769D01*
X44001Y-7703D01*
X43923Y-7651D01*
X43837Y-7614D01*
X43746Y-7596D01*
X43653Y-7595D01*
X43562Y-7612D01*
X43475Y-7647D01*
X43397Y-7698D01*
X43331Y-7764D01*
X43278Y-7840D01*
X43241Y-7926D01*
X43222Y-8017D01*
X43221Y-8110D01*
X43238Y-8202D01*
X43272Y-8289D01*
X43322Y-8367D01*
X43387Y-8434D01*
X43463Y-8487D01*
X43549Y-8524D01*
X43640Y-8544D01*
X43733Y-8546D01*
X43825Y-8530D01*
X43912Y-8496D01*
X43990Y-8446D01*
X44058Y-8382D01*
X44111Y-8306D01*
X44116Y-8295D01*
X49409Y-8295D01*
X49430Y-8293D01*
X49450Y-8292D01*
X49451Y-8291D01*
X49453Y-8291D01*
X49473Y-8285D01*
X49493Y-8279D01*
X49494Y-8279D01*
X49495Y-8278D01*
X49513Y-8269D01*
X49531Y-8259D01*
X49532Y-8258D01*
X49533Y-8258D01*
X49550Y-8245D01*
X49566Y-8232D01*
X49567Y-8230D01*
X49567Y-8230D01*
X49568Y-8230D01*
X49568Y-8229D01*
X49693Y-8105D01*
X49751Y-8106D01*
X49818Y-8094D01*
X49882Y-8069D01*
X49940Y-8033D01*
X49990Y-7985D01*
X50030Y-7929D01*
X50058Y-7866D01*
X50073Y-7799D01*
X50074Y-7721D01*
X50074Y-9401D01*
X49584Y-8911D01*
X49568Y-8898D01*
X49552Y-8885D01*
X49551Y-8884D01*
X49550Y-8883D01*
X49532Y-8874D01*
X49513Y-8864D01*
X49512Y-8863D01*
X49511Y-8863D01*
X49491Y-8857D01*
X49471Y-8850D01*
X49470Y-8850D01*
X49469Y-8850D01*
X49449Y-8848D01*
X49428Y-8845D01*
X49426Y-8845D01*
X49425Y-8845D01*
X49425Y-8845D01*
X49425Y-8845D01*
X44117Y-8845D01*
X44066Y-8769D01*
X44001Y-8703D01*
X43923Y-8651D01*
X43837Y-8614D01*
X43746Y-8596D01*
X43653Y-8595D01*
X43562Y-8612D01*
X43475Y-8647D01*
X43397Y-8698D01*
X43331Y-8764D01*
X43278Y-8840D01*
X43241Y-8926D01*
X43222Y-9017D01*
X43221Y-9110D01*
X43238Y-9202D01*
X43272Y-9289D01*
X43322Y-9367D01*
X43387Y-9434D01*
X43463Y-9487D01*
X43549Y-9524D01*
X43640Y-9544D01*
X43672Y-9545D01*
X43589Y-9554D01*
X43491Y-9585D01*
X43407Y-9629D01*
X43381Y-9720D01*
X43696Y-10035D01*
X44011Y-9720D01*
X43986Y-9629D01*
X43894Y-9581D01*
X43795Y-9552D01*
X43729Y-9546D01*
X43733Y-9546D01*
X43825Y-9530D01*
X43912Y-9496D01*
X43990Y-9446D01*
X44058Y-9382D01*
X44111Y-9306D01*
X44116Y-9295D01*
X49331Y-9295D01*
X51146Y-11110D01*
X51145Y-11171D01*
X51157Y-11238D01*
X51183Y-11302D01*
X51220Y-11360D01*
X51268Y-11409D01*
X51324Y-11448D01*
X51387Y-11476D01*
X51454Y-11490D01*
X51523Y-11492D01*
X51590Y-11480D01*
X51654Y-11455D01*
X51712Y-11418D01*
X51762Y-11371D01*
X51801Y-11315D01*
X51829Y-11252D01*
X51844Y-11185D01*
X51846Y-11107D01*
X51846Y-12863D01*
X51817Y-12843D01*
X51731Y-12807D01*
X51640Y-12789D01*
X51547Y-12788D01*
X51455Y-12805D01*
X51369Y-12840D01*
X51291Y-12891D01*
X51224Y-12956D01*
X51172Y-13033D01*
X51135Y-13119D01*
X51116Y-13210D01*
X51114Y-13303D01*
X51131Y-13395D01*
X51166Y-13481D01*
X51216Y-13560D01*
X51281Y-13627D01*
X51357Y-13680D01*
X51443Y-13717D01*
X51534Y-13737D01*
X51627Y-13739D01*
X51718Y-13723D01*
X51805Y-13689D01*
X51884Y-13639D01*
X51951Y-13575D01*
X52005Y-13499D01*
X52043Y-13414D01*
X52064Y-13323D01*
X52065Y-13217D01*
X52065Y-13978D01*
X51065Y-13978D01*
X51065Y-13217D01*
X51047Y-13125D01*
X51011Y-13039D01*
X50960Y-12962D01*
X50894Y-12896D01*
X50817Y-12843D01*
X50731Y-12807D01*
X50640Y-12789D01*
X50547Y-12788D01*
X50455Y-12805D01*
X50369Y-12840D01*
X50291Y-12891D01*
X50224Y-12956D01*
X50172Y-13033D01*
X50135Y-13119D01*
X50116Y-13210D01*
X50114Y-13303D01*
X50131Y-13395D01*
X50166Y-13481D01*
X50216Y-13560D01*
X50281Y-13627D01*
X50357Y-13680D01*
X50443Y-13717D01*
X50534Y-13737D01*
X50627Y-13739D01*
X50718Y-13723D01*
X50805Y-13689D01*
X50884Y-13639D01*
X50951Y-13575D01*
X51005Y-13499D01*
X51043Y-13414D01*
X51064Y-13323D01*
X51065Y-13217D01*
X51065Y-13978D01*
X50065Y-13978D01*
X50065Y-13217D01*
X50047Y-13125D01*
X50011Y-13039D01*
X49960Y-12962D01*
X49894Y-12896D01*
X49817Y-12843D01*
X49731Y-12807D01*
X49640Y-12789D01*
X49547Y-12788D01*
X49455Y-12805D01*
X49369Y-12840D01*
X49291Y-12891D01*
X49224Y-12956D01*
X49172Y-13033D01*
X49135Y-13119D01*
X49116Y-13210D01*
X49114Y-13303D01*
X49131Y-13395D01*
X49166Y-13481D01*
X49216Y-13560D01*
X49281Y-13627D01*
X49357Y-13680D01*
X49443Y-13717D01*
X49534Y-13737D01*
X49627Y-13739D01*
X49718Y-13723D01*
X49805Y-13689D01*
X49884Y-13639D01*
X49951Y-13575D01*
X50005Y-13499D01*
X50043Y-13414D01*
X50064Y-13323D01*
X50065Y-13217D01*
X50065Y-13978D01*
X49065Y-13978D01*
X49065Y-13217D01*
X49047Y-13125D01*
X49011Y-13039D01*
X48960Y-12962D01*
X48894Y-12896D01*
X48817Y-12843D01*
X48731Y-12807D01*
X48640Y-12789D01*
X48547Y-12788D01*
X48455Y-12805D01*
X48369Y-12840D01*
X48291Y-12891D01*
X48224Y-12956D01*
X48172Y-13033D01*
X48135Y-13119D01*
X48116Y-13210D01*
X48114Y-13303D01*
X48131Y-13395D01*
X48166Y-13481D01*
X48216Y-13560D01*
X48281Y-13627D01*
X48357Y-13680D01*
X48443Y-13717D01*
X48534Y-13737D01*
X48627Y-13739D01*
X48718Y-13723D01*
X48805Y-13689D01*
X48884Y-13639D01*
X48951Y-13575D01*
X49005Y-13499D01*
X49043Y-13414D01*
X49064Y-13323D01*
X49065Y-13217D01*
X49065Y-13978D01*
X47712Y-13978D01*
X47712Y-11264D01*
X47698Y-11197D01*
X47672Y-11134D01*
X47634Y-11076D01*
X47586Y-11028D01*
X47529Y-10989D01*
X47466Y-10963D01*
X47398Y-10949D01*
X47330Y-10948D01*
X47330Y-10948D01*
X47206Y-10825D01*
X47190Y-10811D01*
X47174Y-10798D01*
X47173Y-10798D01*
X47172Y-10797D01*
X47154Y-10787D01*
X47135Y-10777D01*
X47134Y-10777D01*
X47133Y-10776D01*
X47113Y-10770D01*
X47094Y-10764D01*
X47092Y-10764D01*
X47091Y-10763D01*
X47071Y-10761D01*
X47050Y-10759D01*
X47048Y-10759D01*
X47048Y-10759D01*
X47047Y-10759D01*
X47047Y-10759D01*
X44783Y-10759D01*
X44762Y-10761D01*
X44742Y-10763D01*
X44740Y-10763D01*
X44739Y-10763D01*
X44719Y-10769D01*
X44699Y-10775D01*
X44698Y-10775D01*
X44697Y-10776D01*
X44679Y-10785D01*
X44660Y-10795D01*
X44659Y-10796D01*
X44658Y-10796D01*
X44642Y-10809D01*
X44626Y-10822D01*
X44624Y-10824D01*
X44624Y-10824D01*
X44624Y-10824D01*
X44624Y-10825D01*
X44224Y-11225D01*
X44224Y-10066D01*
X44213Y-9963D01*
X44182Y-9865D01*
X44137Y-9781D01*
X44047Y-9755D01*
X43732Y-10070D01*
X44047Y-10385D01*
X44137Y-10360D01*
X44185Y-10268D01*
X44215Y-10169D01*
X44224Y-10066D01*
X44224Y-11225D01*
X44171Y-11277D01*
X44171Y-11024D01*
X44153Y-10932D01*
X44118Y-10846D01*
X44066Y-10769D01*
X44001Y-10703D01*
X43923Y-10651D01*
X43837Y-10614D01*
X43746Y-10596D01*
X43723Y-10596D01*
X43803Y-10587D01*
X43902Y-10556D01*
X43986Y-10511D01*
X44011Y-10421D01*
X43696Y-10106D01*
X43661Y-10141D01*
X43661Y-10070D01*
X43346Y-9755D01*
X43255Y-9781D01*
X43207Y-9872D01*
X43178Y-9972D01*
X43169Y-10075D01*
X43180Y-10177D01*
X43211Y-10276D01*
X43255Y-10360D01*
X43346Y-10385D01*
X43661Y-10070D01*
X43661Y-10141D01*
X43381Y-10421D01*
X43407Y-10511D01*
X43498Y-10559D01*
X43598Y-10589D01*
X43670Y-10595D01*
X43653Y-10595D01*
X43562Y-10612D01*
X43475Y-10647D01*
X43397Y-10698D01*
X43331Y-10764D01*
X43278Y-10840D01*
X43241Y-10926D01*
X43222Y-11017D01*
X43221Y-11110D01*
X43238Y-11202D01*
X43272Y-11289D01*
X43322Y-11367D01*
X43387Y-11434D01*
X43463Y-11487D01*
X43549Y-11524D01*
X43640Y-11544D01*
X43733Y-11546D01*
X43825Y-11530D01*
X43912Y-11496D01*
X43990Y-11446D01*
X44058Y-11382D01*
X44111Y-11306D01*
X44149Y-11221D01*
X44170Y-11130D01*
X44171Y-11024D01*
X44171Y-11277D01*
X43835Y-11614D01*
X43746Y-11596D01*
X43653Y-11595D01*
X43562Y-11612D01*
X43475Y-11647D01*
X43397Y-11698D01*
X43331Y-11764D01*
X43278Y-11840D01*
X43241Y-11926D01*
X43222Y-12017D01*
X43221Y-12110D01*
X43238Y-12202D01*
X43272Y-12289D01*
X43322Y-12367D01*
X43387Y-12434D01*
X43463Y-12487D01*
X43549Y-12524D01*
X43640Y-12544D01*
X43733Y-12546D01*
X43825Y-12530D01*
X43912Y-12496D01*
X43990Y-12446D01*
X44058Y-12382D01*
X44111Y-12306D01*
X44149Y-12221D01*
X44170Y-12130D01*
X44171Y-12024D01*
X44153Y-11932D01*
X44153Y-11932D01*
X44876Y-11209D01*
X46954Y-11209D01*
X47012Y-11267D01*
X47011Y-11328D01*
X47024Y-11396D01*
X47049Y-11459D01*
X47086Y-11517D01*
X47134Y-11567D01*
X47190Y-11606D01*
X47253Y-11633D01*
X47320Y-11648D01*
X47389Y-11649D01*
X47456Y-11637D01*
X47520Y-11613D01*
X47578Y-11576D01*
X47628Y-11529D01*
X47668Y-11472D01*
X47695Y-11410D01*
X47711Y-11343D01*
X47712Y-11264D01*
X47712Y-13978D01*
X41176Y-13978D01*
X41176Y-13075D01*
X41163Y-13008D01*
X41137Y-12945D01*
X41099Y-12887D01*
X41050Y-12839D01*
X40994Y-12800D01*
X40930Y-12774D01*
X40863Y-12760D01*
X40794Y-12759D01*
X40727Y-12772D01*
X40663Y-12798D01*
X40606Y-12836D01*
X40557Y-12884D01*
X40518Y-12940D01*
X40491Y-13003D01*
X40477Y-13071D01*
X40476Y-13139D01*
X40476Y-13142D01*
X40241Y-13377D01*
X31451Y-13377D01*
X30316Y-12242D01*
X30300Y-12229D01*
X30284Y-12215D01*
X30283Y-12215D01*
X30282Y-12214D01*
X30264Y-12204D01*
X30246Y-12194D01*
X30244Y-12194D01*
X30243Y-12193D01*
X30224Y-12187D01*
X30204Y-12181D01*
X30203Y-12181D01*
X30201Y-12181D01*
X30181Y-12178D01*
X30160Y-12176D01*
X30158Y-12176D01*
X30158Y-12176D01*
X30158Y-12176D01*
X30157Y-12176D01*
X30129Y-12176D01*
X30129Y-9416D01*
X30118Y-9314D01*
X30088Y-9215D01*
X30043Y-9131D01*
X29952Y-9106D01*
X29637Y-9421D01*
X29952Y-9736D01*
X30043Y-9710D01*
X30091Y-9619D01*
X30120Y-9519D01*
X30129Y-9416D01*
X30129Y-12176D01*
X30077Y-12176D01*
X30077Y-11374D01*
X30077Y-10374D01*
X30059Y-10283D01*
X30023Y-10197D01*
X29972Y-10119D01*
X29906Y-10053D01*
X29829Y-10001D01*
X29743Y-9965D01*
X29652Y-9946D01*
X29628Y-9946D01*
X29709Y-9937D01*
X29808Y-9906D01*
X29891Y-9862D01*
X29917Y-9771D01*
X29602Y-9456D01*
X29567Y-9491D01*
X29567Y-9421D01*
X29251Y-9106D01*
X29161Y-9131D01*
X29113Y-9223D01*
X29084Y-9322D01*
X29074Y-9425D01*
X29085Y-9528D01*
X29116Y-9627D01*
X29161Y-9710D01*
X29251Y-9736D01*
X29567Y-9421D01*
X29567Y-9491D01*
X29287Y-9771D01*
X29312Y-9862D01*
X29404Y-9910D01*
X29503Y-9939D01*
X29576Y-9946D01*
X29559Y-9945D01*
X29467Y-9963D01*
X29381Y-9998D01*
X29303Y-10049D01*
X29236Y-10114D01*
X29184Y-10191D01*
X29147Y-10276D01*
X29128Y-10368D01*
X29126Y-10461D01*
X29143Y-10552D01*
X29177Y-10639D01*
X29228Y-10717D01*
X29293Y-10784D01*
X29369Y-10837D01*
X29454Y-10875D01*
X29545Y-10895D01*
X29638Y-10897D01*
X29730Y-10880D01*
X29817Y-10847D01*
X29896Y-10797D01*
X29963Y-10733D01*
X30017Y-10657D01*
X30055Y-10571D01*
X30075Y-10481D01*
X30077Y-10374D01*
X30077Y-11374D01*
X30059Y-11283D01*
X30023Y-11197D01*
X29972Y-11119D01*
X29906Y-11053D01*
X29829Y-11001D01*
X29743Y-10965D01*
X29652Y-10946D01*
X29559Y-10945D01*
X29467Y-10963D01*
X29381Y-10998D01*
X29303Y-11049D01*
X29236Y-11114D01*
X29184Y-11191D01*
X29147Y-11276D01*
X29128Y-11368D01*
X29126Y-11461D01*
X29143Y-11552D01*
X29177Y-11639D01*
X29228Y-11717D01*
X29293Y-11784D01*
X29369Y-11837D01*
X29454Y-11875D01*
X29545Y-11895D01*
X29638Y-11897D01*
X29730Y-11880D01*
X29817Y-11847D01*
X29896Y-11797D01*
X29963Y-11733D01*
X30017Y-11657D01*
X30055Y-11571D01*
X30075Y-11481D01*
X30077Y-11374D01*
X30077Y-12176D01*
X27220Y-12176D01*
X27240Y-12174D01*
X27241Y-12174D01*
X27243Y-12174D01*
X27265Y-12167D01*
X27287Y-12161D01*
X27288Y-12160D01*
X27289Y-12160D01*
X27310Y-12149D01*
X27330Y-12138D01*
X27331Y-12137D01*
X27332Y-12137D01*
X27350Y-12122D01*
X27368Y-12108D01*
X27370Y-12106D01*
X27370Y-12106D01*
X27370Y-12106D01*
X27371Y-12105D01*
X27679Y-11798D01*
X27693Y-11780D01*
X27708Y-11762D01*
X27709Y-11761D01*
X27710Y-11760D01*
X27721Y-11739D01*
X27732Y-11719D01*
X27732Y-11718D01*
X27733Y-11717D01*
X27739Y-11695D01*
X27746Y-11673D01*
X27747Y-11671D01*
X27747Y-11670D01*
X27749Y-11647D01*
X27752Y-11624D01*
X27752Y-11622D01*
X27752Y-11622D01*
X27752Y-11622D01*
X27752Y-11621D01*
X27752Y-8066D01*
X27768Y-8051D01*
X27808Y-7994D01*
X27836Y-7932D01*
X27851Y-7865D01*
X27852Y-7786D01*
X27839Y-7719D01*
X27812Y-7656D01*
X27774Y-7598D01*
X27726Y-7550D01*
X27722Y-7547D01*
X27938Y-7547D01*
X28970Y-8580D01*
X28986Y-8593D01*
X29002Y-8606D01*
X29003Y-8607D01*
X29004Y-8608D01*
X29023Y-8618D01*
X29041Y-8628D01*
X29042Y-8628D01*
X29043Y-8628D01*
X29063Y-8635D01*
X29083Y-8641D01*
X29084Y-8641D01*
X29085Y-8641D01*
X29106Y-8643D01*
X29126Y-8646D01*
X29129Y-8646D01*
X29129Y-8646D01*
X29129Y-8646D01*
X29129Y-8646D01*
X29182Y-8646D01*
X29228Y-8717D01*
X29293Y-8784D01*
X29369Y-8837D01*
X29454Y-8875D01*
X29545Y-8895D01*
X29578Y-8895D01*
X29495Y-8904D01*
X29396Y-8935D01*
X29312Y-8980D01*
X29287Y-9070D01*
X29602Y-9385D01*
X29917Y-9070D01*
X29891Y-8980D01*
X29800Y-8932D01*
X29701Y-8903D01*
X29634Y-8897D01*
X29638Y-8897D01*
X29730Y-8880D01*
X29817Y-8847D01*
X29896Y-8797D01*
X29963Y-8733D01*
X30017Y-8657D01*
X30022Y-8646D01*
X30454Y-8646D01*
X32183Y-10375D01*
X32199Y-10388D01*
X32215Y-10402D01*
X32216Y-10402D01*
X32217Y-10403D01*
X32235Y-10413D01*
X32253Y-10423D01*
X32255Y-10423D01*
X32256Y-10424D01*
X32275Y-10430D01*
X32295Y-10436D01*
X32296Y-10436D01*
X32298Y-10437D01*
X32318Y-10439D01*
X32339Y-10441D01*
X32341Y-10441D01*
X32341Y-10441D01*
X32341Y-10441D01*
X32342Y-10441D01*
X38195Y-10441D01*
X38236Y-10484D01*
X38292Y-10523D01*
X38355Y-10551D01*
X38422Y-10565D01*
X38491Y-10567D01*
X38559Y-10555D01*
X38623Y-10530D01*
X38681Y-10493D01*
X38730Y-10446D01*
X38770Y-10390D01*
X38798Y-10327D01*
X38813Y-10260D01*
X38814Y-10182D01*
X38801Y-10114D01*
X38775Y-10051D01*
X38737Y-9994D01*
X38688Y-9945D01*
X38631Y-9907D01*
X38568Y-9880D01*
X38501Y-9866D01*
X38432Y-9866D01*
X38365Y-9879D01*
X38301Y-9904D01*
X38244Y-9942D01*
X38195Y-9990D01*
X38194Y-9991D01*
X32435Y-9991D01*
X30706Y-8262D01*
X30690Y-8248D01*
X30674Y-8235D01*
X30673Y-8235D01*
X30672Y-8234D01*
X30654Y-8224D01*
X30635Y-8214D01*
X30634Y-8214D01*
X30633Y-8213D01*
X30613Y-8207D01*
X30594Y-8201D01*
X30592Y-8201D01*
X30591Y-8200D01*
X30571Y-8198D01*
X30550Y-8196D01*
X30548Y-8196D01*
X30548Y-8196D01*
X30547Y-8196D01*
X30547Y-8196D01*
X30023Y-8196D01*
X29972Y-8119D01*
X29906Y-8053D01*
X29829Y-8001D01*
X29743Y-7965D01*
X29652Y-7946D01*
X29559Y-7945D01*
X29467Y-7963D01*
X29381Y-7998D01*
X29303Y-8049D01*
X29236Y-8114D01*
X29197Y-8171D01*
X28299Y-7272D01*
X28568Y-7272D01*
X28876Y-7580D01*
X28892Y-7593D01*
X28908Y-7606D01*
X28909Y-7607D01*
X28910Y-7608D01*
X28928Y-7618D01*
X28946Y-7628D01*
X28947Y-7628D01*
X28948Y-7628D01*
X28968Y-7635D01*
X28988Y-7641D01*
X28989Y-7641D01*
X28990Y-7641D01*
X29011Y-7643D01*
X29032Y-7646D01*
X29034Y-7646D01*
X29034Y-7646D01*
X29034Y-7646D01*
X29035Y-7646D01*
X29182Y-7646D01*
X29228Y-7717D01*
X29293Y-7784D01*
X29369Y-7837D01*
X29454Y-7875D01*
X29545Y-7895D01*
X29638Y-7897D01*
X29730Y-7880D01*
X29817Y-7847D01*
X29896Y-7797D01*
X29963Y-7733D01*
X30017Y-7657D01*
X30022Y-7646D01*
X30497Y-7646D01*
X31809Y-8958D01*
X31825Y-8971D01*
X31841Y-8984D01*
X31842Y-8985D01*
X31843Y-8986D01*
X31861Y-8995D01*
X31879Y-9006D01*
X31880Y-9006D01*
X31882Y-9006D01*
X31901Y-9013D01*
X31921Y-9019D01*
X31922Y-9019D01*
X31924Y-9019D01*
X31944Y-9021D01*
X31965Y-9024D01*
X31967Y-9024D01*
X31967Y-9024D01*
X31967Y-9024D01*
X31968Y-9024D01*
X34113Y-9024D01*
X34109Y-9025D01*
X34031Y-9076D01*
X33965Y-9142D01*
X33912Y-9218D01*
X33875Y-9304D01*
X33856Y-9395D01*
X33855Y-9488D01*
X33871Y-9580D01*
X33906Y-9666D01*
X33956Y-9745D01*
X34021Y-9812D01*
X34097Y-9865D01*
X34183Y-9902D01*
X34274Y-9922D01*
X34367Y-9924D01*
X34459Y-9908D01*
X34545Y-9874D01*
X34624Y-9824D01*
X34692Y-9760D01*
X34745Y-9684D01*
X34783Y-9599D01*
X34804Y-9508D01*
X34805Y-9402D01*
X34787Y-9310D01*
X34752Y-9224D01*
X34700Y-9147D01*
X34634Y-9081D01*
X34557Y-9028D01*
X34546Y-9024D01*
X36003Y-9024D01*
X35999Y-9025D01*
X35921Y-9076D01*
X35854Y-9142D01*
X35802Y-9218D01*
X35765Y-9304D01*
X35746Y-9395D01*
X35744Y-9488D01*
X35761Y-9580D01*
X35795Y-9666D01*
X35846Y-9745D01*
X35911Y-9812D01*
X35987Y-9865D01*
X36072Y-9902D01*
X36163Y-9922D01*
X36257Y-9924D01*
X36348Y-9908D01*
X36435Y-9874D01*
X36514Y-9824D01*
X36581Y-9760D01*
X36635Y-9684D01*
X36673Y-9599D01*
X36694Y-9508D01*
X36695Y-9402D01*
X36677Y-9310D01*
X36641Y-9224D01*
X36590Y-9147D01*
X36524Y-9081D01*
X36447Y-9028D01*
X36436Y-9024D01*
X40039Y-9024D01*
X40060Y-9022D01*
X40080Y-9020D01*
X40081Y-9020D01*
X40083Y-9019D01*
X40102Y-9013D01*
X40122Y-9008D01*
X40123Y-9007D01*
X40125Y-9007D01*
X40143Y-8997D01*
X40161Y-8987D01*
X40162Y-8987D01*
X40163Y-8986D01*
X40179Y-8973D01*
X40196Y-8960D01*
X40197Y-8958D01*
X40197Y-8958D01*
X40197Y-8958D01*
X40198Y-8958D01*
X40736Y-8420D01*
X40794Y-8421D01*
X40862Y-8409D01*
X40926Y-8384D01*
X40984Y-8348D01*
X41033Y-8300D01*
X41073Y-8244D01*
X41101Y-8181D01*
X41116Y-8114D01*
X41117Y-8036D01*
X41104Y-7969D01*
X41078Y-7905D01*
X41040Y-7848D01*
X40991Y-7799D01*
X40934Y-7761D01*
X40871Y-7734D01*
X40804Y-7721D01*
X40735Y-7720D01*
X40668Y-7733D01*
X40604Y-7759D01*
X40547Y-7796D01*
X40498Y-7844D01*
X40459Y-7901D01*
X40432Y-7964D01*
X40418Y-8031D01*
X40417Y-8100D01*
X40417Y-8102D01*
X40281Y-8239D01*
X40281Y-2400D01*
X40265Y-2321D01*
X40234Y-2246D01*
X40190Y-2179D01*
X40133Y-2122D01*
X40066Y-2077D01*
X39992Y-2046D01*
X39913Y-2029D01*
X39832Y-2029D01*
X39753Y-2044D01*
X39678Y-2074D01*
X39611Y-2118D01*
X39553Y-2175D01*
X39507Y-2241D01*
X39476Y-2316D01*
X39459Y-2394D01*
X39458Y-2475D01*
X39472Y-2554D01*
X39502Y-2629D01*
X39546Y-2697D01*
X39602Y-2755D01*
X39668Y-2801D01*
X39742Y-2833D01*
X39821Y-2851D01*
X39901Y-2852D01*
X39981Y-2838D01*
X40056Y-2809D01*
X40124Y-2766D01*
X40182Y-2710D01*
X40229Y-2645D01*
X40262Y-2571D01*
X40280Y-2492D01*
X40281Y-2400D01*
X40281Y-8239D01*
X39946Y-8574D01*
X39281Y-8574D01*
X39281Y-2400D01*
X39265Y-2321D01*
X39234Y-2246D01*
X39190Y-2179D01*
X39133Y-2122D01*
X39066Y-2077D01*
X38992Y-2046D01*
X38913Y-2029D01*
X38832Y-2029D01*
X38753Y-2044D01*
X38678Y-2074D01*
X38611Y-2118D01*
X38553Y-2175D01*
X38507Y-2241D01*
X38476Y-2316D01*
X38459Y-2394D01*
X38458Y-2475D01*
X38472Y-2554D01*
X38502Y-2629D01*
X38546Y-2697D01*
X38602Y-2755D01*
X38623Y-2770D01*
X38017Y-3377D01*
X36934Y-3377D01*
X36934Y-2400D01*
X36919Y-2321D01*
X36888Y-2246D01*
X36843Y-2179D01*
X36787Y-2122D01*
X36720Y-2077D01*
X36645Y-2046D01*
X36566Y-2029D01*
X36486Y-2029D01*
X36406Y-2044D01*
X36332Y-2074D01*
X36264Y-2118D01*
X36207Y-2175D01*
X36161Y-2241D01*
X36129Y-2316D01*
X36112Y-2394D01*
X36111Y-2475D01*
X36126Y-2554D01*
X36156Y-2629D01*
X36199Y-2697D01*
X36255Y-2755D01*
X36322Y-2801D01*
X36395Y-2833D01*
X36474Y-2851D01*
X36555Y-2852D01*
X36634Y-2838D01*
X36709Y-2809D01*
X36778Y-2766D01*
X36836Y-2710D01*
X36882Y-2645D01*
X36915Y-2571D01*
X36933Y-2492D01*
X36934Y-2400D01*
X36934Y-3377D01*
X35934Y-3377D01*
X35934Y-2400D01*
X35919Y-2321D01*
X35888Y-2246D01*
X35843Y-2179D01*
X35787Y-2122D01*
X35720Y-2077D01*
X35645Y-2046D01*
X35566Y-2029D01*
X35486Y-2029D01*
X35406Y-2044D01*
X35332Y-2074D01*
X35264Y-2118D01*
X35207Y-2175D01*
X35161Y-2241D01*
X35129Y-2316D01*
X35112Y-2394D01*
X35111Y-2475D01*
X35126Y-2554D01*
X35156Y-2629D01*
X35199Y-2697D01*
X35255Y-2755D01*
X35298Y-2785D01*
X35298Y-2845D01*
X33340Y-2845D01*
X33295Y-2799D01*
X33238Y-2761D01*
X33174Y-2734D01*
X33107Y-2721D01*
X33038Y-2720D01*
X32971Y-2733D01*
X32907Y-2759D01*
X32850Y-2796D01*
X32801Y-2844D01*
X32762Y-2901D01*
X32735Y-2964D01*
X32721Y-3031D01*
X32720Y-3100D01*
X32732Y-3167D01*
X32758Y-3231D01*
X32795Y-3289D01*
X32842Y-3338D01*
X32899Y-3377D01*
X32962Y-3405D01*
X33029Y-3420D01*
X33097Y-3421D01*
X33165Y-3409D01*
X33229Y-3384D01*
X33287Y-3348D01*
X33337Y-3300D01*
X33340Y-3295D01*
X35393Y-3295D01*
X35414Y-3293D01*
X35435Y-3292D01*
X35436Y-3291D01*
X35437Y-3291D01*
X35457Y-3285D01*
X35477Y-3279D01*
X35478Y-3279D01*
X35479Y-3278D01*
X35497Y-3269D01*
X35516Y-3259D01*
X35517Y-3258D01*
X35518Y-3258D01*
X35534Y-3245D01*
X35550Y-3232D01*
X35552Y-3230D01*
X35552Y-3230D01*
X35552Y-3230D01*
X35552Y-3229D01*
X35682Y-3100D01*
X35695Y-3083D01*
X35709Y-3068D01*
X35709Y-3067D01*
X35710Y-3066D01*
X35720Y-3047D01*
X35730Y-3029D01*
X35730Y-3028D01*
X35731Y-3027D01*
X35737Y-3007D01*
X35743Y-2987D01*
X35743Y-2986D01*
X35744Y-2985D01*
X35746Y-2964D01*
X35748Y-2944D01*
X35748Y-2941D01*
X35748Y-2941D01*
X35748Y-2941D01*
X35748Y-2940D01*
X35748Y-2785D01*
X35778Y-2766D01*
X35836Y-2710D01*
X35882Y-2645D01*
X35915Y-2571D01*
X35933Y-2492D01*
X35934Y-2400D01*
X35934Y-3377D01*
X34192Y-3377D01*
X34172Y-3379D01*
X34151Y-3381D01*
X34150Y-3381D01*
X34149Y-3381D01*
X34129Y-3387D01*
X34109Y-3393D01*
X34108Y-3393D01*
X34107Y-3394D01*
X34088Y-3404D01*
X34070Y-3413D01*
X34069Y-3414D01*
X34068Y-3414D01*
X34052Y-3428D01*
X34036Y-3441D01*
X34034Y-3442D01*
X34034Y-3442D01*
X34034Y-3442D01*
X34033Y-3443D01*
X32951Y-4525D01*
X32937Y-4542D01*
X32924Y-4557D01*
X32924Y-4558D01*
X32923Y-4559D01*
X32913Y-4578D01*
X32903Y-4596D01*
X32903Y-4597D01*
X32902Y-4598D01*
X32896Y-4618D01*
X32890Y-4638D01*
X32890Y-4639D01*
X32889Y-4640D01*
X32887Y-4661D01*
X32885Y-4681D01*
X32885Y-4684D01*
X32885Y-4684D01*
X32885Y-4684D01*
X32885Y-4685D01*
X32885Y-7722D01*
X32840Y-7766D01*
X32837Y-7771D01*
X32837Y-5124D01*
X32837Y-5026D01*
X32837Y-4976D01*
X32837Y-4877D01*
X32823Y-4788D01*
X32792Y-4703D01*
X32745Y-4625D01*
X32684Y-4559D01*
X32611Y-4505D01*
X32529Y-4467D01*
X32472Y-4451D01*
X32401Y-4498D01*
X32401Y-4976D01*
X32837Y-4976D01*
X32837Y-5026D01*
X32401Y-5026D01*
X32401Y-5503D01*
X32472Y-5550D01*
X32529Y-5535D01*
X32611Y-5497D01*
X32684Y-5443D01*
X32745Y-5376D01*
X32792Y-5299D01*
X32823Y-5214D01*
X32837Y-5124D01*
X32837Y-7771D01*
X32802Y-7822D01*
X32775Y-7885D01*
X32760Y-7952D01*
X32759Y-8021D01*
X32772Y-8089D01*
X32797Y-8152D01*
X32834Y-8210D01*
X32882Y-8259D01*
X32938Y-8299D01*
X33001Y-8326D01*
X33068Y-8341D01*
X33137Y-8342D01*
X33204Y-8330D01*
X33268Y-8306D01*
X33326Y-8269D01*
X33376Y-8221D01*
X33416Y-8165D01*
X33443Y-8103D01*
X33459Y-8036D01*
X33460Y-7957D01*
X33446Y-7890D01*
X33420Y-7827D01*
X33382Y-7769D01*
X33335Y-7721D01*
X33335Y-4778D01*
X34286Y-3827D01*
X38110Y-3827D01*
X38130Y-3825D01*
X38151Y-3823D01*
X38152Y-3823D01*
X38153Y-3823D01*
X38173Y-3817D01*
X38193Y-3811D01*
X38194Y-3810D01*
X38195Y-3810D01*
X38214Y-3800D01*
X38232Y-3791D01*
X38233Y-3790D01*
X38234Y-3789D01*
X38250Y-3776D01*
X38267Y-3763D01*
X38268Y-3762D01*
X38268Y-3762D01*
X38268Y-3761D01*
X38269Y-3761D01*
X39029Y-3001D01*
X39042Y-2985D01*
X39055Y-2969D01*
X39056Y-2968D01*
X39057Y-2967D01*
X39066Y-2949D01*
X39076Y-2931D01*
X39077Y-2930D01*
X39077Y-2928D01*
X39083Y-2909D01*
X39090Y-2889D01*
X39090Y-2888D01*
X39090Y-2886D01*
X39092Y-2866D01*
X39095Y-2845D01*
X39095Y-2843D01*
X39095Y-2843D01*
X39095Y-2843D01*
X39095Y-2842D01*
X39095Y-2785D01*
X39124Y-2766D01*
X39182Y-2710D01*
X39229Y-2645D01*
X39262Y-2571D01*
X39280Y-2492D01*
X39281Y-2400D01*
X39281Y-8574D01*
X32351Y-8574D01*
X32351Y-5503D01*
X32351Y-5026D01*
X32343Y-5026D01*
X32343Y-4976D01*
X32351Y-4976D01*
X32351Y-4498D01*
X32279Y-4451D01*
X32222Y-4467D01*
X32140Y-4505D01*
X32067Y-4559D01*
X32006Y-4625D01*
X31959Y-4703D01*
X31954Y-4716D01*
X31931Y-4672D01*
X31880Y-4610D01*
X31818Y-4559D01*
X31748Y-4521D01*
X31671Y-4497D01*
X31591Y-4489D01*
X31511Y-4496D01*
X31434Y-4519D01*
X31363Y-4556D01*
X31300Y-4606D01*
X31249Y-4668D01*
X31210Y-4738D01*
X31186Y-4814D01*
X31177Y-4894D01*
X31177Y-4900D01*
X31177Y-5102D01*
X31185Y-5182D01*
X31208Y-5258D01*
X31246Y-5329D01*
X31296Y-5391D01*
X31338Y-5426D01*
X31338Y-6925D01*
X31325Y-6939D01*
X31286Y-6995D01*
X31259Y-7059D01*
X31244Y-7126D01*
X31244Y-7194D01*
X31256Y-7262D01*
X31281Y-7326D01*
X31318Y-7383D01*
X31366Y-7433D01*
X31422Y-7472D01*
X31485Y-7499D01*
X31552Y-7514D01*
X31621Y-7516D01*
X31689Y-7504D01*
X31753Y-7479D01*
X31811Y-7442D01*
X31860Y-7395D01*
X31900Y-7339D01*
X31928Y-7276D01*
X31943Y-7209D01*
X31944Y-7131D01*
X31931Y-7063D01*
X31905Y-7000D01*
X31867Y-6943D01*
X31838Y-6914D01*
X31838Y-5426D01*
X31876Y-5395D01*
X31927Y-5334D01*
X31954Y-5285D01*
X31959Y-5299D01*
X32006Y-5376D01*
X32067Y-5443D01*
X32140Y-5497D01*
X32222Y-5535D01*
X32279Y-5550D01*
X32351Y-5503D01*
X32351Y-8574D01*
X32061Y-8574D01*
X30749Y-7262D01*
X30733Y-7248D01*
X30717Y-7235D01*
X30716Y-7235D01*
X30715Y-7234D01*
X30697Y-7224D01*
X30679Y-7214D01*
X30678Y-7214D01*
X30677Y-7213D01*
X30657Y-7207D01*
X30637Y-7201D01*
X30636Y-7201D01*
X30635Y-7200D01*
X30614Y-7198D01*
X30593Y-7196D01*
X30591Y-7196D01*
X30591Y-7196D01*
X30591Y-7196D01*
X30590Y-7196D01*
X30077Y-7196D01*
X30077Y-6374D01*
X30077Y-5374D01*
X30059Y-5283D01*
X30023Y-5197D01*
X29972Y-5119D01*
X29906Y-5053D01*
X29829Y-5001D01*
X29743Y-4965D01*
X29652Y-4946D01*
X29559Y-4945D01*
X29467Y-4963D01*
X29381Y-4998D01*
X29303Y-5049D01*
X29236Y-5114D01*
X29184Y-5191D01*
X29147Y-5276D01*
X29128Y-5368D01*
X29126Y-5461D01*
X29143Y-5552D01*
X29177Y-5639D01*
X29228Y-5717D01*
X29293Y-5784D01*
X29369Y-5837D01*
X29454Y-5875D01*
X29545Y-5895D01*
X29638Y-5897D01*
X29730Y-5880D01*
X29817Y-5847D01*
X29896Y-5797D01*
X29963Y-5733D01*
X30017Y-5657D01*
X30055Y-5571D01*
X30075Y-5481D01*
X30077Y-5374D01*
X30077Y-6374D01*
X30059Y-6283D01*
X30023Y-6197D01*
X29972Y-6119D01*
X29906Y-6053D01*
X29829Y-6001D01*
X29743Y-5965D01*
X29652Y-5946D01*
X29559Y-5945D01*
X29467Y-5963D01*
X29381Y-5998D01*
X29303Y-6049D01*
X29236Y-6114D01*
X29184Y-6191D01*
X29147Y-6276D01*
X29128Y-6368D01*
X29126Y-6461D01*
X29143Y-6552D01*
X29177Y-6639D01*
X29228Y-6717D01*
X29293Y-6784D01*
X29369Y-6837D01*
X29454Y-6875D01*
X29545Y-6895D01*
X29638Y-6897D01*
X29730Y-6880D01*
X29817Y-6847D01*
X29896Y-6797D01*
X29963Y-6733D01*
X30017Y-6657D01*
X30055Y-6571D01*
X30075Y-6481D01*
X30077Y-6374D01*
X30077Y-7196D01*
X30023Y-7196D01*
X29972Y-7119D01*
X29906Y-7053D01*
X29829Y-7001D01*
X29743Y-6965D01*
X29652Y-6946D01*
X29559Y-6945D01*
X29467Y-6963D01*
X29381Y-6998D01*
X29303Y-7049D01*
X29236Y-7114D01*
X29184Y-7191D01*
X29181Y-7196D01*
X29128Y-7196D01*
X28820Y-6888D01*
X28804Y-6874D01*
X28788Y-6861D01*
X28787Y-6861D01*
X28786Y-6860D01*
X28782Y-6857D01*
X28782Y-5402D01*
X28764Y-5310D01*
X28728Y-5224D01*
X28676Y-5147D01*
X28611Y-5081D01*
X28534Y-5028D01*
X28448Y-4992D01*
X28356Y-4974D01*
X28263Y-4973D01*
X28172Y-4990D01*
X28085Y-5025D01*
X28008Y-5076D01*
X27977Y-5106D01*
X27977Y-4688D01*
X27977Y-4654D01*
X27977Y-4054D01*
X27970Y-4020D01*
X27957Y-3988D01*
X27938Y-3959D01*
X27913Y-3935D01*
X27885Y-3916D01*
X27853Y-3902D01*
X27819Y-3896D01*
X27785Y-3896D01*
X27185Y-3896D01*
X27151Y-3902D01*
X27119Y-3916D01*
X27090Y-3935D01*
X27066Y-3959D01*
X27047Y-3988D01*
X27034Y-4020D01*
X27027Y-4054D01*
X27027Y-4088D01*
X27027Y-4688D01*
X27034Y-4722D01*
X27047Y-4754D01*
X27066Y-4782D01*
X27090Y-4807D01*
X27119Y-4826D01*
X27151Y-4839D01*
X27185Y-4846D01*
X27219Y-4846D01*
X27819Y-4846D01*
X27853Y-4839D01*
X27885Y-4826D01*
X27913Y-4807D01*
X27938Y-4782D01*
X27957Y-4754D01*
X27970Y-4722D01*
X27977Y-4688D01*
X27977Y-5106D01*
X27941Y-5142D01*
X27888Y-5218D01*
X27852Y-5304D01*
X27832Y-5395D01*
X27831Y-5488D01*
X27848Y-5580D01*
X27882Y-5666D01*
X27933Y-5745D01*
X27997Y-5812D01*
X28074Y-5865D01*
X28159Y-5902D01*
X28250Y-5922D01*
X28343Y-5924D01*
X28435Y-5908D01*
X28522Y-5874D01*
X28600Y-5824D01*
X28668Y-5760D01*
X28722Y-5684D01*
X28759Y-5599D01*
X28780Y-5508D01*
X28782Y-5402D01*
X28782Y-6857D01*
X28768Y-6850D01*
X28750Y-6840D01*
X28748Y-6840D01*
X28747Y-6839D01*
X28728Y-6833D01*
X28708Y-6827D01*
X28707Y-6827D01*
X28705Y-6826D01*
X28685Y-6824D01*
X28664Y-6822D01*
X28662Y-6822D01*
X28662Y-6822D01*
X28662Y-6822D01*
X28661Y-6822D01*
X26977Y-6822D01*
X26977Y-4324D01*
X26959Y-4233D01*
X26923Y-4147D01*
X26872Y-4069D01*
X26806Y-4003D01*
X26729Y-3951D01*
X26643Y-3915D01*
X26552Y-3896D01*
X26459Y-3895D01*
X26367Y-3913D01*
X26281Y-3948D01*
X26203Y-3999D01*
X26136Y-4064D01*
X26084Y-4141D01*
X26047Y-4226D01*
X26028Y-4318D01*
X26026Y-4411D01*
X26043Y-4502D01*
X26077Y-4589D01*
X26128Y-4667D01*
X26193Y-4734D01*
X26269Y-4787D01*
X26354Y-4825D01*
X26445Y-4845D01*
X26538Y-4847D01*
X26630Y-4830D01*
X26717Y-4797D01*
X26796Y-4747D01*
X26863Y-4683D01*
X26917Y-4607D01*
X26955Y-4521D01*
X26975Y-4431D01*
X26977Y-4324D01*
X26977Y-6822D01*
X25977Y-6822D01*
X25977Y-4324D01*
X25959Y-4233D01*
X25923Y-4147D01*
X25872Y-4069D01*
X25806Y-4003D01*
X25729Y-3951D01*
X25643Y-3915D01*
X25552Y-3896D01*
X25459Y-3895D01*
X25367Y-3913D01*
X25281Y-3948D01*
X25203Y-3999D01*
X25136Y-4064D01*
X25084Y-4141D01*
X25047Y-4226D01*
X25028Y-4318D01*
X25027Y-4346D01*
X25018Y-4264D01*
X24988Y-4165D01*
X24943Y-4081D01*
X24852Y-4056D01*
X24817Y-4091D01*
X24817Y-4020D01*
X24791Y-3930D01*
X24700Y-3882D01*
X24601Y-3853D01*
X24498Y-3843D01*
X24395Y-3854D01*
X24296Y-3885D01*
X24212Y-3930D01*
X24187Y-4020D01*
X24502Y-4335D01*
X24817Y-4020D01*
X24817Y-4091D01*
X24537Y-4371D01*
X24852Y-4686D01*
X24943Y-4660D01*
X24991Y-4569D01*
X25020Y-4469D01*
X25026Y-4400D01*
X25026Y-4411D01*
X25043Y-4502D01*
X25077Y-4589D01*
X25128Y-4667D01*
X25193Y-4734D01*
X25269Y-4787D01*
X25354Y-4825D01*
X25445Y-4845D01*
X25538Y-4847D01*
X25630Y-4830D01*
X25717Y-4797D01*
X25796Y-4747D01*
X25863Y-4683D01*
X25917Y-4607D01*
X25955Y-4521D01*
X25975Y-4431D01*
X25977Y-4324D01*
X25977Y-6822D01*
X24817Y-6822D01*
X24817Y-4721D01*
X24502Y-4406D01*
X24467Y-4441D01*
X24467Y-4371D01*
X24151Y-4056D01*
X24061Y-4081D01*
X24013Y-4173D01*
X23984Y-4272D01*
X23974Y-4375D01*
X23985Y-4478D01*
X24016Y-4577D01*
X24061Y-4660D01*
X24151Y-4686D01*
X24467Y-4371D01*
X24467Y-4441D01*
X24187Y-4721D01*
X24212Y-4812D01*
X24304Y-4860D01*
X24403Y-4889D01*
X24506Y-4898D01*
X24609Y-4887D01*
X24708Y-4856D01*
X24791Y-4812D01*
X24817Y-4721D01*
X24817Y-6822D01*
X23346Y-6822D01*
X23368Y-6801D01*
X23408Y-6744D01*
X23436Y-6682D01*
X23451Y-6615D01*
X23452Y-6536D01*
X23439Y-6469D01*
X23412Y-6406D01*
X23374Y-6348D01*
X23327Y-6301D01*
X23327Y-3921D01*
X23325Y-3900D01*
X23323Y-3879D01*
X23323Y-3878D01*
X23323Y-3877D01*
X23317Y-3857D01*
X23311Y-3837D01*
X23310Y-3836D01*
X23310Y-3835D01*
X23300Y-3817D01*
X23291Y-3798D01*
X23290Y-3797D01*
X23289Y-3796D01*
X23276Y-3780D01*
X23263Y-3764D01*
X23262Y-3762D01*
X23262Y-3762D01*
X23261Y-3762D01*
X23261Y-3762D01*
X22961Y-3462D01*
X22945Y-3448D01*
X22929Y-3435D01*
X22928Y-3435D01*
X22927Y-3434D01*
X22909Y-3424D01*
X22890Y-3414D01*
X22889Y-3414D01*
X22888Y-3413D01*
X22868Y-3407D01*
X22849Y-3401D01*
X22847Y-3401D01*
X22846Y-3400D01*
X22826Y-3398D01*
X22805Y-3396D01*
X22803Y-3396D01*
X22803Y-3396D01*
X22803Y-3396D01*
X22802Y-3396D01*
X16155Y-3396D01*
X14713Y-1954D01*
X14713Y-944D01*
X14711Y-924D01*
X14709Y-903D01*
X14709Y-902D01*
X14708Y-901D01*
X14702Y-881D01*
X14697Y-861D01*
X14696Y-860D01*
X14696Y-859D01*
X14686Y-840D01*
X14676Y-822D01*
X14676Y-821D01*
X14675Y-820D01*
X14662Y-804D01*
X14649Y-788D01*
X14647Y-786D01*
X14647Y-786D01*
X14647Y-786D01*
X14647Y-785D01*
X14214Y-352D01*
X14198Y-339D01*
X14182Y-326D01*
X14181Y-325D01*
X14180Y-324D01*
X14161Y-315D01*
X14143Y-305D01*
X14142Y-304D01*
X14141Y-304D01*
X14121Y-298D01*
X14101Y-291D01*
X14100Y-291D01*
X14099Y-291D01*
X14078Y-289D01*
X14058Y-286D01*
X14055Y-286D01*
X14055Y-286D01*
X14055Y-286D01*
X14055Y-286D01*
X8700Y-286D01*
X8680Y-288D01*
X8659Y-290D01*
X8658Y-290D01*
X8657Y-291D01*
X8637Y-297D01*
X8617Y-302D01*
X8616Y-303D01*
X8615Y-303D01*
X8596Y-313D01*
X8578Y-323D01*
X8577Y-323D01*
X8576Y-324D01*
X8560Y-337D01*
X8543Y-350D01*
X8542Y-352D01*
X8542Y-352D01*
X8542Y-352D01*
X8541Y-352D01*
X8226Y-667D01*
X8213Y-683D01*
X8200Y-699D01*
X8199Y-700D01*
X8198Y-701D01*
X8189Y-719D01*
X8179Y-738D01*
X8178Y-739D01*
X8178Y-740D01*
X8172Y-760D01*
X8165Y-779D01*
X8165Y-781D01*
X8165Y-782D01*
X8163Y-802D01*
X8160Y-823D01*
X8160Y-825D01*
X8160Y-825D01*
X8160Y-826D01*
X8160Y-826D01*
X8160Y-1530D01*
X8157Y-1532D01*
X8077Y-1584D01*
X8008Y-1652D01*
X7954Y-1731D01*
X7916Y-1819D01*
X7896Y-1913D01*
X7895Y-2009D01*
X7912Y-2104D01*
X7947Y-2193D01*
X7999Y-2274D01*
X8066Y-2343D01*
X8145Y-2398D01*
X8233Y-2436D01*
X8327Y-2457D01*
X8423Y-2459D01*
X8518Y-2442D01*
X8607Y-2407D01*
X8688Y-2356D01*
X8758Y-2290D01*
X8813Y-2211D01*
X8852Y-2123D01*
X8874Y-2030D01*
X8875Y-1920D01*
X8857Y-1826D01*
X8820Y-1737D01*
X8767Y-1657D01*
X8699Y-1589D01*
X8619Y-1535D01*
X8610Y-1531D01*
X8610Y-919D01*
X8793Y-736D01*
X13961Y-736D01*
X14263Y-1038D01*
X14263Y-2047D01*
X14265Y-2067D01*
X14267Y-2088D01*
X14267Y-2089D01*
X14267Y-2090D01*
X14273Y-2110D01*
X14279Y-2130D01*
X14279Y-2131D01*
X14280Y-2132D01*
X14289Y-2151D01*
X14299Y-2169D01*
X14300Y-2170D01*
X14300Y-2171D01*
X14313Y-2187D01*
X14326Y-2204D01*
X14328Y-2205D01*
X14328Y-2205D01*
X14328Y-2205D01*
X14329Y-2206D01*
X15903Y-3780D01*
X15919Y-3793D01*
X15935Y-3806D01*
X15936Y-3807D01*
X15937Y-3808D01*
X15955Y-3818D01*
X15973Y-3828D01*
X15974Y-3828D01*
X15975Y-3828D01*
X15995Y-3835D01*
X16015Y-3841D01*
X16016Y-3841D01*
X16017Y-3841D01*
X16038Y-3843D01*
X16059Y-3846D01*
X16061Y-3846D01*
X16061Y-3846D01*
X16061Y-3846D01*
X16062Y-3846D01*
X22709Y-3846D01*
X22877Y-4014D01*
X22877Y-6301D01*
X22832Y-6345D01*
X22794Y-6401D01*
X22767Y-6464D01*
X22752Y-6532D01*
X22751Y-6600D01*
X22764Y-6668D01*
X22789Y-6732D01*
X22826Y-6789D01*
X22858Y-6822D01*
X21808Y-6822D01*
X21808Y-4802D01*
X21793Y-4723D01*
X21762Y-4648D01*
X21717Y-4581D01*
X21661Y-4524D01*
X21594Y-4479D01*
X21519Y-4447D01*
X21440Y-4431D01*
X21360Y-4431D01*
X21280Y-4446D01*
X21206Y-4476D01*
X21138Y-4520D01*
X21081Y-4576D01*
X21035Y-4643D01*
X21003Y-4717D01*
X20987Y-4796D01*
X20985Y-4877D01*
X21000Y-4956D01*
X21030Y-5031D01*
X21073Y-5099D01*
X21129Y-5157D01*
X21196Y-5203D01*
X21269Y-5235D01*
X21348Y-5252D01*
X21429Y-5254D01*
X21508Y-5240D01*
X21583Y-5211D01*
X21652Y-5168D01*
X21710Y-5112D01*
X21756Y-5046D01*
X21789Y-4972D01*
X21807Y-4894D01*
X21808Y-4802D01*
X21808Y-6822D01*
X21240Y-6822D01*
X20880Y-6822D01*
X20638Y-6580D01*
X20638Y-6220D01*
X20636Y-6199D01*
X20634Y-6179D01*
X20634Y-6177D01*
X20634Y-6176D01*
X20628Y-6156D01*
X20622Y-6136D01*
X20621Y-6135D01*
X20621Y-6134D01*
X20611Y-6116D01*
X20602Y-6097D01*
X20601Y-6097D01*
X20600Y-6095D01*
X20587Y-6079D01*
X20574Y-6063D01*
X20573Y-6061D01*
X20573Y-6061D01*
X20573Y-6061D01*
X20572Y-6061D01*
X20336Y-5825D01*
X20320Y-5811D01*
X20304Y-5798D01*
X20303Y-5798D01*
X20302Y-5797D01*
X20284Y-5787D01*
X20265Y-5777D01*
X20264Y-5777D01*
X20263Y-5776D01*
X20243Y-5770D01*
X20223Y-5764D01*
X20222Y-5764D01*
X20221Y-5763D01*
X20200Y-5761D01*
X20180Y-5759D01*
X20177Y-5759D01*
X20177Y-5759D01*
X20177Y-5759D01*
X20177Y-5759D01*
X19879Y-5759D01*
X19879Y-4802D01*
X19864Y-4723D01*
X19833Y-4648D01*
X19788Y-4581D01*
X19731Y-4524D01*
X19665Y-4479D01*
X19590Y-4447D01*
X19511Y-4431D01*
X19431Y-4431D01*
X19351Y-4446D01*
X19277Y-4476D01*
X19209Y-4520D01*
X19151Y-4576D01*
X19106Y-4643D01*
X19074Y-4717D01*
X19057Y-4796D01*
X19056Y-4877D01*
X19071Y-4956D01*
X19100Y-5031D01*
X19144Y-5099D01*
X19200Y-5157D01*
X19266Y-5203D01*
X19340Y-5235D01*
X19419Y-5252D01*
X19500Y-5254D01*
X19579Y-5240D01*
X19654Y-5211D01*
X19722Y-5168D01*
X19781Y-5112D01*
X19827Y-5046D01*
X19860Y-4972D01*
X19878Y-4894D01*
X19879Y-4802D01*
X19879Y-5759D01*
X19763Y-5759D01*
X19743Y-5761D01*
X19722Y-5763D01*
X19721Y-5763D01*
X19720Y-5763D01*
X19700Y-5769D01*
X19680Y-5775D01*
X19679Y-5775D01*
X19678Y-5776D01*
X19659Y-5785D01*
X19641Y-5795D01*
X19640Y-5796D01*
X19639Y-5796D01*
X19623Y-5809D01*
X19606Y-5822D01*
X19605Y-5824D01*
X19605Y-5824D01*
X19605Y-5824D01*
X19604Y-5825D01*
X19393Y-6036D01*
X19380Y-6052D01*
X19366Y-6068D01*
X19366Y-6069D01*
X19365Y-6070D01*
X19355Y-6088D01*
X19345Y-6107D01*
X19345Y-6108D01*
X19344Y-6109D01*
X19338Y-6129D01*
X19332Y-6148D01*
X19332Y-6150D01*
X19331Y-6151D01*
X19329Y-6171D01*
X19327Y-6192D01*
X19327Y-6194D01*
X19327Y-6194D01*
X19327Y-6194D01*
X19327Y-6195D01*
X19327Y-6501D01*
X19282Y-6545D01*
X19244Y-6601D01*
X19217Y-6664D01*
X19202Y-6732D01*
X19201Y-6800D01*
X19214Y-6868D01*
X19239Y-6932D01*
X19276Y-6989D01*
X19324Y-7039D01*
X19380Y-7078D01*
X19443Y-7105D01*
X19510Y-7120D01*
X19579Y-7121D01*
X19646Y-7109D01*
X19710Y-7085D01*
X19768Y-7048D01*
X19818Y-7001D01*
X19856Y-6946D01*
X20392Y-7481D01*
X20408Y-7495D01*
X20424Y-7508D01*
X20425Y-7509D01*
X20426Y-7509D01*
X20444Y-7519D01*
X20462Y-7529D01*
X20463Y-7529D01*
X20464Y-7530D01*
X20484Y-7536D01*
X20504Y-7542D01*
X20505Y-7543D01*
X20506Y-7543D01*
X20527Y-7545D01*
X20548Y-7547D01*
X20550Y-7547D01*
X20550Y-7547D01*
X20550Y-7547D01*
X20551Y-7547D01*
X24271Y-7547D01*
X24266Y-7554D01*
X24239Y-7618D01*
X24225Y-7685D01*
X24224Y-7753D01*
X24224Y-7756D01*
X24222Y-7759D01*
X21725Y-7759D01*
X21704Y-7761D01*
X21683Y-7763D01*
X21682Y-7763D01*
X21681Y-7763D01*
X21661Y-7769D01*
X21641Y-7775D01*
X21640Y-7775D01*
X21639Y-7776D01*
X21620Y-7785D01*
X21602Y-7795D01*
X21601Y-7796D01*
X21600Y-7796D01*
X21584Y-7809D01*
X21568Y-7822D01*
X21566Y-7824D01*
X21566Y-7824D01*
X21566Y-7824D01*
X21565Y-7825D01*
X18785Y-10605D01*
X14673Y-10605D01*
X14652Y-10607D01*
X14631Y-10609D01*
X14630Y-10609D01*
X14629Y-10609D01*
X14609Y-10616D01*
X14589Y-10621D01*
X14588Y-10622D01*
X14587Y-10622D01*
X14569Y-10632D01*
X14550Y-10642D01*
X14549Y-10642D01*
X14548Y-10643D01*
X14532Y-10656D01*
X14516Y-10669D01*
X14514Y-10671D01*
X14514Y-10671D01*
X14514Y-10671D01*
X14514Y-10671D01*
X12934Y-12251D01*
X11219Y-12251D01*
X11248Y-12236D01*
X11311Y-12186D01*
X11362Y-12124D01*
X11401Y-12054D01*
X11425Y-11977D01*
X11434Y-11897D01*
X11434Y-11892D01*
X11434Y-11690D01*
X11427Y-11610D01*
X11403Y-11533D01*
X11366Y-11462D01*
X11315Y-11400D01*
X11274Y-11366D01*
X12231Y-11366D01*
X12252Y-11364D01*
X12273Y-11362D01*
X12274Y-11362D01*
X12275Y-11362D01*
X12295Y-11356D01*
X12315Y-11350D01*
X12316Y-11350D01*
X12317Y-11349D01*
X12335Y-11340D01*
X12354Y-11330D01*
X12355Y-11329D01*
X12356Y-11329D01*
X12372Y-11316D01*
X12388Y-11303D01*
X12390Y-11301D01*
X12390Y-11301D01*
X12390Y-11301D01*
X12390Y-11300D01*
X13151Y-10540D01*
X13164Y-10524D01*
X13177Y-10508D01*
X13178Y-10507D01*
X13179Y-10506D01*
X13188Y-10488D01*
X13198Y-10470D01*
X13199Y-10469D01*
X13199Y-10467D01*
X13205Y-10448D01*
X13211Y-10430D01*
X13245Y-10430D01*
X13279Y-10424D01*
X13311Y-10410D01*
X13339Y-10391D01*
X13364Y-10367D01*
X13383Y-10338D01*
X13385Y-10333D01*
X13388Y-10338D01*
X13407Y-10367D01*
X13431Y-10391D01*
X13460Y-10410D01*
X13492Y-10424D01*
X13526Y-10430D01*
X13560Y-10430D01*
X14032Y-10430D01*
X14066Y-10424D01*
X14098Y-10410D01*
X14127Y-10391D01*
X14151Y-10367D01*
X14170Y-10338D01*
X14173Y-10333D01*
X14175Y-10338D01*
X14194Y-10367D01*
X14219Y-10391D01*
X14247Y-10410D01*
X14279Y-10424D01*
X14313Y-10430D01*
X14347Y-10430D01*
X14820Y-10430D01*
X14854Y-10424D01*
X14886Y-10410D01*
X14914Y-10391D01*
X14939Y-10367D01*
X14958Y-10338D01*
X14960Y-10333D01*
X14963Y-10338D01*
X14982Y-10367D01*
X15006Y-10391D01*
X15035Y-10410D01*
X15067Y-10424D01*
X15100Y-10430D01*
X15135Y-10430D01*
X15607Y-10430D01*
X15641Y-10424D01*
X15673Y-10410D01*
X15702Y-10391D01*
X15726Y-10367D01*
X15745Y-10338D01*
X15748Y-10333D01*
X15750Y-10338D01*
X15769Y-10367D01*
X15793Y-10391D01*
X15822Y-10410D01*
X15854Y-10424D01*
X15888Y-10430D01*
X15922Y-10430D01*
X16395Y-10430D01*
X16428Y-10424D01*
X16460Y-10410D01*
X16489Y-10391D01*
X16513Y-10367D01*
X16533Y-10338D01*
X16546Y-10306D01*
X16552Y-10273D01*
X16552Y-10238D01*
X16552Y-9766D01*
X16546Y-9732D01*
X16533Y-9700D01*
X16513Y-9671D01*
X16489Y-9647D01*
X16460Y-9628D01*
X16428Y-9615D01*
X16395Y-9608D01*
X16360Y-9608D01*
X15888Y-9608D01*
X15854Y-9615D01*
X15822Y-9628D01*
X15793Y-9647D01*
X15769Y-9671D01*
X15750Y-9700D01*
X15748Y-9706D01*
X15745Y-9700D01*
X15726Y-9671D01*
X15702Y-9647D01*
X15673Y-9628D01*
X15641Y-9615D01*
X15607Y-9608D01*
X15604Y-9608D01*
X15604Y-9055D01*
X15602Y-9032D01*
X15600Y-9009D01*
X15599Y-9007D01*
X15599Y-9006D01*
X15592Y-8984D01*
X15586Y-8962D01*
X15585Y-8961D01*
X15585Y-8959D01*
X15574Y-8939D01*
X15563Y-8918D01*
X15563Y-8917D01*
X15562Y-8916D01*
X15547Y-8898D01*
X15533Y-8880D01*
X15531Y-8878D01*
X15531Y-8878D01*
X15531Y-8878D01*
X15531Y-8878D01*
X14483Y-7830D01*
X14483Y-7800D01*
X14470Y-7732D01*
X14444Y-7669D01*
X14406Y-7612D01*
X14358Y-7563D01*
X14301Y-7525D01*
X14237Y-7498D01*
X14170Y-7484D01*
X14101Y-7484D01*
X14034Y-7497D01*
X13970Y-7522D01*
X13913Y-7560D01*
X13864Y-7608D01*
X13825Y-7665D01*
X13798Y-7728D01*
X13784Y-7795D01*
X13783Y-7864D01*
X13795Y-7931D01*
X13821Y-7995D01*
X13858Y-8053D01*
X13905Y-8102D01*
X13962Y-8141D01*
X14025Y-8169D01*
X14092Y-8183D01*
X14130Y-8184D01*
X15104Y-9158D01*
X15104Y-9608D01*
X15100Y-9608D01*
X15067Y-9615D01*
X15035Y-9628D01*
X15006Y-9647D01*
X14982Y-9671D01*
X14963Y-9700D01*
X14960Y-9706D01*
X14958Y-9700D01*
X14939Y-9671D01*
X14914Y-9647D01*
X14886Y-9628D01*
X14854Y-9615D01*
X14820Y-9608D01*
X14785Y-9608D01*
X14313Y-9608D01*
X14279Y-9615D01*
X14247Y-9628D01*
X14219Y-9647D01*
X14194Y-9671D01*
X14175Y-9700D01*
X14173Y-9706D01*
X14170Y-9700D01*
X14151Y-9671D01*
X14127Y-9647D01*
X14098Y-9628D01*
X14066Y-9615D01*
X14032Y-9608D01*
X13998Y-9608D01*
X13526Y-9608D01*
X13492Y-9615D01*
X13460Y-9628D01*
X13431Y-9647D01*
X13407Y-9671D01*
X13388Y-9700D01*
X13385Y-9706D01*
X13383Y-9700D01*
X13364Y-9671D01*
X13339Y-9647D01*
X13311Y-9628D01*
X13279Y-9615D01*
X13245Y-9608D01*
X13211Y-9608D01*
X12738Y-9608D01*
X12704Y-9615D01*
X12673Y-9628D01*
X12644Y-9647D01*
X12619Y-9671D01*
X12600Y-9700D01*
X12598Y-9706D01*
X12596Y-9700D01*
X12576Y-9671D01*
X12552Y-9647D01*
X12523Y-9628D01*
X12491Y-9615D01*
X12458Y-9608D01*
X12429Y-9608D01*
X12429Y-3516D01*
X12418Y-3414D01*
X12388Y-3315D01*
X12343Y-3231D01*
X12252Y-3206D01*
X12217Y-3241D01*
X12217Y-3170D01*
X12191Y-3080D01*
X12100Y-3032D01*
X12001Y-3003D01*
X11898Y-2993D01*
X11795Y-3004D01*
X11696Y-3035D01*
X11612Y-3080D01*
X11587Y-3170D01*
X11902Y-3485D01*
X12217Y-3170D01*
X12217Y-3241D01*
X11937Y-3521D01*
X12252Y-3836D01*
X12343Y-3810D01*
X12391Y-3719D01*
X12420Y-3619D01*
X12429Y-3516D01*
X12429Y-9608D01*
X12423Y-9608D01*
X12217Y-9608D01*
X12217Y-3871D01*
X11902Y-3556D01*
X11867Y-3591D01*
X11867Y-3521D01*
X11551Y-3206D01*
X11461Y-3231D01*
X11413Y-3323D01*
X11384Y-3422D01*
X11377Y-3501D01*
X11377Y-3474D01*
X11359Y-3383D01*
X11323Y-3297D01*
X11272Y-3219D01*
X11206Y-3153D01*
X11129Y-3101D01*
X11043Y-3065D01*
X10952Y-3046D01*
X10859Y-3045D01*
X10767Y-3063D01*
X10681Y-3098D01*
X10603Y-3149D01*
X10536Y-3214D01*
X10484Y-3291D01*
X10447Y-3376D01*
X10428Y-3468D01*
X10426Y-3561D01*
X10443Y-3652D01*
X10477Y-3739D01*
X10528Y-3817D01*
X10593Y-3884D01*
X10669Y-3937D01*
X10754Y-3975D01*
X10845Y-3995D01*
X10938Y-3997D01*
X11030Y-3980D01*
X11117Y-3947D01*
X11196Y-3897D01*
X11263Y-3833D01*
X11317Y-3757D01*
X11355Y-3671D01*
X11375Y-3581D01*
X11376Y-3540D01*
X11385Y-3628D01*
X11416Y-3727D01*
X11461Y-3810D01*
X11551Y-3836D01*
X11867Y-3521D01*
X11867Y-3591D01*
X11587Y-3871D01*
X11612Y-3962D01*
X11704Y-4010D01*
X11803Y-4039D01*
X11906Y-4048D01*
X12009Y-4037D01*
X12108Y-4006D01*
X12191Y-3962D01*
X12217Y-3871D01*
X12217Y-9608D01*
X11951Y-9608D01*
X11917Y-9615D01*
X11885Y-9628D01*
X11856Y-9647D01*
X11832Y-9671D01*
X11813Y-9700D01*
X11811Y-9706D01*
X11808Y-9700D01*
X11789Y-9671D01*
X11765Y-9647D01*
X11736Y-9628D01*
X11704Y-9615D01*
X11670Y-9608D01*
X11642Y-9608D01*
X11642Y-9186D01*
X11640Y-9165D01*
X11638Y-9144D01*
X11638Y-9143D01*
X11638Y-9142D01*
X11632Y-9122D01*
X11626Y-9102D01*
X11625Y-9101D01*
X11625Y-9100D01*
X11615Y-9082D01*
X11606Y-9063D01*
X11605Y-9062D01*
X11604Y-9061D01*
X11591Y-9045D01*
X11578Y-9029D01*
X11577Y-9027D01*
X11576Y-9027D01*
X11576Y-9027D01*
X11576Y-9027D01*
X11077Y-8528D01*
X11077Y-8208D01*
X11119Y-8237D01*
X11204Y-8275D01*
X11295Y-8295D01*
X11388Y-8297D01*
X11480Y-8280D01*
X11567Y-8247D01*
X11646Y-8197D01*
X11713Y-8133D01*
X11767Y-8057D01*
X11805Y-7971D01*
X11825Y-7881D01*
X11827Y-7774D01*
X11809Y-7683D01*
X11773Y-7597D01*
X11722Y-7519D01*
X11656Y-7453D01*
X11579Y-7401D01*
X11493Y-7365D01*
X11402Y-7346D01*
X11309Y-7345D01*
X11217Y-7363D01*
X11131Y-7398D01*
X11077Y-7433D01*
X11077Y-7314D01*
X11095Y-7296D01*
X11669Y-7296D01*
X11703Y-7289D01*
X11735Y-7276D01*
X11763Y-7257D01*
X11788Y-7232D01*
X11807Y-7204D01*
X11820Y-7172D01*
X11827Y-7138D01*
X11827Y-7104D01*
X11827Y-6504D01*
X11820Y-6470D01*
X11807Y-6438D01*
X11788Y-6409D01*
X11763Y-6385D01*
X11735Y-6366D01*
X11703Y-6352D01*
X11669Y-6346D01*
X11635Y-6346D01*
X11035Y-6346D01*
X11001Y-6352D01*
X10969Y-6366D01*
X10940Y-6385D01*
X10916Y-6409D01*
X10897Y-6438D01*
X10884Y-6470D01*
X10877Y-6504D01*
X10877Y-6538D01*
X10877Y-6878D01*
X10811Y-6943D01*
X10825Y-6881D01*
X10827Y-6774D01*
X10809Y-6683D01*
X10773Y-6597D01*
X10722Y-6519D01*
X10656Y-6453D01*
X10579Y-6401D01*
X10493Y-6365D01*
X10402Y-6346D01*
X10377Y-6346D01*
X10377Y-3474D01*
X10359Y-3383D01*
X10323Y-3297D01*
X10272Y-3219D01*
X10206Y-3153D01*
X10129Y-3101D01*
X10043Y-3065D01*
X9952Y-3046D01*
X9859Y-3045D01*
X9767Y-3063D01*
X9681Y-3098D01*
X9603Y-3149D01*
X9536Y-3214D01*
X9484Y-3291D01*
X9447Y-3376D01*
X9428Y-3468D01*
X9426Y-3561D01*
X9443Y-3652D01*
X9477Y-3739D01*
X9528Y-3817D01*
X9593Y-3884D01*
X9669Y-3937D01*
X9754Y-3975D01*
X9845Y-3995D01*
X9938Y-3997D01*
X10030Y-3980D01*
X10117Y-3947D01*
X10196Y-3897D01*
X10263Y-3833D01*
X10317Y-3757D01*
X10355Y-3671D01*
X10375Y-3581D01*
X10377Y-3474D01*
X10377Y-6346D01*
X10309Y-6345D01*
X10217Y-6363D01*
X10131Y-6398D01*
X10053Y-6449D01*
X9986Y-6514D01*
X9934Y-6591D01*
X9897Y-6676D01*
X9878Y-6768D01*
X9876Y-6861D01*
X9879Y-6875D01*
X9811Y-6943D01*
X9825Y-6881D01*
X9827Y-6774D01*
X9809Y-6683D01*
X9773Y-6597D01*
X9722Y-6519D01*
X9656Y-6453D01*
X9579Y-6401D01*
X9493Y-6365D01*
X9402Y-6346D01*
X9348Y-6346D01*
X9348Y-2916D01*
X9326Y-2807D01*
X9284Y-2704D01*
X9222Y-2611D01*
X9143Y-2532D01*
X9051Y-2469D01*
X8948Y-2426D01*
X8839Y-2404D01*
X8727Y-2403D01*
X8618Y-2424D01*
X8514Y-2466D01*
X8421Y-2527D01*
X8341Y-2605D01*
X8278Y-2697D01*
X8234Y-2799D01*
X8211Y-2908D01*
X8210Y-3020D01*
X8230Y-3129D01*
X8271Y-3233D01*
X8331Y-3327D01*
X8409Y-3407D01*
X8500Y-3471D01*
X8602Y-3515D01*
X8711Y-3539D01*
X8823Y-3542D01*
X8933Y-3522D01*
X9037Y-3482D01*
X9131Y-3422D01*
X9212Y-3345D01*
X9276Y-3254D01*
X9321Y-3152D01*
X9346Y-3044D01*
X9348Y-2916D01*
X9348Y-6346D01*
X9309Y-6345D01*
X9217Y-6363D01*
X9131Y-6398D01*
X9053Y-6449D01*
X8986Y-6514D01*
X8934Y-6591D01*
X8897Y-6676D01*
X8878Y-6768D01*
X8876Y-6861D01*
X8893Y-6952D01*
X8927Y-7039D01*
X8978Y-7117D01*
X9043Y-7184D01*
X9119Y-7237D01*
X9204Y-7275D01*
X9295Y-7295D01*
X9328Y-7295D01*
X9245Y-7304D01*
X9146Y-7335D01*
X9062Y-7380D01*
X9037Y-7470D01*
X9352Y-7785D01*
X9357Y-7780D01*
X9393Y-7815D01*
X9387Y-7821D01*
X9393Y-7826D01*
X9357Y-7862D01*
X9352Y-7856D01*
X9317Y-7891D01*
X9317Y-7821D01*
X9001Y-7506D01*
X8911Y-7531D01*
X8863Y-7623D01*
X8834Y-7722D01*
X8824Y-7825D01*
X8835Y-7928D01*
X8866Y-8027D01*
X8911Y-8110D01*
X9001Y-8136D01*
X9317Y-7821D01*
X9317Y-7891D01*
X9037Y-8171D01*
X9062Y-8262D01*
X9154Y-8310D01*
X9253Y-8339D01*
X9356Y-8348D01*
X9459Y-8337D01*
X9558Y-8306D01*
X9617Y-8275D01*
X9617Y-9608D01*
X9589Y-9608D01*
X9555Y-9615D01*
X9523Y-9628D01*
X9494Y-9647D01*
X9470Y-9671D01*
X9451Y-9700D01*
X9448Y-9706D01*
X9446Y-9700D01*
X9427Y-9671D01*
X9402Y-9647D01*
X9374Y-9628D01*
X9342Y-9615D01*
X9308Y-9608D01*
X9274Y-9608D01*
X8801Y-9608D01*
X8767Y-9615D01*
X8736Y-9628D01*
X8707Y-9647D01*
X8682Y-9671D01*
X8663Y-9700D01*
X8661Y-9706D01*
X8659Y-9700D01*
X8639Y-9671D01*
X8615Y-9647D01*
X8586Y-9628D01*
X8554Y-9615D01*
X8521Y-9608D01*
X8486Y-9608D01*
X8014Y-9608D01*
X7980Y-9615D01*
X7948Y-9628D01*
X7919Y-9647D01*
X7895Y-9671D01*
X7876Y-9700D01*
X7874Y-9706D01*
X7871Y-9700D01*
X7852Y-9671D01*
X7828Y-9647D01*
X7799Y-9628D01*
X7767Y-9615D01*
X7733Y-9608D01*
X7699Y-9608D01*
X7226Y-9608D01*
X7193Y-9615D01*
X7161Y-9628D01*
X7132Y-9647D01*
X7108Y-9671D01*
X7089Y-9700D01*
X7086Y-9706D01*
X7084Y-9700D01*
X7065Y-9671D01*
X7040Y-9647D01*
X7012Y-9628D01*
X6980Y-9615D01*
X6959Y-9611D01*
X6959Y-1964D01*
X6948Y-1859D01*
X6917Y-1757D01*
X6870Y-1670D01*
X6778Y-1642D01*
X6743Y-1678D01*
X6743Y-1607D01*
X6715Y-1515D01*
X6621Y-1465D01*
X6519Y-1435D01*
X6413Y-1425D01*
X6307Y-1437D01*
X6206Y-1468D01*
X6118Y-1515D01*
X6091Y-1607D01*
X6417Y-1933D01*
X6743Y-1607D01*
X6743Y-1678D01*
X6452Y-1968D01*
X6778Y-2294D01*
X6870Y-2266D01*
X6920Y-2172D01*
X6950Y-2070D01*
X6959Y-1964D01*
X6959Y-9611D01*
X6946Y-9608D01*
X6911Y-9608D01*
X6743Y-9608D01*
X6743Y-2329D01*
X6417Y-2003D01*
X6381Y-2039D01*
X6381Y-1968D01*
X6056Y-1642D01*
X5964Y-1670D01*
X5914Y-1764D01*
X5884Y-1866D01*
X5874Y-1972D01*
X5885Y-2077D01*
X5917Y-2179D01*
X5964Y-2266D01*
X6056Y-2294D01*
X6381Y-1968D01*
X6381Y-2039D01*
X6091Y-2329D01*
X6109Y-2389D01*
X6083Y-2384D01*
X5971Y-2383D01*
X5862Y-2404D01*
X5758Y-2446D01*
X5665Y-2507D01*
X5585Y-2585D01*
X5522Y-2677D01*
X5478Y-2779D01*
X5455Y-2889D01*
X5454Y-3000D01*
X5474Y-3110D01*
X5515Y-3213D01*
X5575Y-3307D01*
X5653Y-3387D01*
X5744Y-3451D01*
X5847Y-3496D01*
X5955Y-3520D01*
X6067Y-3522D01*
X6177Y-3503D01*
X6281Y-3462D01*
X6375Y-3403D01*
X6456Y-3326D01*
X6520Y-3235D01*
X6565Y-3133D01*
X6590Y-3024D01*
X6592Y-2896D01*
X6570Y-2787D01*
X6528Y-2684D01*
X6466Y-2591D01*
X6387Y-2512D01*
X6380Y-2507D01*
X6421Y-2511D01*
X6526Y-2499D01*
X6628Y-2468D01*
X6715Y-2421D01*
X6743Y-2329D01*
X6743Y-9608D01*
X6439Y-9608D01*
X6405Y-9615D01*
X6373Y-9628D01*
X6345Y-9647D01*
X6320Y-9671D01*
X6301Y-9700D01*
X6299Y-9706D01*
X6296Y-9700D01*
X6277Y-9671D01*
X6253Y-9647D01*
X6224Y-9628D01*
X6192Y-9615D01*
X6158Y-9608D01*
X6124Y-9608D01*
X5652Y-9608D01*
X5618Y-9615D01*
X5586Y-9628D01*
X5557Y-9647D01*
X5533Y-9671D01*
X5514Y-9700D01*
X5511Y-9706D01*
X5509Y-9700D01*
X5490Y-9671D01*
X5465Y-9647D01*
X5437Y-9628D01*
X5405Y-9615D01*
X5371Y-9608D01*
X5337Y-9608D01*
X4864Y-9608D01*
X4830Y-9615D01*
X4798Y-9628D01*
X4770Y-9647D01*
X4745Y-9671D01*
X4726Y-9700D01*
X4713Y-9732D01*
X4706Y-9766D01*
X4706Y-9800D01*
X4706Y-10273D01*
X4713Y-10306D01*
X4726Y-10338D01*
X4745Y-10367D01*
X4770Y-10391D01*
X4798Y-10410D01*
X4830Y-10424D01*
X4864Y-10430D01*
X4899Y-10430D01*
X5371Y-10430D01*
X5405Y-10424D01*
X5437Y-10410D01*
X5465Y-10391D01*
X5490Y-10367D01*
X5509Y-10338D01*
X5511Y-10333D01*
X5514Y-10338D01*
X5533Y-10367D01*
X5557Y-10391D01*
X5586Y-10410D01*
X5618Y-10424D01*
X5652Y-10430D01*
X5686Y-10430D01*
X6158Y-10430D01*
X6192Y-10424D01*
X6224Y-10410D01*
X6253Y-10391D01*
X6277Y-10367D01*
X6296Y-10338D01*
X6299Y-10333D01*
X6301Y-10338D01*
X6320Y-10367D01*
X6345Y-10391D01*
X6373Y-10410D01*
X6374Y-10411D01*
X5549Y-11235D01*
X5536Y-11251D01*
X5523Y-11267D01*
X5522Y-11268D01*
X5521Y-11269D01*
X5511Y-11288D01*
X5501Y-11306D01*
X5501Y-11307D01*
X5500Y-11308D01*
X5494Y-11328D01*
X5490Y-11342D01*
X5483Y-11346D01*
X5420Y-11396D01*
X5413Y-11405D01*
X5409Y-11400D01*
X5348Y-11349D01*
X5277Y-11311D01*
X5200Y-11287D01*
X5120Y-11279D01*
X5041Y-11286D01*
X4964Y-11309D01*
X4892Y-11346D01*
X4830Y-11396D01*
X4823Y-11405D01*
X4819Y-11400D01*
X4757Y-11349D01*
X4686Y-11311D01*
X4610Y-11287D01*
X4530Y-11279D01*
X4450Y-11286D01*
X4373Y-11309D01*
X4302Y-11346D01*
X4239Y-11396D01*
X4232Y-11405D01*
X4228Y-11400D01*
X4166Y-11349D01*
X4096Y-11311D01*
X4019Y-11287D01*
X3939Y-11279D01*
X3859Y-11286D01*
X3782Y-11309D01*
X3711Y-11346D01*
X3649Y-11396D01*
X3597Y-11458D01*
X3559Y-11528D01*
X3534Y-11604D01*
X3525Y-11684D01*
X3525Y-11690D01*
X3525Y-11892D01*
X3533Y-11972D01*
X3556Y-12048D01*
X3594Y-12119D01*
X3645Y-12181D01*
X3707Y-12233D01*
X3777Y-12271D01*
X3854Y-12295D01*
X3934Y-12303D01*
X4014Y-12296D01*
X4091Y-12273D01*
X4162Y-12236D01*
X4224Y-12186D01*
X4231Y-12177D01*
X4235Y-12181D01*
X4297Y-12233D01*
X4368Y-12271D01*
X4444Y-12295D01*
X4524Y-12303D01*
X4604Y-12296D01*
X4681Y-12273D01*
X4752Y-12236D01*
X4815Y-12186D01*
X4822Y-12177D01*
X4826Y-12181D01*
X4888Y-12233D01*
X4958Y-12271D01*
X5035Y-12295D01*
X5115Y-12303D01*
X5195Y-12296D01*
X5272Y-12273D01*
X5343Y-12236D01*
X5405Y-12186D01*
X5413Y-12177D01*
X5416Y-12181D01*
X5478Y-12233D01*
X5483Y-12235D01*
X5483Y-12303D01*
X5485Y-12323D01*
X5487Y-12344D01*
X5487Y-12345D01*
X5487Y-12346D01*
X5493Y-12366D01*
X5499Y-12386D01*
X5500Y-12387D01*
X5500Y-12388D01*
X5510Y-12407D01*
X5519Y-12425D01*
X5520Y-12426D01*
X5521Y-12427D01*
X5534Y-12443D01*
X5547Y-12460D01*
X5548Y-12461D01*
X5549Y-12461D01*
X5549Y-12461D01*
X5549Y-12462D01*
X6624Y-13537D01*
X6640Y-13550D01*
X6656Y-13563D01*
X6657Y-13564D01*
X6658Y-13564D01*
X6676Y-13574D01*
X6694Y-13584D01*
X6695Y-13585D01*
X6696Y-13585D01*
X6716Y-13591D01*
X6736Y-13598D01*
X6737Y-13598D01*
X6738Y-13598D01*
X6759Y-13600D01*
X6780Y-13602D01*
X6782Y-13602D01*
X6782Y-13602D01*
X6782Y-13602D01*
X6783Y-13602D01*
X13385Y-13602D01*
X13406Y-13600D01*
X13427Y-13599D01*
X13428Y-13598D01*
X13429Y-13598D01*
X13449Y-13592D01*
X13469Y-13586D01*
X13470Y-13586D01*
X13471Y-13585D01*
X13489Y-13576D01*
X13508Y-13566D01*
X13509Y-13565D01*
X13510Y-13565D01*
X13526Y-13552D01*
X13542Y-13539D01*
X13544Y-13537D01*
X13544Y-13537D01*
X13544Y-13537D01*
X13544Y-13537D01*
X15148Y-11933D01*
X19204Y-11933D01*
X19225Y-11931D01*
X19246Y-11929D01*
X19247Y-11929D01*
X19248Y-11929D01*
X19268Y-11923D01*
X19288Y-11917D01*
X19289Y-11917D01*
X19290Y-11916D01*
X19308Y-11906D01*
X19327Y-11897D01*
X19328Y-11896D01*
X19329Y-11896D01*
X19345Y-11882D01*
X19361Y-11869D01*
X19363Y-11868D01*
X19363Y-11868D01*
X19363Y-11868D01*
X19363Y-11867D01*
X21577Y-9654D01*
X22543Y-9654D01*
X22561Y-9652D01*
X22615Y-9664D01*
X22684Y-9665D01*
X22752Y-9653D01*
X22816Y-9628D01*
X22874Y-9592D01*
X22923Y-9544D01*
X22963Y-9488D01*
X22991Y-9425D01*
X23006Y-9359D01*
X23007Y-9280D01*
X22994Y-9213D01*
X22976Y-9169D01*
X24275Y-9169D01*
X24296Y-9167D01*
X24316Y-9166D01*
X24318Y-9165D01*
X24319Y-9165D01*
X24339Y-9159D01*
X24359Y-9153D01*
X24360Y-9153D01*
X24361Y-9152D01*
X24379Y-9143D01*
X24398Y-9133D01*
X24399Y-9132D01*
X24400Y-9132D01*
X24416Y-9119D01*
X24432Y-9106D01*
X24434Y-9104D01*
X24434Y-9104D01*
X24434Y-9104D01*
X24434Y-9103D01*
X24543Y-8995D01*
X24601Y-8996D01*
X24669Y-8984D01*
X24733Y-8959D01*
X24791Y-8922D01*
X24841Y-8875D01*
X24880Y-8819D01*
X24908Y-8756D01*
X24923Y-8689D01*
X24924Y-8611D01*
X24911Y-8544D01*
X24885Y-8480D01*
X24847Y-8423D01*
X24841Y-8417D01*
X24880Y-8362D01*
X24908Y-8299D01*
X24923Y-8233D01*
X24924Y-8154D01*
X24911Y-8087D01*
X24885Y-8023D01*
X24847Y-7966D01*
X24837Y-7957D01*
X24841Y-7954D01*
X24880Y-7898D01*
X24908Y-7835D01*
X24923Y-7768D01*
X24924Y-7690D01*
X24911Y-7622D01*
X24885Y-7559D01*
X24877Y-7547D01*
X27281Y-7547D01*
X27232Y-7595D01*
X27194Y-7651D01*
X27167Y-7714D01*
X27152Y-7782D01*
X27151Y-7850D01*
X27164Y-7918D01*
X27189Y-7982D01*
X27226Y-8039D01*
X27252Y-8066D01*
X27252Y-11517D01*
X27090Y-11679D01*
X26968Y-11679D01*
X24001Y-11679D01*
X23399Y-11077D01*
X23399Y-10087D01*
X23415Y-10072D01*
X23455Y-10016D01*
X23483Y-9953D01*
X23498Y-9886D01*
X23499Y-9808D01*
X23486Y-9740D01*
X23460Y-9677D01*
X23422Y-9620D01*
X23373Y-9571D01*
X23316Y-9533D01*
X23253Y-9506D01*
X23186Y-9492D01*
X23117Y-9492D01*
X23050Y-9505D01*
X22986Y-9530D01*
X22929Y-9568D01*
X22880Y-9616D01*
X22841Y-9673D01*
X22814Y-9736D01*
X22800Y-9803D01*
X22799Y-9871D01*
X22811Y-9939D01*
X22836Y-10003D01*
X22873Y-10060D01*
X22899Y-10087D01*
X22899Y-11181D01*
X22901Y-11204D01*
X22903Y-11227D01*
X22904Y-11228D01*
X22904Y-11229D01*
X22911Y-11251D01*
X22917Y-11273D01*
X22918Y-11275D01*
X22918Y-11276D01*
X22929Y-11296D01*
X22939Y-11317D01*
X22940Y-11318D01*
X22941Y-11319D01*
X22955Y-11337D01*
X22970Y-11355D01*
X22972Y-11357D01*
X22972Y-11357D01*
X22972Y-11357D01*
X22972Y-11357D01*
X23720Y-12105D01*
X23738Y-12120D01*
X23756Y-12135D01*
X23757Y-12136D01*
X23758Y-12136D01*
X23778Y-12147D01*
X23799Y-12158D01*
X23800Y-12159D01*
X23801Y-12159D01*
X23823Y-12166D01*
X23845Y-12173D01*
X23846Y-12173D01*
X23848Y-12174D01*
X23871Y-12176D01*
X23894Y-12179D01*
X23896Y-12179D01*
X23896Y-12179D01*
X23896Y-12179D01*
X23897Y-12179D01*
X26105Y-12179D01*
X26069Y-12214D01*
X26030Y-12271D01*
X26003Y-12334D01*
X25989Y-12401D01*
X25988Y-12470D01*
X26000Y-12537D01*
X26025Y-12601D01*
X26062Y-12659D01*
X26110Y-12708D01*
X26167Y-12747D01*
X26229Y-12775D01*
X26296Y-12790D01*
X26365Y-12791D01*
X26433Y-12779D01*
X26497Y-12754D01*
X26555Y-12718D01*
X26604Y-12670D01*
X26635Y-12626D01*
X28651Y-12626D01*
X28641Y-12649D01*
X28626Y-12716D01*
X28625Y-12785D01*
X28626Y-12787D01*
X28469Y-12944D01*
X22208Y-12944D01*
X22236Y-12882D01*
X22251Y-12815D01*
X22252Y-12736D01*
X22239Y-12669D01*
X22212Y-12606D01*
X22174Y-12548D01*
X22126Y-12500D01*
X22069Y-12461D01*
X22006Y-12435D01*
X21939Y-12421D01*
X21870Y-12421D01*
X21803Y-12433D01*
X21739Y-12459D01*
X21681Y-12497D01*
X21632Y-12545D01*
X21594Y-12601D01*
X21577Y-12641D01*
X21562Y-12606D01*
X21524Y-12548D01*
X21476Y-12500D01*
X21419Y-12461D01*
X21356Y-12435D01*
X21289Y-12421D01*
X21220Y-12421D01*
X21153Y-12433D01*
X21089Y-12459D01*
X21031Y-12497D01*
X20982Y-12545D01*
X20944Y-12601D01*
X20917Y-12664D01*
X20902Y-12732D01*
X20901Y-12800D01*
X20914Y-12868D01*
X20939Y-12932D01*
X20976Y-12989D01*
X21024Y-13039D01*
X21027Y-13041D01*
X21027Y-13094D01*
X21029Y-13114D01*
X21031Y-13135D01*
X21031Y-13136D01*
X21031Y-13137D01*
X21037Y-13157D01*
X21043Y-13177D01*
X21043Y-13178D01*
X21044Y-13179D01*
X21054Y-13198D01*
X21063Y-13216D01*
X21064Y-13217D01*
X21064Y-13218D01*
X21078Y-13234D01*
X21091Y-13250D01*
X21092Y-13252D01*
X21092Y-13252D01*
X21092Y-13252D01*
X21093Y-13253D01*
X21420Y-13580D01*
X21436Y-13593D01*
X21452Y-13606D01*
X21453Y-13607D01*
X21454Y-13608D01*
X21472Y-13618D01*
X21490Y-13628D01*
X21492Y-13628D01*
X21493Y-13628D01*
X21512Y-13635D01*
X21532Y-13641D01*
X21533Y-13641D01*
X21535Y-13641D01*
X21555Y-13643D01*
X21576Y-13646D01*
X21578Y-13646D01*
X21578Y-13646D01*
X21578Y-13646D01*
X21579Y-13646D01*
X28782Y-13646D01*
X28827Y-13693D01*
X28883Y-13732D01*
X28946Y-13759D01*
X29013Y-13774D01*
X29082Y-13775D01*
X29149Y-13763D01*
X29213Y-13739D01*
X29271Y-13702D01*
X29321Y-13655D01*
X29360Y-13598D01*
X29388Y-13536D01*
X29404Y-13469D01*
X29405Y-13390D01*
X29391Y-13323D01*
X29365Y-13260D01*
X29327Y-13202D01*
X29279Y-13154D01*
X29222Y-13115D01*
X29159Y-13089D01*
X29110Y-13079D01*
X29134Y-13069D01*
X29192Y-13033D01*
X29242Y-12985D01*
X29282Y-12929D01*
X29310Y-12866D01*
X29325Y-12799D01*
X29326Y-12721D01*
X29313Y-12654D01*
X29301Y-12626D01*
X30064Y-12626D01*
X31199Y-13761D01*
X31215Y-13774D01*
X31231Y-13788D01*
X31232Y-13788D01*
X31233Y-13789D01*
X31251Y-13799D01*
X31269Y-13809D01*
X31270Y-13809D01*
X31271Y-13810D01*
X31291Y-13816D01*
X31311Y-13822D01*
X31312Y-13822D01*
X31313Y-13822D01*
X31334Y-13825D01*
X31355Y-13827D01*
X31357Y-13827D01*
X31357Y-13827D01*
X31357Y-13827D01*
X31358Y-13827D01*
X40334Y-13827D01*
X40355Y-13825D01*
X40376Y-13823D01*
X40377Y-13823D01*
X40378Y-13823D01*
X40398Y-13817D01*
X40418Y-13811D01*
X40419Y-13810D01*
X40420Y-13810D01*
X40438Y-13800D01*
X40457Y-13791D01*
X40458Y-13790D01*
X40459Y-13789D01*
X40475Y-13776D01*
X40491Y-13763D01*
X40493Y-13762D01*
X40493Y-13762D01*
X40493Y-13761D01*
X40493Y-13761D01*
X40795Y-13459D01*
X40853Y-13460D01*
X40921Y-13448D01*
X40985Y-13424D01*
X41043Y-13387D01*
X41093Y-13340D01*
X41132Y-13283D01*
X41160Y-13221D01*
X41175Y-13154D01*
X41176Y-13075D01*
X41176Y-13978D01*
X2786Y-13978D01*
X2786Y-10583D01*
X2767Y-10491D01*
X2732Y-10405D01*
X2680Y-10328D01*
X2615Y-10262D01*
X2538Y-10210D01*
X2452Y-10173D01*
X2360Y-10155D01*
X2267Y-10154D01*
X2176Y-10172D01*
X2089Y-10206D01*
X2011Y-10257D01*
X1945Y-10323D01*
X1892Y-10399D01*
X1856Y-10485D01*
X1836Y-10576D01*
X1835Y-10669D01*
X1852Y-10761D01*
X1886Y-10848D01*
X1936Y-10926D01*
X2001Y-10993D01*
X2078Y-11046D01*
X2163Y-11083D01*
X2254Y-11103D01*
X2347Y-11105D01*
X2439Y-11089D01*
X2526Y-11055D01*
X2604Y-11006D01*
X2672Y-10941D01*
X2726Y-10865D01*
X2763Y-10780D01*
X2784Y-10689D01*
X2786Y-10583D01*
X2786Y-13978D01*
X1786Y-13978D01*
X1786Y-10583D01*
X1767Y-10491D01*
X1732Y-10405D01*
X1680Y-10328D01*
X1615Y-10262D01*
X1538Y-10210D01*
X1452Y-10173D01*
X1360Y-10155D01*
X1267Y-10154D01*
X1176Y-10172D01*
X1089Y-10206D01*
X1011Y-10257D01*
X945Y-10323D01*
X892Y-10399D01*
X856Y-10485D01*
X836Y-10576D01*
X835Y-10669D01*
X852Y-10761D01*
X886Y-10848D01*
X936Y-10926D01*
X1001Y-10993D01*
X1078Y-11046D01*
X1163Y-11083D01*
X1254Y-11103D01*
X1347Y-11105D01*
X1439Y-11089D01*
X1526Y-11055D01*
X1604Y-11006D01*
X1672Y-10941D01*
X1726Y-10865D01*
X1763Y-10780D01*
X1784Y-10689D01*
X1786Y-10583D01*
X1786Y-13978D01*
X194Y-13978D01*
X194Y-3249D01*
X3249Y-3249D01*
X3249Y-194D01*
X14884Y-194D01*
X14884Y-669D01*
X14884Y-669D01*
X14884Y-669D01*
X14884Y-687D01*
X14884Y-695D01*
X14884Y-704D01*
X14885Y-706D01*
X14935Y-1188D01*
X14939Y-1205D01*
X14942Y-1222D01*
X14943Y-1225D01*
X15086Y-1688D01*
X15093Y-1704D01*
X15100Y-1720D01*
X15101Y-1723D01*
X15331Y-2148D01*
X15341Y-2163D01*
X15351Y-2178D01*
X15352Y-2180D01*
X15661Y-2553D01*
X15673Y-2565D01*
X15686Y-2578D01*
X15688Y-2580D01*
X16063Y-2886D01*
X16078Y-2895D01*
X16092Y-2905D01*
X16095Y-2907D01*
X16095Y-2907D01*
X16522Y-3134D01*
X16538Y-3141D01*
X16555Y-3148D01*
X16557Y-3148D01*
X17021Y-3288D01*
X17038Y-3292D01*
X17055Y-3295D01*
X17058Y-3296D01*
X17540Y-3343D01*
X17548Y-3343D01*
X17557Y-3344D01*
X17559Y-3344D01*
X17577Y-3344D01*
X17585Y-3343D01*
X17594Y-3343D01*
X17596Y-3343D01*
X18078Y-3292D01*
X18095Y-3289D01*
X18112Y-3285D01*
X18115Y-3284D01*
X18577Y-3141D01*
X18594Y-3134D01*
X18610Y-3128D01*
X18612Y-3127D01*
X19038Y-2896D01*
X19053Y-2886D01*
X19068Y-2877D01*
X19070Y-2875D01*
X19443Y-2567D01*
X19455Y-2554D01*
X19468Y-2542D01*
X19469Y-2540D01*
X19775Y-2164D01*
X19785Y-2150D01*
X19795Y-2135D01*
X19796Y-2133D01*
X19796Y-2133D01*
X20024Y-1705D01*
X20030Y-1689D01*
X20037Y-1673D01*
X20038Y-1670D01*
X20038Y-1670D01*
X20178Y-1207D01*
X20181Y-1190D01*
X20185Y-1172D01*
X20185Y-1170D01*
X20233Y-688D01*
X20233Y-680D01*
X20234Y-672D01*
X20234Y-669D01*
X20234Y-194D01*
X23852Y-194D01*
X23852Y-2974D01*
X28544Y-2961D01*
X28544Y-194D01*
X48027Y-194D01*
X48635Y-819D01*
X48566Y-805D01*
X48486Y-805D01*
X48406Y-820D01*
X48332Y-850D01*
X48264Y-894D01*
X48207Y-950D01*
X48161Y-1017D01*
X48129Y-1091D01*
X48112Y-1170D01*
X48111Y-1251D01*
X48126Y-1330D01*
X48156Y-1405D01*
X48199Y-1473D01*
X48255Y-1531D01*
X48322Y-1577D01*
X48395Y-1609D01*
X48474Y-1626D01*
X48555Y-1628D01*
X48634Y-1614D01*
X48709Y-1585D01*
X48778Y-1542D01*
X48836Y-1486D01*
X48882Y-1420D01*
X48915Y-1346D01*
X48933Y-1268D01*
X48934Y-1176D01*
X48922Y-1115D01*
X49125Y-1323D01*
X49126Y-1330D01*
X49156Y-1405D01*
X49199Y-1473D01*
X49255Y-1531D01*
X49322Y-1577D01*
X49395Y-1609D01*
X49404Y-1611D01*
X49600Y-1812D01*
X49566Y-1805D01*
X49486Y-1805D01*
X49406Y-1820D01*
X49332Y-1850D01*
X49264Y-1894D01*
X49207Y-1950D01*
X49161Y-2017D01*
X49129Y-2091D01*
X49112Y-2170D01*
X49111Y-2251D01*
X49126Y-2330D01*
X49156Y-2405D01*
X49199Y-2473D01*
X49255Y-2531D01*
X49322Y-2577D01*
X49395Y-2609D01*
X49474Y-2626D01*
X49555Y-2628D01*
X49634Y-2614D01*
X49709Y-2585D01*
X49778Y-2542D01*
X49836Y-2486D01*
X49882Y-2420D01*
X49915Y-2346D01*
X49933Y-2268D01*
X49934Y-2176D01*
X49929Y-2151D01*
X52871Y-5177D01*
X52852Y-6600D01*
X52852Y-8878D01*
X52991Y-8880D01*
X55513Y-8910D01*
X55513Y-13978D01*
X55513Y-13978D01*
G37*
G54D19*
X55513Y-13978D02*
X52065Y-13978D01*
X52065Y-13217D01*
X52047Y-13125D01*
X52011Y-13039D01*
X51960Y-12962D01*
X51894Y-12896D01*
X51846Y-12863D01*
X51846Y-11107D01*
X51832Y-11040D01*
X51806Y-10976D01*
X51768Y-10919D01*
X51720Y-10870D01*
X51663Y-10832D01*
X51600Y-10805D01*
X51532Y-10791D01*
X51464Y-10791D01*
X51464Y-10791D01*
X50074Y-9401D01*
X50074Y-7721D01*
X50061Y-7654D01*
X50034Y-7590D01*
X49996Y-7533D01*
X49948Y-7484D01*
X49891Y-7446D01*
X49828Y-7419D01*
X49761Y-7406D01*
X49692Y-7405D01*
X49625Y-7418D01*
X49561Y-7444D01*
X49504Y-7481D01*
X49454Y-7529D01*
X49416Y-7586D01*
X49389Y-7649D01*
X49374Y-7716D01*
X49373Y-7785D01*
X49374Y-7787D01*
X49316Y-7845D01*
X48934Y-7845D01*
X48934Y-2176D01*
X48919Y-2097D01*
X48888Y-2022D01*
X48843Y-1955D01*
X48787Y-1898D01*
X48720Y-1853D01*
X48645Y-1821D01*
X48566Y-1805D01*
X48486Y-1805D01*
X48406Y-1820D01*
X48332Y-1850D01*
X48264Y-1894D01*
X48207Y-1950D01*
X48161Y-2017D01*
X48129Y-2091D01*
X48112Y-2170D01*
X48111Y-2251D01*
X48126Y-2330D01*
X48156Y-2405D01*
X48199Y-2473D01*
X48255Y-2531D01*
X48322Y-2577D01*
X48395Y-2609D01*
X48474Y-2626D01*
X48555Y-2628D01*
X48634Y-2614D01*
X48709Y-2585D01*
X48778Y-2542D01*
X48836Y-2486D01*
X48882Y-2420D01*
X48915Y-2346D01*
X48933Y-2268D01*
X48934Y-2176D01*
X48934Y-7845D01*
X47934Y-7845D01*
X47934Y-2176D01*
X47934Y-1176D01*
X47919Y-1097D01*
X47888Y-1022D01*
X47843Y-955D01*
X47787Y-898D01*
X47720Y-853D01*
X47645Y-821D01*
X47566Y-805D01*
X47486Y-805D01*
X47406Y-820D01*
X47332Y-850D01*
X47264Y-894D01*
X47207Y-950D01*
X47161Y-1017D01*
X47129Y-1091D01*
X47112Y-1170D01*
X47111Y-1251D01*
X47126Y-1330D01*
X47156Y-1405D01*
X47199Y-1473D01*
X47255Y-1531D01*
X47322Y-1577D01*
X47395Y-1609D01*
X47474Y-1626D01*
X47555Y-1628D01*
X47634Y-1614D01*
X47709Y-1585D01*
X47778Y-1542D01*
X47836Y-1486D01*
X47882Y-1420D01*
X47915Y-1346D01*
X47933Y-1268D01*
X47934Y-1176D01*
X47934Y-2176D01*
X47919Y-2097D01*
X47888Y-2022D01*
X47843Y-1955D01*
X47787Y-1898D01*
X47720Y-1853D01*
X47645Y-1821D01*
X47566Y-1805D01*
X47486Y-1805D01*
X47406Y-1820D01*
X47332Y-1850D01*
X47264Y-1894D01*
X47207Y-1950D01*
X47161Y-2017D01*
X47129Y-2091D01*
X47112Y-2170D01*
X47111Y-2251D01*
X47126Y-2330D01*
X47156Y-2405D01*
X47199Y-2473D01*
X47255Y-2531D01*
X47322Y-2577D01*
X47395Y-2609D01*
X47474Y-2626D01*
X47555Y-2628D01*
X47634Y-2614D01*
X47709Y-2585D01*
X47778Y-2542D01*
X47836Y-2486D01*
X47882Y-2420D01*
X47915Y-2346D01*
X47933Y-2268D01*
X47934Y-2176D01*
X47934Y-7845D01*
X44117Y-7845D01*
X44066Y-7769D01*
X44001Y-7703D01*
X43923Y-7651D01*
X43837Y-7614D01*
X43746Y-7596D01*
X43653Y-7595D01*
X43562Y-7612D01*
X43475Y-7647D01*
X43397Y-7698D01*
X43331Y-7764D01*
X43278Y-7840D01*
X43241Y-7926D01*
X43222Y-8017D01*
X43221Y-8110D01*
X43238Y-8202D01*
X43272Y-8289D01*
X43322Y-8367D01*
X43387Y-8434D01*
X43463Y-8487D01*
X43549Y-8524D01*
X43640Y-8544D01*
X43733Y-8546D01*
X43825Y-8530D01*
X43912Y-8496D01*
X43990Y-8446D01*
X44058Y-8382D01*
X44111Y-8306D01*
X44116Y-8295D01*
X49409Y-8295D01*
X49430Y-8293D01*
X49450Y-8292D01*
X49451Y-8291D01*
X49453Y-8291D01*
X49473Y-8285D01*
X49493Y-8279D01*
X49494Y-8279D01*
X49495Y-8278D01*
X49513Y-8269D01*
X49531Y-8259D01*
X49532Y-8258D01*
X49533Y-8258D01*
X49550Y-8245D01*
X49566Y-8232D01*
X49567Y-8230D01*
X49567Y-8230D01*
X49568Y-8230D01*
X49568Y-8229D01*
X49693Y-8105D01*
X49751Y-8106D01*
X49818Y-8094D01*
X49882Y-8069D01*
X49940Y-8033D01*
X49990Y-7985D01*
X50030Y-7929D01*
X50058Y-7866D01*
X50073Y-7799D01*
X50074Y-7721D01*
X50074Y-9401D01*
X49584Y-8911D01*
X49568Y-8898D01*
X49552Y-8885D01*
X49551Y-8884D01*
X49550Y-8883D01*
X49532Y-8874D01*
X49513Y-8864D01*
X49512Y-8863D01*
X49511Y-8863D01*
X49491Y-8857D01*
X49471Y-8850D01*
X49470Y-8850D01*
X49469Y-8850D01*
X49449Y-8848D01*
X49428Y-8845D01*
X49426Y-8845D01*
X49425Y-8845D01*
X49425Y-8845D01*
X49425Y-8845D01*
X44117Y-8845D01*
X44066Y-8769D01*
X44001Y-8703D01*
X43923Y-8651D01*
X43837Y-8614D01*
X43746Y-8596D01*
X43653Y-8595D01*
X43562Y-8612D01*
X43475Y-8647D01*
X43397Y-8698D01*
X43331Y-8764D01*
X43278Y-8840D01*
X43241Y-8926D01*
X43222Y-9017D01*
X43221Y-9110D01*
X43238Y-9202D01*
X43272Y-9289D01*
X43322Y-9367D01*
X43387Y-9434D01*
X43463Y-9487D01*
X43549Y-9524D01*
X43640Y-9544D01*
X43672Y-9545D01*
X43589Y-9554D01*
X43491Y-9585D01*
X43407Y-9629D01*
X43381Y-9720D01*
X43696Y-10035D01*
X44011Y-9720D01*
X43986Y-9629D01*
X43894Y-9581D01*
X43795Y-9552D01*
X43729Y-9546D01*
X43733Y-9546D01*
X43825Y-9530D01*
X43912Y-9496D01*
X43990Y-9446D01*
X44058Y-9382D01*
X44111Y-9306D01*
X44116Y-9295D01*
X49331Y-9295D01*
X51146Y-11110D01*
X51145Y-11171D01*
X51157Y-11238D01*
X51183Y-11302D01*
X51220Y-11360D01*
X51268Y-11409D01*
X51324Y-11448D01*
X51387Y-11476D01*
X51454Y-11490D01*
X51523Y-11492D01*
X51590Y-11480D01*
X51654Y-11455D01*
X51712Y-11418D01*
X51762Y-11371D01*
X51801Y-11315D01*
X51829Y-11252D01*
X51844Y-11185D01*
X51846Y-11107D01*
X51846Y-12863D01*
X51817Y-12843D01*
X51731Y-12807D01*
X51640Y-12789D01*
X51547Y-12788D01*
X51455Y-12805D01*
X51369Y-12840D01*
X51291Y-12891D01*
X51224Y-12956D01*
X51172Y-13033D01*
X51135Y-13119D01*
X51116Y-13210D01*
X51114Y-13303D01*
X51131Y-13395D01*
X51166Y-13481D01*
X51216Y-13560D01*
X51281Y-13627D01*
X51357Y-13680D01*
X51443Y-13717D01*
X51534Y-13737D01*
X51627Y-13739D01*
X51718Y-13723D01*
X51805Y-13689D01*
X51884Y-13639D01*
X51951Y-13575D01*
X52005Y-13499D01*
X52043Y-13414D01*
X52064Y-13323D01*
X52065Y-13217D01*
X52065Y-13978D01*
X51065Y-13978D01*
X51065Y-13217D01*
X51047Y-13125D01*
X51011Y-13039D01*
X50960Y-12962D01*
X50894Y-12896D01*
X50817Y-12843D01*
X50731Y-12807D01*
X50640Y-12789D01*
X50547Y-12788D01*
X50455Y-12805D01*
X50369Y-12840D01*
X50291Y-12891D01*
X50224Y-12956D01*
X50172Y-13033D01*
X50135Y-13119D01*
X50116Y-13210D01*
X50114Y-13303D01*
X50131Y-13395D01*
X50166Y-13481D01*
X50216Y-13560D01*
X50281Y-13627D01*
X50357Y-13680D01*
X50443Y-13717D01*
X50534Y-13737D01*
X50627Y-13739D01*
X50718Y-13723D01*
X50805Y-13689D01*
X50884Y-13639D01*
X50951Y-13575D01*
X51005Y-13499D01*
X51043Y-13414D01*
X51064Y-13323D01*
X51065Y-13217D01*
X51065Y-13978D01*
X50065Y-13978D01*
X50065Y-13217D01*
X50047Y-13125D01*
X50011Y-13039D01*
X49960Y-12962D01*
X49894Y-12896D01*
X49817Y-12843D01*
X49731Y-12807D01*
X49640Y-12789D01*
X49547Y-12788D01*
X49455Y-12805D01*
X49369Y-12840D01*
X49291Y-12891D01*
X49224Y-12956D01*
X49172Y-13033D01*
X49135Y-13119D01*
X49116Y-13210D01*
X49114Y-13303D01*
X49131Y-13395D01*
X49166Y-13481D01*
X49216Y-13560D01*
X49281Y-13627D01*
X49357Y-13680D01*
X49443Y-13717D01*
X49534Y-13737D01*
X49627Y-13739D01*
X49718Y-13723D01*
X49805Y-13689D01*
X49884Y-13639D01*
X49951Y-13575D01*
X50005Y-13499D01*
X50043Y-13414D01*
X50064Y-13323D01*
X50065Y-13217D01*
X50065Y-13978D01*
X49065Y-13978D01*
X49065Y-13217D01*
X49047Y-13125D01*
X49011Y-13039D01*
X48960Y-12962D01*
X48894Y-12896D01*
X48817Y-12843D01*
X48731Y-12807D01*
X48640Y-12789D01*
X48547Y-12788D01*
X48455Y-12805D01*
X48369Y-12840D01*
X48291Y-12891D01*
X48224Y-12956D01*
X48172Y-13033D01*
X48135Y-13119D01*
X48116Y-13210D01*
X48114Y-13303D01*
X48131Y-13395D01*
X48166Y-13481D01*
X48216Y-13560D01*
X48281Y-13627D01*
X48357Y-13680D01*
X48443Y-13717D01*
X48534Y-13737D01*
X48627Y-13739D01*
X48718Y-13723D01*
X48805Y-13689D01*
X48884Y-13639D01*
X48951Y-13575D01*
X49005Y-13499D01*
X49043Y-13414D01*
X49064Y-13323D01*
X49065Y-13217D01*
X49065Y-13978D01*
X47712Y-13978D01*
X47712Y-11264D01*
X47698Y-11197D01*
X47672Y-11134D01*
X47634Y-11076D01*
X47586Y-11028D01*
X47529Y-10989D01*
X47466Y-10963D01*
X47398Y-10949D01*
X47330Y-10948D01*
X47330Y-10948D01*
X47206Y-10825D01*
X47190Y-10811D01*
X47174Y-10798D01*
X47173Y-10798D01*
X47172Y-10797D01*
X47154Y-10787D01*
X47135Y-10777D01*
X47134Y-10777D01*
X47133Y-10776D01*
X47113Y-10770D01*
X47094Y-10764D01*
X47092Y-10764D01*
X47091Y-10763D01*
X47071Y-10761D01*
X47050Y-10759D01*
X47048Y-10759D01*
X47048Y-10759D01*
X47047Y-10759D01*
X47047Y-10759D01*
X44783Y-10759D01*
X44762Y-10761D01*
X44742Y-10763D01*
X44740Y-10763D01*
X44739Y-10763D01*
X44719Y-10769D01*
X44699Y-10775D01*
X44698Y-10775D01*
X44697Y-10776D01*
X44679Y-10785D01*
X44660Y-10795D01*
X44659Y-10796D01*
X44658Y-10796D01*
X44642Y-10809D01*
X44626Y-10822D01*
X44624Y-10824D01*
X44624Y-10824D01*
X44624Y-10824D01*
X44624Y-10825D01*
X44224Y-11225D01*
X44224Y-10066D01*
X44213Y-9963D01*
X44182Y-9865D01*
X44137Y-9781D01*
X44047Y-9755D01*
X43732Y-10070D01*
X44047Y-10385D01*
X44137Y-10360D01*
X44185Y-10268D01*
X44215Y-10169D01*
X44224Y-10066D01*
X44224Y-11225D01*
X44171Y-11277D01*
X44171Y-11024D01*
X44153Y-10932D01*
X44118Y-10846D01*
X44066Y-10769D01*
X44001Y-10703D01*
X43923Y-10651D01*
X43837Y-10614D01*
X43746Y-10596D01*
X43723Y-10596D01*
X43803Y-10587D01*
X43902Y-10556D01*
X43986Y-10511D01*
X44011Y-10421D01*
X43696Y-10106D01*
X43661Y-10141D01*
X43661Y-10070D01*
X43346Y-9755D01*
X43255Y-9781D01*
X43207Y-9872D01*
X43178Y-9972D01*
X43169Y-10075D01*
X43180Y-10177D01*
X43211Y-10276D01*
X43255Y-10360D01*
X43346Y-10385D01*
X43661Y-10070D01*
X43661Y-10141D01*
X43381Y-10421D01*
X43407Y-10511D01*
X43498Y-10559D01*
X43598Y-10589D01*
X43670Y-10595D01*
X43653Y-10595D01*
X43562Y-10612D01*
X43475Y-10647D01*
X43397Y-10698D01*
X43331Y-10764D01*
X43278Y-10840D01*
X43241Y-10926D01*
X43222Y-11017D01*
X43221Y-11110D01*
X43238Y-11202D01*
X43272Y-11289D01*
X43322Y-11367D01*
X43387Y-11434D01*
X43463Y-11487D01*
X43549Y-11524D01*
X43640Y-11544D01*
X43733Y-11546D01*
X43825Y-11530D01*
X43912Y-11496D01*
X43990Y-11446D01*
X44058Y-11382D01*
X44111Y-11306D01*
X44149Y-11221D01*
X44170Y-11130D01*
X44171Y-11024D01*
X44171Y-11277D01*
X43835Y-11614D01*
X43746Y-11596D01*
X43653Y-11595D01*
X43562Y-11612D01*
X43475Y-11647D01*
X43397Y-11698D01*
X43331Y-11764D01*
X43278Y-11840D01*
X43241Y-11926D01*
X43222Y-12017D01*
X43221Y-12110D01*
X43238Y-12202D01*
X43272Y-12289D01*
X43322Y-12367D01*
X43387Y-12434D01*
X43463Y-12487D01*
X43549Y-12524D01*
X43640Y-12544D01*
X43733Y-12546D01*
X43825Y-12530D01*
X43912Y-12496D01*
X43990Y-12446D01*
X44058Y-12382D01*
X44111Y-12306D01*
X44149Y-12221D01*
X44170Y-12130D01*
X44171Y-12024D01*
X44153Y-11932D01*
X44153Y-11932D01*
X44876Y-11209D01*
X46954Y-11209D01*
X47012Y-11267D01*
X47011Y-11328D01*
X47024Y-11396D01*
X47049Y-11459D01*
X47086Y-11517D01*
X47134Y-11567D01*
X47190Y-11606D01*
X47253Y-11633D01*
X47320Y-11648D01*
X47389Y-11649D01*
X47456Y-11637D01*
X47520Y-11613D01*
X47578Y-11576D01*
X47628Y-11529D01*
X47668Y-11472D01*
X47695Y-11410D01*
X47711Y-11343D01*
X47712Y-11264D01*
X47712Y-13978D01*
X41176Y-13978D01*
X41176Y-13075D01*
X41163Y-13008D01*
X41137Y-12945D01*
X41099Y-12887D01*
X41050Y-12839D01*
X40994Y-12800D01*
X40930Y-12774D01*
X40863Y-12760D01*
X40794Y-12759D01*
X40727Y-12772D01*
X40663Y-12798D01*
X40606Y-12836D01*
X40557Y-12884D01*
X40518Y-12940D01*
X40491Y-13003D01*
X40477Y-13071D01*
X40476Y-13139D01*
X40476Y-13142D01*
X40241Y-13377D01*
X31451Y-13377D01*
X30316Y-12242D01*
X30300Y-12229D01*
X30284Y-12215D01*
X30283Y-12215D01*
X30282Y-12214D01*
X30264Y-12204D01*
X30246Y-12194D01*
X30244Y-12194D01*
X30243Y-12193D01*
X30224Y-12187D01*
X30204Y-12181D01*
X30203Y-12181D01*
X30201Y-12181D01*
X30181Y-12178D01*
X30160Y-12176D01*
X30158Y-12176D01*
X30158Y-12176D01*
X30158Y-12176D01*
X30157Y-12176D01*
X30129Y-12176D01*
X30129Y-9416D01*
X30118Y-9314D01*
X30088Y-9215D01*
X30043Y-9131D01*
X29952Y-9106D01*
X29637Y-9421D01*
X29952Y-9736D01*
X30043Y-9710D01*
X30091Y-9619D01*
X30120Y-9519D01*
X30129Y-9416D01*
X30129Y-12176D01*
X30077Y-12176D01*
X30077Y-11374D01*
X30077Y-10374D01*
X30059Y-10283D01*
X30023Y-10197D01*
X29972Y-10119D01*
X29906Y-10053D01*
X29829Y-10001D01*
X29743Y-9965D01*
X29652Y-9946D01*
X29628Y-9946D01*
X29709Y-9937D01*
X29808Y-9906D01*
X29891Y-9862D01*
X29917Y-9771D01*
X29602Y-9456D01*
X29567Y-9491D01*
X29567Y-9421D01*
X29251Y-9106D01*
X29161Y-9131D01*
X29113Y-9223D01*
X29084Y-9322D01*
X29074Y-9425D01*
X29085Y-9528D01*
X29116Y-9627D01*
X29161Y-9710D01*
X29251Y-9736D01*
X29567Y-9421D01*
X29567Y-9491D01*
X29287Y-9771D01*
X29312Y-9862D01*
X29404Y-9910D01*
X29503Y-9939D01*
X29576Y-9946D01*
X29559Y-9945D01*
X29467Y-9963D01*
X29381Y-9998D01*
X29303Y-10049D01*
X29236Y-10114D01*
X29184Y-10191D01*
X29147Y-10276D01*
X29128Y-10368D01*
X29126Y-10461D01*
X29143Y-10552D01*
X29177Y-10639D01*
X29228Y-10717D01*
X29293Y-10784D01*
X29369Y-10837D01*
X29454Y-10875D01*
X29545Y-10895D01*
X29638Y-10897D01*
X29730Y-10880D01*
X29817Y-10847D01*
X29896Y-10797D01*
X29963Y-10733D01*
X30017Y-10657D01*
X30055Y-10571D01*
X30075Y-10481D01*
X30077Y-10374D01*
X30077Y-11374D01*
X30059Y-11283D01*
X30023Y-11197D01*
X29972Y-11119D01*
X29906Y-11053D01*
X29829Y-11001D01*
X29743Y-10965D01*
X29652Y-10946D01*
X29559Y-10945D01*
X29467Y-10963D01*
X29381Y-10998D01*
X29303Y-11049D01*
X29236Y-11114D01*
X29184Y-11191D01*
X29147Y-11276D01*
X29128Y-11368D01*
X29126Y-11461D01*
X29143Y-11552D01*
X29177Y-11639D01*
X29228Y-11717D01*
X29293Y-11784D01*
X29369Y-11837D01*
X29454Y-11875D01*
X29545Y-11895D01*
X29638Y-11897D01*
X29730Y-11880D01*
X29817Y-11847D01*
X29896Y-11797D01*
X29963Y-11733D01*
X30017Y-11657D01*
X30055Y-11571D01*
X30075Y-11481D01*
X30077Y-11374D01*
X30077Y-12176D01*
X27220Y-12176D01*
X27240Y-12174D01*
X27241Y-12174D01*
X27243Y-12174D01*
X27265Y-12167D01*
X27287Y-12161D01*
X27288Y-12160D01*
X27289Y-12160D01*
X27310Y-12149D01*
X27330Y-12138D01*
X27331Y-12137D01*
X27332Y-12137D01*
X27350Y-12122D01*
X27368Y-12108D01*
X27370Y-12106D01*
X27370Y-12106D01*
X27370Y-12106D01*
X27371Y-12105D01*
X27679Y-11798D01*
X27693Y-11780D01*
X27708Y-11762D01*
X27709Y-11761D01*
X27710Y-11760D01*
X27721Y-11739D01*
X27732Y-11719D01*
X27732Y-11718D01*
X27733Y-11717D01*
X27739Y-11695D01*
X27746Y-11673D01*
X27747Y-11671D01*
X27747Y-11670D01*
X27749Y-11647D01*
X27752Y-11624D01*
X27752Y-11622D01*
X27752Y-11622D01*
X27752Y-11622D01*
X27752Y-11621D01*
X27752Y-8066D01*
X27768Y-8051D01*
X27808Y-7994D01*
X27836Y-7932D01*
X27851Y-7865D01*
X27852Y-7786D01*
X27839Y-7719D01*
X27812Y-7656D01*
X27774Y-7598D01*
X27726Y-7550D01*
X27722Y-7547D01*
X27938Y-7547D01*
X28970Y-8580D01*
X28986Y-8593D01*
X29002Y-8606D01*
X29003Y-8607D01*
X29004Y-8608D01*
X29023Y-8618D01*
X29041Y-8628D01*
X29042Y-8628D01*
X29043Y-8628D01*
X29063Y-8635D01*
X29083Y-8641D01*
X29084Y-8641D01*
X29085Y-8641D01*
X29106Y-8643D01*
X29126Y-8646D01*
X29129Y-8646D01*
X29129Y-8646D01*
X29129Y-8646D01*
X29129Y-8646D01*
X29182Y-8646D01*
X29228Y-8717D01*
X29293Y-8784D01*
X29369Y-8837D01*
X29454Y-8875D01*
X29545Y-8895D01*
X29578Y-8895D01*
X29495Y-8904D01*
X29396Y-8935D01*
X29312Y-8980D01*
X29287Y-9070D01*
X29602Y-9385D01*
X29917Y-9070D01*
X29891Y-8980D01*
X29800Y-8932D01*
X29701Y-8903D01*
X29634Y-8897D01*
X29638Y-8897D01*
X29730Y-8880D01*
X29817Y-8847D01*
X29896Y-8797D01*
X29963Y-8733D01*
X30017Y-8657D01*
X30022Y-8646D01*
X30454Y-8646D01*
X32183Y-10375D01*
X32199Y-10388D01*
X32215Y-10402D01*
X32216Y-10402D01*
X32217Y-10403D01*
X32235Y-10413D01*
X32253Y-10423D01*
X32255Y-10423D01*
X32256Y-10424D01*
X32275Y-10430D01*
X32295Y-10436D01*
X32296Y-10436D01*
X32298Y-10437D01*
X32318Y-10439D01*
X32339Y-10441D01*
X32341Y-10441D01*
X32341Y-10441D01*
X32341Y-10441D01*
X32342Y-10441D01*
X38195Y-10441D01*
X38236Y-10484D01*
X38292Y-10523D01*
X38355Y-10551D01*
X38422Y-10565D01*
X38491Y-10567D01*
X38559Y-10555D01*
X38623Y-10530D01*
X38681Y-10493D01*
X38730Y-10446D01*
X38770Y-10390D01*
X38798Y-10327D01*
X38813Y-10260D01*
X38814Y-10182D01*
X38801Y-10114D01*
X38775Y-10051D01*
X38737Y-9994D01*
X38688Y-9945D01*
X38631Y-9907D01*
X38568Y-9880D01*
X38501Y-9866D01*
X38432Y-9866D01*
X38365Y-9879D01*
X38301Y-9904D01*
X38244Y-9942D01*
X38195Y-9990D01*
X38194Y-9991D01*
X32435Y-9991D01*
X30706Y-8262D01*
X30690Y-8248D01*
X30674Y-8235D01*
X30673Y-8235D01*
X30672Y-8234D01*
X30654Y-8224D01*
X30635Y-8214D01*
X30634Y-8214D01*
X30633Y-8213D01*
X30613Y-8207D01*
X30594Y-8201D01*
X30592Y-8201D01*
X30591Y-8200D01*
X30571Y-8198D01*
X30550Y-8196D01*
X30548Y-8196D01*
X30548Y-8196D01*
X30547Y-8196D01*
X30547Y-8196D01*
X30023Y-8196D01*
X29972Y-8119D01*
X29906Y-8053D01*
X29829Y-8001D01*
X29743Y-7965D01*
X29652Y-7946D01*
X29559Y-7945D01*
X29467Y-7963D01*
X29381Y-7998D01*
X29303Y-8049D01*
X29236Y-8114D01*
X29197Y-8171D01*
X28299Y-7272D01*
X28568Y-7272D01*
X28876Y-7580D01*
X28892Y-7593D01*
X28908Y-7606D01*
X28909Y-7607D01*
X28910Y-7608D01*
X28928Y-7618D01*
X28946Y-7628D01*
X28947Y-7628D01*
X28948Y-7628D01*
X28968Y-7635D01*
X28988Y-7641D01*
X28989Y-7641D01*
X28990Y-7641D01*
X29011Y-7643D01*
X29032Y-7646D01*
X29034Y-7646D01*
X29034Y-7646D01*
X29034Y-7646D01*
X29035Y-7646D01*
X29182Y-7646D01*
X29228Y-7717D01*
X29293Y-7784D01*
X29369Y-7837D01*
X29454Y-7875D01*
X29545Y-7895D01*
X29638Y-7897D01*
X29730Y-7880D01*
X29817Y-7847D01*
X29896Y-7797D01*
X29963Y-7733D01*
X30017Y-7657D01*
X30022Y-7646D01*
X30497Y-7646D01*
X31809Y-8958D01*
X31825Y-8971D01*
X31841Y-8984D01*
X31842Y-8985D01*
X31843Y-8986D01*
X31861Y-8995D01*
X31879Y-9006D01*
X31880Y-9006D01*
X31882Y-9006D01*
X31901Y-9013D01*
X31921Y-9019D01*
X31922Y-9019D01*
X31924Y-9019D01*
X31944Y-9021D01*
X31965Y-9024D01*
X31967Y-9024D01*
X31967Y-9024D01*
X31967Y-9024D01*
X31968Y-9024D01*
X34113Y-9024D01*
X34109Y-9025D01*
X34031Y-9076D01*
X33965Y-9142D01*
X33912Y-9218D01*
X33875Y-9304D01*
X33856Y-9395D01*
X33855Y-9488D01*
X33871Y-9580D01*
X33906Y-9666D01*
X33956Y-9745D01*
X34021Y-9812D01*
X34097Y-9865D01*
X34183Y-9902D01*
X34274Y-9922D01*
X34367Y-9924D01*
X34459Y-9908D01*
X34545Y-9874D01*
X34624Y-9824D01*
X34692Y-9760D01*
X34745Y-9684D01*
X34783Y-9599D01*
X34804Y-9508D01*
X34805Y-9402D01*
X34787Y-9310D01*
X34752Y-9224D01*
X34700Y-9147D01*
X34634Y-9081D01*
X34557Y-9028D01*
X34546Y-9024D01*
X36003Y-9024D01*
X35999Y-9025D01*
X35921Y-9076D01*
X35854Y-9142D01*
X35802Y-9218D01*
X35765Y-9304D01*
X35746Y-9395D01*
X35744Y-9488D01*
X35761Y-9580D01*
X35795Y-9666D01*
X35846Y-9745D01*
X35911Y-9812D01*
X35987Y-9865D01*
X36072Y-9902D01*
X36163Y-9922D01*
X36257Y-9924D01*
X36348Y-9908D01*
X36435Y-9874D01*
X36514Y-9824D01*
X36581Y-9760D01*
X36635Y-9684D01*
X36673Y-9599D01*
X36694Y-9508D01*
X36695Y-9402D01*
X36677Y-9310D01*
X36641Y-9224D01*
X36590Y-9147D01*
X36524Y-9081D01*
X36447Y-9028D01*
X36436Y-9024D01*
X40039Y-9024D01*
X40060Y-9022D01*
X40080Y-9020D01*
X40081Y-9020D01*
X40083Y-9019D01*
X40102Y-9013D01*
X40122Y-9008D01*
X40123Y-9007D01*
X40125Y-9007D01*
X40143Y-8997D01*
X40161Y-8987D01*
X40162Y-8987D01*
X40163Y-8986D01*
X40179Y-8973D01*
X40196Y-8960D01*
X40197Y-8958D01*
X40197Y-8958D01*
X40197Y-8958D01*
X40198Y-8958D01*
X40736Y-8420D01*
X40794Y-8421D01*
X40862Y-8409D01*
X40926Y-8384D01*
X40984Y-8348D01*
X41033Y-8300D01*
X41073Y-8244D01*
X41101Y-8181D01*
X41116Y-8114D01*
X41117Y-8036D01*
X41104Y-7969D01*
X41078Y-7905D01*
X41040Y-7848D01*
X40991Y-7799D01*
X40934Y-7761D01*
X40871Y-7734D01*
X40804Y-7721D01*
X40735Y-7720D01*
X40668Y-7733D01*
X40604Y-7759D01*
X40547Y-7796D01*
X40498Y-7844D01*
X40459Y-7901D01*
X40432Y-7964D01*
X40418Y-8031D01*
X40417Y-8100D01*
X40417Y-8102D01*
X40281Y-8239D01*
X40281Y-2400D01*
X40265Y-2321D01*
X40234Y-2246D01*
X40190Y-2179D01*
X40133Y-2122D01*
X40066Y-2077D01*
X39992Y-2046D01*
X39913Y-2029D01*
X39832Y-2029D01*
X39753Y-2044D01*
X39678Y-2074D01*
X39611Y-2118D01*
X39553Y-2175D01*
X39507Y-2241D01*
X39476Y-2316D01*
X39459Y-2394D01*
X39458Y-2475D01*
X39472Y-2554D01*
X39502Y-2629D01*
X39546Y-2697D01*
X39602Y-2755D01*
X39668Y-2801D01*
X39742Y-2833D01*
X39821Y-2851D01*
X39901Y-2852D01*
X39981Y-2838D01*
X40056Y-2809D01*
X40124Y-2766D01*
X40182Y-2710D01*
X40229Y-2645D01*
X40262Y-2571D01*
X40280Y-2492D01*
X40281Y-2400D01*
X40281Y-8239D01*
X39946Y-8574D01*
X39281Y-8574D01*
X39281Y-2400D01*
X39265Y-2321D01*
X39234Y-2246D01*
X39190Y-2179D01*
X39133Y-2122D01*
X39066Y-2077D01*
X38992Y-2046D01*
X38913Y-2029D01*
X38832Y-2029D01*
X38753Y-2044D01*
X38678Y-2074D01*
X38611Y-2118D01*
X38553Y-2175D01*
X38507Y-2241D01*
X38476Y-2316D01*
X38459Y-2394D01*
X38458Y-2475D01*
X38472Y-2554D01*
X38502Y-2629D01*
X38546Y-2697D01*
X38602Y-2755D01*
X38623Y-2770D01*
X38017Y-3377D01*
X36934Y-3377D01*
X36934Y-2400D01*
X36919Y-2321D01*
X36888Y-2246D01*
X36843Y-2179D01*
X36787Y-2122D01*
X36720Y-2077D01*
X36645Y-2046D01*
X36566Y-2029D01*
X36486Y-2029D01*
X36406Y-2044D01*
X36332Y-2074D01*
X36264Y-2118D01*
X36207Y-2175D01*
X36161Y-2241D01*
X36129Y-2316D01*
X36112Y-2394D01*
X36111Y-2475D01*
X36126Y-2554D01*
X36156Y-2629D01*
X36199Y-2697D01*
X36255Y-2755D01*
X36322Y-2801D01*
X36395Y-2833D01*
X36474Y-2851D01*
X36555Y-2852D01*
X36634Y-2838D01*
X36709Y-2809D01*
X36778Y-2766D01*
X36836Y-2710D01*
X36882Y-2645D01*
X36915Y-2571D01*
X36933Y-2492D01*
X36934Y-2400D01*
X36934Y-3377D01*
X35934Y-3377D01*
X35934Y-2400D01*
X35919Y-2321D01*
X35888Y-2246D01*
X35843Y-2179D01*
X35787Y-2122D01*
X35720Y-2077D01*
X35645Y-2046D01*
X35566Y-2029D01*
X35486Y-2029D01*
X35406Y-2044D01*
X35332Y-2074D01*
X35264Y-2118D01*
X35207Y-2175D01*
X35161Y-2241D01*
X35129Y-2316D01*
X35112Y-2394D01*
X35111Y-2475D01*
X35126Y-2554D01*
X35156Y-2629D01*
X35199Y-2697D01*
X35255Y-2755D01*
X35298Y-2785D01*
X35298Y-2845D01*
X33340Y-2845D01*
X33295Y-2799D01*
X33238Y-2761D01*
X33174Y-2734D01*
X33107Y-2721D01*
X33038Y-2720D01*
X32971Y-2733D01*
X32907Y-2759D01*
X32850Y-2796D01*
X32801Y-2844D01*
X32762Y-2901D01*
X32735Y-2964D01*
X32721Y-3031D01*
X32720Y-3100D01*
X32732Y-3167D01*
X32758Y-3231D01*
X32795Y-3289D01*
X32842Y-3338D01*
X32899Y-3377D01*
X32962Y-3405D01*
X33029Y-3420D01*
X33097Y-3421D01*
X33165Y-3409D01*
X33229Y-3384D01*
X33287Y-3348D01*
X33337Y-3300D01*
X33340Y-3295D01*
X35393Y-3295D01*
X35414Y-3293D01*
X35435Y-3292D01*
X35436Y-3291D01*
X35437Y-3291D01*
X35457Y-3285D01*
X35477Y-3279D01*
X35478Y-3279D01*
X35479Y-3278D01*
X35497Y-3269D01*
X35516Y-3259D01*
X35517Y-3258D01*
X35518Y-3258D01*
X35534Y-3245D01*
X35550Y-3232D01*
X35552Y-3230D01*
X35552Y-3230D01*
X35552Y-3230D01*
X35552Y-3229D01*
X35682Y-3100D01*
X35695Y-3083D01*
X35709Y-3068D01*
X35709Y-3067D01*
X35710Y-3066D01*
X35720Y-3047D01*
X35730Y-3029D01*
X35730Y-3028D01*
X35731Y-3027D01*
X35737Y-3007D01*
X35743Y-2987D01*
X35743Y-2986D01*
X35744Y-2985D01*
X35746Y-2964D01*
X35748Y-2944D01*
X35748Y-2941D01*
X35748Y-2941D01*
X35748Y-2941D01*
X35748Y-2940D01*
X35748Y-2785D01*
X35778Y-2766D01*
X35836Y-2710D01*
X35882Y-2645D01*
X35915Y-2571D01*
X35933Y-2492D01*
X35934Y-2400D01*
X35934Y-3377D01*
X34192Y-3377D01*
X34172Y-3379D01*
X34151Y-3381D01*
X34150Y-3381D01*
X34149Y-3381D01*
X34129Y-3387D01*
X34109Y-3393D01*
X34108Y-3393D01*
X34107Y-3394D01*
X34088Y-3404D01*
X34070Y-3413D01*
X34069Y-3414D01*
X34068Y-3414D01*
X34052Y-3428D01*
X34036Y-3441D01*
X34034Y-3442D01*
X34034Y-3442D01*
X34034Y-3442D01*
X34033Y-3443D01*
X32951Y-4525D01*
X32937Y-4542D01*
X32924Y-4557D01*
X32924Y-4558D01*
X32923Y-4559D01*
X32913Y-4578D01*
X32903Y-4596D01*
X32903Y-4597D01*
X32902Y-4598D01*
X32896Y-4618D01*
X32890Y-4638D01*
X32890Y-4639D01*
X32889Y-4640D01*
X32887Y-4661D01*
X32885Y-4681D01*
X32885Y-4684D01*
X32885Y-4684D01*
X32885Y-4684D01*
X32885Y-4685D01*
X32885Y-7722D01*
X32840Y-7766D01*
X32837Y-7771D01*
X32837Y-5124D01*
X32837Y-5026D01*
X32837Y-4976D01*
X32837Y-4877D01*
X32823Y-4788D01*
X32792Y-4703D01*
X32745Y-4625D01*
X32684Y-4559D01*
X32611Y-4505D01*
X32529Y-4467D01*
X32472Y-4451D01*
X32401Y-4498D01*
X32401Y-4976D01*
X32837Y-4976D01*
X32837Y-5026D01*
X32401Y-5026D01*
X32401Y-5503D01*
X32472Y-5550D01*
X32529Y-5535D01*
X32611Y-5497D01*
X32684Y-5443D01*
X32745Y-5376D01*
X32792Y-5299D01*
X32823Y-5214D01*
X32837Y-5124D01*
X32837Y-7771D01*
X32802Y-7822D01*
X32775Y-7885D01*
X32760Y-7952D01*
X32759Y-8021D01*
X32772Y-8089D01*
X32797Y-8152D01*
X32834Y-8210D01*
X32882Y-8259D01*
X32938Y-8299D01*
X33001Y-8326D01*
X33068Y-8341D01*
X33137Y-8342D01*
X33204Y-8330D01*
X33268Y-8306D01*
X33326Y-8269D01*
X33376Y-8221D01*
X33416Y-8165D01*
X33443Y-8103D01*
X33459Y-8036D01*
X33460Y-7957D01*
X33446Y-7890D01*
X33420Y-7827D01*
X33382Y-7769D01*
X33335Y-7721D01*
X33335Y-4778D01*
X34286Y-3827D01*
X38110Y-3827D01*
X38130Y-3825D01*
X38151Y-3823D01*
X38152Y-3823D01*
X38153Y-3823D01*
X38173Y-3817D01*
X38193Y-3811D01*
X38194Y-3810D01*
X38195Y-3810D01*
X38214Y-3800D01*
X38232Y-3791D01*
X38233Y-3790D01*
X38234Y-3789D01*
X38250Y-3776D01*
X38267Y-3763D01*
X38268Y-3762D01*
X38268Y-3762D01*
X38268Y-3761D01*
X38269Y-3761D01*
X39029Y-3001D01*
X39042Y-2985D01*
X39055Y-2969D01*
X39056Y-2968D01*
X39057Y-2967D01*
X39066Y-2949D01*
X39076Y-2931D01*
X39077Y-2930D01*
X39077Y-2928D01*
X39083Y-2909D01*
X39090Y-2889D01*
X39090Y-2888D01*
X39090Y-2886D01*
X39092Y-2866D01*
X39095Y-2845D01*
X39095Y-2843D01*
X39095Y-2843D01*
X39095Y-2843D01*
X39095Y-2842D01*
X39095Y-2785D01*
X39124Y-2766D01*
X39182Y-2710D01*
X39229Y-2645D01*
X39262Y-2571D01*
X39280Y-2492D01*
X39281Y-2400D01*
X39281Y-8574D01*
X32351Y-8574D01*
X32351Y-5503D01*
X32351Y-5026D01*
X32343Y-5026D01*
X32343Y-4976D01*
X32351Y-4976D01*
X32351Y-4498D01*
X32279Y-4451D01*
X32222Y-4467D01*
X32140Y-4505D01*
X32067Y-4559D01*
X32006Y-4625D01*
X31959Y-4703D01*
X31954Y-4716D01*
X31931Y-4672D01*
X31880Y-4610D01*
X31818Y-4559D01*
X31748Y-4521D01*
X31671Y-4497D01*
X31591Y-4489D01*
X31511Y-4496D01*
X31434Y-4519D01*
X31363Y-4556D01*
X31300Y-4606D01*
X31249Y-4668D01*
X31210Y-4738D01*
X31186Y-4814D01*
X31177Y-4894D01*
X31177Y-4900D01*
X31177Y-5102D01*
X31185Y-5182D01*
X31208Y-5258D01*
X31246Y-5329D01*
X31296Y-5391D01*
X31338Y-5426D01*
X31338Y-6925D01*
X31325Y-6939D01*
X31286Y-6995D01*
X31259Y-7059D01*
X31244Y-7126D01*
X31244Y-7194D01*
X31256Y-7262D01*
X31281Y-7326D01*
X31318Y-7383D01*
X31366Y-7433D01*
X31422Y-7472D01*
X31485Y-7499D01*
X31552Y-7514D01*
X31621Y-7516D01*
X31689Y-7504D01*
X31753Y-7479D01*
X31811Y-7442D01*
X31860Y-7395D01*
X31900Y-7339D01*
X31928Y-7276D01*
X31943Y-7209D01*
X31944Y-7131D01*
X31931Y-7063D01*
X31905Y-7000D01*
X31867Y-6943D01*
X31838Y-6914D01*
X31838Y-5426D01*
X31876Y-5395D01*
X31927Y-5334D01*
X31954Y-5285D01*
X31959Y-5299D01*
X32006Y-5376D01*
X32067Y-5443D01*
X32140Y-5497D01*
X32222Y-5535D01*
X32279Y-5550D01*
X32351Y-5503D01*
X32351Y-8574D01*
X32061Y-8574D01*
X30749Y-7262D01*
X30733Y-7248D01*
X30717Y-7235D01*
X30716Y-7235D01*
X30715Y-7234D01*
X30697Y-7224D01*
X30679Y-7214D01*
X30678Y-7214D01*
X30677Y-7213D01*
X30657Y-7207D01*
X30637Y-7201D01*
X30636Y-7201D01*
X30635Y-7200D01*
X30614Y-7198D01*
X30593Y-7196D01*
X30591Y-7196D01*
X30591Y-7196D01*
X30591Y-7196D01*
X30590Y-7196D01*
X30077Y-7196D01*
X30077Y-6374D01*
X30077Y-5374D01*
X30059Y-5283D01*
X30023Y-5197D01*
X29972Y-5119D01*
X29906Y-5053D01*
X29829Y-5001D01*
X29743Y-4965D01*
X29652Y-4946D01*
X29559Y-4945D01*
X29467Y-4963D01*
X29381Y-4998D01*
X29303Y-5049D01*
X29236Y-5114D01*
X29184Y-5191D01*
X29147Y-5276D01*
X29128Y-5368D01*
X29126Y-5461D01*
X29143Y-5552D01*
X29177Y-5639D01*
X29228Y-5717D01*
X29293Y-5784D01*
X29369Y-5837D01*
X29454Y-5875D01*
X29545Y-5895D01*
X29638Y-5897D01*
X29730Y-5880D01*
X29817Y-5847D01*
X29896Y-5797D01*
X29963Y-5733D01*
X30017Y-5657D01*
X30055Y-5571D01*
X30075Y-5481D01*
X30077Y-5374D01*
X30077Y-6374D01*
X30059Y-6283D01*
X30023Y-6197D01*
X29972Y-6119D01*
X29906Y-6053D01*
X29829Y-6001D01*
X29743Y-5965D01*
X29652Y-5946D01*
X29559Y-5945D01*
X29467Y-5963D01*
X29381Y-5998D01*
X29303Y-6049D01*
X29236Y-6114D01*
X29184Y-6191D01*
X29147Y-6276D01*
X29128Y-6368D01*
X29126Y-6461D01*
X29143Y-6552D01*
X29177Y-6639D01*
X29228Y-6717D01*
X29293Y-6784D01*
X29369Y-6837D01*
X29454Y-6875D01*
X29545Y-6895D01*
X29638Y-6897D01*
X29730Y-6880D01*
X29817Y-6847D01*
X29896Y-6797D01*
X29963Y-6733D01*
X30017Y-6657D01*
X30055Y-6571D01*
X30075Y-6481D01*
X30077Y-6374D01*
X30077Y-7196D01*
X30023Y-7196D01*
X29972Y-7119D01*
X29906Y-7053D01*
X29829Y-7001D01*
X29743Y-6965D01*
X29652Y-6946D01*
X29559Y-6945D01*
X29467Y-6963D01*
X29381Y-6998D01*
X29303Y-7049D01*
X29236Y-7114D01*
X29184Y-7191D01*
X29181Y-7196D01*
X29128Y-7196D01*
X28820Y-6888D01*
X28804Y-6874D01*
X28788Y-6861D01*
X28787Y-6861D01*
X28786Y-6860D01*
X28782Y-6857D01*
X28782Y-5402D01*
X28764Y-5310D01*
X28728Y-5224D01*
X28676Y-5147D01*
X28611Y-5081D01*
X28534Y-5028D01*
X28448Y-4992D01*
X28356Y-4974D01*
X28263Y-4973D01*
X28172Y-4990D01*
X28085Y-5025D01*
X28008Y-5076D01*
X27977Y-5106D01*
X27977Y-4688D01*
X27977Y-4654D01*
X27977Y-4054D01*
X27970Y-4020D01*
X27957Y-3988D01*
X27938Y-3959D01*
X27913Y-3935D01*
X27885Y-3916D01*
X27853Y-3902D01*
X27819Y-3896D01*
X27785Y-3896D01*
X27185Y-3896D01*
X27151Y-3902D01*
X27119Y-3916D01*
X27090Y-3935D01*
X27066Y-3959D01*
X27047Y-3988D01*
X27034Y-4020D01*
X27027Y-4054D01*
X27027Y-4088D01*
X27027Y-4688D01*
X27034Y-4722D01*
X27047Y-4754D01*
X27066Y-4782D01*
X27090Y-4807D01*
X27119Y-4826D01*
X27151Y-4839D01*
X27185Y-4846D01*
X27219Y-4846D01*
X27819Y-4846D01*
X27853Y-4839D01*
X27885Y-4826D01*
X27913Y-4807D01*
X27938Y-4782D01*
X27957Y-4754D01*
X27970Y-4722D01*
X27977Y-4688D01*
X27977Y-5106D01*
X27941Y-5142D01*
X27888Y-5218D01*
X27852Y-5304D01*
X27832Y-5395D01*
X27831Y-5488D01*
X27848Y-5580D01*
X27882Y-5666D01*
X27933Y-5745D01*
X27997Y-5812D01*
X28074Y-5865D01*
X28159Y-5902D01*
X28250Y-5922D01*
X28343Y-5924D01*
X28435Y-5908D01*
X28522Y-5874D01*
X28600Y-5824D01*
X28668Y-5760D01*
X28722Y-5684D01*
X28759Y-5599D01*
X28780Y-5508D01*
X28782Y-5402D01*
X28782Y-6857D01*
X28768Y-6850D01*
X28750Y-6840D01*
X28748Y-6840D01*
X28747Y-6839D01*
X28728Y-6833D01*
X28708Y-6827D01*
X28707Y-6827D01*
X28705Y-6826D01*
X28685Y-6824D01*
X28664Y-6822D01*
X28662Y-6822D01*
X28662Y-6822D01*
X28662Y-6822D01*
X28661Y-6822D01*
X26977Y-6822D01*
X26977Y-4324D01*
X26959Y-4233D01*
X26923Y-4147D01*
X26872Y-4069D01*
X26806Y-4003D01*
X26729Y-3951D01*
X26643Y-3915D01*
X26552Y-3896D01*
X26459Y-3895D01*
X26367Y-3913D01*
X26281Y-3948D01*
X26203Y-3999D01*
X26136Y-4064D01*
X26084Y-4141D01*
X26047Y-4226D01*
X26028Y-4318D01*
X26026Y-4411D01*
X26043Y-4502D01*
X26077Y-4589D01*
X26128Y-4667D01*
X26193Y-4734D01*
X26269Y-4787D01*
X26354Y-4825D01*
X26445Y-4845D01*
X26538Y-4847D01*
X26630Y-4830D01*
X26717Y-4797D01*
X26796Y-4747D01*
X26863Y-4683D01*
X26917Y-4607D01*
X26955Y-4521D01*
X26975Y-4431D01*
X26977Y-4324D01*
X26977Y-6822D01*
X25977Y-6822D01*
X25977Y-4324D01*
X25959Y-4233D01*
X25923Y-4147D01*
X25872Y-4069D01*
X25806Y-4003D01*
X25729Y-3951D01*
X25643Y-3915D01*
X25552Y-3896D01*
X25459Y-3895D01*
X25367Y-3913D01*
X25281Y-3948D01*
X25203Y-3999D01*
X25136Y-4064D01*
X25084Y-4141D01*
X25047Y-4226D01*
X25028Y-4318D01*
X25027Y-4346D01*
X25018Y-4264D01*
X24988Y-4165D01*
X24943Y-4081D01*
X24852Y-4056D01*
X24817Y-4091D01*
X24817Y-4020D01*
X24791Y-3930D01*
X24700Y-3882D01*
X24601Y-3853D01*
X24498Y-3843D01*
X24395Y-3854D01*
X24296Y-3885D01*
X24212Y-3930D01*
X24187Y-4020D01*
X24502Y-4335D01*
X24817Y-4020D01*
X24817Y-4091D01*
X24537Y-4371D01*
X24852Y-4686D01*
X24943Y-4660D01*
X24991Y-4569D01*
X25020Y-4469D01*
X25026Y-4400D01*
X25026Y-4411D01*
X25043Y-4502D01*
X25077Y-4589D01*
X25128Y-4667D01*
X25193Y-4734D01*
X25269Y-4787D01*
X25354Y-4825D01*
X25445Y-4845D01*
X25538Y-4847D01*
X25630Y-4830D01*
X25717Y-4797D01*
X25796Y-4747D01*
X25863Y-4683D01*
X25917Y-4607D01*
X25955Y-4521D01*
X25975Y-4431D01*
X25977Y-4324D01*
X25977Y-6822D01*
X24817Y-6822D01*
X24817Y-4721D01*
X24502Y-4406D01*
X24467Y-4441D01*
X24467Y-4371D01*
X24151Y-4056D01*
X24061Y-4081D01*
X24013Y-4173D01*
X23984Y-4272D01*
X23974Y-4375D01*
X23985Y-4478D01*
X24016Y-4577D01*
X24061Y-4660D01*
X24151Y-4686D01*
X24467Y-4371D01*
X24467Y-4441D01*
X24187Y-4721D01*
X24212Y-4812D01*
X24304Y-4860D01*
X24403Y-4889D01*
X24506Y-4898D01*
X24609Y-4887D01*
X24708Y-4856D01*
X24791Y-4812D01*
X24817Y-4721D01*
X24817Y-6822D01*
X23346Y-6822D01*
X23368Y-6801D01*
X23408Y-6744D01*
X23436Y-6682D01*
X23451Y-6615D01*
X23452Y-6536D01*
X23439Y-6469D01*
X23412Y-6406D01*
X23374Y-6348D01*
X23327Y-6301D01*
X23327Y-3921D01*
X23325Y-3900D01*
X23323Y-3879D01*
X23323Y-3878D01*
X23323Y-3877D01*
X23317Y-3857D01*
X23311Y-3837D01*
X23310Y-3836D01*
X23310Y-3835D01*
X23300Y-3817D01*
X23291Y-3798D01*
X23290Y-3797D01*
X23289Y-3796D01*
X23276Y-3780D01*
X23263Y-3764D01*
X23262Y-3762D01*
X23262Y-3762D01*
X23261Y-3762D01*
X23261Y-3762D01*
X22961Y-3462D01*
X22945Y-3448D01*
X22929Y-3435D01*
X22928Y-3435D01*
X22927Y-3434D01*
X22909Y-3424D01*
X22890Y-3414D01*
X22889Y-3414D01*
X22888Y-3413D01*
X22868Y-3407D01*
X22849Y-3401D01*
X22847Y-3401D01*
X22846Y-3400D01*
X22826Y-3398D01*
X22805Y-3396D01*
X22803Y-3396D01*
X22803Y-3396D01*
X22803Y-3396D01*
X22802Y-3396D01*
X16155Y-3396D01*
X14713Y-1954D01*
X14713Y-944D01*
X14711Y-924D01*
X14709Y-903D01*
X14709Y-902D01*
X14708Y-901D01*
X14702Y-881D01*
X14697Y-861D01*
X14696Y-860D01*
X14696Y-859D01*
X14686Y-840D01*
X14676Y-822D01*
X14676Y-821D01*
X14675Y-820D01*
X14662Y-804D01*
X14649Y-788D01*
X14647Y-786D01*
X14647Y-786D01*
X14647Y-786D01*
X14647Y-785D01*
X14214Y-352D01*
X14198Y-339D01*
X14182Y-326D01*
X14181Y-325D01*
X14180Y-324D01*
X14161Y-315D01*
X14143Y-305D01*
X14142Y-304D01*
X14141Y-304D01*
X14121Y-298D01*
X14101Y-291D01*
X14100Y-291D01*
X14099Y-291D01*
X14078Y-289D01*
X14058Y-286D01*
X14055Y-286D01*
X14055Y-286D01*
X14055Y-286D01*
X14055Y-286D01*
X8700Y-286D01*
X8680Y-288D01*
X8659Y-290D01*
X8658Y-290D01*
X8657Y-291D01*
X8637Y-297D01*
X8617Y-302D01*
X8616Y-303D01*
X8615Y-303D01*
X8596Y-313D01*
X8578Y-323D01*
X8577Y-323D01*
X8576Y-324D01*
X8560Y-337D01*
X8543Y-350D01*
X8542Y-352D01*
X8542Y-352D01*
X8542Y-352D01*
X8541Y-352D01*
X8226Y-667D01*
X8213Y-683D01*
X8200Y-699D01*
X8199Y-700D01*
X8198Y-701D01*
X8189Y-719D01*
X8179Y-738D01*
X8178Y-739D01*
X8178Y-740D01*
X8172Y-760D01*
X8165Y-779D01*
X8165Y-781D01*
X8165Y-782D01*
X8163Y-802D01*
X8160Y-823D01*
X8160Y-825D01*
X8160Y-825D01*
X8160Y-826D01*
X8160Y-826D01*
X8160Y-1530D01*
X8157Y-1532D01*
X8077Y-1584D01*
X8008Y-1652D01*
X7954Y-1731D01*
X7916Y-1819D01*
X7896Y-1913D01*
X7895Y-2009D01*
X7912Y-2104D01*
X7947Y-2193D01*
X7999Y-2274D01*
X8066Y-2343D01*
X8145Y-2398D01*
X8233Y-2436D01*
X8327Y-2457D01*
X8423Y-2459D01*
X8518Y-2442D01*
X8607Y-2407D01*
X8688Y-2356D01*
X8758Y-2290D01*
X8813Y-2211D01*
X8852Y-2123D01*
X8874Y-2030D01*
X8875Y-1920D01*
X8857Y-1826D01*
X8820Y-1737D01*
X8767Y-1657D01*
X8699Y-1589D01*
X8619Y-1535D01*
X8610Y-1531D01*
X8610Y-919D01*
X8793Y-736D01*
X13961Y-736D01*
X14263Y-1038D01*
X14263Y-2047D01*
X14265Y-2067D01*
X14267Y-2088D01*
X14267Y-2089D01*
X14267Y-2090D01*
X14273Y-2110D01*
X14279Y-2130D01*
X14279Y-2131D01*
X14280Y-2132D01*
X14289Y-2151D01*
X14299Y-2169D01*
X14300Y-2170D01*
X14300Y-2171D01*
X14313Y-2187D01*
X14326Y-2204D01*
X14328Y-2205D01*
X14328Y-2205D01*
X14328Y-2205D01*
X14329Y-2206D01*
X15903Y-3780D01*
X15919Y-3793D01*
X15935Y-3806D01*
X15936Y-3807D01*
X15937Y-3808D01*
X15955Y-3818D01*
X15973Y-3828D01*
X15974Y-3828D01*
X15975Y-3828D01*
X15995Y-3835D01*
X16015Y-3841D01*
X16016Y-3841D01*
X16017Y-3841D01*
X16038Y-3843D01*
X16059Y-3846D01*
X16061Y-3846D01*
X16061Y-3846D01*
X16061Y-3846D01*
X16062Y-3846D01*
X22709Y-3846D01*
X22877Y-4014D01*
X22877Y-6301D01*
X22832Y-6345D01*
X22794Y-6401D01*
X22767Y-6464D01*
X22752Y-6532D01*
X22751Y-6600D01*
X22764Y-6668D01*
X22789Y-6732D01*
X22826Y-6789D01*
X22858Y-6822D01*
X21808Y-6822D01*
X21808Y-4802D01*
X21793Y-4723D01*
X21762Y-4648D01*
X21717Y-4581D01*
X21661Y-4524D01*
X21594Y-4479D01*
X21519Y-4447D01*
X21440Y-4431D01*
X21360Y-4431D01*
X21280Y-4446D01*
X21206Y-4476D01*
X21138Y-4520D01*
X21081Y-4576D01*
X21035Y-4643D01*
X21003Y-4717D01*
X20987Y-4796D01*
X20985Y-4877D01*
X21000Y-4956D01*
X21030Y-5031D01*
X21073Y-5099D01*
X21129Y-5157D01*
X21196Y-5203D01*
X21269Y-5235D01*
X21348Y-5252D01*
X21429Y-5254D01*
X21508Y-5240D01*
X21583Y-5211D01*
X21652Y-5168D01*
X21710Y-5112D01*
X21756Y-5046D01*
X21789Y-4972D01*
X21807Y-4894D01*
X21808Y-4802D01*
X21808Y-6822D01*
X21240Y-6822D01*
X20880Y-6822D01*
X20638Y-6580D01*
X20638Y-6220D01*
X20636Y-6199D01*
X20634Y-6179D01*
X20634Y-6177D01*
X20634Y-6176D01*
X20628Y-6156D01*
X20622Y-6136D01*
X20621Y-6135D01*
X20621Y-6134D01*
X20611Y-6116D01*
X20602Y-6097D01*
X20601Y-6097D01*
X20600Y-6095D01*
X20587Y-6079D01*
X20574Y-6063D01*
X20573Y-6061D01*
X20573Y-6061D01*
X20573Y-6061D01*
X20572Y-6061D01*
X20336Y-5825D01*
X20320Y-5811D01*
X20304Y-5798D01*
X20303Y-5798D01*
X20302Y-5797D01*
X20284Y-5787D01*
X20265Y-5777D01*
X20264Y-5777D01*
X20263Y-5776D01*
X20243Y-5770D01*
X20223Y-5764D01*
X20222Y-5764D01*
X20221Y-5763D01*
X20200Y-5761D01*
X20180Y-5759D01*
X20177Y-5759D01*
X20177Y-5759D01*
X20177Y-5759D01*
X20177Y-5759D01*
X19879Y-5759D01*
X19879Y-4802D01*
X19864Y-4723D01*
X19833Y-4648D01*
X19788Y-4581D01*
X19731Y-4524D01*
X19665Y-4479D01*
X19590Y-4447D01*
X19511Y-4431D01*
X19431Y-4431D01*
X19351Y-4446D01*
X19277Y-4476D01*
X19209Y-4520D01*
X19151Y-4576D01*
X19106Y-4643D01*
X19074Y-4717D01*
X19057Y-4796D01*
X19056Y-4877D01*
X19071Y-4956D01*
X19100Y-5031D01*
X19144Y-5099D01*
X19200Y-5157D01*
X19266Y-5203D01*
X19340Y-5235D01*
X19419Y-5252D01*
X19500Y-5254D01*
X19579Y-5240D01*
X19654Y-5211D01*
X19722Y-5168D01*
X19781Y-5112D01*
X19827Y-5046D01*
X19860Y-4972D01*
X19878Y-4894D01*
X19879Y-4802D01*
X19879Y-5759D01*
X19763Y-5759D01*
X19743Y-5761D01*
X19722Y-5763D01*
X19721Y-5763D01*
X19720Y-5763D01*
X19700Y-5769D01*
X19680Y-5775D01*
X19679Y-5775D01*
X19678Y-5776D01*
X19659Y-5785D01*
X19641Y-5795D01*
X19640Y-5796D01*
X19639Y-5796D01*
X19623Y-5809D01*
X19606Y-5822D01*
X19605Y-5824D01*
X19605Y-5824D01*
X19605Y-5824D01*
X19604Y-5825D01*
X19393Y-6036D01*
X19380Y-6052D01*
X19366Y-6068D01*
X19366Y-6069D01*
X19365Y-6070D01*
X19355Y-6088D01*
X19345Y-6107D01*
X19345Y-6108D01*
X19344Y-6109D01*
X19338Y-6129D01*
X19332Y-6148D01*
X19332Y-6150D01*
X19331Y-6151D01*
X19329Y-6171D01*
X19327Y-6192D01*
X19327Y-6194D01*
X19327Y-6194D01*
X19327Y-6194D01*
X19327Y-6195D01*
X19327Y-6501D01*
X19282Y-6545D01*
X19244Y-6601D01*
X19217Y-6664D01*
X19202Y-6732D01*
X19201Y-6800D01*
X19214Y-6868D01*
X19239Y-6932D01*
X19276Y-6989D01*
X19324Y-7039D01*
X19380Y-7078D01*
X19443Y-7105D01*
X19510Y-7120D01*
X19579Y-7121D01*
X19646Y-7109D01*
X19710Y-7085D01*
X19768Y-7048D01*
X19818Y-7001D01*
X19856Y-6946D01*
X20392Y-7481D01*
X20408Y-7495D01*
X20424Y-7508D01*
X20425Y-7509D01*
X20426Y-7509D01*
X20444Y-7519D01*
X20462Y-7529D01*
X20463Y-7529D01*
X20464Y-7530D01*
X20484Y-7536D01*
X20504Y-7542D01*
X20505Y-7543D01*
X20506Y-7543D01*
X20527Y-7545D01*
X20548Y-7547D01*
X20550Y-7547D01*
X20550Y-7547D01*
X20550Y-7547D01*
X20551Y-7547D01*
X24271Y-7547D01*
X24266Y-7554D01*
X24239Y-7618D01*
X24225Y-7685D01*
X24224Y-7753D01*
X24224Y-7756D01*
X24222Y-7759D01*
X21725Y-7759D01*
X21704Y-7761D01*
X21683Y-7763D01*
X21682Y-7763D01*
X21681Y-7763D01*
X21661Y-7769D01*
X21641Y-7775D01*
X21640Y-7775D01*
X21639Y-7776D01*
X21620Y-7785D01*
X21602Y-7795D01*
X21601Y-7796D01*
X21600Y-7796D01*
X21584Y-7809D01*
X21568Y-7822D01*
X21566Y-7824D01*
X21566Y-7824D01*
X21566Y-7824D01*
X21565Y-7825D01*
X18785Y-10605D01*
X14673Y-10605D01*
X14652Y-10607D01*
X14631Y-10609D01*
X14630Y-10609D01*
X14629Y-10609D01*
X14609Y-10616D01*
X14589Y-10621D01*
X14588Y-10622D01*
X14587Y-10622D01*
X14569Y-10632D01*
X14550Y-10642D01*
X14549Y-10642D01*
X14548Y-10643D01*
X14532Y-10656D01*
X14516Y-10669D01*
X14514Y-10671D01*
X14514Y-10671D01*
X14514Y-10671D01*
X14514Y-10671D01*
X12934Y-12251D01*
X11219Y-12251D01*
X11248Y-12236D01*
X11311Y-12186D01*
X11362Y-12124D01*
X11401Y-12054D01*
X11425Y-11977D01*
X11434Y-11897D01*
X11434Y-11892D01*
X11434Y-11690D01*
X11427Y-11610D01*
X11403Y-11533D01*
X11366Y-11462D01*
X11315Y-11400D01*
X11274Y-11366D01*
X12231Y-11366D01*
X12252Y-11364D01*
X12273Y-11362D01*
X12274Y-11362D01*
X12275Y-11362D01*
X12295Y-11356D01*
X12315Y-11350D01*
X12316Y-11350D01*
X12317Y-11349D01*
X12335Y-11340D01*
X12354Y-11330D01*
X12355Y-11329D01*
X12356Y-11329D01*
X12372Y-11316D01*
X12388Y-11303D01*
X12390Y-11301D01*
X12390Y-11301D01*
X12390Y-11301D01*
X12390Y-11300D01*
X13151Y-10540D01*
X13164Y-10524D01*
X13177Y-10508D01*
X13178Y-10507D01*
X13179Y-10506D01*
X13188Y-10488D01*
X13198Y-10470D01*
X13199Y-10469D01*
X13199Y-10467D01*
X13205Y-10448D01*
X13211Y-10430D01*
X13245Y-10430D01*
X13279Y-10424D01*
X13311Y-10410D01*
X13339Y-10391D01*
X13364Y-10367D01*
X13383Y-10338D01*
X13385Y-10333D01*
X13388Y-10338D01*
X13407Y-10367D01*
X13431Y-10391D01*
X13460Y-10410D01*
X13492Y-10424D01*
X13526Y-10430D01*
X13560Y-10430D01*
X14032Y-10430D01*
X14066Y-10424D01*
X14098Y-10410D01*
X14127Y-10391D01*
X14151Y-10367D01*
X14170Y-10338D01*
X14173Y-10333D01*
X14175Y-10338D01*
X14194Y-10367D01*
X14219Y-10391D01*
X14247Y-10410D01*
X14279Y-10424D01*
X14313Y-10430D01*
X14347Y-10430D01*
X14820Y-10430D01*
X14854Y-10424D01*
X14886Y-10410D01*
X14914Y-10391D01*
X14939Y-10367D01*
X14958Y-10338D01*
X14960Y-10333D01*
X14963Y-10338D01*
X14982Y-10367D01*
X15006Y-10391D01*
X15035Y-10410D01*
X15067Y-10424D01*
X15100Y-10430D01*
X15135Y-10430D01*
X15607Y-10430D01*
X15641Y-10424D01*
X15673Y-10410D01*
X15702Y-10391D01*
X15726Y-10367D01*
X15745Y-10338D01*
X15748Y-10333D01*
X15750Y-10338D01*
X15769Y-10367D01*
X15793Y-10391D01*
X15822Y-10410D01*
X15854Y-10424D01*
X15888Y-10430D01*
X15922Y-10430D01*
X16395Y-10430D01*
X16428Y-10424D01*
X16460Y-10410D01*
X16489Y-10391D01*
X16513Y-10367D01*
X16533Y-10338D01*
X16546Y-10306D01*
X16552Y-10273D01*
X16552Y-10238D01*
X16552Y-9766D01*
X16546Y-9732D01*
X16533Y-9700D01*
X16513Y-9671D01*
X16489Y-9647D01*
X16460Y-9628D01*
X16428Y-9615D01*
X16395Y-9608D01*
X16360Y-9608D01*
X15888Y-9608D01*
X15854Y-9615D01*
X15822Y-9628D01*
X15793Y-9647D01*
X15769Y-9671D01*
X15750Y-9700D01*
X15748Y-9706D01*
X15745Y-9700D01*
X15726Y-9671D01*
X15702Y-9647D01*
X15673Y-9628D01*
X15641Y-9615D01*
X15607Y-9608D01*
X15604Y-9608D01*
X15604Y-9055D01*
X15602Y-9032D01*
X15600Y-9009D01*
X15599Y-9007D01*
X15599Y-9006D01*
X15592Y-8984D01*
X15586Y-8962D01*
X15585Y-8961D01*
X15585Y-8959D01*
X15574Y-8939D01*
X15563Y-8918D01*
X15563Y-8917D01*
X15562Y-8916D01*
X15547Y-8898D01*
X15533Y-8880D01*
X15531Y-8878D01*
X15531Y-8878D01*
X15531Y-8878D01*
X15531Y-8878D01*
X14483Y-7830D01*
X14483Y-7800D01*
X14470Y-7732D01*
X14444Y-7669D01*
X14406Y-7612D01*
X14358Y-7563D01*
X14301Y-7525D01*
X14237Y-7498D01*
X14170Y-7484D01*
X14101Y-7484D01*
X14034Y-7497D01*
X13970Y-7522D01*
X13913Y-7560D01*
X13864Y-7608D01*
X13825Y-7665D01*
X13798Y-7728D01*
X13784Y-7795D01*
X13783Y-7864D01*
X13795Y-7931D01*
X13821Y-7995D01*
X13858Y-8053D01*
X13905Y-8102D01*
X13962Y-8141D01*
X14025Y-8169D01*
X14092Y-8183D01*
X14130Y-8184D01*
X15104Y-9158D01*
X15104Y-9608D01*
X15100Y-9608D01*
X15067Y-9615D01*
X15035Y-9628D01*
X15006Y-9647D01*
X14982Y-9671D01*
X14963Y-9700D01*
X14960Y-9706D01*
X14958Y-9700D01*
X14939Y-9671D01*
X14914Y-9647D01*
X14886Y-9628D01*
X14854Y-9615D01*
X14820Y-9608D01*
X14785Y-9608D01*
X14313Y-9608D01*
X14279Y-9615D01*
X14247Y-9628D01*
X14219Y-9647D01*
X14194Y-9671D01*
X14175Y-9700D01*
X14173Y-9706D01*
X14170Y-9700D01*
X14151Y-9671D01*
X14127Y-9647D01*
X14098Y-9628D01*
X14066Y-9615D01*
X14032Y-9608D01*
X13998Y-9608D01*
X13526Y-9608D01*
X13492Y-9615D01*
X13460Y-9628D01*
X13431Y-9647D01*
X13407Y-9671D01*
X13388Y-9700D01*
X13385Y-9706D01*
X13383Y-9700D01*
X13364Y-9671D01*
X13339Y-9647D01*
X13311Y-9628D01*
X13279Y-9615D01*
X13245Y-9608D01*
X13211Y-9608D01*
X12738Y-9608D01*
X12704Y-9615D01*
X12673Y-9628D01*
X12644Y-9647D01*
X12619Y-9671D01*
X12600Y-9700D01*
X12598Y-9706D01*
X12596Y-9700D01*
X12576Y-9671D01*
X12552Y-9647D01*
X12523Y-9628D01*
X12491Y-9615D01*
X12458Y-9608D01*
X12429Y-9608D01*
X12429Y-3516D01*
X12418Y-3414D01*
X12388Y-3315D01*
X12343Y-3231D01*
X12252Y-3206D01*
X12217Y-3241D01*
X12217Y-3170D01*
X12191Y-3080D01*
X12100Y-3032D01*
X12001Y-3003D01*
X11898Y-2993D01*
X11795Y-3004D01*
X11696Y-3035D01*
X11612Y-3080D01*
X11587Y-3170D01*
X11902Y-3485D01*
X12217Y-3170D01*
X12217Y-3241D01*
X11937Y-3521D01*
X12252Y-3836D01*
X12343Y-3810D01*
X12391Y-3719D01*
X12420Y-3619D01*
X12429Y-3516D01*
X12429Y-9608D01*
X12423Y-9608D01*
X12217Y-9608D01*
X12217Y-3871D01*
X11902Y-3556D01*
X11867Y-3591D01*
X11867Y-3521D01*
X11551Y-3206D01*
X11461Y-3231D01*
X11413Y-3323D01*
X11384Y-3422D01*
X11377Y-3501D01*
X11377Y-3474D01*
X11359Y-3383D01*
X11323Y-3297D01*
X11272Y-3219D01*
X11206Y-3153D01*
X11129Y-3101D01*
X11043Y-3065D01*
X10952Y-3046D01*
X10859Y-3045D01*
X10767Y-3063D01*
X10681Y-3098D01*
X10603Y-3149D01*
X10536Y-3214D01*
X10484Y-3291D01*
X10447Y-3376D01*
X10428Y-3468D01*
X10426Y-3561D01*
X10443Y-3652D01*
X10477Y-3739D01*
X10528Y-3817D01*
X10593Y-3884D01*
X10669Y-3937D01*
X10754Y-3975D01*
X10845Y-3995D01*
X10938Y-3997D01*
X11030Y-3980D01*
X11117Y-3947D01*
X11196Y-3897D01*
X11263Y-3833D01*
X11317Y-3757D01*
X11355Y-3671D01*
X11375Y-3581D01*
X11376Y-3540D01*
X11385Y-3628D01*
X11416Y-3727D01*
X11461Y-3810D01*
X11551Y-3836D01*
X11867Y-3521D01*
X11867Y-3591D01*
X11587Y-3871D01*
X11612Y-3962D01*
X11704Y-4010D01*
X11803Y-4039D01*
X11906Y-4048D01*
X12009Y-4037D01*
X12108Y-4006D01*
X12191Y-3962D01*
X12217Y-3871D01*
X12217Y-9608D01*
X11951Y-9608D01*
X11917Y-9615D01*
X11885Y-9628D01*
X11856Y-9647D01*
X11832Y-9671D01*
X11813Y-9700D01*
X11811Y-9706D01*
X11808Y-9700D01*
X11789Y-9671D01*
X11765Y-9647D01*
X11736Y-9628D01*
X11704Y-9615D01*
X11670Y-9608D01*
X11642Y-9608D01*
X11642Y-9186D01*
X11640Y-9165D01*
X11638Y-9144D01*
X11638Y-9143D01*
X11638Y-9142D01*
X11632Y-9122D01*
X11626Y-9102D01*
X11625Y-9101D01*
X11625Y-9100D01*
X11615Y-9082D01*
X11606Y-9063D01*
X11605Y-9062D01*
X11604Y-9061D01*
X11591Y-9045D01*
X11578Y-9029D01*
X11577Y-9027D01*
X11576Y-9027D01*
X11576Y-9027D01*
X11576Y-9027D01*
X11077Y-8528D01*
X11077Y-8208D01*
X11119Y-8237D01*
X11204Y-8275D01*
X11295Y-8295D01*
X11388Y-8297D01*
X11480Y-8280D01*
X11567Y-8247D01*
X11646Y-8197D01*
X11713Y-8133D01*
X11767Y-8057D01*
X11805Y-7971D01*
X11825Y-7881D01*
X11827Y-7774D01*
X11809Y-7683D01*
X11773Y-7597D01*
X11722Y-7519D01*
X11656Y-7453D01*
X11579Y-7401D01*
X11493Y-7365D01*
X11402Y-7346D01*
X11309Y-7345D01*
X11217Y-7363D01*
X11131Y-7398D01*
X11077Y-7433D01*
X11077Y-7314D01*
X11095Y-7296D01*
X11669Y-7296D01*
X11703Y-7289D01*
X11735Y-7276D01*
X11763Y-7257D01*
X11788Y-7232D01*
X11807Y-7204D01*
X11820Y-7172D01*
X11827Y-7138D01*
X11827Y-7104D01*
X11827Y-6504D01*
X11820Y-6470D01*
X11807Y-6438D01*
X11788Y-6409D01*
X11763Y-6385D01*
X11735Y-6366D01*
X11703Y-6352D01*
X11669Y-6346D01*
X11635Y-6346D01*
X11035Y-6346D01*
X11001Y-6352D01*
X10969Y-6366D01*
X10940Y-6385D01*
X10916Y-6409D01*
X10897Y-6438D01*
X10884Y-6470D01*
X10877Y-6504D01*
X10877Y-6538D01*
X10877Y-6878D01*
X10811Y-6943D01*
X10825Y-6881D01*
X10827Y-6774D01*
X10809Y-6683D01*
X10773Y-6597D01*
X10722Y-6519D01*
X10656Y-6453D01*
X10579Y-6401D01*
X10493Y-6365D01*
X10402Y-6346D01*
X10377Y-6346D01*
X10377Y-3474D01*
X10359Y-3383D01*
X10323Y-3297D01*
X10272Y-3219D01*
X10206Y-3153D01*
X10129Y-3101D01*
X10043Y-3065D01*
X9952Y-3046D01*
X9859Y-3045D01*
X9767Y-3063D01*
X9681Y-3098D01*
X9603Y-3149D01*
X9536Y-3214D01*
X9484Y-3291D01*
X9447Y-3376D01*
X9428Y-3468D01*
X9426Y-3561D01*
X9443Y-3652D01*
X9477Y-3739D01*
X9528Y-3817D01*
X9593Y-3884D01*
X9669Y-3937D01*
X9754Y-3975D01*
X9845Y-3995D01*
X9938Y-3997D01*
X10030Y-3980D01*
X10117Y-3947D01*
X10196Y-3897D01*
X10263Y-3833D01*
X10317Y-3757D01*
X10355Y-3671D01*
X10375Y-3581D01*
X10377Y-3474D01*
X10377Y-6346D01*
X10309Y-6345D01*
X10217Y-6363D01*
X10131Y-6398D01*
X10053Y-6449D01*
X9986Y-6514D01*
X9934Y-6591D01*
X9897Y-6676D01*
X9878Y-6768D01*
X9876Y-6861D01*
X9879Y-6875D01*
X9811Y-6943D01*
X9825Y-6881D01*
X9827Y-6774D01*
X9809Y-6683D01*
X9773Y-6597D01*
X9722Y-6519D01*
X9656Y-6453D01*
X9579Y-6401D01*
X9493Y-6365D01*
X9402Y-6346D01*
X9348Y-6346D01*
X9348Y-2916D01*
X9326Y-2807D01*
X9284Y-2704D01*
X9222Y-2611D01*
X9143Y-2532D01*
X9051Y-2469D01*
X8948Y-2426D01*
X8839Y-2404D01*
X8727Y-2403D01*
X8618Y-2424D01*
X8514Y-2466D01*
X8421Y-2527D01*
X8341Y-2605D01*
X8278Y-2697D01*
X8234Y-2799D01*
X8211Y-2908D01*
X8210Y-3020D01*
X8230Y-3129D01*
X8271Y-3233D01*
X8331Y-3327D01*
X8409Y-3407D01*
X8500Y-3471D01*
X8602Y-3515D01*
X8711Y-3539D01*
X8823Y-3542D01*
X8933Y-3522D01*
X9037Y-3482D01*
X9131Y-3422D01*
X9212Y-3345D01*
X9276Y-3254D01*
X9321Y-3152D01*
X9346Y-3044D01*
X9348Y-2916D01*
X9348Y-6346D01*
X9309Y-6345D01*
X9217Y-6363D01*
X9131Y-6398D01*
X9053Y-6449D01*
X8986Y-6514D01*
X8934Y-6591D01*
X8897Y-6676D01*
X8878Y-6768D01*
X8876Y-6861D01*
X8893Y-6952D01*
X8927Y-7039D01*
X8978Y-7117D01*
X9043Y-7184D01*
X9119Y-7237D01*
X9204Y-7275D01*
X9295Y-7295D01*
X9328Y-7295D01*
X9245Y-7304D01*
X9146Y-7335D01*
X9062Y-7380D01*
X9037Y-7470D01*
X9352Y-7785D01*
X9357Y-7780D01*
X9393Y-7815D01*
X9387Y-7821D01*
X9393Y-7826D01*
X9357Y-7862D01*
X9352Y-7856D01*
X9317Y-7891D01*
X9317Y-7821D01*
X9001Y-7506D01*
X8911Y-7531D01*
X8863Y-7623D01*
X8834Y-7722D01*
X8824Y-7825D01*
X8835Y-7928D01*
X8866Y-8027D01*
X8911Y-8110D01*
X9001Y-8136D01*
X9317Y-7821D01*
X9317Y-7891D01*
X9037Y-8171D01*
X9062Y-8262D01*
X9154Y-8310D01*
X9253Y-8339D01*
X9356Y-8348D01*
X9459Y-8337D01*
X9558Y-8306D01*
X9617Y-8275D01*
X9617Y-9608D01*
X9589Y-9608D01*
X9555Y-9615D01*
X9523Y-9628D01*
X9494Y-9647D01*
X9470Y-9671D01*
X9451Y-9700D01*
X9448Y-9706D01*
X9446Y-9700D01*
X9427Y-9671D01*
X9402Y-9647D01*
X9374Y-9628D01*
X9342Y-9615D01*
X9308Y-9608D01*
X9274Y-9608D01*
X8801Y-9608D01*
X8767Y-9615D01*
X8736Y-9628D01*
X8707Y-9647D01*
X8682Y-9671D01*
X8663Y-9700D01*
X8661Y-9706D01*
X8659Y-9700D01*
X8639Y-9671D01*
X8615Y-9647D01*
X8586Y-9628D01*
X8554Y-9615D01*
X8521Y-9608D01*
X8486Y-9608D01*
X8014Y-9608D01*
X7980Y-9615D01*
X7948Y-9628D01*
X7919Y-9647D01*
X7895Y-9671D01*
X7876Y-9700D01*
X7874Y-9706D01*
X7871Y-9700D01*
X7852Y-9671D01*
X7828Y-9647D01*
X7799Y-9628D01*
X7767Y-9615D01*
X7733Y-9608D01*
X7699Y-9608D01*
X7226Y-9608D01*
X7193Y-9615D01*
X7161Y-9628D01*
X7132Y-9647D01*
X7108Y-9671D01*
X7089Y-9700D01*
X7086Y-9706D01*
X7084Y-9700D01*
X7065Y-9671D01*
X7040Y-9647D01*
X7012Y-9628D01*
X6980Y-9615D01*
X6959Y-9611D01*
X6959Y-1964D01*
X6948Y-1859D01*
X6917Y-1757D01*
X6870Y-1670D01*
X6778Y-1642D01*
X6743Y-1678D01*
X6743Y-1607D01*
X6715Y-1515D01*
X6621Y-1465D01*
X6519Y-1435D01*
X6413Y-1425D01*
X6307Y-1437D01*
X6206Y-1468D01*
X6118Y-1515D01*
X6091Y-1607D01*
X6417Y-1933D01*
X6743Y-1607D01*
X6743Y-1678D01*
X6452Y-1968D01*
X6778Y-2294D01*
X6870Y-2266D01*
X6920Y-2172D01*
X6950Y-2070D01*
X6959Y-1964D01*
X6959Y-9611D01*
X6946Y-9608D01*
X6911Y-9608D01*
X6743Y-9608D01*
X6743Y-2329D01*
X6417Y-2003D01*
X6381Y-2039D01*
X6381Y-1968D01*
X6056Y-1642D01*
X5964Y-1670D01*
X5914Y-1764D01*
X5884Y-1866D01*
X5874Y-1972D01*
X5885Y-2077D01*
X5917Y-2179D01*
X5964Y-2266D01*
X6056Y-2294D01*
X6381Y-1968D01*
X6381Y-2039D01*
X6091Y-2329D01*
X6109Y-2389D01*
X6083Y-2384D01*
X5971Y-2383D01*
X5862Y-2404D01*
X5758Y-2446D01*
X5665Y-2507D01*
X5585Y-2585D01*
X5522Y-2677D01*
X5478Y-2779D01*
X5455Y-2889D01*
X5454Y-3000D01*
X5474Y-3110D01*
X5515Y-3213D01*
X5575Y-3307D01*
X5653Y-3387D01*
X5744Y-3451D01*
X5847Y-3496D01*
X5955Y-3520D01*
X6067Y-3522D01*
X6177Y-3503D01*
X6281Y-3462D01*
X6375Y-3403D01*
X6456Y-3326D01*
X6520Y-3235D01*
X6565Y-3133D01*
X6590Y-3024D01*
X6592Y-2896D01*
X6570Y-2787D01*
X6528Y-2684D01*
X6466Y-2591D01*
X6387Y-2512D01*
X6380Y-2507D01*
X6421Y-2511D01*
X6526Y-2499D01*
X6628Y-2468D01*
X6715Y-2421D01*
X6743Y-2329D01*
X6743Y-9608D01*
X6439Y-9608D01*
X6405Y-9615D01*
X6373Y-9628D01*
X6345Y-9647D01*
X6320Y-9671D01*
X6301Y-9700D01*
X6299Y-9706D01*
X6296Y-9700D01*
X6277Y-9671D01*
X6253Y-9647D01*
X6224Y-9628D01*
X6192Y-9615D01*
X6158Y-9608D01*
X6124Y-9608D01*
X5652Y-9608D01*
X5618Y-9615D01*
X5586Y-9628D01*
X5557Y-9647D01*
X5533Y-9671D01*
X5514Y-9700D01*
X5511Y-9706D01*
X5509Y-9700D01*
X5490Y-9671D01*
X5465Y-9647D01*
X5437Y-9628D01*
X5405Y-9615D01*
X5371Y-9608D01*
X5337Y-9608D01*
X4864Y-9608D01*
X4830Y-9615D01*
X4798Y-9628D01*
X4770Y-9647D01*
X4745Y-9671D01*
X4726Y-9700D01*
X4713Y-9732D01*
X4706Y-9766D01*
X4706Y-9800D01*
X4706Y-10273D01*
X4713Y-10306D01*
X4726Y-10338D01*
X4745Y-10367D01*
X4770Y-10391D01*
X4798Y-10410D01*
X4830Y-10424D01*
X4864Y-10430D01*
X4899Y-10430D01*
X5371Y-10430D01*
X5405Y-10424D01*
X5437Y-10410D01*
X5465Y-10391D01*
X5490Y-10367D01*
X5509Y-10338D01*
X5511Y-10333D01*
X5514Y-10338D01*
X5533Y-10367D01*
X5557Y-10391D01*
X5586Y-10410D01*
X5618Y-10424D01*
X5652Y-10430D01*
X5686Y-10430D01*
X6158Y-10430D01*
X6192Y-10424D01*
X6224Y-10410D01*
X6253Y-10391D01*
X6277Y-10367D01*
X6296Y-10338D01*
X6299Y-10333D01*
X6301Y-10338D01*
X6320Y-10367D01*
X6345Y-10391D01*
X6373Y-10410D01*
X6374Y-10411D01*
X5549Y-11235D01*
X5536Y-11251D01*
X5523Y-11267D01*
X5522Y-11268D01*
X5521Y-11269D01*
X5511Y-11288D01*
X5501Y-11306D01*
X5501Y-11307D01*
X5500Y-11308D01*
X5494Y-11328D01*
X5490Y-11342D01*
X5483Y-11346D01*
X5420Y-11396D01*
X5413Y-11405D01*
X5409Y-11400D01*
X5348Y-11349D01*
X5277Y-11311D01*
X5200Y-11287D01*
X5120Y-11279D01*
X5041Y-11286D01*
X4964Y-11309D01*
X4892Y-11346D01*
X4830Y-11396D01*
X4823Y-11405D01*
X4819Y-11400D01*
X4757Y-11349D01*
X4686Y-11311D01*
X4610Y-11287D01*
X4530Y-11279D01*
X4450Y-11286D01*
X4373Y-11309D01*
X4302Y-11346D01*
X4239Y-11396D01*
X4232Y-11405D01*
X4228Y-11400D01*
X4166Y-11349D01*
X4096Y-11311D01*
X4019Y-11287D01*
X3939Y-11279D01*
X3859Y-11286D01*
X3782Y-11309D01*
X3711Y-11346D01*
X3649Y-11396D01*
X3597Y-11458D01*
X3559Y-11528D01*
X3534Y-11604D01*
X3525Y-11684D01*
X3525Y-11690D01*
X3525Y-11892D01*
X3533Y-11972D01*
X3556Y-12048D01*
X3594Y-12119D01*
X3645Y-12181D01*
X3707Y-12233D01*
X3777Y-12271D01*
X3854Y-12295D01*
X3934Y-12303D01*
X4014Y-12296D01*
X4091Y-12273D01*
X4162Y-12236D01*
X4224Y-12186D01*
X4231Y-12177D01*
X4235Y-12181D01*
X4297Y-12233D01*
X4368Y-12271D01*
X4444Y-12295D01*
X4524Y-12303D01*
X4604Y-12296D01*
X4681Y-12273D01*
X4752Y-12236D01*
X4815Y-12186D01*
X4822Y-12177D01*
X4826Y-12181D01*
X4888Y-12233D01*
X4958Y-12271D01*
X5035Y-12295D01*
X5115Y-12303D01*
X5195Y-12296D01*
X5272Y-12273D01*
X5343Y-12236D01*
X5405Y-12186D01*
X5413Y-12177D01*
X5416Y-12181D01*
X5478Y-12233D01*
X5483Y-12235D01*
X5483Y-12303D01*
X5485Y-12323D01*
X5487Y-12344D01*
X5487Y-12345D01*
X5487Y-12346D01*
X5493Y-12366D01*
X5499Y-12386D01*
X5500Y-12387D01*
X5500Y-12388D01*
X5510Y-12407D01*
X5519Y-12425D01*
X5520Y-12426D01*
X5521Y-12427D01*
X5534Y-12443D01*
X5547Y-12460D01*
X5548Y-12461D01*
X5549Y-12461D01*
X5549Y-12461D01*
X5549Y-12462D01*
X6624Y-13537D01*
X6640Y-13550D01*
X6656Y-13563D01*
X6657Y-13564D01*
X6658Y-13564D01*
X6676Y-13574D01*
X6694Y-13584D01*
X6695Y-13585D01*
X6696Y-13585D01*
X6716Y-13591D01*
X6736Y-13598D01*
X6737Y-13598D01*
X6738Y-13598D01*
X6759Y-13600D01*
X6780Y-13602D01*
X6782Y-13602D01*
X6782Y-13602D01*
X6782Y-13602D01*
X6783Y-13602D01*
X13385Y-13602D01*
X13406Y-13600D01*
X13427Y-13599D01*
X13428Y-13598D01*
X13429Y-13598D01*
X13449Y-13592D01*
X13469Y-13586D01*
X13470Y-13586D01*
X13471Y-13585D01*
X13489Y-13576D01*
X13508Y-13566D01*
X13509Y-13565D01*
X13510Y-13565D01*
X13526Y-13552D01*
X13542Y-13539D01*
X13544Y-13537D01*
X13544Y-13537D01*
X13544Y-13537D01*
X13544Y-13537D01*
X15148Y-11933D01*
X19204Y-11933D01*
X19225Y-11931D01*
X19246Y-11929D01*
X19247Y-11929D01*
X19248Y-11929D01*
X19268Y-11923D01*
X19288Y-11917D01*
X19289Y-11917D01*
X19290Y-11916D01*
X19308Y-11906D01*
X19327Y-11897D01*
X19328Y-11896D01*
X19329Y-11896D01*
X19345Y-11882D01*
X19361Y-11869D01*
X19363Y-11868D01*
X19363Y-11868D01*
X19363Y-11868D01*
X19363Y-11867D01*
X21577Y-9654D01*
X22543Y-9654D01*
X22561Y-9652D01*
X22615Y-9664D01*
X22684Y-9665D01*
X22752Y-9653D01*
X22816Y-9628D01*
X22874Y-9592D01*
X22923Y-9544D01*
X22963Y-9488D01*
X22991Y-9425D01*
X23006Y-9359D01*
X23007Y-9280D01*
X22994Y-9213D01*
X22976Y-9169D01*
X24275Y-9169D01*
X24296Y-9167D01*
X24316Y-9166D01*
X24318Y-9165D01*
X24319Y-9165D01*
X24339Y-9159D01*
X24359Y-9153D01*
X24360Y-9153D01*
X24361Y-9152D01*
X24379Y-9143D01*
X24398Y-9133D01*
X24399Y-9132D01*
X24400Y-9132D01*
X24416Y-9119D01*
X24432Y-9106D01*
X24434Y-9104D01*
X24434Y-9104D01*
X24434Y-9104D01*
X24434Y-9103D01*
X24543Y-8995D01*
X24601Y-8996D01*
X24669Y-8984D01*
X24733Y-8959D01*
X24791Y-8922D01*
X24841Y-8875D01*
X24880Y-8819D01*
X24908Y-8756D01*
X24923Y-8689D01*
X24924Y-8611D01*
X24911Y-8544D01*
X24885Y-8480D01*
X24847Y-8423D01*
X24841Y-8417D01*
X24880Y-8362D01*
X24908Y-8299D01*
X24923Y-8233D01*
X24924Y-8154D01*
X24911Y-8087D01*
X24885Y-8023D01*
X24847Y-7966D01*
X24837Y-7957D01*
X24841Y-7954D01*
X24880Y-7898D01*
X24908Y-7835D01*
X24923Y-7768D01*
X24924Y-7690D01*
X24911Y-7622D01*
X24885Y-7559D01*
X24877Y-7547D01*
X27281Y-7547D01*
X27232Y-7595D01*
X27194Y-7651D01*
X27167Y-7714D01*
X27152Y-7782D01*
X27151Y-7850D01*
X27164Y-7918D01*
X27189Y-7982D01*
X27226Y-8039D01*
X27252Y-8066D01*
X27252Y-11517D01*
X27090Y-11679D01*
X26968Y-11679D01*
X24001Y-11679D01*
X23399Y-11077D01*
X23399Y-10087D01*
X23415Y-10072D01*
X23455Y-10016D01*
X23483Y-9953D01*
X23498Y-9886D01*
X23499Y-9808D01*
X23486Y-9740D01*
X23460Y-9677D01*
X23422Y-9620D01*
X23373Y-9571D01*
X23316Y-9533D01*
X23253Y-9506D01*
X23186Y-9492D01*
X23117Y-9492D01*
X23050Y-9505D01*
X22986Y-9530D01*
X22929Y-9568D01*
X22880Y-9616D01*
X22841Y-9673D01*
X22814Y-9736D01*
X22800Y-9803D01*
X22799Y-9871D01*
X22811Y-9939D01*
X22836Y-10003D01*
X22873Y-10060D01*
X22899Y-10087D01*
X22899Y-11181D01*
X22901Y-11204D01*
X22903Y-11227D01*
X22904Y-11228D01*
X22904Y-11229D01*
X22911Y-11251D01*
X22917Y-11273D01*
X22918Y-11275D01*
X22918Y-11276D01*
X22929Y-11296D01*
X22939Y-11317D01*
X22940Y-11318D01*
X22941Y-11319D01*
X22955Y-11337D01*
X22970Y-11355D01*
X22972Y-11357D01*
X22972Y-11357D01*
X22972Y-11357D01*
X22972Y-11357D01*
X23720Y-12105D01*
X23738Y-12120D01*
X23756Y-12135D01*
X23757Y-12136D01*
X23758Y-12136D01*
X23778Y-12147D01*
X23799Y-12158D01*
X23800Y-12159D01*
X23801Y-12159D01*
X23823Y-12166D01*
X23845Y-12173D01*
X23846Y-12173D01*
X23848Y-12174D01*
X23871Y-12176D01*
X23894Y-12179D01*
X23896Y-12179D01*
X23896Y-12179D01*
X23896Y-12179D01*
X23897Y-12179D01*
X26105Y-12179D01*
X26069Y-12214D01*
X26030Y-12271D01*
X26003Y-12334D01*
X25989Y-12401D01*
X25988Y-12470D01*
X26000Y-12537D01*
X26025Y-12601D01*
X26062Y-12659D01*
X26110Y-12708D01*
X26167Y-12747D01*
X26229Y-12775D01*
X26296Y-12790D01*
X26365Y-12791D01*
X26433Y-12779D01*
X26497Y-12754D01*
X26555Y-12718D01*
X26604Y-12670D01*
X26635Y-12626D01*
X28651Y-12626D01*
X28641Y-12649D01*
X28626Y-12716D01*
X28625Y-12785D01*
X28626Y-12787D01*
X28469Y-12944D01*
X22208Y-12944D01*
X22236Y-12882D01*
X22251Y-12815D01*
X22252Y-12736D01*
X22239Y-12669D01*
X22212Y-12606D01*
X22174Y-12548D01*
X22126Y-12500D01*
X22069Y-12461D01*
X22006Y-12435D01*
X21939Y-12421D01*
X21870Y-12421D01*
X21803Y-12433D01*
X21739Y-12459D01*
X21681Y-12497D01*
X21632Y-12545D01*
X21594Y-12601D01*
X21577Y-12641D01*
X21562Y-12606D01*
X21524Y-12548D01*
X21476Y-12500D01*
X21419Y-12461D01*
X21356Y-12435D01*
X21289Y-12421D01*
X21220Y-12421D01*
X21153Y-12433D01*
X21089Y-12459D01*
X21031Y-12497D01*
X20982Y-12545D01*
X20944Y-12601D01*
X20917Y-12664D01*
X20902Y-12732D01*
X20901Y-12800D01*
X20914Y-12868D01*
X20939Y-12932D01*
X20976Y-12989D01*
X21024Y-13039D01*
X21027Y-13041D01*
X21027Y-13094D01*
X21029Y-13114D01*
X21031Y-13135D01*
X21031Y-13136D01*
X21031Y-13137D01*
X21037Y-13157D01*
X21043Y-13177D01*
X21043Y-13178D01*
X21044Y-13179D01*
X21054Y-13198D01*
X21063Y-13216D01*
X21064Y-13217D01*
X21064Y-13218D01*
X21078Y-13234D01*
X21091Y-13250D01*
X21092Y-13252D01*
X21092Y-13252D01*
X21092Y-13252D01*
X21093Y-13253D01*
X21420Y-13580D01*
X21436Y-13593D01*
X21452Y-13606D01*
X21453Y-13607D01*
X21454Y-13608D01*
X21472Y-13618D01*
X21490Y-13628D01*
X21492Y-13628D01*
X21493Y-13628D01*
X21512Y-13635D01*
X21532Y-13641D01*
X21533Y-13641D01*
X21535Y-13641D01*
X21555Y-13643D01*
X21576Y-13646D01*
X21578Y-13646D01*
X21578Y-13646D01*
X21578Y-13646D01*
X21579Y-13646D01*
X28782Y-13646D01*
X28827Y-13693D01*
X28883Y-13732D01*
X28946Y-13759D01*
X29013Y-13774D01*
X29082Y-13775D01*
X29149Y-13763D01*
X29213Y-13739D01*
X29271Y-13702D01*
X29321Y-13655D01*
X29360Y-13598D01*
X29388Y-13536D01*
X29404Y-13469D01*
X29405Y-13390D01*
X29391Y-13323D01*
X29365Y-13260D01*
X29327Y-13202D01*
X29279Y-13154D01*
X29222Y-13115D01*
X29159Y-13089D01*
X29110Y-13079D01*
X29134Y-13069D01*
X29192Y-13033D01*
X29242Y-12985D01*
X29282Y-12929D01*
X29310Y-12866D01*
X29325Y-12799D01*
X29326Y-12721D01*
X29313Y-12654D01*
X29301Y-12626D01*
X30064Y-12626D01*
X31199Y-13761D01*
X31215Y-13774D01*
X31231Y-13788D01*
X31232Y-13788D01*
X31233Y-13789D01*
X31251Y-13799D01*
X31269Y-13809D01*
X31270Y-13809D01*
X31271Y-13810D01*
X31291Y-13816D01*
X31311Y-13822D01*
X31312Y-13822D01*
X31313Y-13822D01*
X31334Y-13825D01*
X31355Y-13827D01*
X31357Y-13827D01*
X31357Y-13827D01*
X31357Y-13827D01*
X31358Y-13827D01*
X40334Y-13827D01*
X40355Y-13825D01*
X40376Y-13823D01*
X40377Y-13823D01*
X40378Y-13823D01*
X40398Y-13817D01*
X40418Y-13811D01*
X40419Y-13810D01*
X40420Y-13810D01*
X40438Y-13800D01*
X40457Y-13791D01*
X40458Y-13790D01*
X40459Y-13789D01*
X40475Y-13776D01*
X40491Y-13763D01*
X40493Y-13762D01*
X40493Y-13762D01*
X40493Y-13761D01*
X40493Y-13761D01*
X40795Y-13459D01*
X40853Y-13460D01*
X40921Y-13448D01*
X40985Y-13424D01*
X41043Y-13387D01*
X41093Y-13340D01*
X41132Y-13283D01*
X41160Y-13221D01*
X41175Y-13154D01*
X41176Y-13075D01*
X41176Y-13978D01*
X2786Y-13978D01*
X2786Y-10583D01*
X2767Y-10491D01*
X2732Y-10405D01*
X2680Y-10328D01*
X2615Y-10262D01*
X2538Y-10210D01*
X2452Y-10173D01*
X2360Y-10155D01*
X2267Y-10154D01*
X2176Y-10172D01*
X2089Y-10206D01*
X2011Y-10257D01*
X1945Y-10323D01*
X1892Y-10399D01*
X1856Y-10485D01*
X1836Y-10576D01*
X1835Y-10669D01*
X1852Y-10761D01*
X1886Y-10848D01*
X1936Y-10926D01*
X2001Y-10993D01*
X2078Y-11046D01*
X2163Y-11083D01*
X2254Y-11103D01*
X2347Y-11105D01*
X2439Y-11089D01*
X2526Y-11055D01*
X2604Y-11006D01*
X2672Y-10941D01*
X2726Y-10865D01*
X2763Y-10780D01*
X2784Y-10689D01*
X2786Y-10583D01*
X2786Y-13978D01*
X1786Y-13978D01*
X1786Y-10583D01*
X1767Y-10491D01*
X1732Y-10405D01*
X1680Y-10328D01*
X1615Y-10262D01*
X1538Y-10210D01*
X1452Y-10173D01*
X1360Y-10155D01*
X1267Y-10154D01*
X1176Y-10172D01*
X1089Y-10206D01*
X1011Y-10257D01*
X945Y-10323D01*
X892Y-10399D01*
X856Y-10485D01*
X836Y-10576D01*
X835Y-10669D01*
X852Y-10761D01*
X886Y-10848D01*
X936Y-10926D01*
X1001Y-10993D01*
X1078Y-11046D01*
X1163Y-11083D01*
X1254Y-11103D01*
X1347Y-11105D01*
X1439Y-11089D01*
X1526Y-11055D01*
X1604Y-11006D01*
X1672Y-10941D01*
X1726Y-10865D01*
X1763Y-10780D01*
X1784Y-10689D01*
X1786Y-10583D01*
X1786Y-13978D01*
X194Y-13978D01*
X194Y-3249D01*
X3249Y-3249D01*
X3249Y-194D01*
X14884Y-194D01*
X14884Y-669D01*
X14884Y-669D01*
X14884Y-669D01*
X14884Y-687D01*
X14884Y-695D01*
X14884Y-704D01*
X14885Y-706D01*
X14935Y-1188D01*
X14939Y-1205D01*
X14942Y-1222D01*
X14943Y-1225D01*
X15086Y-1688D01*
X15093Y-1704D01*
X15100Y-1720D01*
X15101Y-1723D01*
X15331Y-2148D01*
X15341Y-2163D01*
X15351Y-2178D01*
X15352Y-2180D01*
X15661Y-2553D01*
X15673Y-2565D01*
X15686Y-2578D01*
X15688Y-2580D01*
X16063Y-2886D01*
X16078Y-2895D01*
X16092Y-2905D01*
X16095Y-2907D01*
X16095Y-2907D01*
X16522Y-3134D01*
X16538Y-3141D01*
X16555Y-3148D01*
X16557Y-3148D01*
X17021Y-3288D01*
X17038Y-3292D01*
X17055Y-3295D01*
X17058Y-3296D01*
X17540Y-3343D01*
X17548Y-3343D01*
X17557Y-3344D01*
X17559Y-3344D01*
X17577Y-3344D01*
X17585Y-3343D01*
X17594Y-3343D01*
X17596Y-3343D01*
X18078Y-3292D01*
X18095Y-3289D01*
X18112Y-3285D01*
X18115Y-3284D01*
X18577Y-3141D01*
X18594Y-3134D01*
X18610Y-3128D01*
X18612Y-3127D01*
X19038Y-2896D01*
X19053Y-2886D01*
X19068Y-2877D01*
X19070Y-2875D01*
X19443Y-2567D01*
X19455Y-2554D01*
X19468Y-2542D01*
X19469Y-2540D01*
X19775Y-2164D01*
X19785Y-2150D01*
X19795Y-2135D01*
X19796Y-2133D01*
X19796Y-2133D01*
X20024Y-1705D01*
X20030Y-1689D01*
X20037Y-1673D01*
X20038Y-1670D01*
X20038Y-1670D01*
X20178Y-1207D01*
X20181Y-1190D01*
X20185Y-1172D01*
X20185Y-1170D01*
X20233Y-688D01*
X20233Y-680D01*
X20234Y-672D01*
X20234Y-669D01*
X20234Y-194D01*
X23852Y-194D01*
X23852Y-2974D01*
X28544Y-2961D01*
X28544Y-194D01*
X48027Y-194D01*
X48635Y-819D01*
X48566Y-805D01*
X48486Y-805D01*
X48406Y-820D01*
X48332Y-850D01*
X48264Y-894D01*
X48207Y-950D01*
X48161Y-1017D01*
X48129Y-1091D01*
X48112Y-1170D01*
X48111Y-1251D01*
X48126Y-1330D01*
X48156Y-1405D01*
X48199Y-1473D01*
X48255Y-1531D01*
X48322Y-1577D01*
X48395Y-1609D01*
X48474Y-1626D01*
X48555Y-1628D01*
X48634Y-1614D01*
X48709Y-1585D01*
X48778Y-1542D01*
X48836Y-1486D01*
X48882Y-1420D01*
X48915Y-1346D01*
X48933Y-1268D01*
X48934Y-1176D01*
X48922Y-1115D01*
X49125Y-1323D01*
X49126Y-1330D01*
X49156Y-1405D01*
X49199Y-1473D01*
X49255Y-1531D01*
X49322Y-1577D01*
X49395Y-1609D01*
X49404Y-1611D01*
X49600Y-1812D01*
X49566Y-1805D01*
X49486Y-1805D01*
X49406Y-1820D01*
X49332Y-1850D01*
X49264Y-1894D01*
X49207Y-1950D01*
X49161Y-2017D01*
X49129Y-2091D01*
X49112Y-2170D01*
X49111Y-2251D01*
X49126Y-2330D01*
X49156Y-2405D01*
X49199Y-2473D01*
X49255Y-2531D01*
X49322Y-2577D01*
X49395Y-2609D01*
X49474Y-2626D01*
X49555Y-2628D01*
X49634Y-2614D01*
X49709Y-2585D01*
X49778Y-2542D01*
X49836Y-2486D01*
X49882Y-2420D01*
X49915Y-2346D01*
X49933Y-2268D01*
X49934Y-2176D01*
X49929Y-2151D01*
X52871Y-5177D01*
X52852Y-6600D01*
X52852Y-8878D01*
X52991Y-8880D01*
X55513Y-8910D01*
X55513Y-13978D01*
M02*
