G04 (created by PCBNEW (2013-mar-13)-testing) date Tue 18 Jun 2013 16:13:31 JST*
%MOIN*%
G04 Gerber Fmt 3.4, Leading zero omitted, Abs format*
%FSLAX34Y34*%
G01*
G70*
G90*
G04 APERTURE LIST*
%ADD10C,0.005906*%
%ADD11R,0.060000X0.060000*%
%ADD12C,0.060000*%
%ADD13R,0.055118X0.055118*%
%ADD14R,0.016000X0.060000*%
%ADD15R,0.060000X0.016000*%
%ADD16C,0.062992*%
%ADD17C,0.078740*%
%ADD18O,0.047244X0.066929*%
%ADD19R,0.047244X0.047244*%
%ADD20C,0.047244*%
%ADD21R,0.023622X0.047244*%
%ADD22R,0.059055X0.059055*%
%ADD23R,0.043307X0.043307*%
%ADD24R,0.078740X0.070866*%
%ADD25R,0.070866X0.078740*%
%ADD26R,0.118110X0.070866*%
%ADD27R,0.070866X0.118110*%
%ADD28R,0.078740X0.118110*%
%ADD29R,0.047244X0.023622*%
%ADD30O,0.031496X0.066929*%
%ADD31O,0.031496X0.078740*%
%ADD32O,0.066929X0.031496*%
%ADD33O,0.078740X0.031496*%
%ADD34R,0.047244X0.031496*%
%ADD35R,0.031496X0.047244*%
%ADD36R,0.047244X0.062992*%
%ADD37R,0.019685X0.070866*%
%ADD38R,0.098425X0.165354*%
%ADD39R,0.031496X0.039370*%
%ADD40R,0.062992X0.062992*%
G04 APERTURE END LIST*
G54D10*
G54D11*
X11352Y-6821D03*
G54D12*
X11352Y-7821D03*
X10352Y-6821D03*
X10352Y-7821D03*
X9352Y-6821D03*
X9352Y-7821D03*
G54D13*
X25762Y-10471D03*
X25092Y-10471D03*
G54D14*
X21602Y-11796D03*
X21917Y-11796D03*
X22232Y-11796D03*
X22547Y-11796D03*
X22862Y-11796D03*
X23177Y-11796D03*
X21287Y-11796D03*
X20972Y-11796D03*
X20657Y-11796D03*
X20342Y-11796D03*
X20027Y-11796D03*
X21602Y-7296D03*
X21917Y-7296D03*
X22232Y-7296D03*
X22547Y-7296D03*
X22862Y-7296D03*
X23177Y-7296D03*
X21287Y-7296D03*
X20972Y-7296D03*
X20657Y-7296D03*
X20342Y-7296D03*
X20027Y-7296D03*
G54D15*
X23852Y-9546D03*
X19352Y-9546D03*
X23852Y-9231D03*
X19352Y-9231D03*
X19352Y-8916D03*
X23852Y-8916D03*
X23852Y-8601D03*
X19352Y-8601D03*
X19352Y-8286D03*
X23852Y-8286D03*
X23852Y-7971D03*
X19352Y-7971D03*
X19352Y-9861D03*
X23852Y-9861D03*
X23852Y-10176D03*
X19352Y-10176D03*
X19352Y-10491D03*
X23852Y-10491D03*
X23852Y-10806D03*
X19352Y-10806D03*
X19352Y-11121D03*
X23852Y-11121D03*
G54D16*
X6417Y-1968D03*
X8385Y-1968D03*
G54D17*
X6023Y-2952D03*
X8779Y-2972D03*
G54D18*
X3937Y-11791D03*
X4527Y-11791D03*
X5118Y-11791D03*
X5708Y-11791D03*
X6299Y-11791D03*
X6889Y-11791D03*
X7480Y-11791D03*
X8070Y-11791D03*
X8661Y-11791D03*
X9251Y-11791D03*
X9842Y-11791D03*
X10433Y-11791D03*
X11023Y-11791D03*
G54D19*
X5118Y-10019D03*
X5905Y-10019D03*
X6692Y-10019D03*
X7480Y-10019D03*
X8267Y-10019D03*
X9055Y-10019D03*
X9842Y-10019D03*
X10629Y-10019D03*
X11417Y-10019D03*
X12204Y-10019D03*
X12992Y-10019D03*
X13779Y-10019D03*
X14566Y-10019D03*
X15354Y-10019D03*
X16141Y-10019D03*
G54D20*
X21397Y-4842D03*
X19468Y-4842D03*
G54D12*
X25502Y-4371D03*
G54D11*
X27502Y-4371D03*
G54D12*
X24502Y-4371D03*
X26502Y-4371D03*
G54D21*
X28307Y-6417D03*
X28622Y-6417D03*
X27992Y-6417D03*
G54D22*
X25767Y-9685D03*
G54D23*
X25098Y-9685D03*
X18228Y-11122D03*
X18228Y-11791D03*
X11940Y-1988D03*
X11940Y-1318D03*
X7480Y-8732D03*
X6811Y-8732D03*
X24665Y-6181D03*
X23996Y-6181D03*
X25393Y-7562D03*
X25393Y-8232D03*
X23346Y-4173D03*
X23346Y-4842D03*
X17522Y-4171D03*
X17522Y-4841D03*
X18157Y-6740D03*
X18157Y-7409D03*
X19389Y-12795D03*
X20059Y-12795D03*
X24940Y-12244D03*
X24271Y-12244D03*
G54D12*
X29602Y-5421D03*
X29602Y-6421D03*
X29602Y-8421D03*
X29602Y-7421D03*
X29602Y-9421D03*
G54D24*
X3425Y-9266D03*
X3425Y-8085D03*
G54D25*
X28307Y-11141D03*
X27125Y-11141D03*
G54D23*
X23267Y-12952D03*
X22598Y-12952D03*
G54D12*
X11902Y-3521D03*
X10902Y-3521D03*
X9902Y-3521D03*
X29602Y-11421D03*
X29602Y-10421D03*
G54D26*
X35275Y-7874D03*
X35275Y-6574D03*
G54D23*
X37165Y-12716D03*
X37834Y-12716D03*
G54D24*
X39586Y-11023D03*
X39586Y-12204D03*
G54D27*
X36023Y-4980D03*
X34842Y-4980D03*
G54D23*
X46259Y-13267D03*
X45590Y-13267D03*
X50964Y-6003D03*
X51633Y-6003D03*
G54D28*
X37677Y-4960D03*
X40039Y-4960D03*
G54D12*
X51590Y-13263D03*
X50590Y-13263D03*
X49590Y-13263D03*
X48590Y-13263D03*
G54D23*
X42086Y-9074D03*
X42086Y-9744D03*
X38956Y-9448D03*
X38287Y-9448D03*
X42224Y-7125D03*
X41555Y-7125D03*
X41555Y-7913D03*
X42224Y-7913D03*
X34429Y-1397D03*
X34429Y-2066D03*
X32047Y-1968D03*
X32047Y-1299D03*
G54D29*
X36988Y-11043D03*
X36988Y-11791D03*
X36988Y-11417D03*
X38011Y-11043D03*
X38011Y-11791D03*
G54D21*
X39232Y-7716D03*
X39980Y-7716D03*
X39606Y-7716D03*
X39232Y-6692D03*
X39980Y-6692D03*
X32874Y-2244D03*
X33622Y-2244D03*
X33248Y-2244D03*
X32874Y-1220D03*
X33622Y-1220D03*
G54D30*
X45000Y-6830D03*
X52677Y-6830D03*
G54D31*
X52086Y-6889D03*
X51496Y-6889D03*
X50905Y-6889D03*
X50314Y-6909D03*
X49724Y-6889D03*
X49133Y-6889D03*
X48543Y-6889D03*
X47952Y-6889D03*
X47362Y-6889D03*
X46771Y-6889D03*
X46181Y-6889D03*
X45590Y-6889D03*
G54D30*
X45000Y-12303D03*
G54D31*
X45590Y-12244D03*
X46181Y-12244D03*
X46771Y-12244D03*
X47362Y-12244D03*
X47952Y-12244D03*
X48543Y-12244D03*
X49133Y-12244D03*
X49724Y-12244D03*
X50314Y-12244D03*
X50905Y-12244D03*
X51496Y-12244D03*
X52086Y-12244D03*
G54D30*
X52677Y-12303D03*
G54D32*
X54665Y-10157D03*
G54D33*
X54606Y-9566D03*
G54D32*
X54665Y-8976D03*
G54D18*
X31588Y-5001D03*
X32376Y-5001D03*
G54D34*
X40984Y-9822D03*
X39960Y-9448D03*
X40984Y-9074D03*
G54D35*
X37381Y-6692D03*
X37007Y-7716D03*
X36633Y-6692D03*
G54D12*
X43696Y-8070D03*
X43696Y-9070D03*
X43696Y-11070D03*
X43696Y-10070D03*
G54D23*
X42244Y-12066D03*
X41574Y-12066D03*
X41574Y-12834D03*
X42244Y-12834D03*
G54D12*
X43696Y-12070D03*
G54D36*
X44488Y-13149D03*
X43700Y-13149D03*
G54D24*
X30984Y-1476D03*
X30984Y-2657D03*
X35295Y-11023D03*
X35295Y-12204D03*
G54D37*
X26830Y-2401D03*
X26515Y-2401D03*
X26200Y-2401D03*
X25885Y-2401D03*
X25570Y-2401D03*
G54D38*
X27854Y-1456D03*
X24547Y-1456D03*
G54D39*
X38267Y-7539D03*
X38267Y-6870D03*
G54D35*
X15649Y-6811D03*
X15275Y-7834D03*
X14901Y-6811D03*
G54D23*
X47805Y-13159D03*
X47135Y-13159D03*
X16653Y-6791D03*
X16653Y-7460D03*
G54D21*
X1968Y-11791D03*
X1653Y-11791D03*
G54D12*
X2311Y-10629D03*
X1311Y-10629D03*
G54D29*
X35275Y-9291D03*
X35275Y-9606D03*
G54D12*
X34330Y-9448D03*
X36220Y-9448D03*
X28307Y-5448D03*
G54D20*
X36523Y-2440D03*
X35523Y-2440D03*
G54D40*
X38976Y-1220D03*
X39921Y-1220D03*
G54D20*
X38870Y-2440D03*
X39870Y-2440D03*
G54D29*
X13543Y-7086D03*
X13543Y-6771D03*
G54D23*
X41417Y-1397D03*
X41417Y-2066D03*
G54D40*
X36456Y-1220D03*
X35511Y-1220D03*
X10787Y-2204D03*
X10787Y-1259D03*
G54D23*
X30645Y-10417D03*
X30645Y-9748D03*
X32507Y-10417D03*
X31838Y-10417D03*
G54D20*
X47523Y-1216D03*
X49523Y-1216D03*
X48523Y-1216D03*
X48523Y-2216D03*
X49523Y-2216D03*
X47523Y-2216D03*
M02*
