G04 (created by PCBNEW (2013-mar-13)-testing) date Tue 18 Jun 2013 16:13:31 JST*
%MOIN*%
G04 Gerber Fmt 3.4, Leading zero omitted, Abs format*
%FSLAX34Y34*%
G01*
G70*
G90*
G04 APERTURE LIST*
%ADD10C,0.005906*%
%ADD11C,0.007874*%
G04 APERTURE END LIST*
G54D10*
X52478Y-10016D02*
X52433Y-10031D01*
X52418Y-10046D01*
X52403Y-10076D01*
X52403Y-10121D01*
X52418Y-10151D01*
X52433Y-10166D01*
X52463Y-10181D01*
X52583Y-10181D01*
X52583Y-9866D01*
X52478Y-9866D01*
X52448Y-9881D01*
X52433Y-9896D01*
X52418Y-9926D01*
X52418Y-9956D01*
X52433Y-9986D01*
X52448Y-10001D01*
X52478Y-10016D01*
X52583Y-10016D01*
X52223Y-10181D02*
X52253Y-10166D01*
X52268Y-10136D01*
X52268Y-9866D01*
X51968Y-9971D02*
X51968Y-10181D01*
X52103Y-9971D02*
X52103Y-10136D01*
X52088Y-10166D01*
X52058Y-10181D01*
X52013Y-10181D01*
X51983Y-10166D01*
X51968Y-10151D01*
X51698Y-10166D02*
X51728Y-10181D01*
X51788Y-10181D01*
X51818Y-10166D01*
X51833Y-10136D01*
X51833Y-10016D01*
X51818Y-9986D01*
X51788Y-9971D01*
X51728Y-9971D01*
X51698Y-9986D01*
X51683Y-10016D01*
X51683Y-10046D01*
X51833Y-10076D01*
X51413Y-9971D02*
X51413Y-10226D01*
X51428Y-10256D01*
X51443Y-10271D01*
X51473Y-10286D01*
X51518Y-10286D01*
X51548Y-10271D01*
X51413Y-10166D02*
X51443Y-10181D01*
X51503Y-10181D01*
X51533Y-10166D01*
X51548Y-10151D01*
X51563Y-10121D01*
X51563Y-10031D01*
X51548Y-10001D01*
X51533Y-9986D01*
X51503Y-9971D01*
X51443Y-9971D01*
X51413Y-9986D01*
X51263Y-10181D02*
X51263Y-9971D01*
X51263Y-9866D02*
X51278Y-9881D01*
X51263Y-9896D01*
X51248Y-9881D01*
X51263Y-9866D01*
X51263Y-9896D01*
X50978Y-9971D02*
X50978Y-10226D01*
X50993Y-10256D01*
X51008Y-10271D01*
X51038Y-10286D01*
X51083Y-10286D01*
X51113Y-10271D01*
X50978Y-10166D02*
X51008Y-10181D01*
X51068Y-10181D01*
X51098Y-10166D01*
X51113Y-10151D01*
X51128Y-10121D01*
X51128Y-10031D01*
X51113Y-10001D01*
X51098Y-9986D01*
X51068Y-9971D01*
X51008Y-9971D01*
X50978Y-9986D01*
X50693Y-10181D02*
X50693Y-10016D01*
X50708Y-9986D01*
X50738Y-9971D01*
X50798Y-9971D01*
X50828Y-9986D01*
X50693Y-10166D02*
X50723Y-10181D01*
X50798Y-10181D01*
X50828Y-10166D01*
X50843Y-10136D01*
X50843Y-10106D01*
X50828Y-10076D01*
X50798Y-10061D01*
X50723Y-10061D01*
X50693Y-10046D01*
X50333Y-9866D02*
X50258Y-10181D01*
X50198Y-9956D01*
X50138Y-10181D01*
X50063Y-9866D01*
X49988Y-9866D02*
X49808Y-9866D01*
X49898Y-10181D02*
X49898Y-9866D01*
X49538Y-10181D02*
X49718Y-10181D01*
X49628Y-10181D02*
X49628Y-9866D01*
X49658Y-9911D01*
X49688Y-9941D01*
X49718Y-9956D01*
X49418Y-9896D02*
X49403Y-9881D01*
X49373Y-9866D01*
X49298Y-9866D01*
X49268Y-9881D01*
X49253Y-9896D01*
X49238Y-9926D01*
X49238Y-9956D01*
X49253Y-10001D01*
X49433Y-10181D01*
X49238Y-10181D01*
X48758Y-10016D02*
X48713Y-10031D01*
X48698Y-10046D01*
X48683Y-10076D01*
X48683Y-10121D01*
X48698Y-10151D01*
X48713Y-10166D01*
X48743Y-10181D01*
X48863Y-10181D01*
X48863Y-9866D01*
X48758Y-9866D01*
X48728Y-9881D01*
X48713Y-9896D01*
X48698Y-9926D01*
X48698Y-9956D01*
X48713Y-9986D01*
X48728Y-10001D01*
X48758Y-10016D01*
X48863Y-10016D01*
X48548Y-10181D02*
X48548Y-9971D01*
X48548Y-10031D02*
X48533Y-10001D01*
X48518Y-9986D01*
X48488Y-9971D01*
X48458Y-9971D01*
X48233Y-10166D02*
X48263Y-10181D01*
X48323Y-10181D01*
X48353Y-10166D01*
X48368Y-10136D01*
X48368Y-10016D01*
X48353Y-9986D01*
X48323Y-9971D01*
X48263Y-9971D01*
X48233Y-9986D01*
X48218Y-10016D01*
X48218Y-10046D01*
X48368Y-10076D01*
X47949Y-10181D02*
X47949Y-10016D01*
X47964Y-9986D01*
X47994Y-9971D01*
X48053Y-9971D01*
X48083Y-9986D01*
X47949Y-10166D02*
X47979Y-10181D01*
X48053Y-10181D01*
X48083Y-10166D01*
X48098Y-10136D01*
X48098Y-10106D01*
X48083Y-10076D01*
X48053Y-10061D01*
X47979Y-10061D01*
X47949Y-10046D01*
X47799Y-10181D02*
X47799Y-9866D01*
X47769Y-10061D02*
X47679Y-10181D01*
X47679Y-9971D02*
X47799Y-10091D01*
X47499Y-10181D02*
X47529Y-10166D01*
X47544Y-10151D01*
X47559Y-10121D01*
X47559Y-10031D01*
X47544Y-10001D01*
X47529Y-9986D01*
X47499Y-9971D01*
X47454Y-9971D01*
X47424Y-9986D01*
X47409Y-10001D01*
X47394Y-10031D01*
X47394Y-10121D01*
X47409Y-10151D01*
X47424Y-10166D01*
X47454Y-10181D01*
X47499Y-10181D01*
X47124Y-9971D02*
X47124Y-10181D01*
X47259Y-9971D02*
X47259Y-10136D01*
X47244Y-10166D01*
X47214Y-10181D01*
X47169Y-10181D01*
X47139Y-10166D01*
X47124Y-10151D01*
X47019Y-9971D02*
X46899Y-9971D01*
X46974Y-9866D02*
X46974Y-10136D01*
X46959Y-10166D01*
X46929Y-10181D01*
X46899Y-10181D01*
X50329Y-10654D02*
X50149Y-10654D01*
X50239Y-10969D02*
X50239Y-10654D01*
X50044Y-10969D02*
X50044Y-10654D01*
X49940Y-10879D01*
X49835Y-10654D01*
X49835Y-10969D01*
X49685Y-10969D02*
X49685Y-10654D01*
X49505Y-10969D02*
X49640Y-10789D01*
X49505Y-10654D02*
X49685Y-10834D01*
X49130Y-10969D02*
X49130Y-10654D01*
X49100Y-10849D02*
X49010Y-10969D01*
X49010Y-10759D02*
X49130Y-10879D01*
X48875Y-10969D02*
X48875Y-10654D01*
X48875Y-10774D02*
X48845Y-10759D01*
X48785Y-10759D01*
X48755Y-10774D01*
X48740Y-10789D01*
X48725Y-10819D01*
X48725Y-10909D01*
X48740Y-10939D01*
X48755Y-10954D01*
X48785Y-10969D01*
X48845Y-10969D01*
X48875Y-10954D01*
X48455Y-10969D02*
X48455Y-10654D01*
X48455Y-10954D02*
X48485Y-10969D01*
X48545Y-10969D01*
X48575Y-10954D01*
X48590Y-10939D01*
X48605Y-10909D01*
X48605Y-10819D01*
X48590Y-10789D01*
X48575Y-10774D01*
X48545Y-10759D01*
X48485Y-10759D01*
X48455Y-10774D01*
G54D11*
X30157Y-14173D02*
X30157Y0D01*
X42893Y-5157D02*
X42893Y-14173D01*
X55708Y-5157D02*
X42893Y-5157D01*
M02*
