M48
;DRILL file {Pcbnew (2013-mar-13)-testing} date Tue 18 Jun 2013 16:13:35 JST
;FORMAT={-:-/ absolute / inch / decimal}
FMAT,2
INCH,TZ
T1C0.020
T2C0.028
T3C0.028
T4C0.039
T5C0.040
T6C0.051
%
G90
G05
M72
T1
X0.063Y-1.3583
X0.128Y-0.8085
X0.2087Y-0.4016
X0.2827Y-1.2807
X0.565Y-0.7343
X0.6311Y-0.9217
X0.8146Y-0.8941
X1.2205Y-0.8559
X1.4134Y-0.7835
X1.4272Y-0.6594
X1.4783Y-1.2795
X1.5374Y-0.4469
X1.9016Y-0.7244
X1.9552Y-0.6771
X2.0002Y-0.6421
X2.1083Y-0.7971
X2.1102Y-0.2795
X2.1252Y-1.2771
X2.1654Y-1.1008
X2.1902Y-1.2771
X2.2657Y-0.9315
X2.3043Y-0.8602
X2.3102Y-0.6571
X2.315Y-0.9843
X2.378Y-1.2677
X2.4528Y-0.9764
X2.4575Y-0.7724
X2.4575Y-0.8189
X2.4575Y-0.8646
X2.5709Y-1.2579
X2.6339Y-1.2441
X2.7502Y-0.7821
X2.8976Y-1.2756
X2.9055Y-1.3425
X2.9567Y-0.0512
X3.1594Y-0.7165
X3.2913Y-1.2146
X3.3071Y-0.3071
X3.311Y-0.7992
X3.4862Y-0.0512
X3.7244Y-0.9459
X3.7697Y-0.0709
X3.8465Y-1.0217
X3.872Y-1.315
X4.0768Y-0.8071
X4.0827Y-1.311
X4.0837Y-1.0482
X4.1339Y-0.5709
X4.1545Y-0.8583
X4.2776Y-0.1732
X4.3189Y-0.8563
X4.3189Y-0.9528
X4.3189Y-1.1555
X4.3189Y-1.2539
X4.3189Y-1.3671
X4.3209Y-1.0531
X4.3228Y-0.7559
X4.3819Y-0.6969
X4.4104Y-1.374
X4.435Y-0.6437
X4.4803Y-0.5984
X4.5Y-0.7579
X4.5Y-1.1526
X4.5049Y-1.374
X4.5787Y-0.5984
X4.5955Y-1.374
X4.6102Y-0.4331
X4.6496Y-0.1732
X4.6496Y-1.1329
X4.6772Y-0.5984
X4.689Y-1.374
X4.7362Y-1.1299
X4.7756Y-0.5984
X4.8041Y-1.374
X4.874Y-0.5984
X4.9085Y-1.374
X4.9724Y-0.5984
X4.9724Y-0.7756
X5.0089Y-1.374
X5.0394Y-0.5679
X5.0669Y-0.4331
X5.0974Y-0.7766
X5.1093Y-1.374
X5.1398Y-0.5472
X5.1496Y-1.1142
X5.2057Y-1.374
X5.2461Y-0.5738
X5.248Y-0.8583
X5.249Y-0.7589
X5.2677Y-1.1417
X5.2874Y-0.9222
X5.2874Y-1.374
X5.372Y-0.9232
X5.3858Y-1.374
X5.4843Y-1.374
X5.5276Y-0.9173
X5.5276Y-1.0157
X5.5276Y-1.1142
X5.5276Y-1.2126
X5.5276Y-1.311
T2
X0.3937Y-1.1791
X0.4528Y-1.1791
X0.5118Y-1.1791
X0.5709Y-1.1791
X0.6299Y-1.1791
X0.689Y-1.1791
X0.748Y-1.1791
X0.8071Y-1.1791
X0.8661Y-1.1791
X0.9252Y-1.1791
X0.9843Y-1.1791
X1.0433Y-1.1791
X1.1024Y-1.1791
X1.9469Y-0.4843
X2.1398Y-0.4843
X3.5524Y-0.2441
X3.6524Y-0.2441
X3.887Y-0.2441
X3.987Y-0.2441
X4.7524Y-0.1217
X4.7524Y-0.2217
X4.8524Y-0.1217
X4.8524Y-0.2217
X4.9524Y-0.1217
X4.9524Y-0.2217
T3
X0.5118Y-1.002
X0.5906Y-1.002
X0.6693Y-1.002
X0.748Y-1.002
X0.8268Y-1.002
X0.9055Y-1.002
X0.9843Y-1.002
X1.063Y-1.002
X1.1417Y-1.002
X1.2205Y-1.002
X1.2992Y-1.002
X1.378Y-1.002
X1.4567Y-1.002
X1.5354Y-1.002
X1.6142Y-1.002
T4
X0.6417Y-0.1969
X0.8386Y-0.1969
T5
X0.1311Y-1.063
X0.2311Y-1.063
X0.9352Y-0.6821
X0.9352Y-0.7821
X0.9902Y-0.3521
X1.0352Y-0.6821
X1.0352Y-0.7821
X1.0902Y-0.3521
X1.1352Y-0.6821
X1.1352Y-0.7821
X1.1902Y-0.3521
X2.4502Y-0.4371
X2.5502Y-0.4371
X2.6502Y-0.4371
X2.7502Y-0.4371
X2.8307Y-0.5449
X2.9602Y-0.5421
X2.9602Y-0.6421
X2.9602Y-0.7421
X2.9602Y-0.8421
X2.9602Y-0.9421
X2.9602Y-1.0421
X2.9602Y-1.1421
X3.4331Y-0.9449
X3.622Y-0.9449
X4.3697Y-0.8071
X4.3697Y-0.9071
X4.3697Y-1.0071
X4.3697Y-1.1071
X4.3697Y-1.2071
X4.8591Y-1.3264
X4.9591Y-1.3264
X5.0591Y-1.3264
X5.1591Y-1.3264
T6
X0.6024Y-0.2953
X0.878Y-0.2972
T2
X3.1589Y-0.5001G85X3.1589Y-0.5001
G05
X3.2376Y-0.5001G85X3.2376Y-0.5001
G05
T0
M30
