G04 (created by PCBNEW (2013-mar-13)-testing) date Tue 18 Jun 2013 16:13:31 JST*
%MOIN*%
G04 Gerber Fmt 3.4, Leading zero omitted, Abs format*
%FSLAX34Y34*%
G01*
G70*
G90*
G04 APERTURE LIST*
%ADD10C,0.005906*%
%ADD11C,0.009843*%
%ADD12C,0.007874*%
%ADD13C,0.003937*%
%ADD14C,0.008000*%
%ADD15C,0.006299*%
%ADD16C,0.012000*%
%ADD17C,0.005000*%
%ADD18C,0.011811*%
%ADD19C,0.006000*%
G04 APERTURE END LIST*
G54D10*
X3292Y-6599D02*
X3187Y-6449D01*
X3112Y-6599D02*
X3112Y-6284D01*
X3232Y-6284D01*
X3262Y-6299D01*
X3277Y-6314D01*
X3292Y-6344D01*
X3292Y-6389D01*
X3277Y-6419D01*
X3262Y-6434D01*
X3232Y-6449D01*
X3112Y-6449D01*
X3547Y-6584D02*
X3517Y-6599D01*
X3457Y-6599D01*
X3427Y-6584D01*
X3412Y-6554D01*
X3412Y-6434D01*
X3427Y-6404D01*
X3457Y-6389D01*
X3517Y-6389D01*
X3547Y-6404D01*
X3562Y-6434D01*
X3562Y-6464D01*
X3412Y-6494D01*
X3667Y-6389D02*
X3742Y-6599D01*
X3817Y-6389D01*
X3937Y-6569D02*
X3952Y-6584D01*
X3937Y-6599D01*
X3922Y-6584D01*
X3937Y-6569D01*
X3937Y-6599D01*
X4311Y-6509D02*
X4461Y-6509D01*
X4281Y-6599D02*
X4386Y-6284D01*
X4491Y-6599D01*
X530Y-6314D02*
X545Y-6299D01*
X575Y-6284D01*
X650Y-6284D01*
X680Y-6299D01*
X695Y-6314D01*
X710Y-6344D01*
X710Y-6374D01*
X695Y-6419D01*
X515Y-6599D01*
X710Y-6599D01*
X905Y-6284D02*
X935Y-6284D01*
X965Y-6299D01*
X980Y-6314D01*
X995Y-6344D01*
X1010Y-6404D01*
X1010Y-6479D01*
X995Y-6539D01*
X980Y-6569D01*
X965Y-6584D01*
X935Y-6599D01*
X905Y-6599D01*
X875Y-6584D01*
X860Y-6569D01*
X845Y-6539D01*
X830Y-6479D01*
X830Y-6404D01*
X845Y-6344D01*
X860Y-6314D01*
X875Y-6299D01*
X905Y-6284D01*
X1310Y-6599D02*
X1130Y-6599D01*
X1220Y-6599D02*
X1220Y-6284D01*
X1190Y-6329D01*
X1160Y-6359D01*
X1130Y-6374D01*
X1415Y-6284D02*
X1610Y-6284D01*
X1505Y-6404D01*
X1550Y-6404D01*
X1580Y-6419D01*
X1595Y-6434D01*
X1610Y-6464D01*
X1610Y-6539D01*
X1595Y-6569D01*
X1580Y-6584D01*
X1550Y-6599D01*
X1460Y-6599D01*
X1430Y-6584D01*
X1415Y-6569D01*
X1970Y-6269D02*
X1700Y-6674D01*
X2135Y-6284D02*
X2165Y-6284D01*
X2195Y-6299D01*
X2210Y-6314D01*
X2225Y-6344D01*
X2240Y-6404D01*
X2240Y-6479D01*
X2225Y-6539D01*
X2210Y-6569D01*
X2195Y-6584D01*
X2165Y-6599D01*
X2135Y-6599D01*
X2105Y-6584D01*
X2090Y-6569D01*
X2075Y-6539D01*
X2060Y-6479D01*
X2060Y-6404D01*
X2075Y-6344D01*
X2090Y-6314D01*
X2105Y-6299D01*
X2135Y-6284D01*
X2510Y-6284D02*
X2450Y-6284D01*
X2420Y-6299D01*
X2405Y-6314D01*
X2375Y-6359D01*
X2360Y-6419D01*
X2360Y-6539D01*
X2375Y-6569D01*
X2390Y-6584D01*
X2420Y-6599D01*
X2480Y-6599D01*
X2510Y-6584D01*
X2525Y-6569D01*
X2540Y-6539D01*
X2540Y-6464D01*
X2525Y-6434D01*
X2510Y-6419D01*
X2480Y-6404D01*
X2420Y-6404D01*
X2390Y-6419D01*
X2375Y-6434D01*
X2360Y-6464D01*
G54D11*
X519Y-5493D02*
X744Y-5493D01*
X631Y-5886D02*
X631Y-5493D01*
X875Y-5886D02*
X875Y-5493D01*
X1006Y-5774D01*
X1137Y-5493D01*
X1137Y-5886D01*
X1325Y-5886D02*
X1325Y-5493D01*
X1550Y-5886D02*
X1381Y-5661D01*
X1550Y-5493D02*
X1325Y-5718D01*
X2019Y-5886D02*
X2019Y-5493D01*
X2056Y-5736D02*
X2169Y-5886D01*
X2169Y-5624D02*
X2019Y-5774D01*
X2337Y-5886D02*
X2337Y-5493D01*
X2337Y-5643D02*
X2375Y-5624D01*
X2450Y-5624D01*
X2487Y-5643D01*
X2506Y-5661D01*
X2525Y-5699D01*
X2525Y-5811D01*
X2506Y-5849D01*
X2487Y-5868D01*
X2450Y-5886D01*
X2375Y-5886D01*
X2337Y-5868D01*
X2862Y-5886D02*
X2862Y-5493D01*
X2862Y-5868D02*
X2825Y-5886D01*
X2750Y-5886D01*
X2712Y-5868D01*
X2694Y-5849D01*
X2675Y-5811D01*
X2675Y-5699D01*
X2694Y-5661D01*
X2712Y-5643D01*
X2750Y-5624D01*
X2825Y-5624D01*
X2862Y-5643D01*
X3068Y-5868D02*
X3068Y-5886D01*
X3050Y-5924D01*
X3031Y-5943D01*
X3481Y-5493D02*
X3706Y-5493D01*
X3593Y-5886D02*
X3593Y-5493D01*
X3893Y-5886D02*
X3856Y-5868D01*
X3837Y-5849D01*
X3818Y-5811D01*
X3818Y-5699D01*
X3837Y-5661D01*
X3856Y-5643D01*
X3893Y-5624D01*
X3950Y-5624D01*
X3987Y-5643D01*
X4006Y-5661D01*
X4025Y-5699D01*
X4025Y-5811D01*
X4006Y-5849D01*
X3987Y-5868D01*
X3950Y-5886D01*
X3893Y-5886D01*
X4193Y-5886D02*
X4193Y-5493D01*
X4231Y-5736D02*
X4343Y-5886D01*
X4343Y-5624D02*
X4193Y-5774D01*
X4475Y-5624D02*
X4568Y-5886D01*
X4662Y-5624D02*
X4568Y-5886D01*
X4531Y-5980D01*
X4512Y-5999D01*
X4475Y-6017D01*
X4868Y-5886D02*
X4831Y-5868D01*
X4812Y-5849D01*
X4793Y-5811D01*
X4793Y-5699D01*
X4812Y-5661D01*
X4831Y-5643D01*
X4868Y-5624D01*
X4925Y-5624D01*
X4962Y-5643D01*
X4981Y-5661D01*
X5000Y-5699D01*
X5000Y-5811D01*
X4981Y-5849D01*
X4962Y-5868D01*
X4925Y-5886D01*
X4868Y-5886D01*
X5581Y-5493D02*
X5581Y-5774D01*
X5562Y-5830D01*
X5524Y-5868D01*
X5468Y-5886D01*
X5431Y-5886D01*
X5749Y-5774D02*
X5937Y-5774D01*
X5712Y-5886D02*
X5843Y-5493D01*
X5974Y-5886D01*
X6106Y-5886D02*
X6106Y-5493D01*
X6256Y-5493D01*
X6293Y-5511D01*
X6312Y-5530D01*
X6331Y-5568D01*
X6331Y-5624D01*
X6312Y-5661D01*
X6293Y-5680D01*
X6256Y-5699D01*
X6106Y-5699D01*
X6481Y-5774D02*
X6668Y-5774D01*
X6443Y-5886D02*
X6574Y-5493D01*
X6706Y-5886D01*
X6837Y-5886D02*
X6837Y-5493D01*
X7062Y-5886D01*
X7062Y-5493D01*
X526Y-5138D02*
X526Y-4745D01*
X526Y-4932D02*
X751Y-4932D01*
X751Y-5138D02*
X751Y-4745D01*
X939Y-5138D02*
X939Y-4745D01*
X939Y-4932D02*
X1164Y-4932D01*
X1164Y-5138D02*
X1164Y-4745D01*
X1351Y-5138D02*
X1351Y-4745D01*
X1576Y-5138D02*
X1407Y-4913D01*
X1576Y-4745D02*
X1351Y-4970D01*
X1876Y-4932D02*
X1932Y-4951D01*
X1951Y-4970D01*
X1970Y-5007D01*
X1970Y-5063D01*
X1951Y-5101D01*
X1932Y-5119D01*
X1895Y-5138D01*
X1745Y-5138D01*
X1745Y-4745D01*
X1876Y-4745D01*
X1914Y-4763D01*
X1932Y-4782D01*
X1951Y-4820D01*
X1951Y-4857D01*
X1932Y-4895D01*
X1914Y-4913D01*
X1876Y-4932D01*
X1745Y-4932D01*
X2420Y-5026D02*
X2607Y-5026D01*
X2382Y-5138D02*
X2514Y-4745D01*
X2645Y-5138D01*
X2832Y-5138D02*
X2795Y-5119D01*
X2776Y-5082D01*
X2776Y-4745D01*
X2926Y-4876D02*
X3076Y-4876D01*
X2982Y-4745D02*
X2982Y-5082D01*
X3001Y-5119D01*
X3038Y-5138D01*
X3076Y-5138D01*
X3732Y-5101D02*
X3713Y-5119D01*
X3657Y-5138D01*
X3620Y-5138D01*
X3563Y-5119D01*
X3526Y-5082D01*
X3507Y-5044D01*
X3488Y-4970D01*
X3488Y-4913D01*
X3507Y-4838D01*
X3526Y-4801D01*
X3563Y-4763D01*
X3620Y-4745D01*
X3657Y-4745D01*
X3713Y-4763D01*
X3732Y-4782D01*
X3957Y-5138D02*
X3920Y-5119D01*
X3901Y-5101D01*
X3882Y-5063D01*
X3882Y-4951D01*
X3901Y-4913D01*
X3920Y-4895D01*
X3957Y-4876D01*
X4013Y-4876D01*
X4051Y-4895D01*
X4070Y-4913D01*
X4088Y-4951D01*
X4088Y-5063D01*
X4070Y-5101D01*
X4051Y-5119D01*
X4013Y-5138D01*
X3957Y-5138D01*
X4257Y-4876D02*
X4257Y-5138D01*
X4257Y-4913D02*
X4276Y-4895D01*
X4313Y-4876D01*
X4370Y-4876D01*
X4407Y-4895D01*
X4426Y-4932D01*
X4426Y-5138D01*
X4557Y-4876D02*
X4707Y-4876D01*
X4613Y-4745D02*
X4613Y-5082D01*
X4632Y-5119D01*
X4670Y-5138D01*
X4707Y-5138D01*
X4838Y-5138D02*
X4838Y-4876D01*
X4838Y-4951D02*
X4857Y-4913D01*
X4876Y-4895D01*
X4913Y-4876D01*
X4951Y-4876D01*
X5138Y-5138D02*
X5101Y-5119D01*
X5082Y-5101D01*
X5063Y-5063D01*
X5063Y-4951D01*
X5082Y-4913D01*
X5101Y-4895D01*
X5138Y-4876D01*
X5194Y-4876D01*
X5232Y-4895D01*
X5251Y-4913D01*
X5269Y-4951D01*
X5269Y-5063D01*
X5251Y-5101D01*
X5232Y-5119D01*
X5194Y-5138D01*
X5138Y-5138D01*
X5494Y-5138D02*
X5457Y-5119D01*
X5438Y-5082D01*
X5438Y-4745D01*
X5701Y-5138D02*
X5663Y-5119D01*
X5644Y-5082D01*
X5644Y-4745D01*
X6001Y-5119D02*
X5963Y-5138D01*
X5888Y-5138D01*
X5851Y-5119D01*
X5832Y-5082D01*
X5832Y-4932D01*
X5851Y-4895D01*
X5888Y-4876D01*
X5963Y-4876D01*
X6001Y-4895D01*
X6019Y-4932D01*
X6019Y-4970D01*
X5832Y-5007D01*
X6188Y-5138D02*
X6188Y-4876D01*
X6188Y-4951D02*
X6207Y-4913D01*
X6226Y-4895D01*
X6263Y-4876D01*
X6301Y-4876D01*
G54D10*
X706Y-11006D02*
X946Y-11006D01*
X826Y-11126D02*
X826Y-10886D01*
G54D12*
X9773Y-6162D02*
X9773Y-5768D01*
X10185Y-6124D02*
X10166Y-6143D01*
X10110Y-6162D01*
X10073Y-6162D01*
X10016Y-6143D01*
X9979Y-6106D01*
X9960Y-6068D01*
X9941Y-5993D01*
X9941Y-5937D01*
X9960Y-5862D01*
X9979Y-5824D01*
X10016Y-5787D01*
X10073Y-5768D01*
X10110Y-5768D01*
X10166Y-5787D01*
X10185Y-5806D01*
X10335Y-6143D02*
X10391Y-6162D01*
X10485Y-6162D01*
X10523Y-6143D01*
X10541Y-6124D01*
X10560Y-6087D01*
X10560Y-6049D01*
X10541Y-6012D01*
X10523Y-5993D01*
X10485Y-5974D01*
X10410Y-5956D01*
X10373Y-5937D01*
X10354Y-5918D01*
X10335Y-5881D01*
X10335Y-5843D01*
X10354Y-5806D01*
X10373Y-5787D01*
X10410Y-5768D01*
X10504Y-5768D01*
X10560Y-5787D01*
X10729Y-6162D02*
X10729Y-5768D01*
X10879Y-5768D01*
X10916Y-5787D01*
X10935Y-5806D01*
X10954Y-5843D01*
X10954Y-5899D01*
X10935Y-5937D01*
X10916Y-5956D01*
X10879Y-5974D01*
X10729Y-5974D01*
G54D10*
X33817Y-9983D02*
X34056Y-9983D01*
X33937Y-10103D02*
X33937Y-9863D01*
G54D12*
X31031Y-7744D02*
X31331Y-7744D01*
X31181Y-7894D02*
X31181Y-7594D01*
X30995Y-4193D02*
X30808Y-4193D01*
X30808Y-3800D01*
X31126Y-4193D02*
X31126Y-3931D01*
X31126Y-3800D02*
X31107Y-3818D01*
X31126Y-3837D01*
X31145Y-3818D01*
X31126Y-3800D01*
X31126Y-3837D01*
X31314Y-4193D02*
X31314Y-3800D01*
X31464Y-3800D01*
X31501Y-3818D01*
X31520Y-3837D01*
X31539Y-3875D01*
X31539Y-3931D01*
X31520Y-3968D01*
X31501Y-3987D01*
X31464Y-4006D01*
X31314Y-4006D01*
X31764Y-4193D02*
X31726Y-4175D01*
X31707Y-4156D01*
X31689Y-4118D01*
X31689Y-4006D01*
X31707Y-3968D01*
X31726Y-3950D01*
X31764Y-3931D01*
X31820Y-3931D01*
X31857Y-3950D01*
X31876Y-3968D01*
X31895Y-4006D01*
X31895Y-4118D01*
X31876Y-4156D01*
X31857Y-4175D01*
X31820Y-4193D01*
X31764Y-4193D01*
X32495Y-3987D02*
X32551Y-4006D01*
X32570Y-4025D01*
X32589Y-4062D01*
X32589Y-4118D01*
X32570Y-4156D01*
X32551Y-4175D01*
X32514Y-4193D01*
X32364Y-4193D01*
X32364Y-3800D01*
X32495Y-3800D01*
X32532Y-3818D01*
X32551Y-3837D01*
X32570Y-3875D01*
X32570Y-3912D01*
X32551Y-3950D01*
X32532Y-3968D01*
X32495Y-3987D01*
X32364Y-3987D01*
X32739Y-4081D02*
X32926Y-4081D01*
X32701Y-4193D02*
X32832Y-3800D01*
X32964Y-4193D01*
X33038Y-3800D02*
X33263Y-3800D01*
X33151Y-4193D02*
X33151Y-3800D01*
G54D10*
X12148Y-6323D02*
X12148Y-6008D01*
X12328Y-6323D01*
X12328Y-6008D01*
X12538Y-6008D02*
X12598Y-6008D01*
X12628Y-6023D01*
X12658Y-6053D01*
X12673Y-6113D01*
X12673Y-6218D01*
X12658Y-6278D01*
X12628Y-6308D01*
X12598Y-6323D01*
X12538Y-6323D01*
X12508Y-6308D01*
X12478Y-6278D01*
X12463Y-6218D01*
X12463Y-6113D01*
X12478Y-6053D01*
X12508Y-6023D01*
X12538Y-6008D01*
X13048Y-6323D02*
X13048Y-6008D01*
X13168Y-6008D01*
X13198Y-6023D01*
X13213Y-6038D01*
X13228Y-6068D01*
X13228Y-6113D01*
X13213Y-6143D01*
X13198Y-6158D01*
X13168Y-6173D01*
X13048Y-6173D01*
X13333Y-6008D02*
X13408Y-6323D01*
X13468Y-6098D01*
X13528Y-6323D01*
X13603Y-6008D01*
X14143Y-6293D02*
X14128Y-6308D01*
X14083Y-6323D01*
X14053Y-6323D01*
X14008Y-6308D01*
X13978Y-6278D01*
X13963Y-6248D01*
X13948Y-6188D01*
X13948Y-6143D01*
X13963Y-6083D01*
X13978Y-6053D01*
X14008Y-6023D01*
X14053Y-6008D01*
X14083Y-6008D01*
X14128Y-6023D01*
X14143Y-6038D01*
X14233Y-6008D02*
X14413Y-6008D01*
X14323Y-6323D02*
X14323Y-6008D01*
X14698Y-6323D02*
X14593Y-6173D01*
X14518Y-6323D02*
X14518Y-6008D01*
X14638Y-6008D01*
X14668Y-6023D01*
X14683Y-6038D01*
X14698Y-6068D01*
X14698Y-6113D01*
X14683Y-6143D01*
X14668Y-6158D01*
X14638Y-6173D01*
X14518Y-6173D01*
X14983Y-6323D02*
X14833Y-6323D01*
X14833Y-6008D01*
X37508Y-7924D02*
X37688Y-8104D01*
X37688Y-7924D02*
X37508Y-8104D01*
X37493Y-7999D02*
X37508Y-8014D01*
X37493Y-8029D01*
X37478Y-8014D01*
X37493Y-7999D01*
X37493Y-8029D01*
X37598Y-8104D02*
X37613Y-8119D01*
X37598Y-8134D01*
X37583Y-8119D01*
X37598Y-8104D01*
X37598Y-8134D01*
X37598Y-7894D02*
X37613Y-7909D01*
X37598Y-7924D01*
X37583Y-7909D01*
X37598Y-7894D01*
X37598Y-7924D01*
X37703Y-7999D02*
X37718Y-8014D01*
X37703Y-8029D01*
X37688Y-8014D01*
X37703Y-7999D01*
X37703Y-8029D01*
G54D12*
X38740Y-8228D02*
X38740Y-8110D01*
X36299Y-8228D02*
X38740Y-8228D01*
X36299Y-8110D02*
X36299Y-8228D01*
G54D13*
X42893Y-14173D02*
X42913Y-14173D01*
G54D14*
X4145Y-10212D02*
X3917Y-10212D01*
X4031Y-10212D02*
X4031Y-9812D01*
X3993Y-9869D01*
X3955Y-9907D01*
X3917Y-9926D01*
X17352Y-10192D02*
X17124Y-10192D01*
X17238Y-10192D02*
X17238Y-9792D01*
X17200Y-9849D01*
X17162Y-9888D01*
X17124Y-9907D01*
X17714Y-9792D02*
X17524Y-9792D01*
X17505Y-9983D01*
X17524Y-9964D01*
X17562Y-9945D01*
X17657Y-9945D01*
X17695Y-9964D01*
X17714Y-9983D01*
X17733Y-10021D01*
X17733Y-10116D01*
X17714Y-10154D01*
X17695Y-10173D01*
X17657Y-10192D01*
X17562Y-10192D01*
X17524Y-10173D01*
X17505Y-10154D01*
X12089Y-11964D02*
X11860Y-11964D01*
X11974Y-11964D02*
X11974Y-11564D01*
X11936Y-11621D01*
X11898Y-11659D01*
X11860Y-11678D01*
X12222Y-11564D02*
X12470Y-11564D01*
X12336Y-11716D01*
X12393Y-11716D01*
X12432Y-11735D01*
X12451Y-11754D01*
X12470Y-11792D01*
X12470Y-11888D01*
X12451Y-11926D01*
X12432Y-11945D01*
X12393Y-11964D01*
X12279Y-11964D01*
X12241Y-11945D01*
X12222Y-11926D01*
X3047Y-11984D02*
X2818Y-11984D01*
X2933Y-11984D02*
X2933Y-11584D01*
X2894Y-11641D01*
X2856Y-11679D01*
X2818Y-11698D01*
X8852Y-6321D02*
X11852Y-6321D01*
X11852Y-8321D02*
X8852Y-8321D01*
X8852Y-8321D02*
X8852Y-6321D01*
X11852Y-6321D02*
X11852Y-8321D01*
G54D15*
X25112Y-10156D02*
X25112Y-10274D01*
X25112Y-10786D02*
X25112Y-10668D01*
X25742Y-10668D02*
X25742Y-10786D01*
X25742Y-10156D02*
X25742Y-10274D01*
X25742Y-10786D02*
X25112Y-10786D01*
X25112Y-10156D02*
X25742Y-10156D01*
G54D16*
X19632Y-11516D02*
X19632Y-7576D01*
X19632Y-7576D02*
X23572Y-7576D01*
X23572Y-11326D02*
X23572Y-7576D01*
X23382Y-11516D02*
X19632Y-11516D01*
X23572Y-11326D02*
X23382Y-11516D01*
G54D14*
X23352Y-11046D02*
G75*
G03X23352Y-11046I-250J0D01*
G74*
G01*
G54D10*
X7992Y-885D02*
X7992Y-492D01*
X7992Y-492D02*
X6811Y-492D01*
X6811Y-492D02*
X6811Y-885D01*
X8877Y-3543D02*
X5925Y-3543D01*
X8838Y-2381D02*
X8838Y-964D01*
X8838Y-964D02*
X5964Y-964D01*
X5964Y-964D02*
X5964Y-2381D01*
X3346Y-11240D02*
X11614Y-11240D01*
X11614Y-11240D02*
X11614Y-12224D01*
X3346Y-12224D02*
X3346Y-11240D01*
X16889Y-10334D02*
X16889Y-9389D01*
X16889Y-9389D02*
X4370Y-9389D01*
X4370Y-9389D02*
X4370Y-10334D01*
X21535Y-3976D02*
X19330Y-3976D01*
X19330Y-5708D02*
X21535Y-5708D01*
X18464Y-4842D02*
G75*
G03X19330Y-5708I866J0D01*
G74*
G01*
X19330Y-3976D02*
G75*
G03X18464Y-4842I0J-866D01*
G74*
G01*
X22401Y-4842D02*
G75*
G03X21535Y-3976I-866J0D01*
G74*
G01*
X21535Y-5708D02*
G75*
G03X22401Y-4842I0J866D01*
G74*
G01*
G54D12*
X28838Y-6200D02*
X28838Y-6653D01*
X27874Y-6082D02*
X28740Y-6082D01*
X27775Y-6653D02*
X27775Y-6181D01*
X27893Y-6751D02*
X28740Y-6751D01*
X27775Y-6653D02*
G75*
G03X27874Y-6751I98J0D01*
G74*
G01*
X27874Y-6082D02*
G75*
G03X27775Y-6181I0J-98D01*
G74*
G01*
X28838Y-6181D02*
G75*
G03X28740Y-6082I-98J0D01*
G74*
G01*
X28740Y-6751D02*
G75*
G03X28838Y-6653I0J98D01*
G74*
G01*
G54D15*
X25118Y-9370D02*
X25118Y-9488D01*
X25118Y-10000D02*
X25118Y-9881D01*
X25748Y-9881D02*
X25748Y-10000D01*
X25748Y-9370D02*
X25748Y-9488D01*
X25748Y-10000D02*
X25118Y-10000D01*
X25118Y-9370D02*
X25748Y-9370D01*
X17913Y-11771D02*
X18031Y-11771D01*
X18543Y-11771D02*
X18425Y-11771D01*
X18425Y-11141D02*
X18543Y-11141D01*
X17913Y-11141D02*
X18031Y-11141D01*
X18543Y-11141D02*
X18543Y-11771D01*
X17913Y-11771D02*
X17913Y-11141D01*
X12255Y-1338D02*
X12137Y-1338D01*
X11625Y-1338D02*
X11744Y-1338D01*
X11744Y-1968D02*
X11625Y-1968D01*
X12255Y-1968D02*
X12137Y-1968D01*
X11625Y-1968D02*
X11625Y-1338D01*
X12255Y-1338D02*
X12255Y-1968D01*
X6830Y-8417D02*
X6830Y-8535D01*
X6830Y-9047D02*
X6830Y-8929D01*
X7460Y-8929D02*
X7460Y-9047D01*
X7460Y-8417D02*
X7460Y-8535D01*
X7460Y-9047D02*
X6830Y-9047D01*
X6830Y-8417D02*
X7460Y-8417D01*
X24015Y-5866D02*
X24015Y-5984D01*
X24015Y-6496D02*
X24015Y-6377D01*
X24645Y-6377D02*
X24645Y-6496D01*
X24645Y-5866D02*
X24645Y-5984D01*
X24645Y-6496D02*
X24015Y-6496D01*
X24015Y-5866D02*
X24645Y-5866D01*
X25078Y-8212D02*
X25196Y-8212D01*
X25708Y-8212D02*
X25590Y-8212D01*
X25590Y-7582D02*
X25708Y-7582D01*
X25078Y-7582D02*
X25196Y-7582D01*
X25708Y-7582D02*
X25708Y-8212D01*
X25078Y-8212D02*
X25078Y-7582D01*
X23031Y-4822D02*
X23149Y-4822D01*
X23661Y-4822D02*
X23543Y-4822D01*
X23543Y-4192D02*
X23661Y-4192D01*
X23031Y-4192D02*
X23149Y-4192D01*
X23661Y-4192D02*
X23661Y-4822D01*
X23031Y-4822D02*
X23031Y-4192D01*
X17207Y-4821D02*
X17325Y-4821D01*
X17837Y-4821D02*
X17718Y-4821D01*
X17718Y-4191D02*
X17837Y-4191D01*
X17207Y-4191D02*
X17325Y-4191D01*
X17837Y-4191D02*
X17837Y-4821D01*
X17207Y-4821D02*
X17207Y-4191D01*
X17842Y-7389D02*
X17960Y-7389D01*
X18472Y-7389D02*
X18354Y-7389D01*
X18354Y-6759D02*
X18472Y-6759D01*
X17842Y-6759D02*
X17960Y-6759D01*
X18472Y-6759D02*
X18472Y-7389D01*
X17842Y-7389D02*
X17842Y-6759D01*
X20039Y-13110D02*
X20039Y-12992D01*
X20039Y-12480D02*
X20039Y-12598D01*
X19409Y-12598D02*
X19409Y-12480D01*
X19409Y-13110D02*
X19409Y-12992D01*
X19409Y-12480D02*
X20039Y-12480D01*
X20039Y-13110D02*
X19409Y-13110D01*
X24291Y-11929D02*
X24291Y-12047D01*
X24291Y-12559D02*
X24291Y-12440D01*
X24921Y-12440D02*
X24921Y-12559D01*
X24921Y-11929D02*
X24921Y-12047D01*
X24921Y-12559D02*
X24291Y-12559D01*
X24291Y-11929D02*
X24921Y-11929D01*
X2894Y-9246D02*
X3031Y-9246D01*
X3976Y-9246D02*
X3819Y-9246D01*
X3976Y-9207D02*
X3819Y-9207D01*
X2894Y-9207D02*
X3031Y-9207D01*
X3819Y-8045D02*
X3976Y-8045D01*
X3976Y-8045D02*
X3976Y-9305D01*
X3976Y-9305D02*
X3819Y-9305D01*
X3031Y-9305D02*
X2894Y-9305D01*
X2894Y-9305D02*
X2894Y-8045D01*
X2894Y-8045D02*
X3031Y-8045D01*
X28287Y-11673D02*
X28287Y-11535D01*
X28287Y-10590D02*
X28287Y-10748D01*
X28248Y-10590D02*
X28248Y-10748D01*
X28248Y-11673D02*
X28248Y-11535D01*
X27086Y-10748D02*
X27086Y-10590D01*
X27086Y-10590D02*
X28346Y-10590D01*
X28346Y-10590D02*
X28346Y-10748D01*
X28346Y-11535D02*
X28346Y-11673D01*
X28346Y-11673D02*
X27086Y-11673D01*
X27086Y-11673D02*
X27086Y-11535D01*
X22618Y-12637D02*
X22618Y-12755D01*
X22618Y-13267D02*
X22618Y-13149D01*
X23248Y-13149D02*
X23248Y-13267D01*
X23248Y-12637D02*
X23248Y-12755D01*
X23248Y-13267D02*
X22618Y-13267D01*
X22618Y-12637D02*
X23248Y-12637D01*
X34527Y-7795D02*
X34665Y-7795D01*
X36023Y-7795D02*
X35866Y-7795D01*
X36023Y-7755D02*
X35866Y-7755D01*
X34527Y-7755D02*
X34665Y-7755D01*
X35866Y-6594D02*
X36023Y-6594D01*
X36023Y-6594D02*
X36023Y-7854D01*
X36023Y-7854D02*
X35866Y-7854D01*
X34665Y-7854D02*
X34527Y-7854D01*
X34527Y-7854D02*
X34527Y-6594D01*
X34527Y-6594D02*
X34665Y-6594D01*
X37814Y-13031D02*
X37814Y-12913D01*
X37814Y-12401D02*
X37814Y-12519D01*
X37185Y-12519D02*
X37185Y-12401D01*
X37185Y-13031D02*
X37185Y-12913D01*
X37185Y-12401D02*
X37814Y-12401D01*
X37814Y-13031D02*
X37185Y-13031D01*
X40118Y-11043D02*
X39980Y-11043D01*
X39035Y-11043D02*
X39192Y-11043D01*
X39035Y-11082D02*
X39192Y-11082D01*
X40118Y-11082D02*
X39980Y-11082D01*
X39192Y-12244D02*
X39035Y-12244D01*
X39035Y-12244D02*
X39035Y-10984D01*
X39035Y-10984D02*
X39192Y-10984D01*
X39980Y-10984D02*
X40118Y-10984D01*
X40118Y-10984D02*
X40118Y-12244D01*
X40118Y-12244D02*
X39980Y-12244D01*
X36003Y-5728D02*
X36003Y-5590D01*
X36003Y-4232D02*
X36003Y-4389D01*
X35964Y-4232D02*
X35964Y-4389D01*
X35964Y-5728D02*
X35964Y-5590D01*
X34803Y-4389D02*
X34803Y-4232D01*
X34803Y-4232D02*
X36062Y-4232D01*
X36062Y-4232D02*
X36062Y-4389D01*
X36062Y-5590D02*
X36062Y-5728D01*
X36062Y-5728D02*
X34803Y-5728D01*
X34803Y-5728D02*
X34803Y-5590D01*
X45610Y-12952D02*
X45610Y-13070D01*
X45610Y-13582D02*
X45610Y-13464D01*
X46240Y-13464D02*
X46240Y-13582D01*
X46240Y-12952D02*
X46240Y-13070D01*
X46240Y-13582D02*
X45610Y-13582D01*
X45610Y-12952D02*
X46240Y-12952D01*
X51614Y-6318D02*
X51614Y-6200D01*
X51614Y-5688D02*
X51614Y-5807D01*
X50984Y-5807D02*
X50984Y-5688D01*
X50984Y-6318D02*
X50984Y-6200D01*
X50984Y-5688D02*
X51614Y-5688D01*
X51614Y-6318D02*
X50984Y-6318D01*
X39842Y-4960D02*
G75*
G03X39842Y-4960I-984J0D01*
G74*
G01*
X40039Y-4960D02*
G75*
G03X40039Y-4960I-1181J0D01*
G74*
G01*
X41771Y-9724D02*
X41889Y-9724D01*
X42401Y-9724D02*
X42283Y-9724D01*
X42283Y-9094D02*
X42401Y-9094D01*
X41771Y-9094D02*
X41889Y-9094D01*
X42401Y-9094D02*
X42401Y-9724D01*
X41771Y-9724D02*
X41771Y-9094D01*
X38307Y-9133D02*
X38307Y-9251D01*
X38307Y-9763D02*
X38307Y-9645D01*
X38937Y-9645D02*
X38937Y-9763D01*
X38937Y-9133D02*
X38937Y-9251D01*
X38937Y-9763D02*
X38307Y-9763D01*
X38307Y-9133D02*
X38937Y-9133D01*
X41574Y-6811D02*
X41574Y-6929D01*
X41574Y-7440D02*
X41574Y-7322D01*
X42204Y-7322D02*
X42204Y-7440D01*
X42204Y-6811D02*
X42204Y-6929D01*
X42204Y-7440D02*
X41574Y-7440D01*
X41574Y-6811D02*
X42204Y-6811D01*
X42204Y-8228D02*
X42204Y-8110D01*
X42204Y-7598D02*
X42204Y-7716D01*
X41574Y-7716D02*
X41574Y-7598D01*
X41574Y-8228D02*
X41574Y-8110D01*
X41574Y-7598D02*
X42204Y-7598D01*
X42204Y-8228D02*
X41574Y-8228D01*
X34114Y-2047D02*
X34232Y-2047D01*
X34744Y-2047D02*
X34625Y-2047D01*
X34625Y-1417D02*
X34744Y-1417D01*
X34114Y-1417D02*
X34232Y-1417D01*
X34744Y-1417D02*
X34744Y-2047D01*
X34114Y-2047D02*
X34114Y-1417D01*
X32362Y-1318D02*
X32244Y-1318D01*
X31732Y-1318D02*
X31850Y-1318D01*
X31850Y-1948D02*
X31732Y-1948D01*
X32362Y-1948D02*
X32244Y-1948D01*
X31732Y-1948D02*
X31732Y-1318D01*
X32362Y-1318D02*
X32362Y-1948D01*
G54D17*
X37775Y-10827D02*
X37775Y-12007D01*
X37775Y-12007D02*
X37225Y-12007D01*
X37225Y-12007D02*
X37225Y-10827D01*
X37225Y-10827D02*
X37775Y-10827D01*
X39016Y-6929D02*
X40196Y-6929D01*
X40196Y-6929D02*
X40196Y-7479D01*
X40196Y-7479D02*
X39016Y-7479D01*
X39016Y-7479D02*
X39016Y-6929D01*
X32658Y-1457D02*
X33838Y-1457D01*
X33838Y-1457D02*
X33838Y-2007D01*
X33838Y-2007D02*
X32658Y-2007D01*
X32658Y-2007D02*
X32658Y-1457D01*
G54D15*
X54197Y-7460D02*
G75*
G03X54197Y-7460I-279J0D01*
G74*
G01*
X44606Y-6811D02*
X54685Y-6811D01*
X54685Y-6811D02*
X54685Y-12322D01*
X54685Y-12322D02*
X44606Y-12322D01*
X44606Y-12322D02*
X44606Y-6811D01*
X30820Y-7461D02*
X33143Y-7461D01*
X33143Y-7461D02*
X33143Y-4371D01*
X33143Y-4371D02*
X30820Y-4371D01*
X30820Y-4371D02*
X30820Y-7461D01*
G54D17*
X40747Y-9073D02*
X41007Y-9073D01*
X40747Y-9823D02*
X41007Y-9823D01*
X40197Y-9448D02*
X39937Y-9448D01*
X40197Y-10038D02*
X40197Y-8858D01*
X40197Y-8858D02*
X40747Y-8858D01*
X40747Y-8858D02*
X40747Y-10038D01*
X40747Y-10038D02*
X40197Y-10038D01*
X36632Y-6929D02*
X36632Y-6669D01*
X37382Y-6929D02*
X37382Y-6669D01*
X37007Y-7479D02*
X37007Y-7739D01*
X37597Y-7479D02*
X36417Y-7479D01*
X36417Y-7479D02*
X36417Y-6929D01*
X36417Y-6929D02*
X37597Y-6929D01*
X37597Y-6929D02*
X37597Y-7479D01*
G54D15*
X41594Y-11751D02*
X41594Y-11870D01*
X41594Y-12381D02*
X41594Y-12263D01*
X42224Y-12263D02*
X42224Y-12381D01*
X42224Y-11751D02*
X42224Y-11870D01*
X42224Y-12381D02*
X41594Y-12381D01*
X41594Y-11751D02*
X42224Y-11751D01*
X42224Y-13149D02*
X42224Y-13031D01*
X42224Y-12519D02*
X42224Y-12637D01*
X41594Y-12637D02*
X41594Y-12519D01*
X41594Y-13149D02*
X41594Y-13031D01*
X41594Y-12519D02*
X42224Y-12519D01*
X42224Y-13149D02*
X41594Y-13149D01*
X43700Y-13464D02*
X43700Y-13602D01*
X43700Y-13602D02*
X44507Y-13602D01*
X44507Y-13602D02*
X44507Y-13464D01*
X43700Y-12696D02*
X43700Y-12834D01*
X43700Y-12696D02*
X44507Y-12696D01*
X44507Y-12696D02*
X44507Y-12834D01*
X31515Y-1496D02*
X31377Y-1496D01*
X30433Y-1496D02*
X30590Y-1496D01*
X30433Y-1535D02*
X30590Y-1535D01*
X31515Y-1535D02*
X31377Y-1535D01*
X30590Y-2696D02*
X30433Y-2696D01*
X30433Y-2696D02*
X30433Y-1437D01*
X30433Y-1437D02*
X30590Y-1437D01*
X31377Y-1437D02*
X31515Y-1437D01*
X31515Y-1437D02*
X31515Y-2696D01*
X31515Y-2696D02*
X31377Y-2696D01*
X35826Y-11043D02*
X35688Y-11043D01*
X34744Y-11043D02*
X34901Y-11043D01*
X34744Y-11082D02*
X34901Y-11082D01*
X35826Y-11082D02*
X35688Y-11082D01*
X34901Y-12244D02*
X34744Y-12244D01*
X34744Y-12244D02*
X34744Y-10984D01*
X34744Y-10984D02*
X34901Y-10984D01*
X35688Y-10984D02*
X35826Y-10984D01*
X35826Y-10984D02*
X35826Y-12244D01*
X35826Y-12244D02*
X35688Y-12244D01*
X38562Y-7834D02*
X37952Y-7834D01*
X38582Y-7696D02*
X38582Y-6751D01*
X38582Y-6751D02*
X38582Y-6515D01*
X38582Y-6515D02*
X37952Y-6515D01*
X37952Y-6515D02*
X37952Y-7736D01*
X37952Y-7696D02*
X37952Y-7952D01*
X38582Y-7696D02*
X38582Y-7952D01*
X38582Y-7952D02*
X37952Y-7952D01*
X38582Y-7933D02*
X37952Y-7933D01*
X38582Y-7913D02*
X37952Y-7913D01*
X38582Y-7893D02*
X37952Y-7893D01*
G54D17*
X14900Y-7047D02*
X14900Y-6787D01*
X15650Y-7047D02*
X15650Y-6787D01*
X15275Y-7597D02*
X15275Y-7857D01*
X15865Y-7597D02*
X14685Y-7597D01*
X14685Y-7597D02*
X14685Y-7047D01*
X14685Y-7047D02*
X15865Y-7047D01*
X15865Y-7047D02*
X15865Y-7597D01*
G54D15*
X47155Y-12844D02*
X47155Y-12962D01*
X47155Y-13474D02*
X47155Y-13356D01*
X47785Y-13356D02*
X47785Y-13474D01*
X47785Y-12844D02*
X47785Y-12962D01*
X47785Y-13474D02*
X47155Y-13474D01*
X47155Y-12844D02*
X47785Y-12844D01*
X16338Y-7440D02*
X16456Y-7440D01*
X16968Y-7440D02*
X16850Y-7440D01*
X16850Y-6811D02*
X16968Y-6811D01*
X16338Y-6811D02*
X16456Y-6811D01*
X16968Y-6811D02*
X16968Y-7440D01*
X16338Y-7440D02*
X16338Y-6811D01*
G54D12*
X2185Y-11555D02*
X2185Y-12007D01*
X1535Y-11456D02*
X2086Y-11456D01*
X1437Y-12027D02*
X1437Y-11555D01*
X1555Y-12125D02*
X2066Y-12125D01*
X1437Y-12027D02*
G75*
G03X1535Y-12125I98J0D01*
G74*
G01*
X1535Y-11456D02*
G75*
G03X1437Y-11555I0J-98D01*
G74*
G01*
X2185Y-11555D02*
G75*
G03X2086Y-11456I-98J0D01*
G74*
G01*
X2086Y-12125D02*
G75*
G03X2185Y-12027I0J98D01*
G74*
G01*
X35039Y-9074D02*
X35492Y-9074D01*
X34940Y-9724D02*
X34940Y-9173D01*
X35511Y-9822D02*
X35039Y-9822D01*
X35610Y-9704D02*
X35610Y-9192D01*
X35511Y-9822D02*
G75*
G03X35610Y-9724I0J98D01*
G74*
G01*
X34940Y-9724D02*
G75*
G03X35039Y-9822I98J0D01*
G74*
G01*
X35039Y-9074D02*
G75*
G03X34940Y-9173I0J-98D01*
G74*
G01*
X35610Y-9173D02*
G75*
G03X35511Y-9074I-98J0D01*
G74*
G01*
G54D18*
X36023Y-2440D02*
G75*
G03X36023Y-2440I-500J0D01*
G74*
G01*
G54D12*
X40511Y-748D02*
X40511Y-1692D01*
X40472Y-1692D02*
X40472Y-748D01*
X40433Y-748D02*
X40433Y-1692D01*
X38976Y-748D02*
X38503Y-748D01*
X38503Y-748D02*
X38503Y-1692D01*
X38503Y-1692D02*
X38976Y-1692D01*
X40393Y-748D02*
X40393Y-1692D01*
X39921Y-748D02*
X40551Y-748D01*
X40551Y-748D02*
X40551Y-1692D01*
X40551Y-1692D02*
X39921Y-1692D01*
G54D18*
X40370Y-2440D02*
G75*
G03X40370Y-2440I-500J0D01*
G74*
G01*
G54D12*
X13779Y-7303D02*
X13326Y-7303D01*
X13877Y-6653D02*
X13877Y-7204D01*
X13307Y-6555D02*
X13779Y-6555D01*
X13208Y-6673D02*
X13208Y-7185D01*
X13307Y-6555D02*
G75*
G03X13208Y-6653I0J-98D01*
G74*
G01*
X13877Y-6653D02*
G75*
G03X13779Y-6555I-98J0D01*
G74*
G01*
X13779Y-7303D02*
G75*
G03X13877Y-7204I0J98D01*
G74*
G01*
X13208Y-7204D02*
G75*
G03X13307Y-7303I98J0D01*
G74*
G01*
G54D15*
X41102Y-2047D02*
X41220Y-2047D01*
X41732Y-2047D02*
X41614Y-2047D01*
X41614Y-1417D02*
X41732Y-1417D01*
X41102Y-1417D02*
X41220Y-1417D01*
X41732Y-1417D02*
X41732Y-2047D01*
X41102Y-2047D02*
X41102Y-1417D01*
G54D12*
X34921Y-1692D02*
X34921Y-748D01*
X34960Y-748D02*
X34960Y-1692D01*
X35000Y-1692D02*
X35000Y-748D01*
X36456Y-1692D02*
X36929Y-1692D01*
X36929Y-1692D02*
X36929Y-748D01*
X36929Y-748D02*
X36456Y-748D01*
X35039Y-1692D02*
X35039Y-748D01*
X35511Y-1692D02*
X34881Y-1692D01*
X34881Y-1692D02*
X34881Y-748D01*
X34881Y-748D02*
X35511Y-748D01*
X10314Y-669D02*
X11259Y-669D01*
X11259Y-708D02*
X10314Y-708D01*
X10314Y-748D02*
X11259Y-748D01*
X10314Y-2204D02*
X10314Y-2677D01*
X10314Y-2677D02*
X11259Y-2677D01*
X11259Y-2677D02*
X11259Y-2204D01*
X10314Y-787D02*
X11259Y-787D01*
X10314Y-1259D02*
X10314Y-629D01*
X10314Y-629D02*
X11259Y-629D01*
X11259Y-629D02*
X11259Y-1259D01*
G54D15*
X30960Y-9767D02*
X30842Y-9767D01*
X30330Y-9767D02*
X30448Y-9767D01*
X30448Y-10397D02*
X30330Y-10397D01*
X30960Y-10397D02*
X30842Y-10397D01*
X30330Y-10397D02*
X30330Y-9767D01*
X30960Y-9767D02*
X30960Y-10397D01*
X31858Y-10102D02*
X31858Y-10220D01*
X31858Y-10732D02*
X31858Y-10614D01*
X32488Y-10614D02*
X32488Y-10732D01*
X32488Y-10102D02*
X32488Y-10220D01*
X32488Y-10732D02*
X31858Y-10732D01*
X31858Y-10102D02*
X32488Y-10102D01*
G54D12*
X49192Y-377D02*
X49192Y330D01*
X49192Y330D02*
X48917Y330D01*
X48917Y330D02*
X48917Y-377D01*
X46555Y-496D02*
X46555Y-456D01*
X46555Y-456D02*
X50492Y-456D01*
X50492Y-456D02*
X50492Y-2976D01*
X50492Y-2976D02*
X46555Y-2976D01*
X46555Y-2976D02*
X46555Y-496D01*
G54D10*
X26364Y-10614D02*
X26259Y-10464D01*
X26184Y-10614D02*
X26184Y-10299D01*
X26304Y-10299D01*
X26334Y-10314D01*
X26349Y-10329D01*
X26364Y-10359D01*
X26364Y-10404D01*
X26349Y-10434D01*
X26334Y-10449D01*
X26304Y-10464D01*
X26184Y-10464D01*
X26484Y-10329D02*
X26499Y-10314D01*
X26529Y-10299D01*
X26604Y-10299D01*
X26634Y-10314D01*
X26649Y-10329D01*
X26664Y-10359D01*
X26664Y-10389D01*
X26649Y-10434D01*
X26469Y-10614D01*
X26664Y-10614D01*
X25247Y-10915D02*
X25258Y-10904D01*
X25281Y-10893D01*
X25337Y-10893D01*
X25360Y-10904D01*
X25371Y-10915D01*
X25382Y-10938D01*
X25382Y-10960D01*
X25371Y-10994D01*
X25236Y-11129D01*
X25382Y-11129D01*
X25472Y-10915D02*
X25483Y-10904D01*
X25506Y-10893D01*
X25562Y-10893D01*
X25585Y-10904D01*
X25596Y-10915D01*
X25607Y-10938D01*
X25607Y-10960D01*
X25596Y-10994D01*
X25461Y-11129D01*
X25607Y-11129D01*
X21362Y-10123D02*
X21362Y-10378D01*
X21377Y-10408D01*
X21392Y-10423D01*
X21422Y-10438D01*
X21482Y-10438D01*
X21512Y-10423D01*
X21527Y-10408D01*
X21542Y-10378D01*
X21542Y-10123D01*
X21857Y-10438D02*
X21677Y-10438D01*
X21767Y-10438D02*
X21767Y-10123D01*
X21737Y-10168D01*
X21707Y-10198D01*
X21677Y-10213D01*
X20177Y-8848D02*
X20327Y-8848D01*
X20147Y-8938D02*
X20252Y-8623D01*
X20357Y-8938D01*
X20417Y-8623D02*
X20597Y-8623D01*
X20507Y-8938D02*
X20507Y-8623D01*
X20702Y-8938D02*
X20702Y-8623D01*
X20807Y-8848D01*
X20912Y-8623D01*
X20912Y-8938D01*
X21062Y-8773D02*
X21167Y-8773D01*
X21212Y-8938D02*
X21062Y-8938D01*
X21062Y-8623D01*
X21212Y-8623D01*
X21512Y-8638D02*
X21482Y-8623D01*
X21437Y-8623D01*
X21392Y-8638D01*
X21362Y-8668D01*
X21347Y-8698D01*
X21332Y-8758D01*
X21332Y-8803D01*
X21347Y-8863D01*
X21362Y-8893D01*
X21392Y-8923D01*
X21437Y-8938D01*
X21467Y-8938D01*
X21512Y-8923D01*
X21527Y-8908D01*
X21527Y-8803D01*
X21467Y-8803D01*
X21647Y-8848D02*
X21797Y-8848D01*
X21617Y-8938D02*
X21722Y-8623D01*
X21827Y-8938D01*
X21902Y-8623D02*
X22097Y-8623D01*
X21992Y-8743D01*
X22037Y-8743D01*
X22067Y-8758D01*
X22082Y-8773D01*
X22097Y-8803D01*
X22097Y-8878D01*
X22082Y-8908D01*
X22067Y-8923D01*
X22037Y-8938D01*
X21947Y-8938D01*
X21917Y-8923D01*
X21902Y-8908D01*
X22217Y-8653D02*
X22232Y-8638D01*
X22262Y-8623D01*
X22337Y-8623D01*
X22367Y-8638D01*
X22382Y-8653D01*
X22397Y-8683D01*
X22397Y-8713D01*
X22382Y-8758D01*
X22202Y-8938D01*
X22397Y-8938D01*
X22532Y-8623D02*
X22532Y-8878D01*
X22547Y-8908D01*
X22562Y-8923D01*
X22592Y-8938D01*
X22652Y-8938D01*
X22682Y-8923D01*
X22697Y-8908D01*
X22712Y-8878D01*
X22712Y-8623D01*
X22997Y-8728D02*
X22997Y-8938D01*
X22922Y-8608D02*
X22847Y-8833D01*
X23042Y-8833D01*
X6981Y-4025D02*
X7026Y-4040D01*
X7101Y-4040D01*
X7131Y-4025D01*
X7146Y-4010D01*
X7161Y-3980D01*
X7161Y-3950D01*
X7146Y-3920D01*
X7131Y-3905D01*
X7101Y-3890D01*
X7041Y-3875D01*
X7011Y-3860D01*
X6996Y-3845D01*
X6981Y-3815D01*
X6981Y-3785D01*
X6996Y-3755D01*
X7011Y-3740D01*
X7041Y-3725D01*
X7116Y-3725D01*
X7161Y-3740D01*
X7266Y-3725D02*
X7341Y-4040D01*
X7401Y-3815D01*
X7461Y-4040D01*
X7536Y-3725D01*
X7821Y-4040D02*
X7641Y-4040D01*
X7731Y-4040D02*
X7731Y-3725D01*
X7701Y-3770D01*
X7671Y-3800D01*
X7641Y-3815D01*
X20296Y-4630D02*
X20506Y-4945D01*
X20506Y-4630D02*
X20296Y-4945D01*
X20791Y-4945D02*
X20611Y-4945D01*
X20701Y-4945D02*
X20701Y-4630D01*
X20671Y-4675D01*
X20641Y-4705D01*
X20611Y-4720D01*
X19904Y-5404D02*
X19881Y-5393D01*
X19870Y-5382D01*
X19859Y-5359D01*
X19859Y-5348D01*
X19870Y-5326D01*
X19881Y-5314D01*
X19904Y-5303D01*
X19949Y-5303D01*
X19971Y-5314D01*
X19983Y-5326D01*
X19994Y-5348D01*
X19994Y-5359D01*
X19983Y-5382D01*
X19971Y-5393D01*
X19949Y-5404D01*
X19904Y-5404D01*
X19881Y-5416D01*
X19870Y-5427D01*
X19859Y-5449D01*
X19859Y-5494D01*
X19870Y-5517D01*
X19881Y-5528D01*
X19904Y-5539D01*
X19949Y-5539D01*
X19971Y-5528D01*
X19983Y-5517D01*
X19994Y-5494D01*
X19994Y-5449D01*
X19983Y-5427D01*
X19971Y-5416D01*
X19949Y-5404D01*
X20264Y-5292D02*
X20061Y-5596D01*
X20466Y-5539D02*
X20331Y-5539D01*
X20399Y-5539D02*
X20399Y-5303D01*
X20376Y-5337D01*
X20354Y-5359D01*
X20331Y-5371D01*
X20669Y-5303D02*
X20624Y-5303D01*
X20601Y-5314D01*
X20590Y-5326D01*
X20568Y-5359D01*
X20556Y-5404D01*
X20556Y-5494D01*
X20568Y-5517D01*
X20579Y-5528D01*
X20601Y-5539D01*
X20646Y-5539D01*
X20669Y-5528D01*
X20680Y-5517D01*
X20691Y-5494D01*
X20691Y-5438D01*
X20680Y-5416D01*
X20669Y-5404D01*
X20646Y-5393D01*
X20601Y-5393D01*
X20579Y-5404D01*
X20568Y-5416D01*
X20556Y-5438D01*
X20793Y-5539D02*
X20793Y-5303D01*
X20871Y-5472D01*
X20950Y-5303D01*
X20950Y-5539D01*
X21062Y-5539D02*
X21062Y-5303D01*
X21062Y-5416D02*
X21197Y-5416D01*
X21197Y-5539D02*
X21197Y-5303D01*
X21287Y-5382D02*
X21411Y-5382D01*
X21287Y-5539D01*
X21411Y-5539D01*
X25224Y-3942D02*
X25224Y-3627D01*
X25299Y-3627D01*
X25344Y-3642D01*
X25374Y-3672D01*
X25389Y-3702D01*
X25404Y-3762D01*
X25404Y-3807D01*
X25389Y-3867D01*
X25374Y-3897D01*
X25344Y-3927D01*
X25299Y-3942D01*
X25224Y-3942D01*
X25539Y-3822D02*
X25779Y-3822D01*
X25659Y-3942D02*
X25659Y-3702D01*
X26981Y-3607D02*
X27086Y-3922D01*
X27191Y-3607D01*
X27401Y-3757D02*
X27446Y-3772D01*
X27461Y-3787D01*
X27476Y-3817D01*
X27476Y-3862D01*
X27461Y-3892D01*
X27446Y-3907D01*
X27416Y-3922D01*
X27296Y-3922D01*
X27296Y-3607D01*
X27401Y-3607D01*
X27431Y-3622D01*
X27446Y-3637D01*
X27461Y-3667D01*
X27461Y-3697D01*
X27446Y-3727D01*
X27431Y-3742D01*
X27401Y-3757D01*
X27296Y-3757D01*
X27611Y-3607D02*
X27611Y-3862D01*
X27626Y-3892D01*
X27641Y-3907D01*
X27671Y-3922D01*
X27731Y-3922D01*
X27761Y-3907D01*
X27776Y-3892D01*
X27791Y-3862D01*
X27791Y-3607D01*
X27926Y-3907D02*
X27971Y-3922D01*
X28046Y-3922D01*
X28076Y-3907D01*
X28091Y-3892D01*
X28106Y-3862D01*
X28106Y-3832D01*
X28091Y-3802D01*
X28076Y-3787D01*
X28046Y-3772D01*
X27986Y-3757D01*
X27956Y-3742D01*
X27941Y-3727D01*
X27926Y-3697D01*
X27926Y-3667D01*
X27941Y-3637D01*
X27956Y-3622D01*
X27986Y-3607D01*
X28061Y-3607D01*
X28106Y-3622D01*
X24262Y-3642D02*
X24232Y-3627D01*
X24187Y-3627D01*
X24142Y-3642D01*
X24112Y-3672D01*
X24097Y-3702D01*
X24082Y-3762D01*
X24082Y-3807D01*
X24097Y-3867D01*
X24112Y-3897D01*
X24142Y-3927D01*
X24187Y-3942D01*
X24217Y-3942D01*
X24262Y-3927D01*
X24277Y-3912D01*
X24277Y-3807D01*
X24217Y-3807D01*
X24412Y-3942D02*
X24412Y-3627D01*
X24592Y-3942D01*
X24592Y-3627D01*
X24742Y-3942D02*
X24742Y-3627D01*
X24817Y-3627D01*
X24862Y-3642D01*
X24892Y-3672D01*
X24907Y-3702D01*
X24922Y-3762D01*
X24922Y-3807D01*
X24907Y-3867D01*
X24892Y-3897D01*
X24862Y-3927D01*
X24817Y-3942D01*
X24742Y-3942D01*
X26224Y-3942D02*
X26224Y-3627D01*
X26299Y-3627D01*
X26344Y-3642D01*
X26374Y-3672D01*
X26389Y-3702D01*
X26404Y-3762D01*
X26404Y-3807D01*
X26389Y-3867D01*
X26374Y-3897D01*
X26344Y-3927D01*
X26299Y-3942D01*
X26224Y-3942D01*
X26539Y-3822D02*
X26779Y-3822D01*
X27060Y-6244D02*
X27060Y-6469D01*
X27045Y-6514D01*
X27015Y-6544D01*
X26970Y-6559D01*
X26940Y-6559D01*
X27210Y-6559D02*
X27210Y-6244D01*
X27330Y-6244D01*
X27360Y-6259D01*
X27375Y-6274D01*
X27390Y-6304D01*
X27390Y-6349D01*
X27375Y-6379D01*
X27360Y-6394D01*
X27330Y-6409D01*
X27210Y-6409D01*
X27690Y-6559D02*
X27510Y-6559D01*
X27600Y-6559D02*
X27600Y-6244D01*
X27570Y-6289D01*
X27540Y-6319D01*
X27510Y-6334D01*
X26364Y-9827D02*
X26259Y-9677D01*
X26184Y-9827D02*
X26184Y-9512D01*
X26304Y-9512D01*
X26334Y-9527D01*
X26349Y-9542D01*
X26364Y-9572D01*
X26364Y-9617D01*
X26349Y-9647D01*
X26334Y-9662D01*
X26304Y-9677D01*
X26184Y-9677D01*
X26469Y-9512D02*
X26664Y-9512D01*
X26559Y-9632D01*
X26604Y-9632D01*
X26634Y-9647D01*
X26649Y-9662D01*
X26664Y-9692D01*
X26664Y-9767D01*
X26649Y-9797D01*
X26634Y-9812D01*
X26604Y-9827D01*
X26514Y-9827D01*
X26484Y-9812D01*
X26469Y-9797D01*
X25258Y-9053D02*
X25269Y-9042D01*
X25292Y-9030D01*
X25348Y-9030D01*
X25370Y-9042D01*
X25382Y-9053D01*
X25393Y-9075D01*
X25393Y-9098D01*
X25382Y-9132D01*
X25247Y-9267D01*
X25393Y-9267D01*
X25483Y-9053D02*
X25494Y-9042D01*
X25517Y-9030D01*
X25573Y-9030D01*
X25595Y-9042D01*
X25607Y-9053D01*
X25618Y-9075D01*
X25618Y-9098D01*
X25607Y-9132D01*
X25472Y-9267D01*
X25618Y-9267D01*
X18136Y-10733D02*
X18031Y-10583D01*
X17956Y-10733D02*
X17956Y-10418D01*
X18076Y-10418D01*
X18106Y-10433D01*
X18121Y-10448D01*
X18136Y-10478D01*
X18136Y-10523D01*
X18121Y-10553D01*
X18106Y-10568D01*
X18076Y-10583D01*
X17956Y-10583D01*
X18406Y-10523D02*
X18406Y-10733D01*
X18331Y-10403D02*
X18256Y-10628D01*
X18451Y-10628D01*
X17530Y-11524D02*
X17395Y-11524D01*
X17463Y-11524D02*
X17463Y-11287D01*
X17440Y-11321D01*
X17418Y-11344D01*
X17395Y-11355D01*
X17632Y-11524D02*
X17632Y-11287D01*
X17654Y-11434D02*
X17722Y-11524D01*
X17722Y-11366D02*
X17632Y-11456D01*
X11876Y-929D02*
X11771Y-779D01*
X11696Y-929D02*
X11696Y-614D01*
X11816Y-614D01*
X11846Y-629D01*
X11861Y-644D01*
X11876Y-674D01*
X11876Y-719D01*
X11861Y-749D01*
X11846Y-764D01*
X11816Y-779D01*
X11696Y-779D01*
X12161Y-614D02*
X12011Y-614D01*
X11996Y-764D01*
X12011Y-749D01*
X12041Y-734D01*
X12116Y-734D01*
X12146Y-749D01*
X12161Y-764D01*
X12176Y-794D01*
X12176Y-869D01*
X12161Y-899D01*
X12146Y-914D01*
X12116Y-929D01*
X12041Y-929D01*
X12011Y-914D01*
X11996Y-899D01*
X11878Y-2626D02*
X11743Y-2626D01*
X11811Y-2626D02*
X11811Y-2390D01*
X11788Y-2424D01*
X11766Y-2446D01*
X11743Y-2457D01*
X11979Y-2626D02*
X11979Y-2390D01*
X12114Y-2626D02*
X12013Y-2491D01*
X12114Y-2390D02*
X11979Y-2525D01*
X6443Y-8292D02*
X6338Y-8142D01*
X6263Y-8292D02*
X6263Y-7977D01*
X6383Y-7977D01*
X6413Y-7992D01*
X6428Y-8007D01*
X6443Y-8037D01*
X6443Y-8082D01*
X6428Y-8112D01*
X6413Y-8127D01*
X6383Y-8142D01*
X6263Y-8142D01*
X6743Y-8292D02*
X6563Y-8292D01*
X6653Y-8292D02*
X6653Y-7977D01*
X6623Y-8022D01*
X6593Y-8052D01*
X6563Y-8067D01*
X7665Y-8295D02*
X7530Y-8295D01*
X7598Y-8295D02*
X7598Y-8059D01*
X7575Y-8093D01*
X7553Y-8115D01*
X7530Y-8127D01*
X7767Y-8295D02*
X7767Y-8059D01*
X7902Y-8295D02*
X7800Y-8160D01*
X7902Y-8059D02*
X7767Y-8194D01*
X24278Y-5742D02*
X24263Y-5757D01*
X24218Y-5772D01*
X24188Y-5772D01*
X24143Y-5757D01*
X24113Y-5727D01*
X24098Y-5697D01*
X24083Y-5637D01*
X24083Y-5592D01*
X24098Y-5532D01*
X24113Y-5502D01*
X24143Y-5472D01*
X24188Y-5457D01*
X24218Y-5457D01*
X24263Y-5472D01*
X24278Y-5487D01*
X24383Y-5457D02*
X24578Y-5457D01*
X24473Y-5577D01*
X24518Y-5577D01*
X24548Y-5592D01*
X24563Y-5607D01*
X24578Y-5637D01*
X24578Y-5712D01*
X24563Y-5742D01*
X24548Y-5757D01*
X24518Y-5772D01*
X24428Y-5772D01*
X24398Y-5757D01*
X24383Y-5742D01*
X24043Y-6602D02*
X24066Y-6602D01*
X24088Y-6614D01*
X24100Y-6625D01*
X24111Y-6647D01*
X24122Y-6692D01*
X24122Y-6749D01*
X24111Y-6794D01*
X24100Y-6816D01*
X24088Y-6827D01*
X24066Y-6839D01*
X24043Y-6839D01*
X24021Y-6827D01*
X24010Y-6816D01*
X23998Y-6794D01*
X23987Y-6749D01*
X23987Y-6692D01*
X23998Y-6647D01*
X24010Y-6625D01*
X24021Y-6614D01*
X24043Y-6602D01*
X24223Y-6816D02*
X24235Y-6827D01*
X24223Y-6839D01*
X24212Y-6827D01*
X24223Y-6816D01*
X24223Y-6839D01*
X24460Y-6839D02*
X24325Y-6839D01*
X24392Y-6839D02*
X24392Y-6602D01*
X24370Y-6636D01*
X24347Y-6659D01*
X24325Y-6670D01*
X24662Y-6681D02*
X24662Y-6839D01*
X24561Y-6681D02*
X24561Y-6805D01*
X24572Y-6827D01*
X24595Y-6839D01*
X24628Y-6839D01*
X24651Y-6827D01*
X24662Y-6816D01*
X26049Y-7750D02*
X26034Y-7765D01*
X25989Y-7780D01*
X25959Y-7780D01*
X25914Y-7765D01*
X25884Y-7735D01*
X25869Y-7705D01*
X25854Y-7645D01*
X25854Y-7600D01*
X25869Y-7540D01*
X25884Y-7510D01*
X25914Y-7480D01*
X25959Y-7465D01*
X25989Y-7465D01*
X26034Y-7480D01*
X26049Y-7495D01*
X26319Y-7570D02*
X26319Y-7780D01*
X26244Y-7450D02*
X26169Y-7675D01*
X26364Y-7675D01*
X25984Y-8492D02*
X25849Y-8492D01*
X25916Y-8492D02*
X25916Y-8256D01*
X25894Y-8290D01*
X25871Y-8312D01*
X25849Y-8323D01*
X26186Y-8335D02*
X26186Y-8492D01*
X26085Y-8335D02*
X26085Y-8458D01*
X26096Y-8481D01*
X26119Y-8492D01*
X26152Y-8492D01*
X26175Y-8481D01*
X26186Y-8470D01*
X23254Y-3734D02*
X23239Y-3749D01*
X23194Y-3764D01*
X23164Y-3764D01*
X23119Y-3749D01*
X23089Y-3719D01*
X23074Y-3689D01*
X23059Y-3629D01*
X23059Y-3584D01*
X23074Y-3524D01*
X23089Y-3494D01*
X23119Y-3464D01*
X23164Y-3449D01*
X23194Y-3449D01*
X23239Y-3464D01*
X23254Y-3479D01*
X23539Y-3449D02*
X23389Y-3449D01*
X23374Y-3599D01*
X23389Y-3584D01*
X23419Y-3569D01*
X23494Y-3569D01*
X23524Y-3584D01*
X23539Y-3599D01*
X23554Y-3629D01*
X23554Y-3704D01*
X23539Y-3734D01*
X23524Y-3749D01*
X23494Y-3764D01*
X23419Y-3764D01*
X23389Y-3749D01*
X23374Y-3734D01*
X23059Y-5286D02*
X23070Y-5275D01*
X23093Y-5264D01*
X23149Y-5264D01*
X23172Y-5275D01*
X23183Y-5286D01*
X23194Y-5309D01*
X23194Y-5331D01*
X23183Y-5365D01*
X23048Y-5500D01*
X23194Y-5500D01*
X23284Y-5286D02*
X23295Y-5275D01*
X23318Y-5264D01*
X23374Y-5264D01*
X23397Y-5275D01*
X23408Y-5286D01*
X23419Y-5309D01*
X23419Y-5331D01*
X23408Y-5365D01*
X23273Y-5500D01*
X23419Y-5500D01*
X23520Y-5343D02*
X23520Y-5579D01*
X23520Y-5354D02*
X23543Y-5343D01*
X23588Y-5343D01*
X23610Y-5354D01*
X23622Y-5365D01*
X23633Y-5388D01*
X23633Y-5455D01*
X23622Y-5478D01*
X23610Y-5489D01*
X23588Y-5500D01*
X23543Y-5500D01*
X23520Y-5489D01*
X17467Y-3734D02*
X17452Y-3749D01*
X17407Y-3764D01*
X17377Y-3764D01*
X17332Y-3749D01*
X17302Y-3719D01*
X17287Y-3689D01*
X17272Y-3629D01*
X17272Y-3584D01*
X17287Y-3524D01*
X17302Y-3494D01*
X17332Y-3464D01*
X17377Y-3449D01*
X17407Y-3449D01*
X17452Y-3464D01*
X17467Y-3479D01*
X17737Y-3449D02*
X17677Y-3449D01*
X17647Y-3464D01*
X17632Y-3479D01*
X17602Y-3524D01*
X17587Y-3584D01*
X17587Y-3704D01*
X17602Y-3734D01*
X17617Y-3749D01*
X17647Y-3764D01*
X17707Y-3764D01*
X17737Y-3749D01*
X17752Y-3734D01*
X17767Y-3704D01*
X17767Y-3629D01*
X17752Y-3599D01*
X17737Y-3584D01*
X17707Y-3569D01*
X17647Y-3569D01*
X17617Y-3584D01*
X17602Y-3599D01*
X17587Y-3629D01*
X17272Y-5286D02*
X17283Y-5275D01*
X17305Y-5264D01*
X17362Y-5264D01*
X17384Y-5275D01*
X17395Y-5286D01*
X17407Y-5309D01*
X17407Y-5331D01*
X17395Y-5365D01*
X17260Y-5500D01*
X17407Y-5500D01*
X17497Y-5286D02*
X17508Y-5275D01*
X17530Y-5264D01*
X17587Y-5264D01*
X17609Y-5275D01*
X17620Y-5286D01*
X17632Y-5309D01*
X17632Y-5331D01*
X17620Y-5365D01*
X17485Y-5500D01*
X17632Y-5500D01*
X17733Y-5343D02*
X17733Y-5579D01*
X17733Y-5354D02*
X17755Y-5343D01*
X17800Y-5343D01*
X17823Y-5354D01*
X17834Y-5365D01*
X17845Y-5388D01*
X17845Y-5455D01*
X17834Y-5478D01*
X17823Y-5489D01*
X17800Y-5500D01*
X17755Y-5500D01*
X17733Y-5489D01*
X18057Y-6332D02*
X18042Y-6347D01*
X17997Y-6362D01*
X17967Y-6362D01*
X17922Y-6347D01*
X17892Y-6317D01*
X17877Y-6287D01*
X17862Y-6227D01*
X17862Y-6182D01*
X17877Y-6122D01*
X17892Y-6092D01*
X17922Y-6062D01*
X17967Y-6047D01*
X17997Y-6047D01*
X18042Y-6062D01*
X18057Y-6077D01*
X18162Y-6047D02*
X18372Y-6047D01*
X18237Y-6362D01*
X17902Y-7784D02*
X17924Y-7784D01*
X17947Y-7795D01*
X17958Y-7806D01*
X17969Y-7829D01*
X17980Y-7874D01*
X17980Y-7930D01*
X17969Y-7975D01*
X17958Y-7997D01*
X17947Y-8008D01*
X17924Y-8020D01*
X17902Y-8020D01*
X17879Y-8008D01*
X17868Y-7997D01*
X17857Y-7975D01*
X17845Y-7930D01*
X17845Y-7874D01*
X17857Y-7829D01*
X17868Y-7806D01*
X17879Y-7795D01*
X17902Y-7784D01*
X18082Y-7997D02*
X18093Y-8008D01*
X18082Y-8020D01*
X18070Y-8008D01*
X18082Y-7997D01*
X18082Y-8020D01*
X18318Y-8020D02*
X18183Y-8020D01*
X18250Y-8020D02*
X18250Y-7784D01*
X18228Y-7817D01*
X18205Y-7840D01*
X18183Y-7851D01*
X18520Y-7862D02*
X18520Y-8020D01*
X18419Y-7862D02*
X18419Y-7986D01*
X18430Y-8008D01*
X18453Y-8020D01*
X18487Y-8020D01*
X18509Y-8008D01*
X18520Y-7997D01*
X18923Y-13458D02*
X18908Y-13473D01*
X18863Y-13488D01*
X18833Y-13488D01*
X18788Y-13473D01*
X18758Y-13443D01*
X18743Y-13413D01*
X18728Y-13353D01*
X18728Y-13308D01*
X18743Y-13248D01*
X18758Y-13218D01*
X18788Y-13188D01*
X18833Y-13173D01*
X18863Y-13173D01*
X18908Y-13188D01*
X18923Y-13203D01*
X19103Y-13308D02*
X19073Y-13293D01*
X19058Y-13278D01*
X19043Y-13248D01*
X19043Y-13233D01*
X19058Y-13203D01*
X19073Y-13188D01*
X19103Y-13173D01*
X19163Y-13173D01*
X19193Y-13188D01*
X19208Y-13203D01*
X19223Y-13233D01*
X19223Y-13248D01*
X19208Y-13278D01*
X19193Y-13293D01*
X19163Y-13308D01*
X19103Y-13308D01*
X19073Y-13323D01*
X19058Y-13338D01*
X19043Y-13368D01*
X19043Y-13428D01*
X19058Y-13458D01*
X19073Y-13473D01*
X19103Y-13488D01*
X19163Y-13488D01*
X19193Y-13473D01*
X19208Y-13458D01*
X19223Y-13428D01*
X19223Y-13368D01*
X19208Y-13338D01*
X19193Y-13323D01*
X19163Y-13308D01*
X19516Y-13217D02*
X19538Y-13217D01*
X19561Y-13228D01*
X19572Y-13239D01*
X19583Y-13262D01*
X19595Y-13307D01*
X19595Y-13363D01*
X19583Y-13408D01*
X19572Y-13430D01*
X19561Y-13442D01*
X19538Y-13453D01*
X19516Y-13453D01*
X19493Y-13442D01*
X19482Y-13430D01*
X19471Y-13408D01*
X19460Y-13363D01*
X19460Y-13307D01*
X19471Y-13262D01*
X19482Y-13239D01*
X19493Y-13228D01*
X19516Y-13217D01*
X19696Y-13430D02*
X19707Y-13442D01*
X19696Y-13453D01*
X19685Y-13442D01*
X19696Y-13430D01*
X19696Y-13453D01*
X19932Y-13453D02*
X19797Y-13453D01*
X19865Y-13453D02*
X19865Y-13217D01*
X19842Y-13250D01*
X19820Y-13273D01*
X19797Y-13284D01*
X20134Y-13295D02*
X20134Y-13453D01*
X20033Y-13295D02*
X20033Y-13419D01*
X20044Y-13442D01*
X20067Y-13453D01*
X20101Y-13453D01*
X20123Y-13442D01*
X20134Y-13430D01*
X24514Y-11766D02*
X24499Y-11781D01*
X24454Y-11796D01*
X24424Y-11796D01*
X24379Y-11781D01*
X24349Y-11751D01*
X24334Y-11721D01*
X24319Y-11661D01*
X24319Y-11616D01*
X24334Y-11556D01*
X24349Y-11526D01*
X24379Y-11496D01*
X24424Y-11481D01*
X24454Y-11481D01*
X24499Y-11496D01*
X24514Y-11511D01*
X24664Y-11796D02*
X24724Y-11796D01*
X24754Y-11781D01*
X24769Y-11766D01*
X24799Y-11721D01*
X24814Y-11661D01*
X24814Y-11541D01*
X24799Y-11511D01*
X24784Y-11496D01*
X24754Y-11481D01*
X24694Y-11481D01*
X24664Y-11496D01*
X24649Y-11511D01*
X24634Y-11541D01*
X24634Y-11616D01*
X24649Y-11646D01*
X24664Y-11661D01*
X24694Y-11676D01*
X24754Y-11676D01*
X24784Y-11661D01*
X24799Y-11646D01*
X24814Y-11616D01*
X24319Y-12665D02*
X24341Y-12665D01*
X24364Y-12677D01*
X24375Y-12688D01*
X24386Y-12710D01*
X24398Y-12755D01*
X24398Y-12812D01*
X24386Y-12857D01*
X24375Y-12879D01*
X24364Y-12890D01*
X24341Y-12902D01*
X24319Y-12902D01*
X24296Y-12890D01*
X24285Y-12879D01*
X24274Y-12857D01*
X24263Y-12812D01*
X24263Y-12755D01*
X24274Y-12710D01*
X24285Y-12688D01*
X24296Y-12677D01*
X24319Y-12665D01*
X24499Y-12879D02*
X24510Y-12890D01*
X24499Y-12902D01*
X24488Y-12890D01*
X24499Y-12879D01*
X24499Y-12902D01*
X24735Y-12902D02*
X24600Y-12902D01*
X24668Y-12902D02*
X24668Y-12665D01*
X24645Y-12699D01*
X24623Y-12722D01*
X24600Y-12733D01*
X24938Y-12744D02*
X24938Y-12902D01*
X24836Y-12744D02*
X24836Y-12868D01*
X24848Y-12890D01*
X24870Y-12902D01*
X24904Y-12902D01*
X24926Y-12890D01*
X24938Y-12879D01*
X28556Y-4591D02*
X28661Y-4906D01*
X28766Y-4591D01*
X28976Y-4741D02*
X29021Y-4756D01*
X29036Y-4771D01*
X29051Y-4801D01*
X29051Y-4846D01*
X29036Y-4876D01*
X29021Y-4891D01*
X28991Y-4906D01*
X28871Y-4906D01*
X28871Y-4591D01*
X28976Y-4591D01*
X29006Y-4606D01*
X29021Y-4621D01*
X29036Y-4651D01*
X29036Y-4681D01*
X29021Y-4711D01*
X29006Y-4726D01*
X28976Y-4741D01*
X28871Y-4741D01*
X29186Y-4591D02*
X29186Y-4846D01*
X29201Y-4876D01*
X29216Y-4891D01*
X29246Y-4906D01*
X29306Y-4906D01*
X29336Y-4891D01*
X29351Y-4876D01*
X29366Y-4846D01*
X29366Y-4591D01*
X29501Y-4891D02*
X29546Y-4906D01*
X29621Y-4906D01*
X29651Y-4891D01*
X29666Y-4876D01*
X29681Y-4846D01*
X29681Y-4816D01*
X29666Y-4786D01*
X29651Y-4771D01*
X29621Y-4756D01*
X29561Y-4741D01*
X29531Y-4726D01*
X29516Y-4711D01*
X29501Y-4681D01*
X29501Y-4651D01*
X29516Y-4621D01*
X29531Y-4606D01*
X29561Y-4591D01*
X29636Y-4591D01*
X29681Y-4606D01*
X28710Y-5772D02*
X28815Y-6087D01*
X28920Y-5772D01*
X29025Y-6087D02*
X29025Y-5772D01*
X29175Y-6087D02*
X29175Y-5772D01*
X29355Y-6087D01*
X29355Y-5772D01*
G54D19*
X28740Y-8136D02*
X28740Y-7816D01*
X28816Y-7816D01*
X28862Y-7832D01*
X28892Y-7862D01*
X28907Y-7893D01*
X28923Y-7954D01*
X28923Y-7999D01*
X28907Y-8060D01*
X28892Y-8091D01*
X28862Y-8121D01*
X28816Y-8136D01*
X28740Y-8136D01*
X29044Y-7847D02*
X29060Y-7832D01*
X29090Y-7816D01*
X29166Y-7816D01*
X29197Y-7832D01*
X29212Y-7847D01*
X29227Y-7877D01*
X29227Y-7908D01*
X29212Y-7954D01*
X29029Y-8136D01*
X29227Y-8136D01*
X28740Y-7113D02*
X28740Y-6793D01*
X28816Y-6793D01*
X28862Y-6808D01*
X28892Y-6838D01*
X28907Y-6869D01*
X28923Y-6930D01*
X28923Y-6976D01*
X28907Y-7037D01*
X28892Y-7067D01*
X28862Y-7098D01*
X28816Y-7113D01*
X28740Y-7113D01*
X29029Y-6793D02*
X29227Y-6793D01*
X29121Y-6915D01*
X29166Y-6915D01*
X29197Y-6930D01*
X29212Y-6945D01*
X29227Y-6976D01*
X29227Y-7052D01*
X29212Y-7082D01*
X29197Y-7098D01*
X29166Y-7113D01*
X29075Y-7113D01*
X29044Y-7098D01*
X29029Y-7082D01*
G54D10*
X28618Y-8818D02*
X28588Y-8803D01*
X28543Y-8803D01*
X28498Y-8818D01*
X28468Y-8848D01*
X28453Y-8878D01*
X28438Y-8938D01*
X28438Y-8983D01*
X28453Y-9043D01*
X28468Y-9073D01*
X28498Y-9103D01*
X28543Y-9118D01*
X28573Y-9118D01*
X28618Y-9103D01*
X28633Y-9088D01*
X28633Y-8983D01*
X28573Y-8983D01*
X28768Y-9118D02*
X28768Y-8803D01*
X28948Y-9118D01*
X28948Y-8803D01*
X29098Y-9118D02*
X29098Y-8803D01*
X29173Y-8803D01*
X29218Y-8818D01*
X29248Y-8848D01*
X29263Y-8878D01*
X29278Y-8938D01*
X29278Y-8983D01*
X29263Y-9043D01*
X29248Y-9073D01*
X29218Y-9103D01*
X29173Y-9118D01*
X29098Y-9118D01*
X3372Y-7474D02*
X3357Y-7489D01*
X3312Y-7504D01*
X3282Y-7504D01*
X3237Y-7489D01*
X3207Y-7459D01*
X3192Y-7429D01*
X3177Y-7369D01*
X3177Y-7324D01*
X3192Y-7264D01*
X3207Y-7234D01*
X3237Y-7204D01*
X3282Y-7189D01*
X3312Y-7189D01*
X3357Y-7204D01*
X3372Y-7219D01*
X3492Y-7219D02*
X3507Y-7204D01*
X3537Y-7189D01*
X3612Y-7189D01*
X3642Y-7204D01*
X3657Y-7219D01*
X3672Y-7249D01*
X3672Y-7279D01*
X3657Y-7324D01*
X3477Y-7504D01*
X3672Y-7504D01*
X3312Y-10067D02*
X3177Y-10067D01*
X3245Y-10067D02*
X3245Y-9831D01*
X3222Y-9865D01*
X3200Y-9887D01*
X3177Y-9898D01*
X3458Y-9831D02*
X3481Y-9831D01*
X3503Y-9842D01*
X3515Y-9853D01*
X3526Y-9876D01*
X3537Y-9921D01*
X3537Y-9977D01*
X3526Y-10022D01*
X3515Y-10044D01*
X3503Y-10056D01*
X3481Y-10067D01*
X3458Y-10067D01*
X3436Y-10056D01*
X3425Y-10044D01*
X3413Y-10022D01*
X3402Y-9977D01*
X3402Y-9921D01*
X3413Y-9876D01*
X3425Y-9853D01*
X3436Y-9842D01*
X3458Y-9831D01*
X3740Y-9910D02*
X3740Y-10067D01*
X3638Y-9910D02*
X3638Y-10033D01*
X3650Y-10056D01*
X3672Y-10067D01*
X3706Y-10067D01*
X3728Y-10056D01*
X3740Y-10044D01*
X27664Y-12080D02*
X27649Y-12095D01*
X27604Y-12110D01*
X27574Y-12110D01*
X27529Y-12095D01*
X27499Y-12065D01*
X27484Y-12035D01*
X27469Y-11976D01*
X27469Y-11931D01*
X27484Y-11871D01*
X27499Y-11841D01*
X27529Y-11811D01*
X27574Y-11796D01*
X27604Y-11796D01*
X27649Y-11811D01*
X27664Y-11826D01*
X27964Y-12110D02*
X27784Y-12110D01*
X27874Y-12110D02*
X27874Y-11796D01*
X27844Y-11841D01*
X27814Y-11871D01*
X27784Y-11886D01*
X27564Y-10421D02*
X27429Y-10421D01*
X27497Y-10421D02*
X27497Y-10185D01*
X27474Y-10219D01*
X27452Y-10241D01*
X27429Y-10253D01*
X27710Y-10185D02*
X27733Y-10185D01*
X27755Y-10196D01*
X27767Y-10208D01*
X27778Y-10230D01*
X27789Y-10275D01*
X27789Y-10331D01*
X27778Y-10376D01*
X27767Y-10399D01*
X27755Y-10410D01*
X27733Y-10421D01*
X27710Y-10421D01*
X27688Y-10410D01*
X27677Y-10399D01*
X27665Y-10376D01*
X27654Y-10331D01*
X27654Y-10275D01*
X27665Y-10230D01*
X27677Y-10208D01*
X27688Y-10196D01*
X27710Y-10185D01*
X27992Y-10264D02*
X27992Y-10421D01*
X27890Y-10264D02*
X27890Y-10388D01*
X27902Y-10410D01*
X27924Y-10421D01*
X27958Y-10421D01*
X27980Y-10410D01*
X27992Y-10399D01*
X21687Y-13577D02*
X21672Y-13592D01*
X21627Y-13607D01*
X21597Y-13607D01*
X21552Y-13592D01*
X21522Y-13562D01*
X21507Y-13532D01*
X21492Y-13472D01*
X21492Y-13427D01*
X21507Y-13367D01*
X21522Y-13337D01*
X21552Y-13307D01*
X21597Y-13292D01*
X21627Y-13292D01*
X21672Y-13307D01*
X21687Y-13322D01*
X21987Y-13607D02*
X21807Y-13607D01*
X21897Y-13607D02*
X21897Y-13292D01*
X21867Y-13337D01*
X21837Y-13367D01*
X21807Y-13382D01*
X22182Y-13292D02*
X22212Y-13292D01*
X22242Y-13307D01*
X22257Y-13322D01*
X22272Y-13352D01*
X22287Y-13412D01*
X22287Y-13487D01*
X22272Y-13547D01*
X22257Y-13577D01*
X22242Y-13592D01*
X22212Y-13607D01*
X22182Y-13607D01*
X22152Y-13592D01*
X22137Y-13577D01*
X22122Y-13547D01*
X22107Y-13487D01*
X22107Y-13412D01*
X22122Y-13352D01*
X22137Y-13322D01*
X22152Y-13307D01*
X22182Y-13292D01*
X22705Y-13374D02*
X22727Y-13374D01*
X22750Y-13385D01*
X22761Y-13397D01*
X22772Y-13419D01*
X22784Y-13464D01*
X22784Y-13520D01*
X22772Y-13565D01*
X22761Y-13588D01*
X22750Y-13599D01*
X22727Y-13610D01*
X22705Y-13610D01*
X22682Y-13599D01*
X22671Y-13588D01*
X22660Y-13565D01*
X22649Y-13520D01*
X22649Y-13464D01*
X22660Y-13419D01*
X22671Y-13397D01*
X22682Y-13385D01*
X22705Y-13374D01*
X22885Y-13588D02*
X22896Y-13599D01*
X22885Y-13610D01*
X22874Y-13599D01*
X22885Y-13588D01*
X22885Y-13610D01*
X23121Y-13610D02*
X22986Y-13610D01*
X23053Y-13610D02*
X23053Y-13374D01*
X23031Y-13408D01*
X23008Y-13430D01*
X22986Y-13442D01*
X23323Y-13453D02*
X23323Y-13610D01*
X23222Y-13453D02*
X23222Y-13577D01*
X23233Y-13599D01*
X23256Y-13610D01*
X23290Y-13610D01*
X23312Y-13599D01*
X23323Y-13588D01*
X11649Y-3976D02*
X11619Y-3961D01*
X11574Y-3961D01*
X11529Y-3976D01*
X11499Y-4006D01*
X11484Y-4036D01*
X11469Y-4096D01*
X11469Y-4141D01*
X11484Y-4201D01*
X11499Y-4231D01*
X11529Y-4261D01*
X11574Y-4276D01*
X11604Y-4276D01*
X11649Y-4261D01*
X11664Y-4246D01*
X11664Y-4141D01*
X11604Y-4141D01*
X11799Y-4276D02*
X11799Y-3961D01*
X11979Y-4276D01*
X11979Y-3961D01*
X12129Y-4276D02*
X12129Y-3961D01*
X12204Y-3961D01*
X12249Y-3976D01*
X12279Y-4006D01*
X12294Y-4036D01*
X12309Y-4096D01*
X12309Y-4141D01*
X12294Y-4201D01*
X12279Y-4231D01*
X12249Y-4261D01*
X12204Y-4276D01*
X12129Y-4276D01*
X10712Y-4276D02*
X10712Y-3961D01*
X10787Y-3961D01*
X10832Y-3976D01*
X10862Y-4006D01*
X10877Y-4036D01*
X10892Y-4096D01*
X10892Y-4141D01*
X10877Y-4201D01*
X10862Y-4231D01*
X10832Y-4261D01*
X10787Y-4276D01*
X10712Y-4276D01*
X11087Y-3961D02*
X11117Y-3961D01*
X11147Y-3976D01*
X11162Y-3991D01*
X11177Y-4021D01*
X11192Y-4081D01*
X11192Y-4156D01*
X11177Y-4216D01*
X11162Y-4246D01*
X11147Y-4261D01*
X11117Y-4276D01*
X11087Y-4276D01*
X11057Y-4261D01*
X11042Y-4246D01*
X11027Y-4216D01*
X11012Y-4156D01*
X11012Y-4081D01*
X11027Y-4021D01*
X11042Y-3991D01*
X11057Y-3976D01*
X11087Y-3961D01*
X9649Y-4276D02*
X9649Y-3961D01*
X9724Y-3961D01*
X9769Y-3976D01*
X9799Y-4006D01*
X9814Y-4036D01*
X9829Y-4096D01*
X9829Y-4141D01*
X9814Y-4201D01*
X9799Y-4231D01*
X9769Y-4261D01*
X9724Y-4276D01*
X9649Y-4276D01*
X10129Y-4276D02*
X9949Y-4276D01*
X10039Y-4276D02*
X10039Y-3961D01*
X10009Y-4006D01*
X9979Y-4036D01*
X9949Y-4051D01*
X28989Y-10883D02*
X28884Y-10883D01*
X28884Y-11047D02*
X28884Y-10733D01*
X29034Y-10733D01*
X29319Y-11047D02*
X29139Y-11047D01*
X29229Y-11047D02*
X29229Y-10733D01*
X29199Y-10778D01*
X29169Y-10808D01*
X29139Y-10823D01*
X28989Y-9938D02*
X28884Y-9938D01*
X28884Y-10103D02*
X28884Y-9788D01*
X29034Y-9788D01*
X29214Y-9788D02*
X29244Y-9788D01*
X29274Y-9803D01*
X29289Y-9818D01*
X29304Y-9848D01*
X29319Y-9908D01*
X29319Y-9983D01*
X29304Y-10043D01*
X29289Y-10073D01*
X29274Y-10088D01*
X29244Y-10103D01*
X29214Y-10103D01*
X29184Y-10088D01*
X29169Y-10073D01*
X29154Y-10043D01*
X29139Y-9983D01*
X29139Y-9908D01*
X29154Y-9848D01*
X29169Y-9818D01*
X29184Y-9803D01*
X29214Y-9788D01*
X34364Y-7367D02*
X34379Y-7382D01*
X34394Y-7427D01*
X34394Y-7457D01*
X34379Y-7502D01*
X34349Y-7532D01*
X34319Y-7547D01*
X34259Y-7562D01*
X34214Y-7562D01*
X34154Y-7547D01*
X34124Y-7532D01*
X34094Y-7502D01*
X34079Y-7457D01*
X34079Y-7427D01*
X34094Y-7382D01*
X34109Y-7367D01*
X34394Y-7067D02*
X34394Y-7247D01*
X34394Y-7157D02*
X34079Y-7157D01*
X34124Y-7187D01*
X34154Y-7217D01*
X34169Y-7247D01*
X34109Y-6947D02*
X34094Y-6932D01*
X34079Y-6902D01*
X34079Y-6827D01*
X34094Y-6797D01*
X34109Y-6782D01*
X34139Y-6767D01*
X34169Y-6767D01*
X34214Y-6782D01*
X34394Y-6962D01*
X34394Y-6767D01*
X35028Y-7137D02*
X35039Y-7125D01*
X35061Y-7114D01*
X35118Y-7114D01*
X35140Y-7125D01*
X35151Y-7137D01*
X35163Y-7159D01*
X35163Y-7182D01*
X35151Y-7215D01*
X35016Y-7350D01*
X35163Y-7350D01*
X35253Y-7137D02*
X35264Y-7125D01*
X35286Y-7114D01*
X35343Y-7114D01*
X35365Y-7125D01*
X35376Y-7137D01*
X35388Y-7159D01*
X35388Y-7182D01*
X35376Y-7215D01*
X35241Y-7350D01*
X35388Y-7350D01*
X35590Y-7193D02*
X35590Y-7350D01*
X35489Y-7193D02*
X35489Y-7317D01*
X35500Y-7339D01*
X35523Y-7350D01*
X35556Y-7350D01*
X35579Y-7339D01*
X35590Y-7328D01*
X36175Y-13340D02*
X36160Y-13355D01*
X36115Y-13370D01*
X36085Y-13370D01*
X36040Y-13355D01*
X36010Y-13325D01*
X35995Y-13295D01*
X35980Y-13235D01*
X35980Y-13190D01*
X35995Y-13130D01*
X36010Y-13100D01*
X36040Y-13070D01*
X36085Y-13055D01*
X36115Y-13055D01*
X36160Y-13070D01*
X36175Y-13085D01*
X36475Y-13370D02*
X36295Y-13370D01*
X36385Y-13370D02*
X36385Y-13055D01*
X36355Y-13100D01*
X36325Y-13130D01*
X36295Y-13145D01*
X36580Y-13055D02*
X36775Y-13055D01*
X36670Y-13175D01*
X36715Y-13175D01*
X36745Y-13190D01*
X36760Y-13205D01*
X36775Y-13235D01*
X36775Y-13310D01*
X36760Y-13340D01*
X36745Y-13355D01*
X36715Y-13370D01*
X36625Y-13370D01*
X36595Y-13355D01*
X36580Y-13340D01*
X37213Y-13138D02*
X37235Y-13138D01*
X37258Y-13149D01*
X37269Y-13160D01*
X37280Y-13183D01*
X37291Y-13228D01*
X37291Y-13284D01*
X37280Y-13329D01*
X37269Y-13352D01*
X37258Y-13363D01*
X37235Y-13374D01*
X37213Y-13374D01*
X37190Y-13363D01*
X37179Y-13352D01*
X37168Y-13329D01*
X37156Y-13284D01*
X37156Y-13228D01*
X37168Y-13183D01*
X37179Y-13160D01*
X37190Y-13149D01*
X37213Y-13138D01*
X37393Y-13352D02*
X37404Y-13363D01*
X37393Y-13374D01*
X37381Y-13363D01*
X37393Y-13352D01*
X37393Y-13374D01*
X37629Y-13374D02*
X37494Y-13374D01*
X37561Y-13374D02*
X37561Y-13138D01*
X37539Y-13172D01*
X37516Y-13194D01*
X37494Y-13205D01*
X37831Y-13217D02*
X37831Y-13374D01*
X37730Y-13217D02*
X37730Y-13340D01*
X37741Y-13363D01*
X37764Y-13374D01*
X37798Y-13374D01*
X37820Y-13363D01*
X37831Y-13352D01*
X40466Y-12395D02*
X40451Y-12410D01*
X40406Y-12425D01*
X40376Y-12425D01*
X40331Y-12410D01*
X40301Y-12380D01*
X40286Y-12350D01*
X40271Y-12290D01*
X40271Y-12245D01*
X40286Y-12185D01*
X40301Y-12155D01*
X40331Y-12125D01*
X40376Y-12110D01*
X40406Y-12110D01*
X40451Y-12125D01*
X40466Y-12140D01*
X40766Y-12425D02*
X40586Y-12425D01*
X40676Y-12425D02*
X40676Y-12110D01*
X40646Y-12155D01*
X40616Y-12185D01*
X40586Y-12200D01*
X41036Y-12215D02*
X41036Y-12425D01*
X40961Y-12095D02*
X40886Y-12320D01*
X41081Y-12320D01*
X39454Y-13059D02*
X39319Y-13059D01*
X39386Y-13059D02*
X39386Y-12823D01*
X39364Y-12857D01*
X39341Y-12879D01*
X39319Y-12890D01*
X39600Y-12823D02*
X39623Y-12823D01*
X39645Y-12834D01*
X39656Y-12845D01*
X39668Y-12868D01*
X39679Y-12913D01*
X39679Y-12969D01*
X39668Y-13014D01*
X39656Y-13037D01*
X39645Y-13048D01*
X39623Y-13059D01*
X39600Y-13059D01*
X39578Y-13048D01*
X39566Y-13037D01*
X39555Y-13014D01*
X39544Y-12969D01*
X39544Y-12913D01*
X39555Y-12868D01*
X39566Y-12845D01*
X39578Y-12834D01*
X39600Y-12823D01*
X39881Y-12902D02*
X39881Y-13059D01*
X39780Y-12902D02*
X39780Y-13025D01*
X39791Y-13048D01*
X39814Y-13059D01*
X39848Y-13059D01*
X39870Y-13048D01*
X39881Y-13037D01*
X34285Y-5163D02*
X34300Y-5178D01*
X34315Y-5223D01*
X34315Y-5253D01*
X34300Y-5298D01*
X34270Y-5328D01*
X34240Y-5343D01*
X34180Y-5358D01*
X34135Y-5358D01*
X34075Y-5343D01*
X34045Y-5328D01*
X34015Y-5298D01*
X34000Y-5253D01*
X34000Y-5223D01*
X34015Y-5178D01*
X34030Y-5163D01*
X34315Y-4863D02*
X34315Y-5043D01*
X34315Y-4953D02*
X34000Y-4953D01*
X34045Y-4983D01*
X34075Y-5013D01*
X34090Y-5043D01*
X34000Y-4578D02*
X34000Y-4728D01*
X34150Y-4743D01*
X34135Y-4728D01*
X34120Y-4698D01*
X34120Y-4623D01*
X34135Y-4593D01*
X34150Y-4578D01*
X34180Y-4563D01*
X34255Y-4563D01*
X34285Y-4578D01*
X34300Y-4593D01*
X34315Y-4623D01*
X34315Y-4698D01*
X34300Y-4728D01*
X34285Y-4743D01*
X36602Y-5056D02*
X36760Y-5056D01*
X36512Y-5112D02*
X36681Y-5168D01*
X36681Y-5022D01*
X36524Y-4955D02*
X36524Y-4797D01*
X36760Y-4898D01*
X36602Y-4606D02*
X36760Y-4606D01*
X36602Y-4707D02*
X36726Y-4707D01*
X36749Y-4696D01*
X36760Y-4673D01*
X36760Y-4640D01*
X36749Y-4617D01*
X36737Y-4606D01*
X45388Y-13931D02*
X45373Y-13946D01*
X45328Y-13961D01*
X45298Y-13961D01*
X45253Y-13946D01*
X45223Y-13916D01*
X45208Y-13886D01*
X45193Y-13826D01*
X45193Y-13781D01*
X45208Y-13721D01*
X45223Y-13691D01*
X45253Y-13661D01*
X45298Y-13646D01*
X45328Y-13646D01*
X45373Y-13661D01*
X45388Y-13676D01*
X45688Y-13961D02*
X45508Y-13961D01*
X45598Y-13961D02*
X45598Y-13646D01*
X45568Y-13691D01*
X45538Y-13721D01*
X45508Y-13736D01*
X45958Y-13646D02*
X45898Y-13646D01*
X45868Y-13661D01*
X45853Y-13676D01*
X45823Y-13721D01*
X45808Y-13781D01*
X45808Y-13901D01*
X45823Y-13931D01*
X45838Y-13946D01*
X45868Y-13961D01*
X45928Y-13961D01*
X45958Y-13946D01*
X45973Y-13931D01*
X45988Y-13901D01*
X45988Y-13826D01*
X45973Y-13796D01*
X45958Y-13781D01*
X45928Y-13766D01*
X45868Y-13766D01*
X45838Y-13781D01*
X45823Y-13796D01*
X45808Y-13826D01*
X46226Y-13965D02*
X46091Y-13965D01*
X46158Y-13965D02*
X46158Y-13728D01*
X46136Y-13762D01*
X46113Y-13785D01*
X46091Y-13796D01*
X46372Y-13728D02*
X46394Y-13728D01*
X46417Y-13740D01*
X46428Y-13751D01*
X46439Y-13773D01*
X46451Y-13818D01*
X46451Y-13875D01*
X46439Y-13920D01*
X46428Y-13942D01*
X46417Y-13953D01*
X46394Y-13965D01*
X46372Y-13965D01*
X46349Y-13953D01*
X46338Y-13942D01*
X46327Y-13920D01*
X46316Y-13875D01*
X46316Y-13818D01*
X46327Y-13773D01*
X46338Y-13751D01*
X46349Y-13740D01*
X46372Y-13728D01*
X46552Y-13807D02*
X46552Y-14043D01*
X46552Y-13818D02*
X46574Y-13807D01*
X46619Y-13807D01*
X46642Y-13818D01*
X46653Y-13830D01*
X46664Y-13852D01*
X46664Y-13920D01*
X46653Y-13942D01*
X46642Y-13953D01*
X46619Y-13965D01*
X46574Y-13965D01*
X46552Y-13953D01*
X49974Y-6214D02*
X49959Y-6229D01*
X49914Y-6244D01*
X49884Y-6244D01*
X49839Y-6229D01*
X49809Y-6199D01*
X49794Y-6169D01*
X49779Y-6109D01*
X49779Y-6064D01*
X49794Y-6004D01*
X49809Y-5974D01*
X49839Y-5944D01*
X49884Y-5929D01*
X49914Y-5929D01*
X49959Y-5944D01*
X49974Y-5959D01*
X50274Y-6244D02*
X50094Y-6244D01*
X50184Y-6244D02*
X50184Y-5929D01*
X50154Y-5974D01*
X50124Y-6004D01*
X50094Y-6019D01*
X50379Y-5929D02*
X50589Y-5929D01*
X50454Y-6244D01*
X50517Y-5520D02*
X50382Y-5520D01*
X50449Y-5520D02*
X50449Y-5284D01*
X50427Y-5317D01*
X50404Y-5340D01*
X50382Y-5351D01*
X50663Y-5284D02*
X50686Y-5284D01*
X50708Y-5295D01*
X50719Y-5306D01*
X50731Y-5329D01*
X50742Y-5374D01*
X50742Y-5430D01*
X50731Y-5475D01*
X50719Y-5497D01*
X50708Y-5508D01*
X50686Y-5520D01*
X50663Y-5520D01*
X50641Y-5508D01*
X50629Y-5497D01*
X50618Y-5475D01*
X50607Y-5430D01*
X50607Y-5374D01*
X50618Y-5329D01*
X50629Y-5306D01*
X50641Y-5295D01*
X50663Y-5284D01*
X50843Y-5362D02*
X50843Y-5598D01*
X50843Y-5374D02*
X50866Y-5362D01*
X50911Y-5362D01*
X50933Y-5374D01*
X50944Y-5385D01*
X50956Y-5407D01*
X50956Y-5475D01*
X50944Y-5497D01*
X50933Y-5508D01*
X50911Y-5520D01*
X50866Y-5520D01*
X50843Y-5508D01*
X41008Y-5013D02*
X41008Y-5163D01*
X40693Y-5163D01*
X41008Y-4743D02*
X41008Y-4923D01*
X41008Y-4833D02*
X40693Y-4833D01*
X40738Y-4863D01*
X40768Y-4893D01*
X40783Y-4923D01*
X38807Y-5618D02*
X38965Y-5618D01*
X38717Y-5674D02*
X38886Y-5731D01*
X38886Y-5584D01*
X38728Y-5517D02*
X38728Y-5359D01*
X38965Y-5461D01*
X38875Y-5269D02*
X38875Y-5089D01*
X38965Y-4853D02*
X38965Y-4988D01*
X38965Y-4921D02*
X38728Y-4921D01*
X38762Y-4943D01*
X38785Y-4966D01*
X38796Y-4988D01*
X38728Y-4707D02*
X38728Y-4685D01*
X38740Y-4662D01*
X38751Y-4651D01*
X38773Y-4640D01*
X38818Y-4628D01*
X38875Y-4628D01*
X38920Y-4640D01*
X38942Y-4651D01*
X38953Y-4662D01*
X38965Y-4685D01*
X38965Y-4707D01*
X38953Y-4730D01*
X38942Y-4741D01*
X38920Y-4752D01*
X38875Y-4763D01*
X38818Y-4763D01*
X38773Y-4752D01*
X38751Y-4741D01*
X38740Y-4730D01*
X38728Y-4707D01*
X38728Y-4482D02*
X38728Y-4460D01*
X38740Y-4437D01*
X38751Y-4426D01*
X38773Y-4415D01*
X38818Y-4403D01*
X38875Y-4403D01*
X38920Y-4415D01*
X38942Y-4426D01*
X38953Y-4437D01*
X38965Y-4460D01*
X38965Y-4482D01*
X38953Y-4505D01*
X38942Y-4516D01*
X38920Y-4527D01*
X38875Y-4538D01*
X38818Y-4538D01*
X38773Y-4527D01*
X38751Y-4516D01*
X38740Y-4505D01*
X38728Y-4482D01*
X38807Y-4201D02*
X38965Y-4201D01*
X38807Y-4302D02*
X38931Y-4302D01*
X38953Y-4291D01*
X38965Y-4268D01*
X38965Y-4235D01*
X38953Y-4212D01*
X38942Y-4201D01*
X51709Y-12851D02*
X51709Y-12536D01*
X51814Y-12761D01*
X51919Y-12536D01*
X51919Y-12851D01*
X52129Y-12536D02*
X52189Y-12536D01*
X52219Y-12551D01*
X52249Y-12581D01*
X52264Y-12641D01*
X52264Y-12746D01*
X52249Y-12806D01*
X52219Y-12836D01*
X52189Y-12851D01*
X52129Y-12851D01*
X52099Y-12836D01*
X52069Y-12806D01*
X52054Y-12746D01*
X52054Y-12641D01*
X52069Y-12581D01*
X52099Y-12551D01*
X52129Y-12536D01*
X52384Y-12836D02*
X52429Y-12851D01*
X52504Y-12851D01*
X52534Y-12836D01*
X52549Y-12821D01*
X52564Y-12791D01*
X52564Y-12761D01*
X52549Y-12731D01*
X52534Y-12716D01*
X52504Y-12701D01*
X52444Y-12686D01*
X52414Y-12671D01*
X52399Y-12656D01*
X52384Y-12626D01*
X52384Y-12596D01*
X52399Y-12566D01*
X52414Y-12551D01*
X52444Y-12536D01*
X52519Y-12536D01*
X52564Y-12551D01*
X52699Y-12851D02*
X52699Y-12536D01*
X50449Y-12859D02*
X50449Y-12544D01*
X50554Y-12769D01*
X50659Y-12544D01*
X50659Y-12859D01*
X50809Y-12859D02*
X50809Y-12544D01*
X50944Y-12844D02*
X50989Y-12859D01*
X51064Y-12859D01*
X51094Y-12844D01*
X51109Y-12829D01*
X51124Y-12799D01*
X51124Y-12769D01*
X51109Y-12739D01*
X51094Y-12724D01*
X51064Y-12709D01*
X51004Y-12694D01*
X50974Y-12679D01*
X50959Y-12664D01*
X50944Y-12634D01*
X50944Y-12604D01*
X50959Y-12574D01*
X50974Y-12559D01*
X51004Y-12544D01*
X51079Y-12544D01*
X51124Y-12559D01*
X51319Y-12544D02*
X51379Y-12544D01*
X51409Y-12559D01*
X51439Y-12589D01*
X51454Y-12649D01*
X51454Y-12754D01*
X51439Y-12814D01*
X51409Y-12844D01*
X51379Y-12859D01*
X51319Y-12859D01*
X51289Y-12844D01*
X51259Y-12814D01*
X51244Y-12754D01*
X51244Y-12649D01*
X51259Y-12589D01*
X51289Y-12559D01*
X51319Y-12544D01*
X49121Y-12832D02*
X49166Y-12847D01*
X49241Y-12847D01*
X49271Y-12832D01*
X49286Y-12817D01*
X49301Y-12787D01*
X49301Y-12757D01*
X49286Y-12727D01*
X49271Y-12712D01*
X49241Y-12697D01*
X49181Y-12682D01*
X49151Y-12667D01*
X49136Y-12652D01*
X49121Y-12622D01*
X49121Y-12592D01*
X49136Y-12562D01*
X49151Y-12547D01*
X49181Y-12532D01*
X49256Y-12532D01*
X49301Y-12547D01*
X49616Y-12817D02*
X49601Y-12832D01*
X49556Y-12847D01*
X49526Y-12847D01*
X49481Y-12832D01*
X49451Y-12802D01*
X49436Y-12772D01*
X49421Y-12712D01*
X49421Y-12667D01*
X49436Y-12607D01*
X49451Y-12577D01*
X49481Y-12547D01*
X49526Y-12532D01*
X49556Y-12532D01*
X49601Y-12547D01*
X49616Y-12562D01*
X49901Y-12847D02*
X49751Y-12847D01*
X49751Y-12532D01*
X50005Y-12847D02*
X50005Y-12532D01*
X50185Y-12847D02*
X50050Y-12667D01*
X50185Y-12532D02*
X50005Y-12712D01*
X47744Y-12847D02*
X47744Y-12532D01*
X47924Y-12847D01*
X47924Y-12532D01*
X48254Y-12817D02*
X48239Y-12832D01*
X48194Y-12847D01*
X48164Y-12847D01*
X48119Y-12832D01*
X48089Y-12802D01*
X48074Y-12772D01*
X48059Y-12712D01*
X48059Y-12667D01*
X48074Y-12607D01*
X48089Y-12577D01*
X48119Y-12547D01*
X48164Y-12532D01*
X48194Y-12532D01*
X48239Y-12547D01*
X48254Y-12562D01*
X48374Y-12832D02*
X48419Y-12847D01*
X48494Y-12847D01*
X48524Y-12832D01*
X48539Y-12817D01*
X48554Y-12787D01*
X48554Y-12757D01*
X48539Y-12727D01*
X48524Y-12712D01*
X48494Y-12697D01*
X48434Y-12682D01*
X48404Y-12667D01*
X48389Y-12652D01*
X48374Y-12622D01*
X48374Y-12592D01*
X48389Y-12562D01*
X48404Y-12547D01*
X48434Y-12532D01*
X48509Y-12532D01*
X48554Y-12547D01*
X48794Y-12682D02*
X48839Y-12697D01*
X48854Y-12712D01*
X48869Y-12742D01*
X48869Y-12787D01*
X48854Y-12817D01*
X48839Y-12832D01*
X48809Y-12847D01*
X48689Y-12847D01*
X48689Y-12532D01*
X48794Y-12532D01*
X48824Y-12547D01*
X48839Y-12562D01*
X48854Y-12592D01*
X48854Y-12622D01*
X48839Y-12652D01*
X48824Y-12667D01*
X48794Y-12682D01*
X48689Y-12682D01*
X41719Y-10457D02*
X41614Y-10307D01*
X41539Y-10457D02*
X41539Y-10142D01*
X41659Y-10142D01*
X41689Y-10157D01*
X41704Y-10172D01*
X41719Y-10202D01*
X41719Y-10247D01*
X41704Y-10277D01*
X41689Y-10292D01*
X41659Y-10307D01*
X41539Y-10307D01*
X41989Y-10142D02*
X41929Y-10142D01*
X41899Y-10157D01*
X41884Y-10172D01*
X41854Y-10217D01*
X41839Y-10277D01*
X41839Y-10397D01*
X41854Y-10427D01*
X41869Y-10442D01*
X41899Y-10457D01*
X41959Y-10457D01*
X41989Y-10442D01*
X42004Y-10427D01*
X42019Y-10397D01*
X42019Y-10322D01*
X42004Y-10292D01*
X41989Y-10277D01*
X41959Y-10262D01*
X41899Y-10262D01*
X41869Y-10277D01*
X41854Y-10292D01*
X41839Y-10322D01*
X42317Y-10421D02*
X42182Y-10421D01*
X42249Y-10421D02*
X42249Y-10185D01*
X42227Y-10219D01*
X42204Y-10241D01*
X42182Y-10253D01*
X42463Y-10185D02*
X42485Y-10185D01*
X42508Y-10196D01*
X42519Y-10208D01*
X42530Y-10230D01*
X42542Y-10275D01*
X42542Y-10331D01*
X42530Y-10376D01*
X42519Y-10399D01*
X42508Y-10410D01*
X42485Y-10421D01*
X42463Y-10421D01*
X42440Y-10410D01*
X42429Y-10399D01*
X42418Y-10376D01*
X42407Y-10331D01*
X42407Y-10275D01*
X42418Y-10230D01*
X42429Y-10208D01*
X42440Y-10196D01*
X42463Y-10185D01*
X42643Y-10421D02*
X42643Y-10185D01*
X42778Y-10421D02*
X42677Y-10286D01*
X42778Y-10185D02*
X42643Y-10320D01*
X38608Y-9040D02*
X38503Y-8890D01*
X38428Y-9040D02*
X38428Y-8725D01*
X38548Y-8725D01*
X38578Y-8740D01*
X38593Y-8755D01*
X38608Y-8785D01*
X38608Y-8830D01*
X38593Y-8860D01*
X38578Y-8875D01*
X38548Y-8890D01*
X38428Y-8890D01*
X38713Y-8725D02*
X38923Y-8725D01*
X38788Y-9040D01*
X37395Y-9555D02*
X37260Y-9555D01*
X37328Y-9555D02*
X37328Y-9319D01*
X37305Y-9353D01*
X37283Y-9375D01*
X37260Y-9386D01*
X37542Y-9319D02*
X37564Y-9319D01*
X37587Y-9330D01*
X37598Y-9341D01*
X37609Y-9364D01*
X37620Y-9409D01*
X37620Y-9465D01*
X37609Y-9510D01*
X37598Y-9533D01*
X37587Y-9544D01*
X37564Y-9555D01*
X37542Y-9555D01*
X37519Y-9544D01*
X37508Y-9533D01*
X37497Y-9510D01*
X37485Y-9465D01*
X37485Y-9409D01*
X37497Y-9364D01*
X37508Y-9341D01*
X37519Y-9330D01*
X37542Y-9319D01*
X37722Y-9555D02*
X37722Y-9319D01*
X37857Y-9555D02*
X37755Y-9420D01*
X37857Y-9319D02*
X37722Y-9454D01*
X41482Y-6677D02*
X41377Y-6527D01*
X41302Y-6677D02*
X41302Y-6362D01*
X41422Y-6362D01*
X41452Y-6377D01*
X41467Y-6392D01*
X41482Y-6422D01*
X41482Y-6467D01*
X41467Y-6497D01*
X41452Y-6512D01*
X41422Y-6527D01*
X41302Y-6527D01*
X41662Y-6497D02*
X41632Y-6482D01*
X41617Y-6467D01*
X41602Y-6437D01*
X41602Y-6422D01*
X41617Y-6392D01*
X41632Y-6377D01*
X41662Y-6362D01*
X41722Y-6362D01*
X41752Y-6377D01*
X41767Y-6392D01*
X41782Y-6422D01*
X41782Y-6437D01*
X41767Y-6467D01*
X41752Y-6482D01*
X41722Y-6497D01*
X41662Y-6497D01*
X41632Y-6512D01*
X41617Y-6527D01*
X41602Y-6557D01*
X41602Y-6617D01*
X41617Y-6647D01*
X41632Y-6662D01*
X41662Y-6677D01*
X41722Y-6677D01*
X41752Y-6662D01*
X41767Y-6647D01*
X41782Y-6617D01*
X41782Y-6557D01*
X41767Y-6527D01*
X41752Y-6512D01*
X41722Y-6497D01*
X42199Y-8571D02*
X42064Y-8571D01*
X42131Y-8571D02*
X42131Y-8335D01*
X42109Y-8368D01*
X42086Y-8391D01*
X42064Y-8402D01*
X42345Y-8335D02*
X42367Y-8335D01*
X42390Y-8346D01*
X42401Y-8357D01*
X42412Y-8380D01*
X42424Y-8425D01*
X42424Y-8481D01*
X42412Y-8526D01*
X42401Y-8548D01*
X42390Y-8560D01*
X42367Y-8571D01*
X42345Y-8571D01*
X42322Y-8560D01*
X42311Y-8548D01*
X42300Y-8526D01*
X42289Y-8481D01*
X42289Y-8425D01*
X42300Y-8380D01*
X42311Y-8357D01*
X42322Y-8346D01*
X42345Y-8335D01*
X42525Y-8571D02*
X42525Y-8335D01*
X42660Y-8571D02*
X42559Y-8436D01*
X42660Y-8335D02*
X42525Y-8470D01*
X41443Y-8646D02*
X41338Y-8496D01*
X41263Y-8646D02*
X41263Y-8331D01*
X41383Y-8331D01*
X41413Y-8346D01*
X41428Y-8361D01*
X41443Y-8391D01*
X41443Y-8436D01*
X41428Y-8466D01*
X41413Y-8481D01*
X41383Y-8496D01*
X41263Y-8496D01*
X41593Y-8646D02*
X41653Y-8646D01*
X41683Y-8631D01*
X41698Y-8616D01*
X41728Y-8571D01*
X41743Y-8511D01*
X41743Y-8391D01*
X41728Y-8361D01*
X41713Y-8346D01*
X41683Y-8331D01*
X41623Y-8331D01*
X41593Y-8346D01*
X41578Y-8361D01*
X41563Y-8391D01*
X41563Y-8466D01*
X41578Y-8496D01*
X41593Y-8511D01*
X41623Y-8526D01*
X41683Y-8526D01*
X41713Y-8511D01*
X41728Y-8496D01*
X41743Y-8466D01*
X42199Y-6681D02*
X42064Y-6681D01*
X42131Y-6681D02*
X42131Y-6445D01*
X42109Y-6479D01*
X42086Y-6501D01*
X42064Y-6512D01*
X42345Y-6445D02*
X42367Y-6445D01*
X42390Y-6456D01*
X42401Y-6467D01*
X42412Y-6490D01*
X42424Y-6535D01*
X42424Y-6591D01*
X42412Y-6636D01*
X42401Y-6659D01*
X42390Y-6670D01*
X42367Y-6681D01*
X42345Y-6681D01*
X42322Y-6670D01*
X42311Y-6659D01*
X42300Y-6636D01*
X42289Y-6591D01*
X42289Y-6535D01*
X42300Y-6490D01*
X42311Y-6467D01*
X42322Y-6456D01*
X42345Y-6445D01*
X42525Y-6681D02*
X42525Y-6445D01*
X42660Y-6681D02*
X42559Y-6546D01*
X42660Y-6445D02*
X42525Y-6580D01*
X34167Y-811D02*
X34062Y-661D01*
X33987Y-811D02*
X33987Y-496D01*
X34107Y-496D01*
X34137Y-511D01*
X34152Y-526D01*
X34167Y-556D01*
X34167Y-601D01*
X34152Y-631D01*
X34137Y-646D01*
X34107Y-661D01*
X33987Y-661D01*
X34467Y-811D02*
X34287Y-811D01*
X34377Y-811D02*
X34377Y-496D01*
X34347Y-541D01*
X34317Y-571D01*
X34287Y-586D01*
X34662Y-496D02*
X34692Y-496D01*
X34722Y-511D01*
X34737Y-526D01*
X34752Y-556D01*
X34767Y-616D01*
X34767Y-691D01*
X34752Y-751D01*
X34737Y-781D01*
X34722Y-796D01*
X34692Y-811D01*
X34662Y-811D01*
X34632Y-796D01*
X34617Y-781D01*
X34602Y-751D01*
X34587Y-691D01*
X34587Y-616D01*
X34602Y-556D01*
X34617Y-526D01*
X34632Y-511D01*
X34662Y-496D01*
X34398Y-2744D02*
X34263Y-2744D01*
X34330Y-2744D02*
X34330Y-2508D01*
X34308Y-2542D01*
X34285Y-2564D01*
X34263Y-2575D01*
X34499Y-2744D02*
X34499Y-2508D01*
X34634Y-2744D02*
X34533Y-2609D01*
X34634Y-2508D02*
X34499Y-2643D01*
X31923Y-811D02*
X31818Y-661D01*
X31743Y-811D02*
X31743Y-496D01*
X31863Y-496D01*
X31893Y-511D01*
X31908Y-526D01*
X31923Y-556D01*
X31923Y-601D01*
X31908Y-631D01*
X31893Y-646D01*
X31863Y-661D01*
X31743Y-661D01*
X32223Y-811D02*
X32043Y-811D01*
X32133Y-811D02*
X32133Y-496D01*
X32103Y-541D01*
X32073Y-571D01*
X32043Y-586D01*
X32523Y-811D02*
X32343Y-811D01*
X32433Y-811D02*
X32433Y-496D01*
X32403Y-541D01*
X32373Y-571D01*
X32343Y-586D01*
X31884Y-2665D02*
X31749Y-2665D01*
X31816Y-2665D02*
X31816Y-2429D01*
X31794Y-2463D01*
X31771Y-2485D01*
X31749Y-2497D01*
X32030Y-2429D02*
X32052Y-2429D01*
X32075Y-2440D01*
X32086Y-2452D01*
X32097Y-2474D01*
X32109Y-2519D01*
X32109Y-2575D01*
X32097Y-2620D01*
X32086Y-2643D01*
X32075Y-2654D01*
X32052Y-2665D01*
X32030Y-2665D01*
X32007Y-2654D01*
X31996Y-2643D01*
X31985Y-2620D01*
X31974Y-2575D01*
X31974Y-2519D01*
X31985Y-2474D01*
X31996Y-2452D01*
X32007Y-2440D01*
X32030Y-2429D01*
X32210Y-2665D02*
X32210Y-2429D01*
X32345Y-2665D02*
X32244Y-2530D01*
X32345Y-2429D02*
X32210Y-2564D01*
X37200Y-10378D02*
X37200Y-10633D01*
X37215Y-10663D01*
X37230Y-10678D01*
X37260Y-10693D01*
X37320Y-10693D01*
X37350Y-10678D01*
X37365Y-10663D01*
X37380Y-10633D01*
X37380Y-10378D01*
X37515Y-10408D02*
X37530Y-10393D01*
X37560Y-10378D01*
X37635Y-10378D01*
X37665Y-10393D01*
X37680Y-10408D01*
X37695Y-10438D01*
X37695Y-10468D01*
X37680Y-10513D01*
X37500Y-10693D01*
X37695Y-10693D01*
X39405Y-8173D02*
X39405Y-8428D01*
X39420Y-8458D01*
X39435Y-8473D01*
X39465Y-8488D01*
X39525Y-8488D01*
X39555Y-8473D01*
X39570Y-8458D01*
X39585Y-8428D01*
X39585Y-8173D01*
X39705Y-8173D02*
X39900Y-8173D01*
X39795Y-8293D01*
X39840Y-8293D01*
X39870Y-8308D01*
X39885Y-8323D01*
X39900Y-8353D01*
X39900Y-8428D01*
X39885Y-8458D01*
X39870Y-8473D01*
X39840Y-8488D01*
X39750Y-8488D01*
X39720Y-8473D01*
X39705Y-8458D01*
X32988Y-496D02*
X32988Y-751D01*
X33003Y-781D01*
X33018Y-796D01*
X33048Y-811D01*
X33108Y-811D01*
X33138Y-796D01*
X33153Y-781D01*
X33168Y-751D01*
X33168Y-496D01*
X33453Y-601D02*
X33453Y-811D01*
X33378Y-481D02*
X33303Y-706D01*
X33498Y-706D01*
X45547Y-7977D02*
X45547Y-8232D01*
X45562Y-8262D01*
X45577Y-8277D01*
X45607Y-8292D01*
X45667Y-8292D01*
X45697Y-8277D01*
X45712Y-8262D01*
X45727Y-8232D01*
X45727Y-7977D01*
X46027Y-7977D02*
X45877Y-7977D01*
X45862Y-8127D01*
X45877Y-8112D01*
X45907Y-8097D01*
X45982Y-8097D01*
X46012Y-8112D01*
X46027Y-8127D01*
X46042Y-8157D01*
X46042Y-8232D01*
X46027Y-8262D01*
X46012Y-8277D01*
X45982Y-8292D01*
X45907Y-8292D01*
X45877Y-8277D01*
X45862Y-8262D01*
X44915Y-8650D02*
X44971Y-8886D01*
X45016Y-8717D01*
X45061Y-8886D01*
X45118Y-8650D01*
X45174Y-8650D02*
X45309Y-8650D01*
X45241Y-8886D02*
X45241Y-8650D01*
X45511Y-8886D02*
X45376Y-8886D01*
X45444Y-8886D02*
X45444Y-8650D01*
X45421Y-8683D01*
X45399Y-8706D01*
X45376Y-8717D01*
X45601Y-8672D02*
X45613Y-8661D01*
X45635Y-8650D01*
X45691Y-8650D01*
X45714Y-8661D01*
X45725Y-8672D01*
X45736Y-8695D01*
X45736Y-8717D01*
X45725Y-8751D01*
X45590Y-8886D01*
X45736Y-8886D01*
X45781Y-8908D02*
X45961Y-8908D01*
X46096Y-8762D02*
X46130Y-8773D01*
X46141Y-8785D01*
X46152Y-8807D01*
X46152Y-8841D01*
X46141Y-8863D01*
X46130Y-8875D01*
X46107Y-8886D01*
X46017Y-8886D01*
X46017Y-8650D01*
X46096Y-8650D01*
X46119Y-8661D01*
X46130Y-8672D01*
X46141Y-8695D01*
X46141Y-8717D01*
X46130Y-8740D01*
X46119Y-8751D01*
X46096Y-8762D01*
X46017Y-8762D01*
X46366Y-8886D02*
X46254Y-8886D01*
X46254Y-8650D01*
X46445Y-8650D02*
X46445Y-8841D01*
X46456Y-8863D01*
X46467Y-8875D01*
X46490Y-8886D01*
X46535Y-8886D01*
X46557Y-8875D01*
X46569Y-8863D01*
X46580Y-8841D01*
X46580Y-8650D01*
X46692Y-8762D02*
X46771Y-8762D01*
X46805Y-8886D02*
X46692Y-8886D01*
X46692Y-8650D01*
X46805Y-8650D01*
X47030Y-8661D02*
X47007Y-8650D01*
X46974Y-8650D01*
X46940Y-8661D01*
X46917Y-8683D01*
X46906Y-8706D01*
X46895Y-8751D01*
X46895Y-8785D01*
X46906Y-8830D01*
X46917Y-8852D01*
X46940Y-8875D01*
X46974Y-8886D01*
X46996Y-8886D01*
X47030Y-8875D01*
X47041Y-8863D01*
X47041Y-8785D01*
X46996Y-8785D01*
X47142Y-8886D02*
X47142Y-8650D01*
X47379Y-8661D02*
X47356Y-8650D01*
X47322Y-8650D01*
X47289Y-8661D01*
X47266Y-8683D01*
X47255Y-8706D01*
X47244Y-8751D01*
X47244Y-8785D01*
X47255Y-8830D01*
X47266Y-8852D01*
X47289Y-8875D01*
X47322Y-8886D01*
X47345Y-8886D01*
X47379Y-8875D01*
X47390Y-8863D01*
X47390Y-8785D01*
X47345Y-8785D01*
X47480Y-8818D02*
X47592Y-8818D01*
X47457Y-8886D02*
X47536Y-8650D01*
X47615Y-8886D01*
X31411Y-5886D02*
X31411Y-5493D01*
X31561Y-5493D01*
X31599Y-5511D01*
X31617Y-5530D01*
X31636Y-5568D01*
X31636Y-5624D01*
X31617Y-5661D01*
X31599Y-5680D01*
X31561Y-5699D01*
X31411Y-5699D01*
X32011Y-5886D02*
X31786Y-5886D01*
X31899Y-5886D02*
X31899Y-5493D01*
X31861Y-5549D01*
X31824Y-5586D01*
X31786Y-5605D01*
X32349Y-5493D02*
X32274Y-5493D01*
X32236Y-5511D01*
X32217Y-5530D01*
X32180Y-5586D01*
X32161Y-5661D01*
X32161Y-5811D01*
X32180Y-5849D01*
X32199Y-5868D01*
X32236Y-5886D01*
X32311Y-5886D01*
X32349Y-5868D01*
X32367Y-5849D01*
X32386Y-5811D01*
X32386Y-5718D01*
X32367Y-5680D01*
X32349Y-5661D01*
X32311Y-5643D01*
X32236Y-5643D01*
X32199Y-5661D01*
X32180Y-5680D01*
X32161Y-5718D01*
X40481Y-10487D02*
X40451Y-10472D01*
X40421Y-10442D01*
X40376Y-10397D01*
X40346Y-10382D01*
X40316Y-10382D01*
X40331Y-10457D02*
X40301Y-10442D01*
X40271Y-10412D01*
X40256Y-10352D01*
X40256Y-10247D01*
X40271Y-10187D01*
X40301Y-10157D01*
X40331Y-10142D01*
X40391Y-10142D01*
X40421Y-10157D01*
X40451Y-10187D01*
X40466Y-10247D01*
X40466Y-10352D01*
X40451Y-10412D01*
X40421Y-10442D01*
X40391Y-10457D01*
X40331Y-10457D01*
X40766Y-10457D02*
X40586Y-10457D01*
X40676Y-10457D02*
X40676Y-10142D01*
X40646Y-10187D01*
X40616Y-10217D01*
X40586Y-10232D01*
X36775Y-7347D02*
X36775Y-7032D01*
X36850Y-7032D01*
X36895Y-7047D01*
X36925Y-7077D01*
X36940Y-7107D01*
X36955Y-7167D01*
X36955Y-7212D01*
X36940Y-7272D01*
X36925Y-7302D01*
X36895Y-7332D01*
X36850Y-7347D01*
X36775Y-7347D01*
X37075Y-7062D02*
X37090Y-7047D01*
X37120Y-7032D01*
X37195Y-7032D01*
X37225Y-7047D01*
X37240Y-7062D01*
X37255Y-7092D01*
X37255Y-7122D01*
X37240Y-7167D01*
X37060Y-7347D01*
X37255Y-7347D01*
G54D19*
X44159Y-7703D02*
X44052Y-7551D01*
X43976Y-7703D02*
X43976Y-7383D01*
X44098Y-7383D01*
X44128Y-7399D01*
X44144Y-7414D01*
X44159Y-7444D01*
X44159Y-7490D01*
X44144Y-7520D01*
X44128Y-7536D01*
X44098Y-7551D01*
X43976Y-7551D01*
X44265Y-7383D02*
X44479Y-7703D01*
X44479Y-7383D02*
X44265Y-7703D01*
G54D10*
X44011Y-8390D02*
X44191Y-8390D01*
X44101Y-8705D02*
X44101Y-8390D01*
X44266Y-8390D02*
X44476Y-8705D01*
X44476Y-8390D02*
X44266Y-8705D01*
X43862Y-10378D02*
X44057Y-10378D01*
X43952Y-10498D01*
X43997Y-10498D01*
X44027Y-10513D01*
X44042Y-10528D01*
X44057Y-10558D01*
X44057Y-10633D01*
X44042Y-10663D01*
X44027Y-10678D01*
X43997Y-10693D01*
X43907Y-10693D01*
X43877Y-10678D01*
X43862Y-10663D01*
X44192Y-10663D02*
X44207Y-10678D01*
X44192Y-10693D01*
X44177Y-10678D01*
X44192Y-10663D01*
X44192Y-10693D01*
X44312Y-10378D02*
X44507Y-10378D01*
X44402Y-10498D01*
X44447Y-10498D01*
X44477Y-10513D01*
X44492Y-10528D01*
X44507Y-10558D01*
X44507Y-10633D01*
X44492Y-10663D01*
X44477Y-10678D01*
X44447Y-10693D01*
X44357Y-10693D01*
X44327Y-10678D01*
X44312Y-10663D01*
X43874Y-9409D02*
X43844Y-9394D01*
X43799Y-9394D01*
X43754Y-9409D01*
X43724Y-9439D01*
X43709Y-9469D01*
X43694Y-9529D01*
X43694Y-9574D01*
X43709Y-9634D01*
X43724Y-9664D01*
X43754Y-9694D01*
X43799Y-9709D01*
X43829Y-9709D01*
X43874Y-9694D01*
X43889Y-9679D01*
X43889Y-9574D01*
X43829Y-9574D01*
X44024Y-9709D02*
X44024Y-9394D01*
X44204Y-9709D01*
X44204Y-9394D01*
X44354Y-9709D02*
X44354Y-9394D01*
X44429Y-9394D01*
X44474Y-9409D01*
X44504Y-9439D01*
X44519Y-9469D01*
X44534Y-9529D01*
X44534Y-9574D01*
X44519Y-9634D01*
X44504Y-9664D01*
X44474Y-9694D01*
X44429Y-9709D01*
X44354Y-9709D01*
X41451Y-11638D02*
X41346Y-11488D01*
X41271Y-11638D02*
X41271Y-11323D01*
X41391Y-11323D01*
X41421Y-11338D01*
X41436Y-11353D01*
X41451Y-11383D01*
X41451Y-11428D01*
X41436Y-11458D01*
X41421Y-11473D01*
X41391Y-11488D01*
X41271Y-11488D01*
X41751Y-11638D02*
X41571Y-11638D01*
X41661Y-11638D02*
X41661Y-11323D01*
X41631Y-11368D01*
X41601Y-11398D01*
X41571Y-11413D01*
X41856Y-11323D02*
X42050Y-11323D01*
X41946Y-11443D01*
X41991Y-11443D01*
X42020Y-11458D01*
X42035Y-11473D01*
X42050Y-11503D01*
X42050Y-11578D01*
X42035Y-11608D01*
X42020Y-11623D01*
X41991Y-11638D01*
X41901Y-11638D01*
X41871Y-11623D01*
X41856Y-11608D01*
X42317Y-13571D02*
X42182Y-13571D01*
X42249Y-13571D02*
X42249Y-13335D01*
X42227Y-13368D01*
X42204Y-13391D01*
X42182Y-13402D01*
X42463Y-13335D02*
X42485Y-13335D01*
X42508Y-13346D01*
X42519Y-13357D01*
X42530Y-13380D01*
X42542Y-13425D01*
X42542Y-13481D01*
X42530Y-13526D01*
X42519Y-13548D01*
X42508Y-13560D01*
X42485Y-13571D01*
X42463Y-13571D01*
X42440Y-13560D01*
X42429Y-13548D01*
X42418Y-13526D01*
X42407Y-13481D01*
X42407Y-13425D01*
X42418Y-13380D01*
X42429Y-13357D01*
X42440Y-13346D01*
X42463Y-13335D01*
X42643Y-13571D02*
X42643Y-13335D01*
X42778Y-13571D02*
X42677Y-13436D01*
X42778Y-13335D02*
X42643Y-13470D01*
X41451Y-13567D02*
X41346Y-13417D01*
X41271Y-13567D02*
X41271Y-13252D01*
X41391Y-13252D01*
X41421Y-13267D01*
X41436Y-13282D01*
X41451Y-13312D01*
X41451Y-13357D01*
X41436Y-13387D01*
X41421Y-13402D01*
X41391Y-13417D01*
X41271Y-13417D01*
X41751Y-13567D02*
X41571Y-13567D01*
X41661Y-13567D02*
X41661Y-13252D01*
X41631Y-13297D01*
X41601Y-13327D01*
X41571Y-13342D01*
X42020Y-13357D02*
X42020Y-13567D01*
X41946Y-13237D02*
X41871Y-13462D01*
X42065Y-13462D01*
X42317Y-11642D02*
X42182Y-11642D01*
X42249Y-11642D02*
X42249Y-11406D01*
X42227Y-11439D01*
X42204Y-11462D01*
X42182Y-11473D01*
X42463Y-11406D02*
X42485Y-11406D01*
X42508Y-11417D01*
X42519Y-11428D01*
X42530Y-11451D01*
X42542Y-11496D01*
X42542Y-11552D01*
X42530Y-11597D01*
X42519Y-11619D01*
X42508Y-11631D01*
X42485Y-11642D01*
X42463Y-11642D01*
X42440Y-11631D01*
X42429Y-11619D01*
X42418Y-11597D01*
X42407Y-11552D01*
X42407Y-11496D01*
X42418Y-11451D01*
X42429Y-11428D01*
X42440Y-11417D01*
X42463Y-11406D01*
X42643Y-11642D02*
X42643Y-11406D01*
X42778Y-11642D02*
X42677Y-11507D01*
X42778Y-11406D02*
X42643Y-11541D01*
G54D19*
X43807Y-11719D02*
X43807Y-11399D01*
X43883Y-11399D01*
X43929Y-11414D01*
X43959Y-11445D01*
X43975Y-11475D01*
X43990Y-11536D01*
X43990Y-11582D01*
X43975Y-11643D01*
X43959Y-11673D01*
X43929Y-11704D01*
X43883Y-11719D01*
X43807Y-11719D01*
X44081Y-11399D02*
X44264Y-11399D01*
X44173Y-11719D02*
X44173Y-11399D01*
X44554Y-11719D02*
X44447Y-11567D01*
X44371Y-11719D02*
X44371Y-11399D01*
X44493Y-11399D01*
X44523Y-11414D01*
X44538Y-11430D01*
X44554Y-11460D01*
X44554Y-11506D01*
X44538Y-11536D01*
X44523Y-11551D01*
X44493Y-11567D01*
X44371Y-11567D01*
G54D10*
X45045Y-13292D02*
X44895Y-13292D01*
X44895Y-12977D01*
X45135Y-13007D02*
X45150Y-12992D01*
X45180Y-12977D01*
X45255Y-12977D01*
X45285Y-12992D01*
X45300Y-13007D01*
X45315Y-13037D01*
X45315Y-13067D01*
X45300Y-13112D01*
X45120Y-13292D01*
X45315Y-13292D01*
X45014Y-13565D02*
X44935Y-13565D01*
X44935Y-13689D02*
X44935Y-13453D01*
X45047Y-13453D01*
X45216Y-13565D02*
X45250Y-13577D01*
X45261Y-13588D01*
X45272Y-13610D01*
X45272Y-13644D01*
X45261Y-13667D01*
X45250Y-13678D01*
X45227Y-13689D01*
X45137Y-13689D01*
X45137Y-13453D01*
X45216Y-13453D01*
X45239Y-13464D01*
X45250Y-13475D01*
X45261Y-13498D01*
X45261Y-13520D01*
X45250Y-13543D01*
X45239Y-13554D01*
X45216Y-13565D01*
X45137Y-13565D01*
X30821Y-781D02*
X30806Y-796D01*
X30761Y-811D01*
X30731Y-811D01*
X30686Y-796D01*
X30656Y-766D01*
X30641Y-736D01*
X30626Y-676D01*
X30626Y-631D01*
X30641Y-571D01*
X30656Y-541D01*
X30686Y-511D01*
X30731Y-496D01*
X30761Y-496D01*
X30806Y-511D01*
X30821Y-526D01*
X31121Y-811D02*
X30941Y-811D01*
X31031Y-811D02*
X31031Y-496D01*
X31001Y-541D01*
X30971Y-571D01*
X30941Y-586D01*
X31301Y-631D02*
X31271Y-616D01*
X31256Y-601D01*
X31241Y-571D01*
X31241Y-556D01*
X31256Y-526D01*
X31271Y-511D01*
X31301Y-496D01*
X31361Y-496D01*
X31391Y-511D01*
X31406Y-526D01*
X31421Y-556D01*
X31421Y-571D01*
X31406Y-601D01*
X31391Y-616D01*
X31361Y-631D01*
X31301Y-631D01*
X31271Y-646D01*
X31256Y-661D01*
X31241Y-691D01*
X31241Y-751D01*
X31256Y-781D01*
X31271Y-796D01*
X31301Y-811D01*
X31361Y-811D01*
X31391Y-796D01*
X31406Y-781D01*
X31421Y-751D01*
X31421Y-691D01*
X31406Y-661D01*
X31391Y-646D01*
X31361Y-631D01*
X30944Y-3453D02*
X30809Y-3453D01*
X30877Y-3453D02*
X30877Y-3217D01*
X30854Y-3250D01*
X30832Y-3273D01*
X30809Y-3284D01*
X31147Y-3295D02*
X31147Y-3453D01*
X31046Y-3295D02*
X31046Y-3419D01*
X31057Y-3442D01*
X31079Y-3453D01*
X31113Y-3453D01*
X31136Y-3442D01*
X31147Y-3430D01*
X33931Y-12553D02*
X33916Y-12568D01*
X33871Y-12583D01*
X33841Y-12583D01*
X33796Y-12568D01*
X33766Y-12538D01*
X33751Y-12508D01*
X33736Y-12448D01*
X33736Y-12403D01*
X33751Y-12343D01*
X33766Y-12313D01*
X33796Y-12283D01*
X33841Y-12268D01*
X33871Y-12268D01*
X33916Y-12283D01*
X33931Y-12298D01*
X34231Y-12583D02*
X34051Y-12583D01*
X34141Y-12583D02*
X34141Y-12268D01*
X34111Y-12313D01*
X34081Y-12343D01*
X34051Y-12358D01*
X34531Y-12583D02*
X34351Y-12583D01*
X34441Y-12583D02*
X34441Y-12268D01*
X34411Y-12313D01*
X34381Y-12343D01*
X34351Y-12358D01*
X35275Y-13020D02*
X35140Y-13020D01*
X35208Y-13020D02*
X35208Y-12784D01*
X35185Y-12817D01*
X35163Y-12840D01*
X35140Y-12851D01*
X35478Y-12862D02*
X35478Y-13020D01*
X35376Y-12862D02*
X35376Y-12986D01*
X35388Y-13008D01*
X35410Y-13020D01*
X35444Y-13020D01*
X35466Y-13008D01*
X35478Y-12997D01*
G54D14*
X26094Y-1261D02*
X26094Y-1490D01*
X26078Y-1536D01*
X26048Y-1566D01*
X26002Y-1581D01*
X25972Y-1581D01*
X26414Y-1581D02*
X26231Y-1581D01*
X26322Y-1581D02*
X26322Y-1261D01*
X26292Y-1307D01*
X26261Y-1337D01*
X26231Y-1353D01*
G54D10*
X38410Y-7397D02*
X38095Y-7397D01*
X38095Y-7322D01*
X38110Y-7277D01*
X38140Y-7247D01*
X38170Y-7232D01*
X38230Y-7217D01*
X38275Y-7217D01*
X38335Y-7232D01*
X38365Y-7247D01*
X38395Y-7277D01*
X38410Y-7322D01*
X38410Y-7397D01*
X38200Y-6947D02*
X38410Y-6947D01*
X38080Y-7022D02*
X38305Y-7097D01*
X38305Y-6902D01*
G54D19*
G54D10*
X15245Y-8597D02*
X15215Y-8582D01*
X15185Y-8552D01*
X15140Y-8507D01*
X15110Y-8492D01*
X15080Y-8492D01*
X15095Y-8567D02*
X15065Y-8552D01*
X15035Y-8522D01*
X15020Y-8462D01*
X15020Y-8357D01*
X15035Y-8297D01*
X15065Y-8267D01*
X15095Y-8252D01*
X15155Y-8252D01*
X15185Y-8267D01*
X15215Y-8297D01*
X15230Y-8357D01*
X15230Y-8462D01*
X15215Y-8522D01*
X15185Y-8552D01*
X15155Y-8567D01*
X15095Y-8567D01*
X15350Y-8282D02*
X15365Y-8267D01*
X15395Y-8252D01*
X15470Y-8252D01*
X15500Y-8267D01*
X15515Y-8282D01*
X15530Y-8312D01*
X15530Y-8342D01*
X15515Y-8387D01*
X15335Y-8567D01*
X15530Y-8567D01*
X47031Y-13853D02*
X46926Y-13703D01*
X46851Y-13853D02*
X46851Y-13538D01*
X46971Y-13538D01*
X47001Y-13553D01*
X47016Y-13568D01*
X47031Y-13598D01*
X47031Y-13643D01*
X47016Y-13673D01*
X47001Y-13688D01*
X46971Y-13703D01*
X46851Y-13703D01*
X47331Y-13853D02*
X47151Y-13853D01*
X47241Y-13853D02*
X47241Y-13538D01*
X47211Y-13583D01*
X47181Y-13613D01*
X47151Y-13628D01*
X47451Y-13568D02*
X47466Y-13553D01*
X47496Y-13538D01*
X47571Y-13538D01*
X47601Y-13553D01*
X47616Y-13568D01*
X47631Y-13598D01*
X47631Y-13628D01*
X47616Y-13673D01*
X47436Y-13853D01*
X47631Y-13853D01*
X47858Y-13856D02*
X47723Y-13856D01*
X47791Y-13856D02*
X47791Y-13620D01*
X47768Y-13654D01*
X47746Y-13676D01*
X47723Y-13688D01*
X48004Y-13620D02*
X48027Y-13620D01*
X48049Y-13631D01*
X48061Y-13643D01*
X48072Y-13665D01*
X48083Y-13710D01*
X48083Y-13766D01*
X48072Y-13811D01*
X48061Y-13834D01*
X48049Y-13845D01*
X48027Y-13856D01*
X48004Y-13856D01*
X47982Y-13845D01*
X47971Y-13834D01*
X47959Y-13811D01*
X47948Y-13766D01*
X47948Y-13710D01*
X47959Y-13665D01*
X47971Y-13643D01*
X47982Y-13631D01*
X48004Y-13620D01*
X48184Y-13856D02*
X48184Y-13620D01*
X48319Y-13856D02*
X48218Y-13721D01*
X48319Y-13620D02*
X48184Y-13755D01*
X16451Y-6402D02*
X16346Y-6252D01*
X16271Y-6402D02*
X16271Y-6087D01*
X16391Y-6087D01*
X16421Y-6102D01*
X16436Y-6117D01*
X16451Y-6147D01*
X16451Y-6192D01*
X16436Y-6222D01*
X16421Y-6237D01*
X16391Y-6252D01*
X16271Y-6252D01*
X16751Y-6402D02*
X16571Y-6402D01*
X16661Y-6402D02*
X16661Y-6087D01*
X16631Y-6132D01*
X16601Y-6162D01*
X16571Y-6177D01*
X17035Y-6087D02*
X16886Y-6087D01*
X16871Y-6237D01*
X16886Y-6222D01*
X16916Y-6207D01*
X16991Y-6207D01*
X17020Y-6222D01*
X17035Y-6237D01*
X17050Y-6267D01*
X17050Y-6342D01*
X17035Y-6372D01*
X17020Y-6387D01*
X16991Y-6402D01*
X16916Y-6402D01*
X16886Y-6387D01*
X16871Y-6372D01*
X16490Y-8098D02*
X16355Y-8098D01*
X16422Y-8098D02*
X16422Y-7862D01*
X16400Y-7896D01*
X16377Y-7919D01*
X16355Y-7930D01*
X16636Y-7862D02*
X16659Y-7862D01*
X16681Y-7874D01*
X16692Y-7885D01*
X16704Y-7907D01*
X16715Y-7952D01*
X16715Y-8008D01*
X16704Y-8053D01*
X16692Y-8076D01*
X16681Y-8087D01*
X16659Y-8098D01*
X16636Y-8098D01*
X16614Y-8087D01*
X16602Y-8076D01*
X16591Y-8053D01*
X16580Y-8008D01*
X16580Y-7952D01*
X16591Y-7907D01*
X16602Y-7885D01*
X16614Y-7874D01*
X16636Y-7862D01*
X16816Y-8098D02*
X16816Y-7862D01*
X16951Y-8098D02*
X16850Y-7964D01*
X16951Y-7862D02*
X16816Y-7997D01*
X1548Y-12268D02*
X1548Y-12493D01*
X1533Y-12538D01*
X1503Y-12568D01*
X1458Y-12583D01*
X1428Y-12583D01*
X1698Y-12583D02*
X1698Y-12268D01*
X1818Y-12268D01*
X1848Y-12283D01*
X1863Y-12298D01*
X1878Y-12328D01*
X1878Y-12373D01*
X1863Y-12403D01*
X1848Y-12418D01*
X1818Y-12433D01*
X1698Y-12433D01*
X1998Y-12298D02*
X2013Y-12283D01*
X2043Y-12268D01*
X2118Y-12268D01*
X2148Y-12283D01*
X2163Y-12298D01*
X2178Y-12328D01*
X2178Y-12358D01*
X2163Y-12403D01*
X1983Y-12583D01*
X2178Y-12583D01*
X34973Y-9945D02*
X34973Y-10170D01*
X34958Y-10215D01*
X34928Y-10245D01*
X34883Y-10260D01*
X34853Y-10260D01*
X35123Y-10260D02*
X35123Y-9945D01*
X35243Y-9945D01*
X35273Y-9960D01*
X35288Y-9975D01*
X35303Y-10005D01*
X35303Y-10050D01*
X35288Y-10080D01*
X35273Y-10095D01*
X35243Y-10110D01*
X35123Y-10110D01*
X35408Y-9945D02*
X35603Y-9945D01*
X35498Y-10065D01*
X35543Y-10065D01*
X35573Y-10080D01*
X35588Y-10095D01*
X35603Y-10125D01*
X35603Y-10200D01*
X35588Y-10230D01*
X35573Y-10245D01*
X35543Y-10260D01*
X35453Y-10260D01*
X35423Y-10245D01*
X35408Y-10230D01*
X36972Y-2347D02*
X36972Y-2032D01*
X37047Y-2032D01*
X37092Y-2047D01*
X37122Y-2077D01*
X37137Y-2107D01*
X37152Y-2167D01*
X37152Y-2212D01*
X37137Y-2272D01*
X37122Y-2302D01*
X37092Y-2332D01*
X37047Y-2347D01*
X36972Y-2347D01*
X37437Y-2032D02*
X37287Y-2032D01*
X37272Y-2182D01*
X37287Y-2167D01*
X37317Y-2152D01*
X37392Y-2152D01*
X37422Y-2167D01*
X37437Y-2182D01*
X37452Y-2212D01*
X37452Y-2287D01*
X37437Y-2317D01*
X37422Y-2332D01*
X37392Y-2347D01*
X37317Y-2347D01*
X37287Y-2332D01*
X37272Y-2317D01*
X37052Y-2784D02*
X36940Y-2784D01*
X36940Y-2547D01*
X37131Y-2660D02*
X37210Y-2660D01*
X37244Y-2784D02*
X37131Y-2784D01*
X37131Y-2547D01*
X37244Y-2547D01*
X37345Y-2784D02*
X37345Y-2547D01*
X37401Y-2547D01*
X37435Y-2559D01*
X37457Y-2581D01*
X37469Y-2604D01*
X37480Y-2649D01*
X37480Y-2682D01*
X37469Y-2727D01*
X37457Y-2750D01*
X37435Y-2772D01*
X37401Y-2784D01*
X37345Y-2784D01*
X37917Y-811D02*
X37917Y-496D01*
X37992Y-496D01*
X38037Y-511D01*
X38067Y-541D01*
X38082Y-571D01*
X38097Y-631D01*
X38097Y-676D01*
X38082Y-736D01*
X38067Y-766D01*
X38037Y-796D01*
X37992Y-811D01*
X37917Y-811D01*
X38367Y-496D02*
X38307Y-496D01*
X38277Y-511D01*
X38262Y-526D01*
X38232Y-571D01*
X38217Y-631D01*
X38217Y-751D01*
X38232Y-781D01*
X38247Y-796D01*
X38277Y-811D01*
X38337Y-811D01*
X38367Y-796D01*
X38382Y-781D01*
X38397Y-751D01*
X38397Y-676D01*
X38382Y-646D01*
X38367Y-631D01*
X38337Y-616D01*
X38277Y-616D01*
X38247Y-631D01*
X38232Y-646D01*
X38217Y-676D01*
X37997Y-1169D02*
X37885Y-1169D01*
X37885Y-933D01*
X38076Y-1046D02*
X38155Y-1046D01*
X38188Y-1169D02*
X38076Y-1169D01*
X38076Y-933D01*
X38188Y-933D01*
X38290Y-1169D02*
X38290Y-933D01*
X38346Y-933D01*
X38380Y-944D01*
X38402Y-967D01*
X38413Y-989D01*
X38425Y-1034D01*
X38425Y-1068D01*
X38413Y-1113D01*
X38402Y-1136D01*
X38380Y-1158D01*
X38346Y-1169D01*
X38290Y-1169D01*
X37917Y-2347D02*
X37917Y-2032D01*
X37992Y-2032D01*
X38037Y-2047D01*
X38067Y-2077D01*
X38082Y-2107D01*
X38097Y-2167D01*
X38097Y-2212D01*
X38082Y-2272D01*
X38067Y-2302D01*
X38037Y-2332D01*
X37992Y-2347D01*
X37917Y-2347D01*
X38202Y-2032D02*
X38412Y-2032D01*
X38277Y-2347D01*
X37997Y-2784D02*
X37885Y-2784D01*
X37885Y-2547D01*
X38076Y-2660D02*
X38155Y-2660D01*
X38188Y-2784D02*
X38076Y-2784D01*
X38076Y-2547D01*
X38188Y-2547D01*
X38290Y-2784D02*
X38290Y-2547D01*
X38346Y-2547D01*
X38380Y-2559D01*
X38402Y-2581D01*
X38413Y-2604D01*
X38425Y-2649D01*
X38425Y-2682D01*
X38413Y-2727D01*
X38402Y-2750D01*
X38380Y-2772D01*
X38346Y-2784D01*
X38290Y-2784D01*
X13241Y-7465D02*
X13241Y-7690D01*
X13226Y-7735D01*
X13196Y-7765D01*
X13151Y-7780D01*
X13121Y-7780D01*
X13391Y-7780D02*
X13391Y-7465D01*
X13511Y-7465D01*
X13541Y-7480D01*
X13556Y-7495D01*
X13571Y-7525D01*
X13571Y-7570D01*
X13556Y-7600D01*
X13541Y-7615D01*
X13511Y-7630D01*
X13391Y-7630D01*
X13841Y-7570D02*
X13841Y-7780D01*
X13766Y-7450D02*
X13691Y-7675D01*
X13886Y-7675D01*
X41008Y-1934D02*
X40858Y-2039D01*
X41008Y-2114D02*
X40693Y-2114D01*
X40693Y-1994D01*
X40708Y-1964D01*
X40723Y-1949D01*
X40753Y-1934D01*
X40798Y-1934D01*
X40828Y-1949D01*
X40843Y-1964D01*
X40858Y-1994D01*
X40858Y-2114D01*
X41008Y-1634D02*
X41008Y-1814D01*
X41008Y-1724D02*
X40693Y-1724D01*
X40738Y-1754D01*
X40768Y-1784D01*
X40783Y-1814D01*
X40693Y-1364D02*
X40693Y-1424D01*
X40708Y-1454D01*
X40723Y-1469D01*
X40768Y-1499D01*
X40828Y-1514D01*
X40948Y-1514D01*
X40978Y-1499D01*
X40993Y-1484D01*
X41008Y-1454D01*
X41008Y-1394D01*
X40993Y-1364D01*
X40978Y-1349D01*
X40948Y-1334D01*
X40873Y-1334D01*
X40843Y-1349D01*
X40828Y-1364D01*
X40813Y-1394D01*
X40813Y-1454D01*
X40828Y-1484D01*
X40843Y-1499D01*
X40873Y-1514D01*
X42110Y-1799D02*
X42110Y-1979D01*
X42110Y-1889D02*
X41796Y-1889D01*
X41841Y-1919D01*
X41871Y-1949D01*
X41886Y-1979D01*
X42110Y-1664D02*
X41796Y-1664D01*
X42110Y-1484D02*
X41931Y-1619D01*
X41796Y-1484D02*
X41976Y-1664D01*
X37050Y-811D02*
X37050Y-496D01*
X37125Y-496D01*
X37170Y-511D01*
X37200Y-541D01*
X37215Y-571D01*
X37230Y-631D01*
X37230Y-676D01*
X37215Y-736D01*
X37200Y-766D01*
X37170Y-796D01*
X37125Y-811D01*
X37050Y-811D01*
X37335Y-496D02*
X37530Y-496D01*
X37425Y-616D01*
X37470Y-616D01*
X37500Y-631D01*
X37515Y-646D01*
X37530Y-676D01*
X37530Y-751D01*
X37515Y-781D01*
X37500Y-796D01*
X37470Y-811D01*
X37380Y-811D01*
X37350Y-796D01*
X37335Y-781D01*
X37170Y-1169D02*
X37058Y-1169D01*
X37058Y-933D01*
X37249Y-1046D02*
X37328Y-1046D01*
X37362Y-1169D02*
X37249Y-1169D01*
X37249Y-933D01*
X37362Y-933D01*
X37463Y-1169D02*
X37463Y-933D01*
X37519Y-933D01*
X37553Y-944D01*
X37575Y-967D01*
X37587Y-989D01*
X37598Y-1034D01*
X37598Y-1068D01*
X37587Y-1113D01*
X37575Y-1136D01*
X37553Y-1158D01*
X37519Y-1169D01*
X37463Y-1169D01*
X9649Y-890D02*
X9649Y-575D01*
X9724Y-575D01*
X9769Y-590D01*
X9799Y-620D01*
X9814Y-650D01*
X9829Y-710D01*
X9829Y-755D01*
X9814Y-815D01*
X9799Y-845D01*
X9769Y-875D01*
X9724Y-890D01*
X9649Y-890D01*
X10129Y-890D02*
X9949Y-890D01*
X10039Y-890D02*
X10039Y-575D01*
X10009Y-620D01*
X9979Y-650D01*
X9949Y-665D01*
X9730Y-1366D02*
X9617Y-1366D01*
X9617Y-1130D01*
X9808Y-1242D02*
X9887Y-1242D01*
X9921Y-1366D02*
X9808Y-1366D01*
X9808Y-1130D01*
X9921Y-1130D01*
X10022Y-1366D02*
X10022Y-1130D01*
X10078Y-1130D01*
X10112Y-1141D01*
X10134Y-1164D01*
X10146Y-1186D01*
X10157Y-1231D01*
X10157Y-1265D01*
X10146Y-1310D01*
X10134Y-1332D01*
X10112Y-1355D01*
X10078Y-1366D01*
X10022Y-1366D01*
X30506Y-11166D02*
X30401Y-11016D01*
X30326Y-11166D02*
X30326Y-10851D01*
X30446Y-10851D01*
X30476Y-10866D01*
X30491Y-10881D01*
X30506Y-10911D01*
X30506Y-10956D01*
X30491Y-10986D01*
X30476Y-11001D01*
X30446Y-11016D01*
X30326Y-11016D01*
X30806Y-11166D02*
X30626Y-11166D01*
X30716Y-11166D02*
X30716Y-10851D01*
X30686Y-10896D01*
X30656Y-10926D01*
X30626Y-10941D01*
X30911Y-10851D02*
X31121Y-10851D01*
X30986Y-11166D01*
X31923Y-11166D02*
X31818Y-11016D01*
X31743Y-11166D02*
X31743Y-10851D01*
X31863Y-10851D01*
X31893Y-10866D01*
X31908Y-10881D01*
X31923Y-10911D01*
X31923Y-10956D01*
X31908Y-10986D01*
X31893Y-11001D01*
X31863Y-11016D01*
X31743Y-11016D01*
X32223Y-11166D02*
X32043Y-11166D01*
X32133Y-11166D02*
X32133Y-10851D01*
X32103Y-10896D01*
X32073Y-10926D01*
X32043Y-10941D01*
X32403Y-10986D02*
X32373Y-10971D01*
X32358Y-10956D01*
X32343Y-10926D01*
X32343Y-10911D01*
X32358Y-10881D01*
X32373Y-10866D01*
X32403Y-10851D01*
X32463Y-10851D01*
X32493Y-10866D01*
X32508Y-10881D01*
X32523Y-10911D01*
X32523Y-10926D01*
X32508Y-10956D01*
X32493Y-10971D01*
X32463Y-10986D01*
X32403Y-10986D01*
X32373Y-11001D01*
X32358Y-11016D01*
X32343Y-11046D01*
X32343Y-11106D01*
X32358Y-11136D01*
X32373Y-11151D01*
X32403Y-11166D01*
X32463Y-11166D01*
X32493Y-11151D01*
X32508Y-11136D01*
X32523Y-11106D01*
X32523Y-11046D01*
X32508Y-11016D01*
X32493Y-11001D01*
X32463Y-10986D01*
X48083Y-3513D02*
X48128Y-3528D01*
X48203Y-3528D01*
X48233Y-3513D01*
X48248Y-3498D01*
X48263Y-3468D01*
X48263Y-3438D01*
X48248Y-3408D01*
X48233Y-3393D01*
X48203Y-3378D01*
X48143Y-3363D01*
X48113Y-3348D01*
X48098Y-3333D01*
X48083Y-3303D01*
X48083Y-3273D01*
X48098Y-3243D01*
X48113Y-3228D01*
X48143Y-3213D01*
X48218Y-3213D01*
X48263Y-3228D01*
X48368Y-3213D02*
X48443Y-3528D01*
X48503Y-3303D01*
X48563Y-3528D01*
X48638Y-3213D01*
X48743Y-3243D02*
X48758Y-3228D01*
X48788Y-3213D01*
X48863Y-3213D01*
X48893Y-3228D01*
X48908Y-3243D01*
X48923Y-3273D01*
X48923Y-3303D01*
X48908Y-3348D01*
X48728Y-3528D01*
X48923Y-3528D01*
M02*
